<svg viewBox="0 0 70 81" fill="none" xmlns="http://www.w3.org/2000/svg">
  <path
    d="M46.4985 9.6388L56.8408 15.6187C62.3904 21.6822 65.1021 30.4847 64.1351 42.988C59.952 48.9888 55.958 53.4005 52.006 57.0596C51.9429 57.1014 51.9219 57.1014 51.8799 57.1014C51.8589 57.1014 51.8589 57.1014 51.8378 57.1014L46.8769 54.2369C44.6486 56.1187 42.4204 57.7077 40.1922 58.9831C36.2402 61.2413 32.2883 62.5585 28.4835 62.8512L30.964 64.273C31.006 64.2939 31.027 64.3776 30.985 64.4612C30.2703 66.4684 29.4504 68.4757 28.5255 70.462C28.5045 70.5247 28.4414 70.5874 28.3994 70.6083C26.3183 71.0683 24.2372 71.3401 22.1351 71.3401C20.2012 71.3401 18.2462 71.1101 16.2703 70.5874L5.92792 64.6076C5.73873 63.0394 5.65465 61.534 5.65465 59.9658V59.6522C5.65465 50.9542 7.69369 40.9808 12.9279 28.9793L23.2703 34.9591C22.9339 35.7118 22.6186 36.4437 22.3243 37.1755C20.958 40.479 19.8438 43.6362 18.961 46.6471C18.6667 47.6507 18.3934 48.6334 18.1411 49.6161C18.3934 48.6334 18.6667 47.6507 18.961 46.6471C19.8438 43.6362 20.958 40.4999 22.3243 37.1755C22.6186 36.4437 22.9339 35.6909 23.2703 34.9591L12.9279 28.9793C16.0601 25.4875 19.3604 22.414 22.8288 19.7377C22.8709 19.7168 22.8919 19.6958 22.9339 19.6958C22.955 19.6958 22.955 19.6958 22.976 19.6958L25.3513 21.0758C26.8018 20.0304 28.2733 19.0895 29.7447 18.2532C31.5946 17.1868 33.4444 16.2877 35.2943 15.535C35.6306 14.4687 36.0931 13.0678 36.5135 11.9597C36.5345 11.8969 36.5976 11.8342 36.6396 11.7924C40.1081 10.4961 43.4294 9.80607 46.4985 9.6388ZM51.2282 34.541C51.1862 34.5201 51.1652 34.4991 51.1231 34.4782C51.1652 34.4782 51.1862 34.5201 51.2282 34.541ZM51.4174 34.6873C51.3754 34.6455 51.3123 34.6037 51.2703 34.5619C51.3333 34.6037 51.3754 34.6455 51.4174 34.6873ZM51.5646 34.8128C51.5225 34.771 51.4805 34.7291 51.4384 34.7082C51.4805 34.7291 51.5225 34.771 51.5646 34.8128ZM51.7117 34.9591C51.6907 34.9173 51.6486 34.8964 51.6276 34.8755C51.6486 34.8964 51.6697 34.9173 51.7117 34.9591ZM51.8168 35.1055C51.7958 35.0637 51.7748 35.0428 51.7327 35.001C51.7748 35.0428 51.7958 35.0846 51.8168 35.1055ZM51.9429 35.2728C51.9219 35.2309 51.9009 35.21 51.8799 35.1682C51.9009 35.21 51.9219 35.2519 51.9429 35.2728ZM52.048 35.4609C52.027 35.4191 52.006 35.3982 51.985 35.3564C52.006 35.3982 52.027 35.4191 52.048 35.4609ZM52.1531 35.6491C52.1321 35.6073 52.1111 35.5655 52.0901 35.5446C52.1111 35.5864 52.1321 35.6282 52.1531 35.6491ZM52.2162 35.8164C52.2162 35.8373 52.2372 35.8582 52.2372 35.8791C52.2162 35.8373 52.2162 35.8373 52.2162 35.8164C52.2162 35.7955 52.1952 35.7746 52.1952 35.7537C52.1952 35.7746 52.1952 35.7955 52.2162 35.8164ZM52.3003 36.0882C52.2793 36.0464 52.2793 36.0046 52.2583 35.9628C52.2793 36.0046 52.3003 36.0464 52.3003 36.0882ZM52.3634 36.3182C52.3423 36.2764 52.3423 36.2346 52.3213 36.1927C52.3423 36.2346 52.3634 36.2764 52.3634 36.3182ZM52.4264 36.5691C52.4264 36.5273 52.4054 36.4855 52.4054 36.4227C52.4054 36.4646 52.4264 36.5273 52.4264 36.5691ZM52.4685 36.82C52.4685 36.7782 52.4474 36.7155 52.4474 36.6736C52.4685 36.7155 52.4685 36.7782 52.4685 36.82ZM52.4895 36.9455C52.4895 36.9873 52.5105 37.05 52.5105 37.1127C52.5105 37.05 52.4895 36.9873 52.4895 36.9455ZM52.5315 37.4054C52.5315 37.3427 52.5315 37.28 52.5105 37.2173C52.5315 37.2591 52.5315 37.3427 52.5315 37.4054ZM52.5315 37.7191C52.5315 37.74 52.5315 37.7609 52.5315 37.7818C52.5315 37.7609 52.5315 37.74 52.5315 37.7191C52.5315 37.6354 52.5315 37.5727 52.5315 37.4891C52.5315 37.5727 52.5315 37.6354 52.5315 37.7191ZM35.1682 43.7617C35.1261 43.7408 35.1051 43.7199 35.0631 43.6989C35.1051 43.6989 35.1261 43.7408 35.1682 43.7617ZM35.3784 43.908C35.3363 43.8662 35.2733 43.8244 35.2312 43.7826C35.2733 43.8244 35.3153 43.8662 35.3784 43.908ZM35.5045 44.0335C35.4625 43.9917 35.4204 43.9498 35.3784 43.9289C35.4204 43.9498 35.4625 43.9917 35.5045 44.0335ZM35.6516 44.1798C35.6306 44.138 35.5886 44.1171 35.5676 44.0962C35.5886 44.1171 35.6096 44.138 35.6516 44.1798ZM35.7568 44.3262C35.7357 44.2844 35.7147 44.2635 35.6727 44.2426C35.7147 44.2635 35.7357 44.3053 35.7568 44.3262ZM35.8829 44.4935C35.8619 44.4517 35.8408 44.4307 35.8198 44.3889C35.8408 44.4307 35.8619 44.4726 35.8829 44.4935ZM35.988 44.6816C35.967 44.6398 35.9459 44.6189 35.9249 44.5771C35.9459 44.6189 35.967 44.6398 35.988 44.6816ZM36.0931 44.8698C36.0721 44.828 36.051 44.7862 36.03 44.7653C36.051 44.8071 36.0721 44.8489 36.0931 44.8698ZM36.1772 45.0789C36.1562 45.0371 36.1561 44.9953 36.1351 44.9535C36.1351 45.0162 36.1562 45.058 36.1772 45.0789ZM36.2402 45.2671C36.2402 45.288 36.2402 45.288 36.2613 45.3089C36.2402 45.288 36.2402 45.288 36.2402 45.2671C36.2402 45.2462 36.2192 45.2044 36.2192 45.1835C36.2192 45.2044 36.2192 45.2462 36.2402 45.2671ZM36.3243 45.5389C36.3033 45.4971 36.3033 45.4553 36.2823 45.4134C36.2823 45.4553 36.3033 45.4971 36.3243 45.5389ZM36.3664 45.7898C36.3664 45.748 36.3453 45.7062 36.3453 45.6434C36.3453 45.6853 36.3664 45.748 36.3664 45.7898ZM36.4084 46.0407C36.4084 45.9989 36.3874 45.9362 36.3874 45.8943C36.4084 45.9362 36.4084 45.9989 36.4084 46.0407ZM47.9279 45.9989C47.9489 45.978 47.97 45.978 47.991 45.9571C47.97 45.978 47.9489 45.978 47.9279 45.9989ZM36.4504 46.3125C36.4504 46.2498 36.4504 46.208 36.4294 46.1452C36.4294 46.208 36.4504 46.2707 36.4504 46.3125ZM36.4715 46.6261C36.4715 46.5634 36.4715 46.5007 36.4504 46.438C36.4715 46.5007 36.4715 46.5634 36.4715 46.6261ZM36.4715 46.8561C36.4715 46.8771 36.4715 46.9189 36.4715 46.9398C36.4715 46.9607 36.4715 46.9816 36.4715 47.0025C36.4715 46.9816 36.4715 46.9607 36.4715 46.9398C36.4715 46.9189 36.4715 46.8771 36.4715 46.8561C36.4715 46.8143 36.4715 46.7516 36.4715 46.7098C36.4715 46.7516 36.4715 46.8143 36.4715 46.8561ZM53.2673 49.1561C53.2673 49.1561 53.2673 49.1352 53.2673 49.1561C53.2673 49.1352 53.2673 49.1561 53.2673 49.1561ZM53.2883 49.2397C53.2883 49.2188 53.2883 49.2188 53.2883 49.2188C53.2883 49.2188 53.2883 49.2188 53.2883 49.2397ZM53.2673 49.3234C53.2673 49.3025 53.2673 49.3025 53.2673 49.3025C53.2673 49.3025 53.2673 49.3025 53.2673 49.3234ZM31.9309 55.1778C31.9099 55.1987 31.8889 55.1987 31.8679 55.2196C31.8889 55.1987 31.9099 55.1987 31.9309 55.1778ZM31.6366 55.3241C31.6577 55.3032 31.6997 55.3032 31.7207 55.2823C31.6997 55.3032 31.6787 55.3032 31.6366 55.3241ZM31.4264 55.4078C31.4474 55.3869 31.4895 55.3869 31.5105 55.366C31.4895 55.3869 31.4474 55.3869 31.4264 55.4078ZM31.3003 55.4496C31.2793 55.4496 31.2372 55.4705 31.2162 55.4705C31.2583 55.4705 31.2793 55.4496 31.3003 55.4496ZM29.5976 55.4705C29.5766 55.4705 29.5556 55.4496 29.5556 55.4496C29.5766 55.4496 29.5766 55.4496 29.5976 55.4705ZM29.7868 55.5123C29.7658 55.5123 29.7447 55.4914 29.7237 55.4914C29.7447 55.5123 29.7658 55.5123 29.7868 55.5123ZM31.1111 55.4914C31.0901 55.4914 31.048 55.5123 31.027 55.5123C31.048 55.5123 31.0691 55.5123 31.1111 55.4914ZM29.9549 55.5541C29.9339 55.5541 29.9129 55.5541 29.8919 55.5332C29.9129 55.5541 29.9339 55.5541 29.9549 55.5541ZM30.8168 55.5541C30.8378 55.5541 30.8799 55.5541 30.9009 55.5332C30.8799 55.5541 30.8378 55.5541 30.8168 55.5541ZM30.1441 55.575C30.1231 55.575 30.1021 55.575 30.0601 55.575C30.0811 55.575 30.1231 55.575 30.1441 55.575ZM30.7117 55.575C30.6907 55.575 30.6486 55.575 30.6276 55.575C30.6486 55.575 30.6697 55.575 30.7117 55.575ZM30.3333 55.5959C30.3123 55.5959 30.2703 55.5959 30.2492 55.5959C30.2703 55.5959 30.2913 55.5959 30.3333 55.5959ZM30.5225 55.5959C30.5015 55.5959 30.4595 55.5959 30.4384 55.5959C30.4595 55.5959 30.4805 55.5959 30.5225 55.5959ZM46.4985 8.677C46.4775 8.677 46.4565 8.677 46.4565 8.677C43.2192 8.84427 39.7928 9.59698 36.2823 10.9142C36.2402 10.9351 36.1772 10.956 36.1351 10.977C35.8829 11.1233 35.6937 11.3533 35.5886 11.646C35.2312 12.566 34.8318 13.7578 34.4955 14.845C32.7507 15.5768 30.985 16.455 29.2613 17.4377C27.958 18.1904 26.6126 19.0268 25.3093 19.9467L23.4805 18.8804C23.3123 18.7968 23.1441 18.734 22.9549 18.734C22.7447 18.734 22.5345 18.7968 22.3453 18.9222C22.3243 18.9431 22.2823 18.964 22.2613 18.985C18.7928 21.6613 15.4294 24.7976 12.2342 28.352C12.1712 28.4147 12.1291 28.4984 12.0871 28.582C7.08408 39.9354 4.68768 50.097 4.68768 59.6731V59.9868C4.68768 61.7431 4.79279 63.2485 4.96096 64.733C5.003 65.0257 5.17117 65.2976 5.44444 65.4648L15.7868 71.4447C15.8709 71.4865 15.9339 71.5283 16.018 71.5492C17.994 72.0719 20.054 72.3438 22.1351 72.3438C24.1952 72.3438 26.3183 72.0928 28.6096 71.591C28.7147 71.5701 28.7988 71.5283 28.8829 71.4865C29.1141 71.361 29.2823 71.152 29.4084 70.922C30.3543 68.8938 31.1952 66.8239 31.9099 64.8167C32.0991 64.273 31.9099 63.7294 31.4474 63.4785L31.4264 63.4576C34.4745 62.8512 37.5646 61.6385 40.6967 59.8613C42.7778 58.6695 44.9009 57.185 47.003 55.4496L51.3754 57.9795C51.5435 58.0632 51.7117 58.1259 51.9009 58.1259C52.1321 58.1259 52.3423 58.0632 52.5525 57.9168C52.5946 57.8959 52.6366 57.8541 52.6787 57.8123C57.2192 53.5887 61.1081 49.0725 64.9339 43.5735C65.039 43.4271 65.1021 43.2599 65.1021 43.0926C65.5856 36.9036 65.1652 31.3629 63.8619 26.6584C62.6006 22.1212 60.4775 18.1904 57.5555 14.9914C57.4925 14.9078 57.4084 14.845 57.3243 14.8032L46.982 8.82336C46.8559 8.71882 46.6877 8.677 46.4985 8.677Z"
    fill="black" />
  <path
    d="M53.2463 49.4069C53.3304 49.3023 53.3514 49.156 53.2673 49.1141L42.9249 43.1343C42.988 43.1761 42.988 43.3225 42.9039 43.427C41.7057 44.9324 40.4445 46.3124 39.1412 47.6505C39.0571 47.7342 39.015 47.8805 39.0571 47.9433C39.7928 49.1351 40.6126 50.1805 41.5376 51.1214C41.5376 51.1214 41.5376 51.1214 41.5586 51.1423L51.9009 57.1222C51.9009 57.1222 51.9009 57.1222 51.8799 57.1013C50.955 56.1813 50.1352 55.1149 49.3994 53.9231C49.3574 53.8604 49.3994 53.7141 49.4835 53.6304C50.7868 52.3132 52.0481 50.9123 53.2463 49.4069Z"
    fill="#4452B7" />
  <path
    d="M45.3424 46.0824L35.0001 40.1025C35.7778 40.5416 36.7868 40.4998 37.901 39.8725C40.3394 38.4716 42.2313 34.8753 42.2313 31.8018C42.2523 30.15 41.7058 29 40.8019 28.4773L51.1442 34.4572C52.0271 34.9799 52.5947 36.1299 52.5736 37.7816C52.5736 40.8552 50.6817 44.4515 48.2433 45.8524C47.1292 46.4796 46.1202 46.5214 45.3424 46.0824Z"
    fill="#4452B7" />
  <path
    d="M27.1382 64.3774L16.7958 58.3975C16.7958 58.3975 16.8169 58.3975 16.8379 58.3975C18.0361 58.5021 19.2973 58.4811 20.6217 58.293C20.6427 58.293 20.6637 58.293 20.6847 58.293L31.0271 64.2728C31.0061 64.2728 30.985 64.2519 30.964 64.2728C29.6397 64.461 28.3994 64.4819 27.1802 64.3774C27.1592 64.3774 27.1382 64.3774 27.1382 64.3774Z"
    fill="#4452B7" />
  <path
    d="M29.2823 55.3031L18.94 49.3232C19.7178 49.7623 20.7268 49.7205 21.8409 49.0932C24.2583 47.7132 26.1712 44.096 26.1712 41.0225C26.1923 39.3707 25.6247 38.2207 24.7418 37.698L35.0841 43.6779C35.967 44.2006 36.5346 45.3506 36.5136 47.0023C36.5136 50.0759 34.6007 53.6722 32.1832 55.0731C31.0691 55.7003 30.0601 55.7421 29.2823 55.3031Z"
    fill="#4452B7" />
  <path
    d="M47.0031 17.793L36.6607 11.8132C40.1502 10.4959 43.4505 9.78503 46.5406 9.63867L56.8829 15.6185C53.7928 15.7649 50.4715 16.4758 47.0031 17.793Z"
    fill="#889CFF" />
  <path
    d="M45.4896 21.4311L35.1472 15.4721C35.4836 14.4058 35.946 13.0049 36.3664 11.8968C36.3875 11.834 36.4505 11.7713 36.4926 11.7295L46.8349 17.7094C46.7718 17.7303 46.7298 17.793 46.7088 17.8766C46.2884 18.9639 45.8049 20.3648 45.4896 21.4311Z"
    fill="#4452B7" />
  <path
    d="M34.6006 27.871L24.2583 21.8911C26.0661 20.5321 27.916 19.3194 29.7448 18.253C31.5736 17.1867 33.4445 16.2876 35.2943 15.5349L45.6367 21.5148C43.7868 22.2675 41.916 23.1666 40.0871 24.2329C38.2583 25.2992 36.4295 26.5119 34.6006 27.871Z"
    fill="#7081F9" />
  <path
    d="M15.7868 65.632C15.7868 56.934 17.91 46.8561 23.1442 34.8545L12.7388 28.8538C7.50455 40.8762 5.46552 50.9542 5.46552 59.6731V59.9867C5.46552 61.5339 5.5496 63.0603 5.73879 64.6284L16.0811 70.6083C15.8919 69.0401 15.8079 67.5347 15.8079 65.9666L15.7868 65.632Z"
    fill="#4452B7" />
  <path
    d="M22.997 19.7166C22.976 19.6957 22.913 19.6957 22.8709 19.7375C19.4235 22.3929 16.0391 25.3619 12.8859 28.8537L23.3124 34.9381C26.4445 31.4464 29.7448 28.3728 33.2133 25.6965C33.2763 25.6547 33.3184 25.6547 33.3394 25.6756L22.997 19.7166Z"
    fill="#889CFF" />
  <path
    d="M16.3124 70.5873C16.1232 69.0192 16.0391 67.5138 16.0391 65.9456V65.632C16.0391 56.934 18.0782 46.9606 23.3124 34.959C26.4445 31.4673 29.7448 28.3937 33.2133 25.7174C33.2974 25.6756 33.3394 25.6756 33.3815 25.7174C33.8019 26.3447 34.3064 27.1601 34.6427 27.871C36.4505 26.512 38.3004 25.2993 40.1292 24.2329C41.958 23.1666 43.8289 22.2675 45.6788 21.5148C46.0151 20.4485 46.4776 19.0476 46.898 17.9394C46.919 17.8767 46.9821 17.814 47.0241 17.7722C50.5136 16.4549 53.8139 15.744 56.904 15.5977C62.4535 21.6612 65.1652 30.4637 64.1983 42.967C60.0151 48.9678 56.0211 53.3795 52.0691 57.0385C51.9851 57.1013 51.922 57.1013 51.901 57.0804C50.9761 56.1604 50.1562 55.094 49.4205 53.9022C49.3785 53.8395 49.4205 53.6932 49.5046 53.6095C50.8289 52.2923 52.0691 50.8914 53.2673 49.386C53.3724 49.2605 53.3724 49.1142 53.2884 49.0933C53.0361 49.0305 52.7839 48.9469 52.5316 48.8424C48.4745 53.2123 44.3755 56.5995 40.2764 58.9621C36.1773 61.3248 32.0571 62.663 28.0842 62.8511C27.6848 63.332 27.4325 63.7084 27.1803 64.0638C27.0962 64.1893 27.0962 64.3357 27.2013 64.3566C28.3995 64.4611 29.6607 64.4402 30.9851 64.252C31.0691 64.2311 31.1112 64.3357 31.0691 64.4402C30.3544 66.4474 29.5346 68.4547 28.6097 70.441C28.5887 70.5037 28.5256 70.5664 28.4836 70.5873C24.4686 71.4864 20.4535 71.6955 16.3124 70.5873ZM48.2013 34.7081C45.7839 36.0881 43.8709 39.7053 43.8709 42.7789C43.8709 45.8524 45.8469 47.2115 48.2223 45.8524C50.6607 44.4516 52.5526 40.8553 52.5526 37.7817C52.5947 34.7081 50.6397 33.3073 48.2013 34.7081ZM32.1622 43.9288C29.7448 45.3088 27.8319 48.926 27.8319 51.9996C27.8319 55.0731 29.8079 56.4322 32.1833 55.0731C34.6007 53.6932 36.5136 50.076 36.5136 47.0024C36.5346 43.9288 34.5797 42.528 32.1622 43.9288Z"
    fill="#5865F2" />
  <path
    d="M22.1773 71.7165C20.1172 71.7165 18.1412 71.4656 16.2283 70.9638C16.0812 70.9219 15.9761 70.7965 15.955 70.6501C15.7658 69.1865 15.6818 67.702 15.6818 65.9666V65.653C15.6818 56.1604 18.0782 46.0825 22.9761 34.8337C22.9971 34.7918 23.0181 34.7709 23.0391 34.7291C26.1923 31.2165 29.5346 28.1011 32.9821 25.4457C33.0031 25.4457 33.0031 25.4248 33.0241 25.4248C33.3184 25.2575 33.5706 25.362 33.6758 25.5293C34.0541 26.0729 34.4535 26.742 34.7688 27.3275C36.4715 26.0729 38.2163 24.923 39.94 23.9403C41.7478 22.9157 43.5556 22.0167 45.3845 21.264C45.7418 20.114 46.1833 18.8177 46.5616 17.8349C46.6247 17.6886 46.7298 17.5631 46.8559 17.4795C46.8769 17.4795 46.898 17.4586 46.919 17.4586C50.3664 16.1623 53.7298 15.4095 56.904 15.2632C57.0091 15.2632 57.1142 15.305 57.1983 15.3886C63.1262 21.8703 65.5436 30.9028 64.5977 43.0298C64.5977 43.0926 64.5766 43.1553 64.5346 43.218C60.7298 48.6752 56.8619 53.1705 52.3634 57.3522C52.3424 57.3731 52.3424 57.3731 52.3214 57.3941C51.964 57.6241 51.7538 57.4359 51.6908 57.3731C50.7448 56.4114 49.8829 55.3241 49.1682 54.1323C49.0211 53.8814 49.1262 53.5678 49.2944 53.4005C50.5556 52.146 51.7538 50.7869 52.889 49.3861C52.8259 49.3651 52.7418 49.3442 52.6787 49.3233C48.6427 53.6305 44.5436 56.9968 40.5076 59.3386C36.3664 61.7221 32.2673 63.0394 28.3154 63.2694C28.0631 63.583 27.874 63.8339 27.7058 64.0848C28.7989 64.1475 29.892 64.1057 30.964 63.9385C31.1112 63.9175 31.2794 63.9803 31.3634 64.0848C31.4685 64.2103 31.5106 64.4194 31.4475 64.6075C30.7538 66.5939 29.913 68.622 28.967 70.6501C28.904 70.7756 28.7989 70.8801 28.6938 70.9638C28.6517 70.9847 28.6307 71.0056 28.5887 71.0056C26.3184 71.4656 24.1953 71.7165 22.1773 71.7165ZM16.6487 70.2947C20.2433 71.1938 24.0271 71.1937 28.2523 70.2738C29.1142 68.392 29.892 66.5311 30.5646 64.6703C29.4295 64.7957 28.2734 64.8166 27.1382 64.733C26.97 64.7121 26.8439 64.6284 26.7598 64.4821C26.6758 64.2939 26.7178 64.0639 26.8439 63.8757L26.928 63.7503C27.1592 63.4157 27.4115 63.0603 27.7688 62.6212C27.8319 62.5376 27.937 62.4958 28.0421 62.4958C31.931 62.2867 35.967 60.9903 40.0661 58.6486C44.1022 56.3277 48.2013 52.9405 52.2373 48.5915C52.3424 48.487 52.4896 48.4452 52.6367 48.487C52.889 48.5706 53.1202 48.6543 53.3514 48.717C53.4986 48.7588 53.6037 48.8633 53.6667 49.0097C53.7298 49.1979 53.6667 49.4279 53.5406 49.5951C52.3634 51.0587 51.1022 52.4805 49.7989 53.7978C50.4295 54.8014 51.1652 55.7632 51.964 56.5995C56.3364 52.5224 60.1202 48.1315 63.8199 42.7998C64.7238 31.0283 62.4115 22.2258 56.7358 15.9323C53.7088 16.0995 50.5136 16.8104 47.2133 18.044C46.8139 19.0686 46.3724 20.4276 46.0151 21.5776C45.973 21.6821 45.91 21.7658 45.8049 21.8076C43.976 22.5394 42.1262 23.4594 40.2974 24.5048C38.4685 25.5502 36.6397 26.7629 34.8319 28.122C34.7478 28.1847 34.6217 28.2056 34.5166 28.1847C34.4115 28.1638 34.3274 28.0802 34.2643 27.9756C33.9911 27.4111 33.6127 26.7211 33.2133 26.1148C29.892 28.6865 26.6758 31.7183 23.6067 35.1055C18.7719 46.2916 16.3965 56.265 16.3965 65.6321V65.9457C16.4175 67.5556 16.5016 68.9565 16.6487 70.2947ZM31.0061 64.6284C31.0061 64.6284 30.9851 64.6284 31.0061 64.6284C30.9851 64.6284 31.0061 64.6284 31.0061 64.6284ZM30.4175 55.9514C29.955 55.9514 29.4926 55.8468 29.0932 55.6168C28.0421 55.0105 27.4535 53.6932 27.4535 51.9996C27.4535 48.7588 29.4295 45.0789 31.9731 43.6153C33.1712 42.9253 34.3484 42.8417 35.2733 43.3644C36.3034 43.9707 36.892 45.288 36.8709 47.0025C36.8709 50.2433 34.895 53.9232 32.3514 55.3868C31.6998 55.7632 31.0271 55.9514 30.4175 55.9514ZM33.949 43.7616C33.4445 43.7616 32.898 43.9289 32.3304 44.2634C30.0391 45.5807 28.1682 49.0515 28.1893 51.9996C28.1893 53.4423 28.6517 54.5296 29.4715 54.9896C30.1652 55.3868 31.0481 55.3032 31.9941 54.7596C34.2854 53.4423 36.1562 49.9715 36.1352 47.0234C36.1562 45.5807 35.6938 44.4725 34.895 44.0125C34.6217 43.8244 34.3064 43.7616 33.949 43.7616ZM46.4775 46.7307C46.0151 46.7307 45.5526 46.6261 45.1532 46.3961C44.1022 45.7898 43.5136 44.4725 43.5136 42.7789C43.5136 39.5381 45.4896 35.8582 48.0331 34.3946C49.2523 33.7046 50.4085 33.621 51.3334 34.1437C52.3634 34.75 52.952 36.0673 52.931 37.7818C52.931 41.0226 50.955 44.7025 48.4115 46.1452C47.7598 46.5425 47.0872 46.7307 46.4775 46.7307ZM50.0091 34.52C49.5046 34.52 48.958 34.6873 48.3905 35.0218C46.0992 36.3391 44.2283 39.8099 44.2493 42.758C44.2493 44.2007 44.7118 45.288 45.5316 45.748C46.2253 46.1452 47.1082 46.0616 48.0541 45.518C50.3454 44.2007 52.2163 40.7299 52.1953 37.7818C52.2163 36.3391 51.7538 35.2309 50.955 34.7709C50.6817 34.6037 50.3664 34.52 50.0091 34.52Z"
    fill="black" />
  <path
    d="M33.3394 26.0938C33.2763 26.0938 33.2132 26.0729 33.1502 26.0311L22.955 19.7167C22.7868 19.6122 22.7237 19.3822 22.8289 19.2149C22.934 19.0476 23.1652 18.9849 23.3334 19.0894L33.5286 25.4038C33.6967 25.5084 33.7598 25.7384 33.6547 25.9057C33.5916 26.0311 33.4655 26.0938 33.3394 26.0938Z"
    fill="black" />
  <path
    d="M47.003 18.1486C46.94 18.1486 46.8769 18.1276 46.8138 18.1067L43.3454 16.0995C43.1772 15.995 43.1141 15.765 43.2192 15.5977C43.3243 15.4304 43.5556 15.3677 43.7237 15.4723L47.1922 17.4795C47.3604 17.584 47.4235 17.814 47.3183 17.9813C47.2553 18.0858 47.1292 18.1486 47.003 18.1486Z"
    fill="black" />
  <path
    d="M41.8108 15.1586C41.7477 15.1586 41.6847 15.1377 41.6216 15.1168L36.4715 12.1269C36.3033 12.0223 36.2402 11.7923 36.3453 11.625C36.4504 11.4578 36.6817 11.3951 36.8498 11.4996L42 14.4686C42.1681 14.5732 42.2312 14.8032 42.1261 14.9704C42.063 15.0959 41.9369 15.1586 41.8108 15.1586Z"
    fill="black" />
  <path
    d="M38.2372 17.6049C38.1742 17.6049 38.1111 17.584 38.048 17.5631L35.1261 15.8695C34.958 15.765 34.8949 15.535 35 15.3677C35.1051 15.2005 35.3363 15.1377 35.5045 15.2423L38.4264 16.9359C38.5946 17.0404 38.6577 17.2704 38.5525 17.4377C38.4895 17.5422 38.3634 17.6049 38.2372 17.6049Z"
    fill="black" />
  <path
    d="M41.1592 19.2986C41.0961 19.2986 41.0331 19.2776 40.97 19.2567L39.0571 18.1486C38.8889 18.044 38.8259 17.814 38.931 17.6468C39.0361 17.4795 39.2673 17.4168 39.4355 17.5213L41.3484 18.6295C41.5165 18.734 41.5796 18.964 41.4745 19.1313C41.4114 19.2358 41.2853 19.2986 41.1592 19.2986Z"
    fill="black" />
  <path
    d="M45.4265 21.7031C45.3634 21.7031 45.3003 21.6822 45.2373 21.6613L41.8949 19.7795C41.7268 19.675 41.6637 19.4659 41.7478 19.2777C41.8529 19.1105 42.0631 19.0477 42.2523 19.1314L45.5946 21.0131C45.7628 21.1177 45.8259 21.3268 45.7418 21.515C45.6787 21.6404 45.5526 21.7031 45.4265 21.7031Z"
    fill="black" />
  <path
    d="M19.3604 33.0565C19.2973 33.0565 19.2342 33.0356 19.1712 33.0147L12.7808 29.3139C12.6126 29.2093 12.5496 28.9793 12.6547 28.8121C12.7598 28.6448 12.991 28.5821 13.1592 28.6866L19.5496 32.3665C19.7177 32.4711 19.7808 32.7011 19.6757 32.8683C19.6126 32.9729 19.4865 33.0565 19.3604 33.0565Z"
    fill="black" />
  <path
    d="M23.1441 35.231C23.0811 35.231 23.018 35.2101 22.955 35.1892L20.5586 33.8092C20.3904 33.7047 20.3273 33.4747 20.4324 33.3074C20.5375 33.1402 20.7688 33.0774 20.9369 33.182L23.3333 34.5619C23.5015 34.6665 23.5646 34.8965 23.4595 35.0637C23.3964 35.1683 23.2703 35.231 23.1441 35.231Z"
    fill="black" />
</svg>
