<svg viewBox="0 0 70 79" fill="none" xmlns="http://www.w3.org/2000/svg">
  <path
    d="M27.3483 9.07454C31.9309 9.07454 36.1561 10.1349 39.8138 12.1946L49.6516 17.7413C49.6306 17.7413 49.6306 17.7209 49.6096 17.7209C57.976 22.4111 63.3363 32.3218 63.1261 46.5761C60.0991 48.2687 57.0721 49.9612 54.0661 51.6538L46.3513 47.3102C47.003 49.6961 47.3603 52.4083 47.3183 55.4264C44.2913 57.1189 41.2643 58.8115 38.1111 60.5856L28.2943 55.0389C28.1682 51.4295 27.4534 48.4318 26.1081 46.1071C23.3123 46.1071 20.2012 47.0247 16.7748 48.7989C17.0901 48.86 17.3844 48.962 17.6576 49.1251L27.4745 54.6719C27.4114 54.6311 27.3273 54.6107 27.2643 54.5699C28.5255 55.1613 29.3033 56.5887 29.2823 58.7095C29.2402 62.5637 26.4655 67.1928 23.039 69.0893C22.997 69.1096 22.9549 69.13 22.9339 69.1504C21.967 69.6602 21.0631 69.9049 20.2643 69.9049C19.6336 69.9049 19.045 69.7622 18.5616 69.4767L18.5826 69.4971L8.76575 63.9504C7.6096 63.2978 6.89488 61.9111 6.9159 59.9331C6.95795 56.0789 9.75374 51.4906 13.2012 49.5534C13.2222 49.533 13.2643 49.5126 13.2853 49.4922C14.2733 48.962 15.1982 48.6969 16.018 48.6969C16.2492 48.6969 16.4594 48.7173 16.6697 48.7581L6.89488 43.2521C6.89488 39.765 6.87386 36.4411 6.87386 33.1171L16.6907 38.6639L6.87386 33.1171C7.33633 32.8316 7.79879 32.5461 8.26125 32.3014C10.3213 31.1391 12.4024 30.303 14.4625 29.732L6.89488 25.47C6.89488 22.1053 6.87386 18.7405 6.87386 15.3554L16.6907 20.9021L6.85284 15.3758C7.29428 15.1107 7.73572 14.8456 8.19819 14.6009C14.8619 10.8691 21.4204 9.07454 27.3483 9.07454ZM37.1231 14.6009C37.1021 14.6009 37.1021 14.6009 37.1231 14.6009C37.1021 14.6009 37.1021 14.6009 37.1021 14.6009C37.1021 14.6009 37.1021 14.6009 37.1231 14.6009C37.1021 14.6009 37.1021 14.6009 37.1231 14.6009C37.1652 14.6009 37.1862 14.6009 37.2072 14.6009C37.3333 14.6009 37.4384 14.6009 37.5646 14.6009C37.5646 14.6009 37.5646 14.6009 37.5856 14.6009C37.5856 14.6009 37.5856 14.6009 37.5646 14.6009C37.4384 14.6009 37.3333 14.6009 37.2072 14.6009C37.1652 14.6009 37.1441 14.6009 37.1231 14.6009ZM36.5766 14.6213C36.4925 14.6213 36.4084 14.6213 36.3243 14.6213C36.2402 14.6213 36.1561 14.6213 36.0721 14.6213C36.1561 14.6213 36.2402 14.6213 36.3243 14.6213C36.4294 14.6213 36.5135 14.6213 36.5766 14.6213ZM38.5525 14.6417C38.3844 14.6417 38.2372 14.6213 38.0691 14.6213C38.2372 14.6213 38.3844 14.6417 38.5525 14.6417ZM35.5886 14.662C35.4204 14.662 35.2733 14.6824 35.1051 14.6824C35.2522 14.662 35.4204 14.662 35.5886 14.662ZM39.5195 14.7028C39.3724 14.6824 39.2042 14.6824 39.057 14.662C39.2042 14.6824 39.3513 14.7028 39.5195 14.7028ZM34.0751 14.764C34.2432 14.7436 34.4114 14.7436 34.5796 14.7232C34.4114 14.7436 34.2432 14.7436 34.0751 14.764ZM40.4655 14.8048C40.3183 14.7844 40.1501 14.764 40.003 14.7436C40.1501 14.764 40.2973 14.7844 40.4655 14.8048ZM33.5706 14.8252C33.4024 14.8456 33.2342 14.866 33.0661 14.8864C33.2342 14.866 33.4024 14.8456 33.5706 14.8252ZM40.9489 14.866C41.0961 14.8864 41.2432 14.9068 41.3904 14.9271C41.2432 14.9068 41.0961 14.8864 40.9489 14.866ZM32.5195 14.9679C32.4144 14.9883 32.3303 14.9883 32.2252 15.0087C32.1622 15.0087 32.0991 15.0291 32.036 15.0495C32.0991 15.0291 32.1622 15.0291 32.2252 15.0087C32.3303 14.9883 32.4354 14.9883 32.5195 14.9679ZM42.3363 15.0903C42.1892 15.0699 42.042 15.0291 41.8739 15.0087C42.021 15.0291 42.1892 15.0495 42.3363 15.0903ZM31.4895 15.1311C31.4264 15.1515 31.3634 15.1515 31.2793 15.1719C31.1742 15.1922 31.0691 15.2126 30.985 15.233C31.0901 15.2126 31.1952 15.1922 31.2793 15.1719C31.3634 15.1515 31.4264 15.1515 31.4895 15.1311ZM42.7988 15.1719C42.9459 15.2126 43.0931 15.233 43.2402 15.2738C43.0931 15.2534 42.9459 15.2126 42.7988 15.1719ZM29.9339 15.437C30.1021 15.3962 30.2703 15.3554 30.4594 15.335C30.2913 15.3758 30.1231 15.3962 29.9339 15.437ZM44.039 15.4777C44.0811 15.4777 44.1021 15.4981 44.1441 15.4981C44.1021 15.4981 44.0811 15.4777 44.039 15.4777C43.9339 15.437 43.8078 15.4166 43.7027 15.3962C43.8078 15.4166 43.9339 15.437 44.039 15.4777ZM29.1982 15.6205C29.0931 15.6409 28.988 15.6613 28.8829 15.7021C28.988 15.6817 29.0931 15.6409 29.1982 15.6205C29.2612 15.6001 29.3243 15.5797 29.4084 15.5797C29.3243 15.6001 29.2612 15.6001 29.1982 15.6205ZM45.027 15.7632C44.8799 15.7225 44.7327 15.6613 44.5856 15.6205C44.7327 15.6613 44.8799 15.7021 45.027 15.7632ZM27.8318 15.9876C28 15.9468 28.1471 15.906 28.3153 15.8652C28.1471 15.906 27.979 15.9468 27.8318 15.9876ZM45.6787 15.9672C45.7417 15.9876 45.8258 16.0079 45.8889 16.0487C45.8258 16.0079 45.7417 15.9876 45.6787 15.9672C45.6156 15.9468 45.5315 15.9264 45.4685 15.8856C45.5315 15.906 45.6156 15.9468 45.6787 15.9672ZM27.1381 16.1915C27.012 16.2323 26.8859 16.273 26.7597 16.3138C26.8859 16.273 27.012 16.2323 27.1381 16.1915C27.1802 16.1711 27.2222 16.1711 27.2432 16.1507C27.2012 16.1711 27.1591 16.1915 27.1381 16.1915ZM46.7507 16.3546C46.6036 16.2934 46.4775 16.2527 46.3303 16.1915C46.4775 16.2527 46.6036 16.2934 46.7507 16.3546ZM26.1922 16.4974C26.1081 16.5178 26.024 16.5585 25.9399 16.5789C25.8558 16.5993 25.7718 16.6401 25.6877 16.6605C25.7718 16.6401 25.8558 16.5993 25.9399 16.5789C26.024 16.5585 26.1081 16.5178 26.1922 16.4974ZM47.5916 16.7013C47.4444 16.6401 47.3183 16.5789 47.1712 16.5178C47.3183 16.5789 47.4444 16.6401 47.5916 16.7013ZM24.5946 17.048C24.7628 16.9868 24.9309 16.9256 25.0991 16.8644C24.9309 16.946 24.7628 16.9868 24.5946 17.048ZM48.4114 17.0887C48.2853 17.0276 48.1381 16.946 48.012 16.8848C48.1381 16.946 48.2643 17.0276 48.4114 17.0887ZM49.2102 17.4966C49.0841 17.4354 48.9369 17.3538 48.8108 17.2927C48.9579 17.3538 49.0841 17.4354 49.2102 17.4966ZM23.6907 17.415C23.6276 17.4354 23.5856 17.4558 23.5225 17.4762C23.5646 17.4558 23.6276 17.4354 23.6907 17.415C23.7748 17.3742 23.8799 17.3334 23.964 17.3131C23.8799 17.3334 23.7748 17.3742 23.6907 17.415ZM22.9129 17.7413C22.7447 17.8025 22.5976 17.884 22.4294 17.9452C22.5766 17.8636 22.7447 17.8025 22.9129 17.7413ZM21.3363 18.4346C21.5045 18.3531 21.6516 18.2919 21.8198 18.2103C21.6516 18.2919 21.4835 18.3735 21.3363 18.4346ZM20.2222 18.9648C20.3483 18.9037 20.4745 18.8425 20.6006 18.7813C20.4955 18.8425 20.3483 18.9037 20.2222 18.9648ZM19.3603 19.4135C19.2763 19.4543 19.1922 19.495 19.1081 19.5358C19.2132 19.495 19.2973 19.4543 19.3603 19.4135ZM38.4264 36.5634C38.3844 36.543 38.3423 36.5227 38.2793 36.5023C40.5285 37.7462 42.4835 39.5611 43.976 41.9266C43.2823 35.503 41.0751 30.4049 37.7537 26.8159C36.2823 26.51 34.7267 26.3469 33.1081 26.3469C29.3874 26.3469 25.3093 27.2033 21.021 28.9775C23.7537 29.0794 26.3183 29.7728 28.5886 31.0371L38.4264 36.5634ZM43.7027 29.1406C43.5976 29.0794 43.4925 29.0183 43.3874 28.9571C43.4925 29.0183 43.5976 29.0794 43.7027 29.1406ZM44.3123 29.5281C44.2072 29.4669 44.1231 29.4057 44.018 29.3445C44.1021 29.4057 44.2072 29.4669 44.3123 29.5281ZM44.9009 29.9359C44.7958 29.8747 44.7117 29.7932 44.6066 29.732C44.6907 29.7932 44.7958 29.8747 44.9009 29.9359ZM45.4685 30.3846C45.3844 30.303 45.2793 30.2418 45.1742 30.1602C45.2793 30.2214 45.3844 30.303 45.4685 30.3846ZM46.036 30.8332C45.9519 30.7516 45.8468 30.6904 45.7627 30.6089C45.8468 30.6904 45.9309 30.7516 46.036 30.8332ZM46.5826 31.3226C46.4985 31.241 46.4144 31.1595 46.3093 31.0779C46.3934 31.1595 46.4775 31.241 46.5826 31.3226ZM47.1081 31.8324C47.024 31.7508 46.9399 31.6693 46.8558 31.5877C46.9189 31.6489 47.024 31.7305 47.1081 31.8324ZM47.3603 32.0975C47.4444 32.1791 47.5285 32.2607 47.6126 32.3626C47.5285 32.2607 47.4444 32.1791 47.3603 32.0975ZM48.0751 32.8724L48.0961 32.8928C48.0961 32.8928 48.0961 32.8928 48.0751 32.8724C48.012 32.7909 47.9279 32.7093 47.8649 32.6277C47.9279 32.7093 48.012 32.7909 48.0751 32.8724ZM48.5796 33.4842C48.4955 33.3822 48.4324 33.3007 48.3483 33.1987C48.4324 33.3007 48.4955 33.3822 48.5796 33.4842ZM48.9369 33.9328C48.979 33.9736 49.021 34.0348 49.042 34.0756C49 34.0348 48.9579 33.9736 48.9369 33.9328C48.8949 33.892 48.8528 33.8309 48.8318 33.7901C48.8528 33.8309 48.8949 33.892 48.9369 33.9328ZM49.3994 34.5854C49.4204 34.6262 49.4624 34.667 49.4835 34.7077C49.4414 34.667 49.4204 34.6262 49.3994 34.5854C49.3573 34.5242 49.3153 34.463 49.2733 34.4018C49.3153 34.463 49.3573 34.5242 49.3994 34.5854ZM30.3964 34.463C30.5015 34.463 30.5856 34.463 30.6907 34.4834C30.6066 34.4834 30.5015 34.4834 30.3964 34.463C30.2913 34.463 30.1862 34.463 30.1021 34.463C30.2072 34.463 30.2913 34.463 30.3964 34.463ZM29.3664 34.4834C29.1772 34.4834 28.988 34.4834 28.7988 34.5038C29.009 34.5038 29.1982 34.4834 29.3664 34.4834C29.3874 34.4834 29.3874 34.4834 29.4084 34.4834C29.4084 34.4834 29.3874 34.4834 29.3664 34.4834ZM31.9519 34.565C31.7628 34.5446 31.5525 34.5242 31.3633 34.5038C31.5525 34.5242 31.7628 34.5446 31.9519 34.565ZM28.1051 34.565C27.8949 34.5854 27.7057 34.6058 27.4955 34.6262C27.7057 34.6058 27.9159 34.5854 28.1051 34.565ZM33.1712 34.7281C32.982 34.6873 32.7928 34.667 32.5826 34.6262C32.7928 34.667 32.982 34.6873 33.1712 34.7281ZM26.7808 34.7485C26.5916 34.7893 26.3814 34.8097 26.1922 34.8505C26.3814 34.8097 26.5916 34.7689 26.7808 34.7485ZM34.3694 34.9728C34.1802 34.9321 33.991 34.8709 33.8018 34.8301C33.991 34.8709 34.1802 34.9321 34.3694 34.9728ZM25.4564 34.9932C25.2462 35.034 25.057 35.0748 24.8468 35.136C25.057 35.0748 25.2462 35.034 25.4564 34.9932ZM49.9039 35.3399C49.8408 35.2379 49.7567 35.136 49.6937 35.0136C49.7567 35.136 49.8408 35.2379 49.9039 35.3399ZM35.5465 35.2991C35.3573 35.2379 35.1892 35.1768 35 35.1156C35.1682 35.1768 35.3573 35.2379 35.5465 35.2991ZM23.5015 35.503C23.7117 35.4419 23.9009 35.3807 24.1111 35.3399C23.9009 35.4011 23.7117 35.4419 23.5015 35.503ZM36.4294 35.6254C36.5135 35.6662 36.5766 35.6866 36.6606 35.7274C36.5976 35.6866 36.5135 35.6458 36.4294 35.6254C36.3243 35.5846 36.2192 35.5438 36.1141 35.503C36.2402 35.5438 36.3243 35.5846 36.4294 35.6254ZM50.3033 36.0128C50.2402 35.9109 50.1772 35.7885 50.1141 35.6866C50.1772 35.7885 50.2402 35.9109 50.3033 36.0128ZM22.1561 35.9721C22.3453 35.8905 22.5345 35.8497 22.7447 35.7681C22.5345 35.8293 22.3453 35.8905 22.1561 35.9721ZM37.2703 35.9721C37.4384 36.0536 37.5856 36.1352 37.7327 36.1964C37.5856 36.1352 37.4384 36.0536 37.2703 35.9721C37.2492 35.9721 37.2492 35.9517 37.2282 35.9517C37.2492 35.9517 37.2703 35.9721 37.2703 35.9721ZM21.3363 36.2983C21.1471 36.3799 20.979 36.4411 20.7898 36.5227C20.979 36.4411 21.1682 36.3595 21.3363 36.2983ZM50.6817 36.7062C50.6186 36.5838 50.5555 36.4819 50.4925 36.3595C50.5555 36.4819 50.6186 36.5838 50.6817 36.7062ZM19.4444 37.1344C19.5916 37.0529 19.7387 36.9917 19.9069 36.9305C19.7387 37.0121 19.5916 37.0732 19.4444 37.1344ZM51.06 37.4199C50.997 37.2976 50.9339 37.1956 50.8919 37.0732C50.9339 37.1752 50.997 37.2976 51.06 37.4199ZM51.3964 38.154C51.3333 38.0317 51.2913 37.9093 51.2282 37.787C51.2913 37.9093 51.3543 38.0317 51.3964 38.154ZM51.7327 38.9086C51.6907 38.7862 51.6276 38.6639 51.5646 38.5415C51.6276 38.6435 51.6697 38.7658 51.7327 38.9086ZM52.027 39.6835C51.985 39.5611 51.9219 39.4388 51.8799 39.296C51.9429 39.4184 51.985 39.5407 52.027 39.6835ZM52.3213 40.4584C52.3213 40.4584 52.3213 40.4788 52.3213 40.4584C52.3213 40.4788 52.3213 40.4584 52.3213 40.4584C52.2793 40.336 52.2372 40.2137 52.1952 40.0709C52.2372 40.2137 52.2793 40.336 52.3213 40.4584ZM52.5105 41.0498C52.5315 41.1313 52.5525 41.2129 52.5946 41.2945C52.5525 41.2129 52.5315 41.1313 52.5105 41.0498C52.4895 40.9886 52.4685 40.9478 52.4685 40.8866C52.4685 40.9478 52.4895 41.009 52.5105 41.0498ZM52.8048 42.049C52.8048 42.0694 52.8258 42.1102 52.8258 42.1306C52.8258 42.0898 52.8048 42.0694 52.8048 42.049C52.7838 41.947 52.7417 41.8451 52.7207 41.7227C52.7417 41.8247 52.7838 41.9266 52.8048 42.049ZM53.057 42.987C53.015 42.8443 52.994 42.7219 52.9519 42.5792C52.994 42.7219 53.015 42.8443 53.057 42.987ZM53.2673 43.8639C53.2462 43.7212 53.2042 43.5988 53.1832 43.4561C53.2042 43.5988 53.2252 43.7416 53.2673 43.8639ZM53.4354 44.7816C53.4144 44.6388 53.3724 44.4961 53.3513 44.3533C53.3724 44.4961 53.4144 44.6388 53.4354 44.7816ZM53.5405 45.4137C53.5615 45.5157 53.5826 45.5973 53.5826 45.6992C53.5826 45.5973 53.5615 45.5157 53.5405 45.4137C53.5405 45.3525 53.5195 45.3118 53.5195 45.2506C53.5405 45.3118 53.5405 45.3729 53.5405 45.4137ZM53.7297 46.6373C53.7087 46.4945 53.6877 46.3518 53.6667 46.209C53.6877 46.3518 53.7087 46.4945 53.7297 46.6373ZM53.8558 47.5957C53.8348 47.453 53.8138 47.3102 53.8138 47.1675C53.8138 47.3102 53.8348 47.453 53.8558 47.5957ZM53.9399 48.5745C53.9189 48.4318 53.9189 48.2687 53.8979 48.1259C53.9189 48.289 53.9189 48.4318 53.9399 48.5745ZM54.003 49.5738C54.003 49.431 53.982 49.2883 53.982 49.1455C53.982 49.3087 54.003 49.431 54.003 49.5738ZM54.045 50.6138C54.045 50.4914 54.024 50.3691 54.024 50.2671C54.045 50.3691 54.045 50.4914 54.045 50.6138ZM25.7718 54.264C25.8348 54.264 25.9189 54.264 25.982 54.264C26.003 54.264 26.045 54.264 26.0661 54.264C26.045 54.264 26.003 54.264 25.982 54.264C25.9189 54.264 25.8348 54.264 25.7718 54.264ZM25.3303 54.3048C25.2883 54.3048 25.2462 54.3252 25.2042 54.3252C25.2462 54.3252 25.2883 54.3048 25.3303 54.3048C25.3934 54.3048 25.4564 54.2844 25.5195 54.2844C25.4775 54.2844 25.3934 54.2844 25.3303 54.3048ZM26.4444 54.3252C26.4865 54.3252 26.5285 54.3456 26.5916 54.3456C26.5285 54.3252 26.4865 54.3252 26.4444 54.3252C26.4024 54.3252 26.3603 54.3048 26.2973 54.3048C26.3393 54.3048 26.4024 54.3048 26.4444 54.3252ZM24.9519 54.366C24.8468 54.3864 24.7207 54.4271 24.5946 54.4475C24.7207 54.4068 24.8468 54.3864 24.9519 54.366ZM27.054 54.4679C26.97 54.4272 26.8859 54.4068 26.8018 54.3864C26.8859 54.4272 26.97 54.4475 27.054 54.4679ZM23.964 54.6719C24.1111 54.6107 24.2372 54.5699 24.3634 54.5087C24.2372 54.5495 24.0901 54.6107 23.964 54.6719ZM23.7537 54.7534C23.5435 54.835 23.3333 54.937 23.1231 55.0593C23.3333 54.937 23.5435 54.835 23.7537 54.7534ZM16.7537 66.2955C16.7537 66.3363 16.7748 66.3567 16.7748 66.3975C16.7748 66.3771 16.7748 66.3363 16.7537 66.2955C16.7537 66.2547 16.7327 66.2343 16.7327 66.1935C16.7537 66.2343 16.7537 66.2751 16.7537 66.2955ZM16.9009 67.0908C16.8799 67.0092 16.8588 66.9277 16.8378 66.8461C16.8588 66.9277 16.8799 67.0092 16.9009 67.0908ZM16.985 67.4375C17.006 67.519 17.048 67.5802 17.0691 67.6618C17.048 67.6006 17.027 67.519 16.985 67.4375ZM17.2372 68.0492C17.2582 68.09 17.2793 68.1308 17.3003 68.1716C17.3003 68.1308 17.2582 68.09 17.2372 68.0492C17.2162 68.0289 17.2162 67.9881 17.1952 67.9677C17.2162 68.0085 17.2372 68.0289 17.2372 68.0492ZM17.4895 68.4979C17.5315 68.5387 17.5525 68.5794 17.5946 68.6406C17.5736 68.5794 17.5315 68.5387 17.4895 68.4979C17.4685 68.4775 17.4685 68.4571 17.4474 68.4367C17.4685 68.4571 17.4895 68.4775 17.4895 68.4979ZM17.9519 69.0281C17.8889 68.9669 17.8468 68.9261 17.7838 68.8649C17.8258 68.9057 17.8889 68.9669 17.9519 69.0281ZM18.2042 69.2524C18.2462 69.2728 18.2883 69.2932 18.3093 69.334C18.2883 69.3136 18.2462 69.2932 18.2042 69.2524C18.1832 69.232 18.1621 69.2116 18.1201 69.1912C18.1621 69.232 18.1832 69.232 18.2042 69.2524ZM27.3483 7.70825C27.3483 7.70825 27.3694 7.70825 27.3483 7.70825C21.021 7.70825 14.1682 9.68631 7.48347 13.4181C7.02101 13.6832 6.55855 13.9483 6.11711 14.2134C6.09608 14.2338 6.07506 14.2338 6.05404 14.2542C5.84383 14.3969 5.67566 14.5805 5.59158 14.8048C5.54954 14.8864 5.52852 14.9883 5.5075 15.0699C5.46545 15.1719 5.46545 15.2942 5.46545 15.3962L5.48648 25.4904C5.48648 25.9798 5.75975 26.408 6.18017 26.6528L11.1411 29.4465C9.94293 29.9359 8.74473 30.5069 7.56756 31.1595C7.08407 31.4246 6.60059 31.7101 6.13813 32.0159C5.73873 32.2607 5.48648 32.6889 5.48648 33.1579L5.5075 38.6842L5.52852 43.3133C5.52852 43.8027 5.80179 44.231 6.22221 44.4757L12.8859 48.2279C12.8018 48.2687 12.7177 48.3094 12.6126 48.3706L12.5075 48.4318C8.63963 50.5934 5.57056 55.6507 5.52852 59.9739C5.5075 62.3598 6.43242 64.2359 8.07206 65.1739L17.8679 70.6799C17.8889 70.7003 17.9309 70.7206 17.9519 70.7206C18.6456 71.0877 19.4024 71.2712 20.2432 71.2712C21.3153 71.2712 22.4504 70.9654 23.6066 70.3332C23.6486 70.3128 23.6907 70.2924 23.7327 70.2516C27.5796 68.09 30.6276 63.0327 30.6697 58.7095C30.6697 58.4444 30.6697 58.1793 30.6486 57.9142L37.4174 61.7276C37.6276 61.85 37.8799 61.9111 38.1111 61.9111C38.3423 61.9111 38.5946 61.85 38.8048 61.7276L39.3724 61.4013L48.012 56.5683C48.4324 56.3236 48.7057 55.8954 48.7057 55.406C48.7267 53.5095 48.6006 51.6742 48.3483 49.9612L53.3724 52.7958C53.5826 52.9181 53.8348 52.9793 54.0661 52.9793C54.2973 52.9793 54.5495 52.9181 54.7597 52.7958L58.5435 50.675L63.8198 47.7181C64.2402 47.4734 64.5135 47.0451 64.5135 46.5761C64.6186 39.4592 63.3784 33.1987 60.8348 27.9579C58.3754 22.9413 54.8438 19.0872 50.3243 16.5381L40.5075 10.9914C36.6186 8.82983 32.2042 7.70825 27.3483 7.70825ZM26.4444 28.5696C28.7567 27.9783 30.985 27.6724 33.1291 27.6724C34.4745 27.6724 35.7778 27.7947 37.039 28.019C39.1621 30.4253 40.7597 33.5454 41.7267 37.1752C40.9489 36.5227 40.1291 35.9313 39.2462 35.4419C39.2042 35.4215 39.1832 35.4011 39.1411 35.3807L29.3243 29.834C28.3994 29.3445 27.4324 28.9163 26.4444 28.5696ZM19.9069 48.8396C21.8198 48.0647 23.6066 47.6161 25.2673 47.4937C25.982 48.9416 26.4655 50.6749 26.7177 52.6734L19.9069 48.8396Z"
    fill="black" />
  <path
    d="M33.3183 23.2676L43.1351 28.8143C49.7988 32.5869 53.961 40.4787 54.0661 51.6537L44.2492 46.107C44.1651 34.932 40.003 27.0402 33.3183 23.2676Z"
    fill="#654192" />
  <path
    d="M38.1111 60.5856L28.2943 55.0389C28.0841 48.6969 26.024 44.2513 21.9459 41.9878L31.7627 47.5345C35.8408 49.7777 37.9009 54.2232 38.1111 60.5856Z"
    fill="#654192" />
  <path
    d="M17.6366 49.1251C16.5225 48.493 14.988 48.5949 13.2853 49.5126C13.2432 49.533 13.2222 49.5534 13.2012 49.5738C9.75376 51.511 6.95796 56.0993 6.91592 59.9535C6.8949 61.9111 7.60961 63.3182 8.76577 63.9708L18.5826 69.5175C17.4264 68.8649 16.7117 67.4782 16.7327 65.5002C16.7748 61.646 19.5706 57.0577 23.018 55.1205C23.039 55.1001 23.0811 55.0797 23.1021 55.0593C24.8258 54.1213 26.3393 54.0397 27.4535 54.6718L17.6366 49.1251Z"
    fill="#654192" />
  <path
    d="M28.6096 31.0167C23.018 27.8762 15.5346 28.2433 8.26129 32.3218C7.79883 32.5869 7.33636 32.852 6.8739 33.1375L16.6907 38.6842C17.1532 38.3987 17.6156 38.1132 18.0781 37.8685C25.3514 33.79 32.8559 33.423 38.4265 36.5634L28.6096 31.0167Z"
    fill="#FF7A87" />
  <path
    d="M16.7327 48.8194L6.91592 43.2727C6.91592 39.7856 6.8949 36.4617 6.8949 33.1377L16.7117 38.6844C16.7117 42.0084 16.7117 45.3323 16.7327 48.8194Z"
    fill="#654192" />
  <path
    d="M16.7117 31.0167L6.89492 25.4903C6.89492 22.1256 6.8739 18.7609 6.8739 15.3757L16.6907 20.9225C16.6907 24.2872 16.7117 27.6519 16.7117 31.0167Z"
    fill="#654192" />
  <path
    d="M39.8138 12.1946C31.4264 7.46357 20.012 7.97338 8.19819 14.6009C7.75675 14.8456 7.31531 15.1107 6.85284 15.3758L16.6697 20.9225C17.1111 20.6574 17.5525 20.3923 18.015 20.1476C29.8288 13.5201 41.2432 13.0103 49.6306 17.7413L39.8138 12.1946Z"
    fill="#FF7A87" />
  <path
    d="M23.0181 55.1205C23.0391 55.1001 23.0811 55.0797 23.1021 55.0593C26.5916 53.1628 29.3033 54.7738 29.2823 58.7096C29.2403 62.5637 26.4655 67.1928 23.0391 69.0893C22.997 69.1097 22.955 69.1301 22.934 69.1505C19.4865 71.0062 16.6907 69.3544 16.7328 65.4798C16.7748 61.6257 19.5706 57.0374 23.0181 55.1205Z"
    fill="#12C7BA" />
  <path
    d="M20.2433 70.5168C19.5075 70.5168 18.8348 70.3332 18.2252 69.9866C16.8378 69.1709 16.0811 67.5803 16.1021 65.4799C16.1652 61.4218 19.0451 56.6296 22.7027 54.5903L22.997 55.1001L22.7237 54.5699L22.7868 54.5291C24.6577 53.5095 26.4234 53.3872 27.7688 54.1621C29.1351 54.9574 29.8919 56.5684 29.8709 58.7096C29.8288 62.7881 26.97 67.5803 23.3333 69.5991L23.2072 69.6603C22.1982 70.2313 21.1892 70.5168 20.2433 70.5168ZM23.018 55.1205L23.3333 55.6303C20.0751 57.4453 17.4054 61.8704 17.3424 65.5002C17.3213 67.1724 17.8679 68.396 18.8559 68.967C19.8439 69.5379 21.1682 69.4156 22.6186 68.6407L22.7237 68.5795C25.961 66.7646 28.6096 62.3394 28.6517 58.7096C28.6727 56.9966 28.1472 55.7527 27.1592 55.2021C26.2132 54.6515 24.8679 54.7943 23.3964 55.5896L23.3333 55.6303L23.018 55.1205Z"
    fill="black" />
  <path
    d="M18.0781 37.8483C32.3934 29.8341 47.5706 36.1557 47.3183 55.4061C44.2913 57.0987 41.2643 58.7913 38.1111 60.5654C37.9009 54.2234 35.8409 49.7778 31.7628 47.5143C27.6847 45.2507 22.6817 45.6994 16.7328 48.8194C16.7328 45.3323 16.7117 42.0084 16.7117 38.6844C17.1532 38.3989 17.6156 38.1134 18.0781 37.8483Z"
    fill="#12C7BA" />
  <path
    d="M38.1111 61.1771C38.006 61.1771 37.9009 61.1567 37.8168 61.0955C37.6276 60.9936 37.5015 60.81 37.5015 60.5857C37.2913 54.3661 35.2523 50.1448 31.4475 48.024C27.5586 45.8624 22.8288 46.2907 17.027 49.3291C16.8378 49.4311 16.6066 49.4311 16.4174 49.3088C16.2282 49.2068 16.1231 49.0029 16.1231 48.7989L16.1021 38.6639C16.1021 38.46 16.2072 38.2765 16.3754 38.1541C16.8378 37.8686 17.3213 37.5831 17.7838 37.318C25.1201 33.2192 32.982 32.7298 38.8048 36.0537C44.8168 39.4796 48.0751 46.3519 47.949 55.4061C47.949 55.61 47.8228 55.8139 47.6336 55.9159L38.4264 61.0751C38.3213 61.1567 38.2162 61.1771 38.1111 61.1771ZM26.1502 45.5158C28.2943 45.5158 30.2703 46.0052 32.0571 47.0044C36.0511 49.2068 38.2793 53.4484 38.6787 59.5661L46.7087 55.0798C46.7508 46.6374 43.7237 40.2545 38.1742 37.1141C32.7297 34.0145 25.3303 34.5039 18.3934 38.3784C18.036 38.5824 17.6787 38.7863 17.3213 39.0106L17.3424 47.8405C20.5375 46.2907 23.4805 45.5158 26.1502 45.5158Z"
    fill="black" />
  <path
    d="M18.0149 20.1477C41.6005 6.93348 63.5465 18.0065 63.1261 46.5762C60.099 48.2688 57.072 49.9614 54.066 51.6539C53.8768 29.1611 37.1861 19.9438 16.7116 31.0372C16.7116 27.6725 16.6906 24.3078 16.6906 20.9226C17.1321 20.6371 17.5735 20.3924 18.0149 20.1477Z"
    fill="#12C7BA" />
  <path
    d="M54.066 52.2453C53.9609 52.2453 53.8558 52.2249 53.7507 52.1637C53.5615 52.0617 53.4354 51.8578 53.4354 51.6539C53.3513 41.0702 49.5885 33.158 42.8198 29.3446C35.9459 25.4701 26.7807 26.245 16.9849 31.547C16.7957 31.649 16.5645 31.649 16.3753 31.547C16.1861 31.445 16.081 31.2411 16.081 31.0372L16.06 20.9226C16.06 20.7187 16.1651 20.5147 16.3543 20.4128C16.7957 20.1477 17.2582 19.8826 17.6996 19.6379C29.3873 13.0919 41.1591 12.2354 50.03 17.2724C59.069 22.4112 63.9459 32.8317 63.7357 46.5762C63.7357 46.7801 63.6096 46.984 63.4204 47.086L54.3603 52.1637C54.2762 52.2249 54.1711 52.2453 54.066 52.2453ZM33.1291 25.7148C36.8918 25.7148 40.3813 26.5713 43.4504 28.3046C50.3873 32.22 54.3393 40.1118 54.6546 50.6343L62.5165 46.2295C62.6216 33.0968 57.9759 23.1861 49.4204 18.3124C40.9489 13.4998 29.6186 14.3563 18.3303 20.6779C17.9939 20.8614 17.6366 21.0653 17.3002 21.2693L17.3213 30.038C22.8708 27.1627 28.2522 25.7148 33.1291 25.7148Z"
    fill="black" />
  <path
    d="M16.6906 21.514C16.5855 21.514 16.4804 21.4936 16.3753 21.4324L6.5585 15.8857C6.2642 15.7226 6.1591 15.3555 6.32727 15.07C6.49544 14.7845 6.87381 14.6825 7.16811 14.8457L16.9849 20.3924C17.2792 20.5555 17.3843 20.9226 17.2162 21.2081C17.1111 21.412 16.9008 21.514 16.6906 21.514Z"
    fill="black" />
  <path
    d="M16.7117 31.6285C16.6066 31.6285 16.5015 31.6081 16.3964 31.5469L6.57956 26.0002C6.28526 25.8371 6.18016 25.47 6.34832 25.1845C6.51649 24.899 6.89487 24.797 7.18917 24.9602L17.027 30.5069C17.3213 30.67 17.4264 31.0371 17.2582 31.3226C17.1321 31.5061 16.9219 31.6285 16.7117 31.6285Z"
    fill="black" />
  <path
    d="M10.7207 35.8905C10.6156 35.8905 10.5105 35.8701 10.4054 35.8089L6.13814 33.2803C5.84385 33.1171 5.75977 32.7501 5.92793 32.4646C6.0961 32.1791 6.47448 32.0975 6.76877 32.2606L11.036 34.7893C11.3303 34.9524 11.4144 35.3195 11.2463 35.605C11.1201 35.8089 10.9309 35.8905 10.7207 35.8905Z"
    fill="black" />
  <path
    d="M16.7117 39.2755C16.6066 39.2755 16.5015 39.2551 16.3964 39.194L12.1712 36.8081C11.8769 36.6449 11.7718 36.2779 11.9399 35.9924C12.1081 35.7069 12.4865 35.6049 12.7808 35.768L17.006 38.1539C17.3003 38.3171 17.4054 38.6841 17.2372 38.9696C17.1111 39.1736 16.9219 39.2755 16.7117 39.2755Z"
    fill="black" />
  <path
    d="M16.5436 49.3292C16.4595 49.3292 16.3754 49.3088 16.2913 49.2681L6.30633 44.1904C6.01204 44.0272 5.88591 43.6805 6.05408 43.3747C6.22225 43.0892 6.57961 42.9668 6.89492 43.13L16.8799 48.2076C17.1742 48.3708 17.3003 48.7175 17.1322 49.0233C17.006 49.2273 16.7748 49.3496 16.5436 49.3292Z"
    fill="black" />
</svg>
