<svg viewBox="0 0 52 77" fill="none" xmlns="http://www.w3.org/2000/svg">
  <g clip-path="url(#clip0)">
    <path
      d="M37.8943 0.918288C38.767 0.90444 39.6275 1.12628 40.3866 1.56083L48.245 6.16356H48.2286C49.9364 7.15591 50.9983 9.27317 51.0056 12.287C51.0238 18.3332 46.7945 25.727 41.5799 28.7611L40.3027 29.4976L47.351 33.6308L47.2816 33.594C49.6755 34.9564 51.0822 37.9187 51.0931 41.9286C51.115 49.5047 45.8165 58.7636 39.2846 62.5691L18.3404 74.7792C16.8206 75.663 15.3846 76.0809 14.1111 76.0809C13.1805 76.0951 12.2655 75.8395 11.4746 75.3445L11.6133 75.4347L3.7549 70.8319C2.05623 69.8359 1.00163 67.7205 0.994334 64.7158C0.976088 58.6697 5.20542 51.2758 10.42 48.2417L11.6972 47.4942L4.65258 43.3536C2.30072 41.982 0.921352 39.0344 0.912229 35.0687C0.890334 27.4945 6.18886 18.2356 12.7226 14.4301L33.6595 2.22362C35.1811 1.33806 36.6189 0.918288 37.8943 0.918288ZM46.2289 5.54311C46.165 5.54311 46.103 5.53022 46.0464 5.52654C46.1103 5.52654 46.1723 5.53759 46.2289 5.54311ZM45.2089 5.54311L45.4096 5.53207L45.2089 5.54311ZM46.6211 5.59098C46.5591 5.58177 46.4989 5.56889 46.4387 5.56152C46.5007 5.56152 46.5609 5.58177 46.6211 5.59098ZM44.7783 5.59098C44.8477 5.57993 44.9152 5.57441 44.9845 5.56521C44.9152 5.57441 44.8477 5.57993 44.7783 5.59098ZM47.0007 5.66278C46.9404 5.64805 46.8821 5.63148 46.8182 5.6186C46.8784 5.63148 46.9368 5.64805 47.0007 5.66278ZM44.3368 5.67383L44.5484 5.63333L44.3368 5.67383ZM47.3656 5.76588C47.309 5.74747 47.2524 5.72722 47.1941 5.71065C47.2524 5.72722 47.309 5.74747 47.3656 5.76588ZM43.8861 5.79534L44.0996 5.74195L43.8861 5.79534ZM47.7177 5.90765C47.663 5.88371 47.6101 5.85978 47.5553 5.83953C47.6101 5.85978 47.663 5.88371 47.7177 5.90765ZM43.43 5.94079C43.503 5.91501 43.5741 5.89476 43.6453 5.87267C43.5741 5.89476 43.503 5.91501 43.43 5.94079ZM48.0534 6.06598C48.0023 6.03837 47.9531 6.01075 47.9002 5.98497C47.9531 6.01075 48.0023 6.03837 48.0534 6.06598ZM42.9629 6.11385L43.1837 6.031L42.9629 6.11385ZM42.4885 6.32005C42.5633 6.28507 42.6363 6.25562 42.7111 6.22432C42.6363 6.25562 42.5633 6.28507 42.4885 6.32005ZM42.2185 6.45261L42.0105 6.55571L42.2185 6.45261ZM41.2788 6.96812L41.5197 6.82819L41.6875 6.7343L41.5197 6.82819L41.2788 6.96812ZM20.5792 19.0273L15.339 15.9582L20.5774 19.031L40.0235 7.70087L20.5774 19.031L20.5792 19.0273ZM46.3894 9.9783C46.373 9.96726 46.3548 9.95805 46.3383 9.94516C46.3548 9.95805 46.373 9.96726 46.3894 9.9783ZM46.6467 10.179C46.6248 10.1606 46.6065 10.1422 46.5847 10.1256C46.6065 10.1422 46.6248 10.1606 46.6467 10.179ZM46.8419 10.3631C46.8182 10.3392 46.7945 10.3134 46.7708 10.2913C46.7945 10.3134 46.8182 10.3392 46.8419 10.3631ZM47.0244 10.5472C47.0007 10.5196 46.9788 10.492 46.9532 10.4644C46.9788 10.492 47.0007 10.5196 47.0244 10.5472ZM47.1868 10.7516C47.163 10.7203 47.1411 10.689 47.1174 10.6595C47.1411 10.689 47.163 10.7203 47.1868 10.7516ZM47.3345 10.9707C47.3145 10.9375 47.2926 10.9044 47.2707 10.8712C47.2926 10.9044 47.3145 10.9375 47.3345 10.9707ZM25.9251 44.2263L20.6175 41.113L20.5883 29.9247C20.6125 29.4675 20.7435 29.0225 20.9705 28.6261C21.1975 28.2297 21.5142 27.893 21.8947 27.6436L33.716 20.7561C36.8415 18.9352 39.4524 14.8498 40.0783 11.0756L20.8164 22.3063C15.7824 25.2391 11.5713 32.4746 11.7063 38.2409C11.7192 39.0336 11.8208 39.8223 12.0092 40.592L20.6157 41.1075L25.9251 44.2208V44.2263ZM47.455 11.2026L47.3948 11.0958L47.455 11.2026ZM47.579 11.453L47.5243 11.337L47.579 11.453ZM47.6885 11.7163L47.6411 11.5948L47.6885 11.7163ZM47.7852 11.9961C47.7724 11.9538 47.7579 11.9115 47.7433 11.8691C47.7579 11.9115 47.7724 11.9538 47.7852 11.9961ZM47.8691 12.2907C47.8582 12.2447 47.8454 12.2023 47.8327 12.1582C47.8454 12.2023 47.8582 12.2447 47.8691 12.2907ZM47.9385 12.5982C47.9294 12.554 47.9184 12.5098 47.9093 12.4656C47.9184 12.5098 47.9294 12.554 47.9385 12.5982ZM47.9932 12.9222L47.9859 12.7915L48.0078 12.9222H47.9932ZM48.048 13.2591C48.048 13.2205 48.0388 13.1836 48.0334 13.145C48.0334 13.1836 48.0443 13.2205 48.048 13.2591ZM48.0717 13.6108C48.0844 13.8741 48.0844 14.1392 48.0717 14.4098C48.0844 14.1392 48.0844 13.8741 48.0717 13.6108ZM48.0023 15.2438C48.0352 14.975 48.0589 14.7081 48.0698 14.4448C48.0589 14.7081 48.0352 14.975 48.0023 15.2438ZM36.7265 28.183C38.1588 27.349 39.4725 26.585 40.3757 26.0584C39.4762 26.585 38.1625 27.3472 36.7265 28.183ZM29.3754 32.539C29.4915 32.4293 29.6194 32.3329 29.7567 32.2518L32.676 30.5488L29.7567 32.2518C29.6194 32.3329 29.4915 32.4293 29.3754 32.539ZM44.4809 32.7876H44.4536L37.9016 32.3954L44.4536 32.7876H44.4809ZM44.9736 32.8373L44.8422 32.8189L44.9736 32.8373ZM45.3713 32.9017C45.3221 32.9017 45.2728 32.8815 45.2217 32.8741C45.2728 32.8741 45.3221 32.8925 45.3713 32.9017ZM45.7362 32.9846L45.5866 32.9478L45.7362 32.9846ZM46.1011 33.0895L45.9461 33.0398L46.1011 33.0895ZM46.4496 33.211L46.2964 33.1521L46.4496 33.211ZM46.7854 33.351C46.7361 33.3289 46.685 33.3049 46.6339 33.2847C46.685 33.3049 46.7361 33.3289 46.7854 33.351ZM28.6456 33.6235C28.6766 33.5461 28.7112 33.4688 28.7496 33.3933C28.7112 33.4688 28.6766 33.5461 28.6456 33.6235ZM47.1156 33.5093L46.9678 33.4338L47.1156 33.5093ZM11.9253 65.9273L31.189 54.6966C36.2211 51.7656 40.4322 44.5264 40.2972 38.7619C40.2836 37.9641 40.1802 37.1704 39.9889 36.3961L31.3824 35.888L31.4134 47.0763C31.3887 47.5336 31.2574 47.9786 31.03 48.3749C30.8027 48.7713 30.4858 49.108 30.1052 49.3574L18.2875 56.2413C15.1639 58.0621 12.5511 62.1475 11.9253 65.9236V65.9273ZM45.5848 37.4437C45.4917 37.3811 45.4023 37.3204 45.3002 37.2596C45.3969 37.3167 45.4917 37.3774 45.5848 37.4437ZM45.8603 37.6536C45.7837 37.5928 45.7052 37.5321 45.6268 37.4695C45.7052 37.5266 45.7837 37.5873 45.8603 37.6536ZM46.1832 37.9408C46.1011 37.8598 46.0154 37.7843 45.9296 37.7107C46.0154 37.7843 46.1011 37.8598 46.1832 37.9408ZM46.4241 38.193C46.3511 38.112 46.2763 38.031 46.1978 37.9555C46.2763 38.031 46.3511 38.112 46.4241 38.193ZM46.6941 38.5171C46.626 38.4299 46.5567 38.3452 46.4861 38.263C46.5579 38.3465 46.6272 38.4312 46.6941 38.5171ZM46.9167 38.8337C46.851 38.7325 46.7817 38.6331 46.7106 38.5392C46.7817 38.6331 46.851 38.7325 46.9167 38.8337ZM47.132 39.1836C47.0785 39.0915 47.0238 39.0013 46.9678 38.9129C47.0238 39.0013 47.0785 39.0915 47.132 39.1836ZM47.3327 39.5683C47.278 39.4542 47.2214 39.3437 47.1612 39.2351C47.2214 39.3437 47.278 39.4542 47.3327 39.5683ZM47.5006 39.9494C47.4604 39.8482 47.4167 39.7506 47.3729 39.653C47.4167 39.7506 47.4604 39.8482 47.5006 39.9494ZM47.6684 40.395C47.6247 40.268 47.579 40.1446 47.5316 40.0268C47.579 40.1483 47.6247 40.2716 47.6684 40.395ZM8.78886 40.395V40.3158C8.78886 40.3416 8.78886 40.3692 8.78886 40.395ZM47.8035 40.8056C47.7724 40.6951 47.7396 40.5865 47.7049 40.4815C47.7396 40.5865 47.7724 40.6951 47.8035 40.8056ZM47.8801 41.102C47.8965 41.1701 47.9129 41.2401 47.9275 41.3082C47.9129 41.2401 47.8965 41.1701 47.8801 41.102C47.8637 41.0339 47.8473 40.9676 47.829 40.8994C47.8473 40.9676 47.8637 41.0339 47.8801 41.102ZM8.84542 41.1222C8.84542 41.102 8.84542 41.0836 8.84542 41.0633C8.84542 41.0836 8.84542 41.102 8.84542 41.1222ZM48.0115 41.7482C47.9914 41.6267 47.9695 41.5052 47.944 41.38C47.9695 41.4996 47.9914 41.6212 48.0115 41.7482ZM8.9403 41.8808C8.9403 41.8292 8.92388 41.7795 8.91658 41.7279C8.91658 41.7795 8.93118 41.8292 8.9403 41.8808ZM48.0917 42.3024C48.0735 42.1532 48.0534 42.0078 48.0315 41.8623C48.0534 42.0078 48.0735 42.1532 48.0917 42.3024ZM48.1355 42.7774C48.1246 42.6374 48.1118 42.4975 48.0972 42.3613C48.1118 42.4975 48.1246 42.6374 48.1355 42.7774ZM9.03153 42.4681L9.01511 42.3815L9.03153 42.4681ZM48.1556 43.3776C48.214 45.8999 47.4422 48.7038 46.1322 51.3053C45.9448 51.6735 45.7472 52.0417 45.5392 52.41C45.7472 52.0417 45.9448 51.6735 46.1322 51.3053C47.4422 48.7038 48.214 45.8999 48.1556 43.3776C48.1556 43.2137 48.1447 43.0535 48.1337 42.8952C48.1447 43.0535 48.152 43.2137 48.1556 43.3776ZM9.19026 43.1566C9.17749 43.1106 9.16654 43.0664 9.1556 43.0222C9.16654 43.0664 9.17749 43.1106 9.19026 43.1566ZM9.34718 43.709C9.33623 43.6777 9.32711 43.6427 9.31616 43.6114C9.32711 43.6427 9.33623 43.6777 9.34718 43.709ZM9.56612 44.3276C9.5497 44.2889 9.53511 44.2502 9.52051 44.2116C9.53511 44.2502 9.5497 44.2889 9.56612 44.3276ZM14.7898 44.4804C14.7442 44.4583 14.6986 44.4325 14.6548 44.4067C14.6986 44.4325 14.7442 44.4583 14.7898 44.4804ZM15.038 44.6019L14.8993 44.5356L15.038 44.6019ZM15.2952 44.7068L15.1438 44.6424L15.2879 44.6995L15.2952 44.7068ZM9.77048 44.821C9.75406 44.7878 9.73946 44.7529 9.72486 44.7197C9.73946 44.7529 9.75406 44.7878 9.77048 44.821ZM15.5543 44.7915C15.5032 44.7768 15.454 44.7602 15.4029 44.7418C15.454 44.7602 15.5032 44.7768 15.5543 44.7915ZM15.8298 44.8707L15.6711 44.8283L15.8298 44.8707ZM16.0926 44.9296L15.9466 44.9001L16.0926 44.9314V44.9296ZM10.0442 45.3659L9.99307 45.272L10.0442 45.3659ZM10.3178 45.817C10.2959 45.7857 10.2777 45.7526 10.2576 45.7194C10.2777 45.7526 10.2959 45.7857 10.3178 45.817ZM10.6408 46.2828L10.5861 46.211L10.6408 46.2828ZM10.9656 46.6823L10.8889 46.5939L10.9656 46.6823ZM11.3305 47.0653L11.2812 47.0192L11.3305 47.0653ZM11.7155 47.4096L11.6261 47.3341L11.7155 47.4096ZM19.8585 51.9258L24.2757 49.3482L19.8585 51.9258ZM16.5031 54.078C16.6856 53.9325 16.868 53.7926 17.0505 53.6564C16.868 53.7926 16.6856 53.9325 16.5031 54.078ZM43.8022 54.9985C44.0552 54.6733 44.2985 54.3394 44.532 53.997C44.2887 54.3394 44.0455 54.6733 43.8022 54.9985ZM10.7211 61.6559C11.7084 59.5314 13.0157 57.5738 14.5964 55.8528C15.1241 55.2826 15.6878 54.7476 16.2842 54.2511C15.6878 54.7476 15.1241 55.2826 14.5964 55.8528C13.0131 57.5733 11.7033 59.5309 10.7138 61.6559H10.7211ZM10.2394 62.7477C10.3781 62.4034 10.5258 62.0628 10.6828 61.7222C10.5258 62.0628 10.3781 62.4034 10.2394 62.7477ZM8.97497 67.3965C9.01876 67.0706 9.06984 66.741 9.13553 66.4115C9.36792 65.2374 9.70689 64.0874 10.1482 62.976C9.70689 64.0874 9.36792 65.2374 9.13553 66.4115C9.06984 66.741 9.01876 67.0706 8.97497 67.3965ZM8.8436 69.3222C8.8436 69.5063 8.8436 69.6905 8.8582 69.8746C8.8582 69.6905 8.84542 69.5063 8.8436 69.3222C8.8436 69.1952 8.8436 69.0663 8.8436 68.9374C8.8436 69.0663 8.8436 69.1952 8.8436 69.3222ZM8.89651 70.4103C8.88374 70.2759 8.87461 70.1378 8.86732 69.9979C8.86732 70.1378 8.88374 70.2759 8.89651 70.4103ZM8.95672 70.9221C8.94212 70.8117 8.92935 70.6957 8.91658 70.5815C8.92935 70.6957 8.94212 70.8117 8.95672 70.9221ZM9.04247 71.4119C9.0224 71.3143 9.00598 71.2112 8.98956 71.1099C9.00598 71.2112 9.0224 71.3143 9.04247 71.4119ZM18.1744 71.4579C18.2802 71.4027 18.3861 71.3438 18.4919 71.283C18.3861 71.3438 18.2802 71.4027 18.1744 71.4579ZM17.8387 71.6236C17.9117 71.5905 17.9846 71.5536 18.0576 71.5168C17.9846 71.5536 17.9117 71.5905 17.8387 71.6236ZM9.1483 71.8795C9.1264 71.7911 9.10634 71.6954 9.08626 71.607C9.10634 71.6991 9.1264 71.7911 9.1483 71.8795ZM17.7037 71.6844L17.5103 71.7691L17.7037 71.6844ZM13.8611 71.8685C13.7955 71.8353 13.7298 71.8022 13.6677 71.7654C13.7298 71.8022 13.7955 71.8353 13.8611 71.8685ZM17.3643 71.828C17.3041 71.8519 17.2439 71.8758 17.1818 71.8961C17.2439 71.8758 17.3041 71.8519 17.3643 71.828ZM14.1403 71.99C14.0582 71.9587 13.9779 71.9255 13.8976 71.8869C13.9779 71.9255 14.0582 71.9587 14.1403 71.99ZM16.8571 72.001L17.0395 71.9458L16.8571 72.001ZM14.3939 72.0747C14.3301 72.0563 14.2698 72.036 14.2115 72.0139C14.2717 72.036 14.3319 72.0563 14.3939 72.0747ZM16.5396 72.0857L16.7129 72.0415L16.5396 72.0857ZM9.27784 72.3269C9.25047 72.244 9.22676 72.1575 9.20304 72.0728C9.22676 72.1575 9.25047 72.244 9.27784 72.3269ZM14.6548 72.1428C14.5983 72.1317 14.5454 72.117 14.4906 72.1041C14.5454 72.117 14.5983 72.1317 14.6548 72.1428ZM16.2276 72.152L16.3973 72.1189L16.2276 72.152ZM14.9249 72.1888L14.7661 72.163L14.9249 72.1888ZM16.0889 72.1741L15.9229 72.1943L16.0889 72.1741ZM15.204 72.2146L15.0453 72.2017L15.204 72.2146ZM15.6237 72.2146L15.7861 72.2054L15.6237 72.2146ZM9.42563 72.7467C9.39644 72.6712 9.3709 72.5902 9.34353 72.511C9.3709 72.5902 9.39644 72.6712 9.42563 72.7467ZM9.59714 73.1443C9.5643 73.0744 9.53511 73.0026 9.50409 72.9308C9.53511 73.0026 9.5643 73.0744 9.59714 73.1443ZM9.7796 73.5126C9.74311 73.4481 9.71027 73.3782 9.67742 73.3119C9.71027 73.3782 9.74311 73.4481 9.7796 73.5126ZM9.9876 73.8624C9.94928 73.8016 9.91279 73.739 9.8763 73.6783C9.91279 73.7409 9.94928 73.8035 9.9876 73.8624ZM10.2157 74.1882C10.1737 74.133 10.1354 74.0741 10.0952 74.017C10.1354 74.0741 10.1737 74.133 10.2157 74.1882ZM10.462 74.4902C10.4182 74.4386 10.3762 74.3852 10.3324 74.3318C10.3762 74.3852 10.4182 74.4386 10.462 74.4902ZM10.7265 74.7663C10.6791 74.7203 10.6353 74.6725 10.5897 74.6246C10.6353 74.6725 10.6791 74.7203 10.7265 74.7663ZM11.0203 75.0204C10.971 74.9799 10.9254 74.9357 10.8762 74.8934C10.9254 74.9357 10.971 74.9799 11.0203 75.0204ZM11.3177 75.245C11.2666 75.2101 11.2174 75.1714 11.1681 75.1327C11.2174 75.1714 11.2666 75.2101 11.3177 75.245ZM37.8961 -0.000417265C36.4091 -0.000417265 34.8327 0.480108 33.2051 1.42827L12.2647 13.6273C8.96949 15.5476 5.87868 18.8303 3.56879 22.8696C1.2589 26.909 -0.0109992 31.2411 -5.1876e-05 35.0687C0.0127201 39.3511 1.50156 42.5785 4.19644 44.1582L9.88725 47.4942C7.25805 49.05 4.80219 51.6735 2.95391 54.8936C1.09469 58.1431 0.074755 61.6338 0.0838778 64.7103C0.0930006 67.9525 1.23335 70.4066 3.29876 71.6162L11.1571 76.219C12.055 76.7382 13.0745 77.0046 14.1093 76.9904C15.5927 76.9904 17.1691 76.5117 18.7929 75.5654L39.7352 63.3645C43.0304 61.446 46.1212 58.1634 48.4293 54.1222C50.7374 50.081 52.0109 45.7599 52 41.936C51.9872 37.7125 50.46 34.4059 47.8035 32.8484L42.1145 29.5123C44.7418 27.9566 47.1995 25.333 49.0478 22.1129C50.9052 18.8671 51.9251 15.369 51.916 12.2852C51.9069 9.04119 50.7666 6.58885 48.7011 5.37925L40.8446 0.776524C39.9479 0.256996 38.93 -0.0112427 37.8961 -0.000417265ZM12.7536 39.723C12.6696 39.2227 12.622 38.7169 12.6113 38.2096C12.4872 32.8226 16.4429 25.8982 21.2689 23.0924L38.646 12.9664C37.6261 15.868 35.5552 18.6185 33.2581 19.9625C32.8311 20.2093 24.7556 24.9169 21.4367 26.8501C20.9173 27.1804 20.4857 27.6335 20.1792 28.1703C19.8727 28.707 19.7006 29.3112 19.6778 29.9302L19.7034 40.1409L12.7536 39.7248V39.723ZM13.3539 64.0254C14.3738 61.122 16.4447 58.3714 18.7418 57.0293L30.565 50.1417C31.0843 49.8116 31.516 49.3587 31.8228 48.8224C32.1295 48.286 32.3022 47.6823 32.3257 47.0634L32.2947 36.8619L39.2444 37.278C39.3299 37.7781 39.378 38.284 39.3886 38.7914C39.5127 44.1803 35.557 51.1028 30.7329 53.9086L13.3539 64.0346V64.0254Z"
      fill="#231F20" />
    <path
      d="M45.2729 37.2451L37.4145 32.6423C39.1752 33.6752 40.2298 35.8477 40.2973 38.775C40.4323 44.5395 36.2212 51.7786 31.1891 54.7097L10.6628 66.6768C8.78713 67.7704 7.04832 67.8919 5.80762 67.1628L13.666 71.7655C14.9067 72.502 16.6455 72.3731 18.5212 71.2795L39.0457 59.3124L36.3344 57.7143L39.0457 59.3124C44.0796 56.3814 48.2907 49.1422 48.1557 43.3777C48.0882 40.4504 47.0336 38.2779 45.2729 37.2451Z"
      fill="#05D86E" />
    <path
      d="M39.4891 29.0322C38.6021 28.5211 37.6082 28.2284 36.588 28.1779L27.7334 27.6477L35.59 32.2504L44.4555 32.7807C45.4758 32.8302 46.47 33.123 47.3566 33.6349L39.4891 29.0322Z"
      fill="#52FFA8" />
    <path
      d="M48.0663 13.6167C47.9805 11.7756 47.2763 10.4868 46.1925 9.8535L38.3359 5.24341C39.4179 5.87858 40.1222 7.15998 40.2079 9.0066C40.4068 13.2411 37.4218 18.5932 33.7125 20.7546L21.8948 27.644C21.515 27.8938 21.199 28.2307 20.9726 28.6271C20.7463 29.0235 20.6159 29.4682 20.592 29.9251L20.6212 41.1134L28.4778 45.7161L28.4504 34.5278C28.4732 34.0707 28.6032 33.6256 28.8297 33.229C29.0561 32.8325 29.3727 32.4958 29.7532 32.2467L41.5745 25.3573C45.2802 23.2033 48.2652 17.8549 48.0663 13.6167Z"
      fill="#05D86E" />
    <path
      d="M16.4211 44.7458L10.422 48.2439C5.20553 51.2707 0.976198 58.6682 0.994444 64.7107C0.994444 67.7153 2.05634 69.8307 3.75501 70.8268L11.6134 75.4295C9.91472 74.4335 8.86013 72.318 8.85101 69.3134C8.83459 63.2672 13.0639 55.8734 18.2785 52.8393L24.2758 49.3412L16.4211 44.7458Z"
      fill="#05D86E" />
    <path d="M16.8243 45.0238L8.96594 40.4155L20.6176 41.1133L28.4742 45.7215L16.8243 45.0238Z" fill="#05D86E" />
    <path
      d="M14.5965 44.3647L6.73816 39.762C7.42019 40.1508 8.18338 40.3722 8.96595 40.4082L16.8243 45.0109C16.0418 44.9749 15.2786 44.7536 14.5965 44.3647Z"
      fill="#00F782" />
    <path
      d="M40.3867 1.56115C38.6661 0.552227 36.285 0.690309 33.6595 2.22026L12.7208 14.423L20.5774 19.0257L41.5179 6.83219C44.1416 5.30224 46.5245 5.16232 48.245 6.17308L40.3867 1.56115Z"
      fill="#52FFA8" />
    <path
      d="M12.511 47.9696L4.65265 43.354C2.30079 41.9824 0.921422 39.0348 0.912299 35.0691C0.890404 27.4948 6.18893 18.236 12.7227 14.4304L20.5792 19.0332C14.0473 22.8387 8.74879 32.1049 8.77069 39.6718C8.77981 43.6412 10.1592 46.5888 12.511 47.9696Z"
      fill="#0EE574" />
    <path
      d="M44.4464 32.7861C48.5334 33.031 51.075 36.5419 51.0878 41.9382C51.1097 49.5143 45.8111 58.7731 39.2792 62.5787L18.3405 74.7796C13.1259 77.8174 8.86922 75.3687 8.8528 69.3226C8.83638 63.2764 13.0657 55.8826 18.2803 52.8485L24.2776 49.3504L15.4139 48.822C11.3306 48.5772 8.78529 45.0699 8.7707 39.6681C8.7488 32.0939 14.0473 22.835 20.5793 19.0295L41.5179 6.83223C46.7325 3.79443 50.9892 6.24124 51.0057 12.2874C51.0221 18.3335 46.7946 25.7274 41.58 28.7615L35.5808 32.2596L44.4464 32.7861ZM39.0457 59.3126C44.0796 56.3815 48.2907 49.1424 48.1557 43.3779C48.0626 39.3643 46.1158 36.7702 43.036 36.5861L31.3825 35.8884L31.4135 47.0767C31.3888 47.534 31.2574 47.9789 31.0301 48.3753C30.8028 48.7717 30.4859 49.1083 30.1053 49.3578L18.2876 56.2416C14.5801 58.4012 11.5951 63.7514 11.7922 67.9878C11.9746 71.9535 15.0089 73.3122 18.5212 71.2668L39.0457 59.3126ZM16.8243 45.0239L28.4741 45.7216L28.4468 34.5333C28.4696 34.0762 28.5995 33.6311 28.826 33.2345C29.0525 32.838 29.369 32.5013 29.7495 32.2522L41.5708 25.3628C45.2784 23.2032 48.2652 17.8549 48.0663 13.6167C47.8838 9.65279 44.8496 8.29406 41.3391 10.3395L20.8128 22.2974C15.7788 25.2303 11.5678 32.4658 11.7028 38.2321C11.7958 42.2456 13.7426 44.8397 16.8243 45.0239Z"
      fill="#00F782" />
    <path
      d="M14.1057 76.4329C13.1792 76.4441 12.2663 76.2072 11.4601 75.7462C9.5662 74.6415 8.51891 72.3659 8.50978 69.3244C8.49336 63.1678 12.7975 55.6433 18.107 52.5502L23.1209 49.6284L15.392 49.1663C11.1116 48.9122 8.44228 45.2724 8.42768 39.6718C8.40578 31.9871 13.7791 22.5938 20.4078 18.7331L41.3482 6.53215C43.9884 4.99299 46.4917 4.75549 48.3983 5.86199C50.305 6.96848 51.3395 9.24223 51.3468 12.2856C51.3651 18.4403 47.0591 25.9649 41.7515 29.0579L36.7376 31.9779L44.4664 32.44C48.7468 32.6977 51.4162 36.3357 51.4308 41.9363C51.4527 49.6211 46.0793 59.0143 39.4525 62.8751L18.5102 75.0778C16.9684 75.9781 15.465 76.4329 14.1057 76.4329ZM45.7509 5.86751C44.512 5.86751 43.129 6.29096 41.6894 7.1305L20.7489 19.3296C14.3101 23.0799 9.08817 32.2043 9.11006 39.67C9.12466 44.871 11.5477 48.2476 15.4322 48.4796L24.2977 49.0098C24.3713 49.0134 24.4417 49.0411 24.4983 49.0886C24.555 49.1361 24.5947 49.201 24.6116 49.2733C24.6285 49.3457 24.6216 49.4216 24.592 49.4896C24.5623 49.5577 24.5116 49.6142 24.4473 49.6505L18.4482 53.1486C13.3285 56.1312 9.17575 63.3869 9.19217 69.3244C9.20129 72.11 10.1263 74.1794 11.8013 75.1515C13.4762 76.1236 15.7478 75.8879 18.169 74.4832L39.1113 62.2804C45.5484 58.5301 50.7703 49.4057 50.7484 41.94C50.7338 36.7389 48.3108 33.3642 44.4263 33.1304L35.5607 32.6002C35.4873 32.5959 35.4173 32.5677 35.361 32.52C35.3047 32.4723 35.2652 32.4074 35.2484 32.3352C35.2316 32.263 35.2383 32.1872 35.2677 32.1192C35.297 32.0511 35.3473 31.9945 35.4111 31.9576L41.4103 28.4596C46.53 25.477 50.6827 18.2212 50.6644 12.2856C50.6644 9.49814 49.7321 7.42876 48.0572 6.45666C47.3536 6.05789 46.5578 5.85459 45.7509 5.86751ZM15.4395 72.5555C14.7899 72.5649 14.1484 72.4085 13.5748 72.1008C12.2976 71.3938 11.5404 69.9412 11.451 68.008C11.2503 63.6925 14.3028 58.1693 18.1179 55.9471L29.9393 49.0614C30.2675 48.8424 30.5408 48.5494 30.7378 48.2057C30.9347 47.8619 31.0499 47.4767 31.0741 47.0804L31.0413 35.8902C31.0415 35.8433 31.0511 35.7969 31.0696 35.7538C31.0881 35.7108 31.1151 35.672 31.1489 35.6398C31.1826 35.607 31.2228 35.5816 31.2668 35.5654C31.3108 35.5493 31.3577 35.5426 31.4044 35.5459L43.0597 36.2418C46.3165 36.437 48.402 39.1673 48.5005 43.3706C48.6355 49.1645 44.3861 56.6025 39.2208 59.6108L18.6945 71.5687C17.5687 72.2223 16.4503 72.5555 15.4395 72.5555ZM31.7255 36.2529L31.7565 47.0767C31.7326 47.5941 31.586 48.0981 31.3292 48.5466C31.0724 48.9951 30.7127 49.3749 30.2805 49.6542L18.4591 56.5417C14.8392 58.6498 11.9418 63.8858 12.1334 67.9731C12.21 69.6577 12.8395 70.9078 13.9014 71.4932C15.06 72.1339 16.682 71.9425 18.3496 70.9704L38.876 59.0125C43.8515 56.1146 47.944 48.9564 47.8163 43.3834C47.7269 39.5742 45.8877 37.0998 43.0177 36.9267L31.7255 36.2529ZM28.4741 46.0567H28.4632L16.8134 45.3608C13.5547 45.1656 11.4692 42.4353 11.3707 38.2339C11.2357 32.4382 15.4851 25.0001 20.6522 21.9918L41.1676 10.0413C43.0469 8.93661 44.9116 8.7525 46.2764 9.51103C47.5536 10.2162 48.3108 11.6688 48.4002 13.6019C48.6027 17.9156 45.5484 23.4389 41.7332 25.6611C41.3081 25.9096 33.2326 30.6173 29.9119 32.5505C29.5844 32.77 29.3119 33.0631 29.1156 33.4068C28.9193 33.7506 28.8047 34.1355 28.7807 34.5315L28.808 45.7198C28.808 45.7668 28.7986 45.8134 28.7805 45.8567C28.7623 45.9001 28.7357 45.9393 28.7022 45.972C28.6404 46.0309 28.5591 46.0644 28.4741 46.0659V46.0567ZM44.4172 9.74301C43.5268 9.74301 42.5269 10.0449 41.5088 10.6378L20.9825 22.5957C16.0069 25.4936 11.9126 32.6517 12.0421 38.2247C12.1315 42.0358 13.9707 44.5084 16.8426 44.6796L28.1311 45.3553L28.0983 34.5333C28.1214 34.0161 28.2672 33.5121 28.5234 33.0636C28.7796 32.6151 29.1388 32.2352 29.5707 31.9558L41.392 25.0683C45.012 22.9584 47.9094 17.7223 47.7178 13.6351C47.6393 11.9523 47.0117 10.7022 45.9498 10.1168C45.4779 9.86477 44.951 9.73627 44.4172 9.74301Z"
      fill="#231F20" />
    <path
      d="M28.4741 46.0659C28.4097 46.0664 28.3465 46.0485 28.2917 46.0144L19.9553 40.7765C19.8786 40.7277 19.8242 40.6501 19.8042 40.5608C19.7842 40.4716 19.8001 40.378 19.8485 40.3006C19.8969 40.2232 19.9738 40.1684 20.0622 40.1482C20.1507 40.128 20.2435 40.144 20.3202 40.1929L28.6602 45.4326C28.7236 45.4722 28.7723 45.5315 28.7991 45.6016C28.8258 45.6717 28.8291 45.7488 28.8085 45.821C28.7878 45.8931 28.7443 45.9565 28.6846 46.0014C28.6249 46.0463 28.5522 46.0703 28.4778 46.0696L28.4741 46.0659Z"
      fill="#231F20" />
    <path
      d="M16.8243 17.1738C16.7642 17.1738 16.705 17.1579 16.6528 17.1278L12.5494 14.7215C12.5106 14.6987 12.4766 14.6685 12.4493 14.6325C12.4221 14.5965 12.4021 14.5555 12.3906 14.5117C12.3791 14.468 12.3762 14.4223 12.3822 14.3774C12.3881 14.3326 12.4028 14.2893 12.4253 14.2501C12.4478 14.211 12.4778 14.1767 12.5134 14.1492C12.5491 14.1217 12.5898 14.1016 12.6332 14.0899C12.6765 14.0783 12.7217 14.0754 12.7662 14.0814C12.8107 14.0874 12.8536 14.1022 12.8924 14.1249L16.9958 16.5312C17.061 16.5692 17.1119 16.6277 17.1407 16.6979C17.1694 16.768 17.1744 16.8458 17.1549 16.919C17.1353 16.9923 17.0923 17.057 17.0325 17.1031C16.9727 17.1492 16.8995 17.174 16.8243 17.1738Z"
      fill="#231F20" />
    <path
      d="M20.5774 19.3754C20.517 19.3756 20.4576 19.3591 20.4059 19.3276L18.1051 17.9781C18.0646 17.9563 18.0288 17.9265 18 17.8905C17.9711 17.8545 17.9498 17.8129 17.9372 17.7684C17.9247 17.7238 17.9211 17.6772 17.9269 17.6312C17.9326 17.5853 17.9474 17.541 17.9705 17.5009C17.9936 17.4609 18.0245 17.426 18.0612 17.3983C18.098 17.3706 18.1399 17.3506 18.1845 17.3396C18.2291 17.3287 18.2755 17.3269 18.3208 17.3344C18.366 17.3419 18.4094 17.3586 18.4481 17.3834L20.7507 18.7329C20.816 18.7709 20.867 18.8296 20.8958 18.8999C20.9245 18.9703 20.9293 19.0482 20.9095 19.1216C20.8897 19.195 20.8464 19.2597 20.7863 19.3056C20.7262 19.3515 20.6528 19.3761 20.5774 19.3754Z"
      fill="#231F20" />
  </g>
  <defs>
    <clipPath id="clip0">
      <rect width="52" height="77" fill="white" />
    </clipPath>
  </defs>
</svg>
