<svg viewBox="0 0 60 71" fill="none" xmlns="http://www.w3.org/2000/svg">
  <g clip-path="url(#clip0)">
    <path
      d="M35.955 1.12849C38.1748 1.09366 40.3622 1.66371 42.2919 2.77816L51.8595 8.44019L51.8162 8.41636C56.1694 10.9642 58.8703 16.4136 58.8919 24.1707C58.9351 39.7344 48.1766 58.691 34.8631 66.5122C30.9766 68.7961 27.2955 69.8757 24.0523 69.8757C21.6252 69.8757 19.4288 69.2745 17.5532 68.1234C17.6054 68.1564 17.6577 68.1912 17.7117 68.2224L8.14416 62.5659C3.81983 59.9997 1.13335 54.5668 1.11713 46.8353C1.07389 31.2716 11.8324 12.3151 25.1478 4.49381C29.0342 2.21177 32.7153 1.13032 35.9586 1.13032L35.955 1.12849ZM45.982 6.79052H45.7207H45.982ZM44.6541 6.81252L44.9243 6.80152L44.6541 6.81252ZM46.4901 6.81252L46.2306 6.79602L46.4901 6.81252ZM44.1153 6.84368L44.3892 6.82168L44.1153 6.84368ZM46.9982 6.85651L46.7424 6.83085L46.9982 6.85651ZM43.5748 6.90233C43.6667 6.8895 43.755 6.88217 43.8523 6.87117C43.7604 6.88217 43.6721 6.8895 43.5748 6.90233ZM47.4991 6.91883L47.2505 6.884L47.4991 6.91883ZM43.0216 6.97932L43.3063 6.93899L43.0216 6.97932ZM47.991 7.00131L47.7478 6.96282L47.9928 7.00865L47.991 7.00131ZM42.7514 7.03431C42.6559 7.0508 42.5604 7.06547 42.4649 7.0838C42.5604 7.06547 42.6559 7.0508 42.7514 7.03431ZM48.4775 7.10763L48.2342 7.05264L48.4775 7.10763ZM41.8991 7.20111L42.1874 7.14062L41.8991 7.20111ZM48.9514 7.22494L48.7117 7.15712L48.9514 7.22127V7.22494ZM41.3279 7.34041L41.6216 7.26709L41.3279 7.33675V7.34041ZM49.4162 7.35874L49.182 7.28726L49.4162 7.35874ZM40.7496 7.49255L41.0505 7.4119L40.7496 7.49255ZM49.8739 7.51271L49.6451 7.43206L49.8739 7.51271ZM40.1676 7.66851C40.2685 7.63552 40.3694 7.60803 40.4685 7.57687C40.3694 7.60803 40.2685 7.63552 40.1676 7.66851ZM50.3225 7.68318L50.0901 7.59336L50.3153 7.68318H50.3225ZM39.573 7.86647L39.8793 7.76566L39.573 7.86647ZM50.7532 7.86647C50.6811 7.83348 50.6072 7.79865 50.5333 7.76749C50.6072 7.79865 50.6811 7.83348 50.7532 7.86647ZM38.9874 8.0736C39.0919 8.03327 39.1946 7.99661 39.2991 7.95995C39.1946 7.99661 39.0919 8.03327 38.9874 8.0736ZM51.1928 8.0736L50.9748 7.96545L51.1928 8.0736ZM51.6126 8.29722L51.4 8.17991L51.6126 8.29722ZM38.3892 8.31005L38.6991 8.18724L38.3892 8.31005ZM37.7856 8.56483L38.1045 8.42919L37.7856 8.56483ZM37.1784 8.83978C37.2865 8.78846 37.3964 8.7408 37.5045 8.69131C37.3964 8.7408 37.2865 8.78846 37.1784 8.83978ZM36.5658 9.13672L36.8955 8.97542L36.5658 9.13672ZM35.9478 9.45199L36.3081 9.26869L35.9478 9.45199ZM35.3279 9.78926C35.4685 9.71044 35.6072 9.63712 35.7478 9.56197C35.6072 9.63712 35.4685 9.71044 35.3279 9.78926ZM26.4216 16.7234C28.8919 14.1737 31.6793 11.9632 34.7099 10.1449C34.8901 10.0349 35.0865 9.92856 35.2739 9.82225C35.0937 9.92856 34.8973 10.0349 34.7099 10.1449C31.6793 11.9632 28.8919 14.1737 26.4216 16.7234ZM25.3532 17.8433C25.7027 17.4657 26.0559 17.0955 26.4126 16.7325C26.0523 17.0991 25.6991 17.4694 25.3532 17.8433ZM46.2216 18.2246C46.2 18.1971 46.173 18.1732 46.1442 18.1549C46.173 18.1732 46.2 18.1971 46.2216 18.2246ZM46.2901 18.3419C46.2757 18.3052 46.2559 18.2704 46.2324 18.2392C46.2559 18.2704 46.2757 18.3052 46.2901 18.3419ZM46.3351 18.5252C46.3279 18.4739 46.3153 18.4244 46.2991 18.3749C46.3153 18.4244 46.3279 18.4739 46.3351 18.5252ZM46.3532 18.758C46.3532 18.681 46.3532 18.6132 46.3387 18.5508C46.3387 18.6132 46.3514 18.681 46.3532 18.758ZM22.3424 21.4048C22.5946 21.0803 22.8487 20.7577 23.1081 20.4406C22.8487 20.7577 22.5946 21.0803 22.3424 21.4048ZM21.3982 22.6567C21.618 22.3579 21.8415 22.0591 22.0667 21.764C21.8415 22.0591 21.618 22.3579 21.3982 22.6567ZM20.5676 23.8371C20.218 24.3412 19.8757 24.8526 19.5388 25.3676C19.8757 24.8526 20.2198 24.3412 20.5676 23.8371ZM16.8397 29.9611C17.0577 29.5505 17.2793 29.1417 17.5081 28.7366C17.2811 29.1417 17.0577 29.5486 16.8397 29.9611ZM12.9388 39.1259C13.0775 38.6951 13.2234 38.2662 13.3748 37.8428C13.2234 38.2717 13.0775 38.6988 12.9388 39.1259ZM19.6054 47.0076C19.5766 46.9967 19.5496 46.9838 19.5243 46.9673C19.5496 46.9838 19.5766 46.9967 19.6054 47.0076ZM19.7315 47.048C19.6973 47.0388 19.6613 47.0296 19.627 47.0168C19.6613 47.0296 19.6973 47.0388 19.7315 47.048ZM19.8379 47.0663C19.8126 47.0645 19.7856 47.059 19.7604 47.0535C19.7856 47.059 19.8126 47.0645 19.8379 47.0663ZM20.1982 47.0663H20.2144H20.1982ZM19.9027 47.0663H19.8685H19.9027ZM10.6811 53.1976C10.6811 52.9593 10.6703 52.7192 10.6703 52.4754C10.6703 52.7192 10.6703 52.9593 10.6811 53.1976ZM10.7063 53.9033C10.7063 53.7438 10.6937 53.5807 10.6883 53.4175C10.6883 53.5807 10.6973 53.7438 10.7063 53.9033ZM10.746 54.598C10.746 54.455 10.7297 54.312 10.7207 54.169C10.7207 54.312 10.737 54.455 10.746 54.598ZM10.8018 55.278C10.7892 55.1369 10.7784 54.9939 10.7676 54.8509C10.7784 54.9939 10.7892 55.1369 10.8018 55.278ZM10.8739 55.9415C10.8577 55.8077 10.8433 55.6721 10.8306 55.5383C10.8433 55.6721 10.8577 55.8077 10.8739 55.9415ZM10.9586 56.5941C10.9406 56.4676 10.9243 56.3374 10.9081 56.2091C10.9243 56.3374 10.9406 56.4676 10.9586 56.5941ZM11.0595 57.2301C11.0379 57.1091 11.0198 56.9863 11.0018 56.8635C11.0198 56.9863 11.0379 57.1091 11.0595 57.2301ZM11.173 57.8533L11.1081 57.5032L11.173 57.8533ZM11.3027 58.4619C11.2757 58.35 11.2541 58.2346 11.2288 58.1191C11.2541 58.2346 11.2757 58.35 11.3027 58.4619ZM11.4451 59.0557C11.4162 58.9476 11.391 58.8358 11.364 58.724C11.391 58.8358 11.4162 58.9476 11.4451 59.0557ZM11.6018 59.635C11.5712 59.5305 11.5424 59.4223 11.5153 59.3142C11.5424 59.4223 11.5712 59.5305 11.6018 59.635ZM11.7712 60.1995C11.7388 60.0987 11.7099 59.9942 11.6775 59.8916C11.7099 59.9942 11.7388 60.0987 11.7712 60.1995ZM11.9514 60.7494C11.9171 60.6523 11.8847 60.5533 11.8523 60.4543C11.8847 60.5533 11.9171 60.6523 11.9514 60.7494ZM12.1478 61.2846C12.1117 61.1893 12.0775 61.0922 12.0415 60.9968C12.0775 61.0922 12.1117 61.1893 12.1478 61.2846ZM12.3586 61.8034C12.3189 61.7117 12.2829 61.6201 12.2451 61.5229C12.2829 61.6182 12.3189 61.7062 12.3586 61.8034ZM12.5802 62.3092L12.4613 62.038L12.5802 62.3092ZM12.8162 62.7987C12.773 62.7125 12.7315 62.6154 12.6901 62.5347C12.7315 62.6227 12.773 62.718 12.8162 62.7987ZM13.0649 63.2716C13.0198 63.1891 12.9748 63.1029 12.9315 63.0186C12.9748 63.1029 13.0198 63.1891 13.0649 63.2716ZM13.3243 63.7298C13.2775 63.651 13.2324 63.5685 13.1856 63.486C13.2324 63.5685 13.2775 63.651 13.3243 63.7298ZM13.5964 64.1734C13.5478 64.0964 13.5009 64.0176 13.4523 63.9388C13.5009 64.0176 13.5478 64.0964 13.5964 64.1734ZM13.8811 64.6005C13.8306 64.5271 13.7802 64.4502 13.7315 64.375C13.7802 64.4502 13.8306 64.5271 13.8811 64.6005ZM14.1766 65.011C14.1243 64.9414 14.0739 64.8699 14.0216 64.7966C14.0739 64.8699 14.1243 64.9414 14.1766 65.011ZM14.4847 65.407L14.3243 65.2017L14.4847 65.407ZM14.8036 65.7864C14.7478 65.7222 14.6937 65.6562 14.6379 65.5903C14.6937 65.6562 14.7478 65.7222 14.8036 65.7864ZM15.1333 66.153C15.0757 66.0925 15.0198 66.0283 14.964 65.9697C15.0198 66.032 15.0757 66.0962 15.1333 66.153ZM15.4739 66.4994L15.2937 66.3161L15.4739 66.4994ZM15.8342 66.8312C15.773 66.7762 15.7135 66.7194 15.6541 66.6625C15.7135 66.7194 15.773 66.7762 15.8342 66.8312ZM16.1946 67.1446C16.1315 67.0933 16.0721 67.0401 16.0144 66.987C16.0757 67.0401 16.1351 67.0933 16.1946 67.1446ZM16.5766 67.4617L16.3874 67.3114L16.5766 67.4617ZM16.9586 67.7422L16.7658 67.601L16.9586 67.7422ZM17.337 67.9951H17.346H17.337C17.2757 67.9566 17.2162 67.9145 17.1568 67.8741C17.218 67.9145 17.2775 67.9566 17.337 67.9951ZM35.955 0.00854492C32.382 0.00854492 28.555 1.19081 24.5838 3.52417C17.9784 7.3954 11.7892 14.0307 7.15497 22.1874C2.52074 30.3441 -0.0216069 39.1131 1.47146e-05 46.8353C0.0216363 54.7281 2.71533 60.6614 7.5838 63.5392L17.1514 69.1957L17.218 69.2305C19.2306 70.4055 21.5279 71.0012 24.0487 71.0012C27.6216 71.0012 31.4469 69.8189 35.418 67.4874C42.0216 63.607 48.2108 56.9735 52.8469 48.8095C57.4829 40.6454 60.0216 31.8912 60 24.167C59.9784 16.2853 57.2973 10.3776 52.4559 7.48705L52.4162 7.46139L42.8487 1.80485C40.8198 0.609758 38.5009 0.00854492 35.955 0.00854492Z"
      fill="black" />
    <path
      d="M40.9009 48.6012L31.3334 42.9447C32.3532 42.3453 32.7208 41.0421 32.7406 40.9724L42.3082 46.6289C42.2829 46.6986 41.9154 48.0018 40.9009 48.6012Z"
      fill="#DBF7F5" />
    <path
      d="M40.0505 48.8669L30.4829 43.2122C30.7802 43.1884 31.0703 43.0967 31.328 42.9446L40.9009 48.6011C40.6415 48.7551 40.3496 48.8467 40.0505 48.8669Z"
      fill="#DBF7F5" />
    <path d="M29.9999 53.4678L20.4324 47.8112L24.3477 41.3225L33.9153 46.9791L29.9999 53.4678Z" fill="#DBF7F5" />
    <path
      d="M29.591 53.8674L20.0234 48.2145C20.1838 48.1101 20.3225 47.9744 20.4324 47.8149L30 53.4715C29.8901 53.6291 29.7514 53.7629 29.591 53.8674Z"
      fill="#DBF7F5" />
    <path
      d="M29.3586 53.9461L19.791 48.2895C19.8739 48.2804 19.9532 48.2547 20.0234 48.2107L29.591 53.8672C29.5207 53.9112 29.4415 53.9369 29.3586 53.9461Z"
      fill="#DBF7F5" />
    <path d="M42.3027 46.6287L32.7351 40.9722L36.9657 13.0964L46.5333 18.753L42.3027 46.6287Z" fill="#DBF7F5" />
    <path d="M32.2955 20.3533L41.8631 26.0098L32.2865 20.3533H32.2955Z" fill="#DBF7F5" />
    <path
      d="M36.7567 12.5007L46.3243 18.1536C46.4522 18.2288 46.5333 18.4121 46.5333 18.7493L36.9657 13.0928C36.9657 12.7592 36.8846 12.5759 36.7567 12.5007Z"
      fill="#DBF7F5" />
    <path
      d="M32.236 20.17L41.8018 25.832C41.7675 25.8118 41.7153 25.832 41.654 25.8613C41.4216 26.041 41.2162 26.2517 41.0396 26.4882L31.472 20.8317C31.6486 20.5952 31.854 20.3844 32.0865 20.2048C32.1495 20.17 32.2018 20.1553 32.236 20.17Z"
      fill="#DBF7F5" />
    <path d="M30.128 45.5732L20.5604 39.9185L30.4829 43.2105L40.0505 48.867L30.128 45.5732Z" fill="#DBF7F5" />
    <path d="M26.4847 45.8828L16.9171 40.2263L31.4739 20.8298L41.0414 26.4864L26.4847 45.8828Z" fill="#DBF7F5" />
    <path d="M20.4018 47.0615L10.8342 41.4049L16.9171 40.2263L26.4847 45.8829L20.4018 47.0615Z" fill="#DBF7F5" />
    <path
      d="M19.6937 46.9606L10.1261 41.3059C10.3459 41.4141 10.5946 41.4489 10.8342 41.4049L20.4018 47.0614C20.1603 47.1036 19.9135 47.0688 19.6937 46.9606Z"
      fill="#DBF7F5" />
    <path
      d="M42.2216 2.78245C37.8378 0.190637 31.7676 0.557231 25.0685 4.49078C11.7532 12.3121 0.994606 31.2686 1.03785 46.8323C1.05947 54.5638 3.74055 60.004 8.06488 62.5629L17.6324 68.2194C13.3081 65.6532 10.6216 60.2203 10.6054 52.487C10.5622 36.9251 21.3207 17.9686 34.636 10.1455C41.3351 6.2101 47.4054 5.84534 51.7892 8.43716L42.2216 2.78245Z"
      fill="#0B81AF" />
    <path
      d="M34.8883 10.1473C48.2018 2.32789 59.0324 8.6058 59.0739 24.1695C59.1153 39.7332 48.3586 58.6898 35.0451 66.5111C21.7315 74.3323 10.9009 68.0544 10.8577 52.4889C10.8144 36.9233 21.573 17.9704 34.8883 10.1473ZM42.3027 46.6234L46.5333 18.7476C46.5333 17.9833 46.1243 18.0144 45.6793 18.2765C45.2631 18.5496 44.8811 18.8759 44.546 19.2462L20.4252 44.5118C20.3694 44.5668 19.2847 45.6391 19.3766 46.4327C19.4685 47.2264 20.355 47.0706 20.4018 47.0615L26.4865 45.8829L41.0433 26.4882C41.2198 26.2518 41.4252 26.041 41.6577 25.8614C41.7784 25.7899 41.8649 25.8064 41.8559 26.0098C41.8559 26.0098 42.0072 26.0282 41.5568 26.7852C41.1063 27.5422 30.6793 44.6731 30.1297 45.5749L40.0523 48.8743C40.3496 48.8523 40.6397 48.7606 40.8973 48.6085C41.9171 48.0091 42.2847 46.7059 42.3045 46.6362L42.3027 46.6234ZM30 53.4677L33.9153 46.979L30.0901 45.7344L29.3604 53.9461C29.4433 53.9369 29.5225 53.9113 29.5928 53.8673C29.7532 53.7628 29.8919 53.6271 30 53.4677Z"
      fill="#0396DE" />
    <path
      d="M24.227 70.3072C21.9495 70.3365 19.7063 69.7518 17.7243 68.6098C13.0504 65.8732 10.463 60.1488 10.4414 52.4889C10.3982 36.8152 21.272 17.6625 34.6792 9.78073C41.2756 5.90767 47.4991 5.2918 52.2054 8.04858C56.881 10.7852 59.4594 16.5041 59.4883 24.1677C59.5333 39.8414 48.6612 58.9941 35.2522 66.8758C31.3711 69.156 27.618 70.3072 24.227 70.3072ZM35.0955 10.5139C21.9171 18.2545 11.2306 37.0919 11.2738 52.4889C11.2937 59.8336 13.7315 65.2995 18.1387 67.8858C22.5783 70.4868 28.5081 69.8691 34.8378 66.1536C48.0144 58.413 58.7009 39.5756 58.6576 24.1787C58.6378 16.8358 56.1982 11.3699 51.791 8.78177C47.3531 6.18079 41.4234 6.7985 35.0955 10.5139ZM29.3585 54.3695C29.1279 54.3677 28.9423 54.177 28.9423 53.9424C28.9423 53.9314 28.9423 53.9186 28.9441 53.9076L29.6738 45.6959C29.6792 45.6464 29.6919 45.5969 29.7135 45.5511C29.7171 45.4796 29.7387 45.4118 29.7747 45.3513C30.9081 43.489 37.1621 33.2189 39.9117 28.6896L26.8162 46.1395C26.7531 46.222 26.663 46.2788 26.5621 46.2989L20.4792 47.4812C20.0991 47.5545 19.7063 47.4757 19.382 47.2613C19.1423 47.0743 18.991 46.792 18.9639 46.4859C18.8558 45.5566 19.8342 44.51 20.1351 44.2112L44.2486 18.9566C44.6108 18.557 45.0198 18.2069 45.4702 17.9154C45.8937 17.668 46.2486 17.6258 46.5315 17.789C46.8144 17.9521 46.9477 18.2747 46.9495 18.7513C46.9513 18.7733 46.9513 18.7953 46.9495 18.8173L42.7135 46.693C42.7117 46.7114 42.7081 46.7279 42.7027 46.7462C42.6288 47.0046 42.209 48.317 41.1045 48.9659C40.7928 49.151 40.4414 49.261 40.0811 49.2885C40.027 49.294 39.9729 49.2867 39.9207 49.2702L34.1711 47.3602L30.3549 53.6895C30.3495 53.695 30.3459 53.7005 30.3423 53.7078C30.2 53.9186 30.0162 54.0964 29.8018 54.232C29.6774 54.3072 29.5369 54.3548 29.3928 54.3677L29.3585 54.3695ZM30.4504 46.2971L29.8648 52.8738L33.2774 47.2173L30.4504 46.2971ZM30.7549 45.3385L40.0901 48.438C40.2991 48.4124 40.5009 48.3427 40.6829 48.2346C41.4883 47.7617 41.8378 46.7114 41.8919 46.5354L46.1261 18.7238C46.1261 18.6615 46.1207 18.601 46.1081 18.5405C46.0324 18.5643 45.9603 18.5973 45.8937 18.6395C45.5153 18.8924 45.1675 19.1912 44.8594 19.5303L20.7207 44.8051C20.2288 45.2908 19.7405 46.002 19.7856 46.3833C19.7838 46.4602 19.818 46.5336 19.8774 46.5812C20.0162 46.6545 20.1765 46.6765 20.3297 46.6454L26.2486 45.4979L40.7207 26.2316C40.9261 25.9493 41.1747 25.7019 41.4576 25.4984C41.6288 25.3793 41.8504 25.372 42.0306 25.4764C42.1693 25.5644 42.2612 25.7147 42.2738 25.8815C42.3657 26.1198 42.2738 26.4149 41.9135 27.007C41.4883 27.7163 32.472 42.5322 30.7603 45.3385H30.7549Z"
      fill="black" />
  </g>
  <defs>
    <clipPath id="clip0">
      <rect width="60" height="71" fill="white" />
    </clipPath>
  </defs>
</svg>
