<svg viewBox="0 0 64 73" fill="none" xmlns="http://www.w3.org/2000/svg">
  <g clip-path="url(#clip0)">
    <path
      d="M50.9287 0.855181C51.5578 0.847865 52.1778 1.00699 52.7251 1.31975L60.211 5.69661H60.1983C61.0292 6.17947 61.6529 7.02814 61.9675 8.19688C63.1566 12.4731 63.1421 22.3133 63.1421 22.8291C63.1421 23.3449 63.1694 33.1118 62.0511 38.7251C61.342 41.9533 59.6601 44.8816 57.2363 47.113C52.9506 50.9101 36.6497 60.3771 35.7933 60.8746C34.9369 61.3721 18.6814 70.8135 14.3375 71.9731C13.9229 72.0902 13.4956 72.1505 13.0647 72.156C12.3738 72.1688 11.6955 71.9786 11.1119 71.6073C11.1591 71.6384 11.2064 71.6731 11.2555 71.7024L3.77872 67.3054C2.95322 66.8226 2.33682 65.9757 2.02044 64.8125C0.87856 60.5637 0.851285 50.7455 0.849467 50.2297C0.847649 49.7139 0.820375 39.9487 1.94044 34.3355C2.56411 31.2536 4.45513 27.9613 6.75526 25.8927L14.2411 30.2695C13.1883 31.2334 12.2756 32.3418 11.5283 33.5618C12.2756 32.3418 13.1883 31.2334 14.2411 30.2695L6.7498 25.8927C11.0355 22.0975 27.3346 12.6323 28.1928 12.1329C29.0511 11.6336 45.3502 2.16842 49.6486 1.03443C50.0668 0.917368 50.4996 0.855181 50.9341 0.851523L50.9287 0.855181ZM58.4091 5.22655C58.4473 5.22655 58.4836 5.22655 58.52 5.22655C58.4836 5.22655 58.4473 5.22655 58.4091 5.22655ZM57.9945 5.2485C58.0509 5.2485 58.1036 5.2485 58.1582 5.2485C58.1036 5.2485 58.0509 5.2485 57.9945 5.2485ZM58.9691 5.26861C58.9128 5.26861 58.8582 5.25032 58.8 5.24484C58.8582 5.24484 58.9128 5.2613 58.9691 5.26861ZM57.5709 5.30702L57.7072 5.28873L57.5709 5.30702ZM59.3455 5.34178C59.2891 5.32714 59.2364 5.31068 59.18 5.29971C59.2364 5.31068 59.2891 5.32714 59.3455 5.34178ZM59.7001 5.45152C59.6473 5.4314 59.5964 5.40945 59.5419 5.39299C59.5964 5.40945 59.6473 5.4314 59.7001 5.45152ZM60.0365 5.59784C59.9874 5.57223 59.9383 5.5448 59.8855 5.52102C59.9383 5.5448 59.9874 5.57223 60.0365 5.59784ZM30.2657 37.6844L34.255 32.7021L30.2548 32.3638L30.2693 37.6844H30.2657ZM8.37171 57.1416C8.37171 57.0647 8.37171 56.9916 8.37171 56.9184C8.37171 56.9916 8.37171 57.0647 8.37171 57.1416ZM8.57354 61.9537C8.56263 61.7708 8.5499 61.5733 8.53899 61.3831C8.5499 61.566 8.56263 61.7635 8.57354 61.9537ZM8.67718 63.4169C8.65536 63.1353 8.63354 62.8536 8.61536 62.5719C8.63354 62.8536 8.65536 63.1353 8.67718 63.4169ZM8.74992 64.2766C8.72628 64.0077 8.70264 63.737 8.68082 63.4645C8.70264 63.737 8.72628 64.0132 8.74992 64.2766ZM8.93174 65.9703C8.89174 65.6429 8.85538 65.3081 8.81901 64.9661C8.85538 65.3081 8.89174 65.6429 8.93174 65.9703ZM9.07175 66.9927C9.02811 66.7092 8.98811 66.4184 8.95175 66.1202C8.98811 66.4184 9.02811 66.7092 9.07175 66.9927ZM9.44995 68.9863C9.31904 68.4669 9.20449 67.8724 9.10266 67.2304C9.20449 67.8724 9.31904 68.4669 9.44995 68.9863ZM9.63178 69.6118C9.58451 69.4783 9.54087 69.3411 9.50087 69.1985C9.54087 69.3411 9.58451 69.4783 9.63178 69.6118ZM9.79361 70.0051C9.75543 69.9228 9.7227 69.8368 9.68997 69.7508C9.7227 69.8368 9.75543 69.9228 9.79361 70.0051ZM9.97544 70.3709C9.93725 70.3032 9.90271 70.23 9.86634 70.1605C9.90271 70.23 9.93725 70.3032 9.97544 70.3709ZM10.1882 70.7019C10.1464 70.6434 10.1082 70.5794 10.07 70.519C10.1082 70.5794 10.1464 70.6434 10.1882 70.7019ZM10.4246 70.9982C10.3791 70.9489 10.3391 70.8922 10.2955 70.8391C10.3391 70.8922 10.3791 70.9489 10.4246 70.9982ZM10.6828 71.2634C10.6355 71.2196 10.59 71.1702 10.5446 71.1244C10.59 71.1702 10.6355 71.2196 10.6828 71.2634ZM10.9628 71.4957L10.8155 71.375L10.9628 71.4957ZM50.9287 -0.00263127C50.4196 0.00102678 49.9141 0.0705297 49.4231 0.205877C45.2411 1.31427 30.6493 9.7168 27.7674 11.3922C26.0036 12.4164 10.4155 21.5067 6.18795 25.2507C3.75509 27.4455 1.76225 30.9335 1.10948 34.1562C-0.00512695 39.7055 -0.00512695 49.1707 -0.00512695 50.2315C-0.00512695 51.2923 0.058513 60.7996 1.19676 65.0356C1.56042 66.4001 2.31137 67.439 3.34779 68.0444L10.8373 72.4267C10.8664 72.4432 10.8955 72.4578 10.9264 72.4706C11.5846 72.8309 12.3247 73.0156 13.0738 73.0065C13.5793 73.0028 14.0848 72.9333 14.5721 72.798C18.8068 71.6658 33.3549 63.2871 36.2278 61.6153C37.9916 60.5911 53.5797 51.5008 57.8072 47.755C60.2874 45.5419 62.2348 42.1472 62.8984 38.8952C63.9985 33.3533 64.0058 23.8972 64.0021 22.8272C63.9985 21.7573 63.984 12.2299 62.7984 7.9646C62.4348 6.60746 61.6838 5.56857 60.6474 4.96317L53.1579 0.580827C52.4797 0.189416 51.7105 -0.0117764 50.9287 -0.00263127ZM31.1094 35.2664V33.2911L32.5949 33.4173L31.1148 35.2664H31.1094Z"
      fill="black" />
    <path d="M30.3799 51.3604L22.894 46.9836L37.1349 29.2L44.6207 33.575L30.3799 51.3604Z" fill="#282828" />
    <path
      d="M52.8812 1.22161L60.3671 5.59847C59.5252 5.10646 58.0979 5.09183 56.9087 5.41008C52.6158 6.5459 36.3148 16.0184 35.453 16.5104C34.5911 17.0024 18.2956 26.4749 14.0099 30.2702L6.53314 25.8933C10.8188 22.0981 27.1179 12.6329 27.9762 12.1336C28.8344 11.6342 45.1335 2.16905 49.4319 1.03505C50.6156 0.714972 52.0394 0.729604 52.8812 1.22161Z"
      fill="#FF6E6E" />
    <path
      d="M14.039 30.2702L6.55309 25.8933C4.25115 27.9619 2.36195 31.2542 1.73646 34.3361C0.621848 39.9494 0.645486 49.7163 0.645486 50.2303C0.645486 50.7443 0.674578 60.5643 1.81828 64.8131C2.13466 65.9764 2.74924 66.825 3.57656 67.3061L11.0624 71.6829C10.2351 71.2001 9.62054 70.3514 9.30416 69.19C8.16046 64.9393 8.13318 55.1229 8.13137 54.6053C8.12955 54.0877 8.10227 44.3244 9.22234 38.7111C9.84783 35.631 11.737 32.337 14.039 30.2702Z"
      fill="#BA0000" />
    <path
      d="M62.0508 8.19001C63.24 12.4663 63.2254 22.3064 63.2236 22.8222C63.2218 23.338 63.2527 33.105 62.1326 38.7183C61.509 41.7983 59.6634 45.0137 57.3178 47.1062C53.0339 50.9032 36.733 60.3702 35.8748 60.8677C35.0166 61.3652 18.7629 70.8066 14.419 71.9663C12.0698 72.5991 10.2115 71.5346 9.5733 69.188C8.42959 64.9373 8.40232 55.1209 8.4005 54.6033C8.39868 54.0857 8.37141 44.3224 9.49147 38.7091C10.117 35.629 12.0062 32.335 14.3081 30.2682C18.5974 26.4748 34.8966 17.0077 35.7548 16.5102C36.613 16.0127 52.9085 6.54571 57.2051 5.40989C59.5543 4.77705 61.4108 5.85068 62.0508 8.19001ZM30.3799 51.355L44.6207 33.5695L30.3272 32.3715L30.3799 51.3678"
      fill="#F70000" />
    <path
      d="M13.1626 72.4642C11.2915 72.4642 9.82782 71.3064 9.27506 69.2743C8.15318 65.1042 8.095 55.6701 8.09136 54.6074C8.08772 53.5447 8.09136 44.1362 9.18233 38.6492C9.81328 35.5288 11.7425 32.147 14.0917 30.0308C18.2738 26.327 33.8219 17.2587 35.582 16.2363C37.3421 15.2139 52.9085 6.21691 57.1232 5.10121C59.6216 4.42812 61.669 5.60602 62.3581 8.10263C63.5254 12.3094 63.5436 21.76 63.5418 22.8244C63.54 23.8889 63.5418 33.2956 62.4508 38.7827C61.8144 41.9286 59.9307 45.2117 57.5414 47.3498C53.3594 51.0591 37.804 60.1256 36.0457 61.148C34.2874 62.1704 18.772 71.1399 14.5172 72.2776C14.0753 72.4001 13.6208 72.4623 13.1626 72.4642ZM58.5051 5.54932C58.0942 5.55297 57.6833 5.6115 57.2869 5.72124C53.1576 6.81866 37.6676 15.7681 35.9166 16.7868C34.1656 17.8056 18.6556 26.8465 14.5208 30.5045C12.2661 32.5384 10.4151 35.7831 9.81509 38.7735C8.72412 44.2002 8.72412 53.5557 8.72412 54.6056C8.72412 55.6554 8.78413 65.0145 9.88419 69.1061C10.4806 71.3009 12.1461 72.2502 14.3408 71.6667C18.5229 70.5492 33.9656 61.6162 35.7147 60.6011C37.4639 59.586 52.9648 50.5415 57.1069 46.8834C59.4016 44.8331 61.2089 41.6872 61.8199 38.6693C62.8981 33.2462 62.9108 23.8889 62.8999 22.8391C62.889 21.7892 62.8836 12.4136 61.738 8.29102C61.2726 6.51138 60.0907 5.54932 58.5051 5.54932ZM30.3799 51.681C30.3435 51.681 30.309 51.6755 30.2744 51.6627C30.1472 51.6188 30.0617 51.4962 30.0617 51.3609L30.0072 32.372C30.0072 32.2823 30.0453 32.1964 30.1108 32.136C30.1763 32.0738 30.2635 32.0446 30.3526 32.0519L44.648 33.2645C44.8244 33.281 44.9535 33.4383 44.9371 33.6157C44.9316 33.6779 44.908 33.7364 44.8698 33.784L30.629 51.5694C30.5672 51.6425 30.4745 51.6828 30.3799 51.681ZM30.6454 32.7122L30.6963 50.4537L43.9989 33.8443L30.6454 32.7122Z"
      fill="black" />
    <path d="M33.62 34.2888L30.3253 32.3628L44.6207 33.5754L47.9136 35.5014L33.62 34.2888Z" fill="white" />
    <path d="M33.6728 53.285L30.3799 51.3609L30.3253 32.3628L33.62 34.2888L33.6728 53.285Z" fill="#BFBFBF" />
    <path d="M33.6201 34.2888L47.9136 35.5015L33.6728 53.2851L33.6201 34.2888Z" fill="#EFEFEF" />
    <path
      d="M30.3272 32.3719L44.6207 33.5827L47.9154 35.5086L33.6746 53.2941L30.3799 51.3608L30.3272 32.3719ZM30.3272 31.5159C29.8562 31.5177 29.4762 31.9 29.4762 32.3737L29.5307 51.3699C29.5326 51.6717 29.6926 51.9497 29.9526 52.1015L33.2473 54.0275C33.611 54.2397 34.0746 54.1537 34.3383 53.8245L48.5773 36.0299C48.8737 35.6623 48.8173 35.1245 48.4536 34.8264C48.4191 34.799 48.3827 34.7734 48.3427 34.7496L45.048 32.8236C44.9389 32.7614 44.8189 32.723 44.6934 32.712L30.3981 31.5122H30.3272V31.5159Z"
      fill="black" />
    <path
      d="M10.5133 28.3721C10.457 28.3721 10.4024 28.3556 10.3533 28.3282L6.66402 26.1718C6.5222 26.0675 6.49129 25.8663 6.59493 25.7237C6.68402 25.6011 6.84767 25.5572 6.98586 25.6231L10.6752 27.7795C10.8279 27.8673 10.8806 28.063 10.7933 28.2166C10.7352 28.3172 10.6279 28.3794 10.5133 28.3776V28.3721Z"
      fill="black" />
    <path
      d="M14.3099 30.5902C14.2536 30.5902 14.199 30.5756 14.1499 30.5463L11.4116 28.9386C11.2698 28.8344 11.2388 28.6332 11.3425 28.4905C11.4316 28.368 11.5952 28.3241 11.7334 28.3899L14.4718 29.994C14.6245 30.0818 14.6772 30.2775 14.5899 30.4311C14.5318 30.5317 14.4245 30.5939 14.3099 30.5921V30.5902Z"
      fill="black" />
    <path
      d="M33.6746 46.7296C33.5001 46.7296 33.3564 46.587 33.3546 46.4114L33.3019 34.477L30.0944 32.648C29.9599 32.5346 29.9417 32.3316 30.0544 32.1944C30.1417 32.0901 30.2835 32.0517 30.4108 32.0993L33.7783 34.0179C33.8765 34.0746 33.9383 34.1807 33.9383 34.2959L33.9928 46.4151C33.9947 46.5925 33.8528 46.7351 33.6765 46.737H33.6746V46.7296Z"
      fill="black" />
    <path
      d="M33.6747 53.6068C33.4983 53.6068 33.3565 53.4641 33.3546 53.2867L33.3401 48.1014C33.3401 47.924 33.4819 47.7814 33.6583 47.7795C33.8328 47.7814 33.9747 47.924 33.9765 48.0996L33.991 53.2904C33.9929 53.4678 33.851 53.6105 33.6747 53.6123H33.6728L33.6747 53.6068Z"
      fill="black" />
    <path
      d="M39.2804 35.0898H39.2531L33.5928 34.6106C33.4183 34.596 33.2873 34.4405 33.3019 34.2649C33.3201 34.0894 33.4728 33.9595 33.6474 33.9723L39.3059 34.4515C39.4822 34.4588 39.6186 34.607 39.6113 34.7844C39.6041 34.9618 39.4568 35.099 39.2804 35.0898Z"
      fill="black" />
    <path
      d="M42.6879 35.3788H42.6606L40.2478 35.1757C40.0732 35.1593 39.9423 35.0038 39.9569 34.8282C39.975 34.6526 40.1278 34.5246 40.3023 34.5356L42.7152 34.7404C42.8916 34.7477 43.0279 34.8977 43.0188 35.0733C43.0116 35.2507 42.8643 35.3879 42.6879 35.3788Z"
      fill="black" />
    <path
      d="M47.9154 35.8212H47.8881L44.4061 35.5249C44.2316 35.5103 44.1025 35.3567 44.117 35.1811V35.1793C44.1334 35.0037 44.2861 34.8738 44.4607 34.8866L47.9427 35.1811C48.1191 35.1884 48.2554 35.3384 48.2463 35.514C48.2391 35.6914 48.0918 35.8286 47.9154 35.8212Z"
      fill="black" />
  </g>
  <defs>
    <clipPath id="clip0">
      <rect width="64" height="73" fill="white" />
    </clipPath>
  </defs>
</svg>
