<?xml version="1.0" encoding="UTF-8" standalone="no"?>
<svg xmlns:dc="http://purl.org/dc/elements/1.1/" xmlns:cc="http://creativecommons.org/ns#"
   xmlns:rdf="http://www.w3.org/1999/02/22-rdf-syntax-ns#" xmlns:svg="http://www.w3.org/2000/svg"
   xmlns="http://www.w3.org/2000/svg" xmlns:sodipodi="http://sodipodi.sourceforge.net/DTD/sodipodi-0.dtd"
   xmlns:inkscape="http://www.inkscape.org/namespaces/inkscape" viewBox="0 0 40 40" version="1.1" id="svg6"
   sodipodi:docname="twitter.svg" inkscape:version="1.0.1 (0767f8302a, 2020-10-17)">
   <metadata id="metadata12">
      <rdf:RDF>
         <cc:Work rdf:about="">
            <dc:format>image/svg+xml</dc:format>
            <dc:type rdf:resource="http://purl.org/dc/dcmitype/StillImage" />
         </cc:Work>
      </rdf:RDF>
   </metadata>
   <defs id="defs10" />
   <sodipodi:namedview pagecolor="#ffffff" bordercolor="#666666" borderopacity="1" objecttolerance="10"
      gridtolerance="10" guidetolerance="10" inkscape:pageopacity="0" inkscape:pageshadow="2"
      inkscape:window-width="1280" inkscape:window-height="671" id="namedview8" showgrid="false" inkscape:zoom="22.075"
      inkscape:cx="20" inkscape:cy="20" inkscape:window-x="0" inkscape:window-y="737" inkscape:window-maximized="0"
      inkscape:current-layer="svg6" />
   <path
      d="M15.64 29.55C24.51 29.55 29.36 22.2 29.36 15.83C29.36 15.62 29.36 15.41 29.35 15.21C30.29 14.53 31.11 13.68 31.76 12.71C30.9 13.09 29.97 13.35 28.99 13.47C29.99 12.87 30.75 11.93 31.11 10.8C30.18 11.35 29.15 11.75 28.05 11.97C27.17 11.03 25.92 10.45 24.53 10.45C21.87 10.45 19.71 12.61 19.71 15.27C19.71 15.65 19.75 16.02 19.84 16.37C15.83 16.17 12.28 14.25 9.90002 11.33C9.49002 12.04 9.25002 12.87 9.25002 13.75C9.25002 15.42 10.1 16.9 11.4 17.76C10.61 17.74 9.87002 17.52 9.22002 17.16C9.22002 17.18 9.22002 17.2 9.22002 17.22C9.22002 19.56 10.88 21.5 13.09 21.95C12.69 22.06 12.26 22.12 11.82 22.12C11.51 22.12 11.21 22.09 10.91 22.03C11.52 23.95 13.3 25.34 15.41 25.38C13.76 26.67 11.68 27.44 9.42002 27.44C9.03002 27.44 8.65002 27.42 8.27002 27.37C10.38 28.75 12.92 29.55 15.64 29.55Z"
      id="path4" />
</svg>
