<svg id="Layer_1" data-name="Layer 1" xmlns="http://www.w3.org/2000/svg" viewBox="0 0 448 489.61"><defs><style>.cls-1{opacity:0.32;}.cls-2{fill:#1e1e1e;}.cls-3{fill:#3a3a3a;}.cls-4{fill:#777;}.cls-5{fill:#fff;}.cls-6{opacity:0.47;}.cls-7{fill:#69a01c;}.cls-8{isolation:isolate;}</style></defs><g class="cls-1"><path d="M237.53,491.76c-6.08,3.81-16.1,4.1-22.31.57l-174-93.9c-6.21-3.39-6.35-9.18-.42-13l232-142.89c6.07-3.82,16.09-4.1,22.3-.57l174.1,94c6.21,3.39,6.36,9.18.43,13Z" transform="translate(-26 -5.19)"/></g><path class="cls-2" d="M45.5,363.55c-.57-.14-12.85-2.68-13.13-10.16L27,163.9c-.14-7.2,4.38-15.81,10.59-19.77l222-136.4a11.83,11.83,0,0,1,6.07-1.55,21.66,21.66,0,0,1,9,2.26l.57.28,2.11,195c.15,7.2-4.37,15.81-10.59,19.77L46.06,363.84Z" transform="translate(-26 -5.19)"/><path d="M265.48,7.17a23.35,23.35,0,0,1,8.62,2l2.11,194.43c.15,6.77-4.37,15.25-10.16,18.92L45.64,362.71s-12.14-2.4-12.29-9.32L28,163.9c-.14-6.78,4.38-15.25,10.16-18.92L260,8.58a9.72,9.72,0,0,1,5.5-1.41m0-2A11.72,11.72,0,0,0,258.85,7L37,143.43c-6.35,3.95-11.29,13-11,20.47l5.37,189.49c.28,8.33,13.27,11,13.83,11.15l.71.14.57-.42L266.9,224.19c6.35-3.95,11.29-13,11-20.47L275.79,9.29V8.16l-1-.57c0-.28-4.37-2.4-9.32-2.4Z" transform="translate(-26 -5.19)"/><path class="cls-2" d="M227.22,478.21a22,22,0,0,1-10.45-2.4L50.44,385.86c-6.36-3.53-5.37-14.54-5.37-15v-.43L271.84,235.06c3-2,7.34-3,11.86-3a22,22,0,0,1,10.45,2.4l171.13,88,.14.42c0,.42,1.69,11.29-4.52,15.11l-222,137.1A22.84,22.84,0,0,1,227.22,478.21Z" transform="translate(-26 -5.19)"/><path d="M283.7,233a21,21,0,0,1,10,2.25l170.71,87.69s1.7,10.73-4.09,14.26L238.51,474.25a23.15,23.15,0,0,1-21.32.71L50.86,385c-5.93-3.25-4.94-14-4.94-14L272.26,235.91a21,21,0,0,1,11.44-3m0-2h0c-4.66,0-9.18,1.13-12.29,3.25L45.07,369.34l-.84.43-.15,1c0,.43-1.12,12,5.94,15.82l166.33,89.94a23.63,23.63,0,0,0,10.87,2.54c4.66,0,9.18-1.13,12.28-3.24L461.32,338.7c6.78-4.23,5.09-15.67,4.95-16.09l-.14-1-.85-.43L294.71,233.51a23.11,23.11,0,0,0-11-2.54Z" transform="translate(-26 -5.19)"/><path class="cls-3" d="M238.23,466.2c-5.79,3.68-15.39,4-21.32.57L50.58,376.83c-5.93-3.25-6.07-8.76-.42-12.29l222-136.68c5.79-3.67,15.39-4,21.32-.56l166.33,89.94c5.93,3.25,6.07,8.76.43,12.29Z" transform="translate(-26 -5.19)"/><path class="cls-4" d="M242.33,455.19c-5.37,3.25-14,3.39-19.63.57L71.34,374c-5.65-3-5.79-8.05-.43-11.29L272.4,238.59c5.37-3.24,14-3.39,19.63-.56l151.36,81.61c5.65,3,5.79,8.05.43,11.3Z" transform="translate(-26 -5.19)"/><path class="cls-3" d="M47.33,364c-3.95,0-6.78-3.39-6.92-8.47L35.05,166c-.14-7.2,4.38-15.82,10.59-19.77L267.46,10a10.62,10.62,0,0,1,5.37-1.83c3.95,0,6.77,3.39,6.91,8.47l5.37,189.06c.14,7.21-4.38,15.82-10.59,19.77L52.7,362.28A10.37,10.37,0,0,1,47.33,364Z" transform="translate(-26 -5.19)"/><path d="M272.83,9.15c3.38,0,5.78,2.68,5.93,7.48l5.36,189.06c.14,6.78-4.38,15.25-10.16,18.93L52.13,361.29a10.5,10.5,0,0,1-4.94,1.56c-3.39,0-5.79-2.68-5.93-7.49L35.9,165.88c-.15-6.78,4.37-15.25,10.16-18.92L268,10.56a11.44,11.44,0,0,1,4.81-1.41m0-1.84h0a9.94,9.94,0,0,0-5.93,2L45.07,145.54c-6.35,4-11.29,13-11,20.48l5.37,189.49c.14,5.64,3.24,9.31,7.76,9.31a10,10,0,0,0,5.93-2L275.08,226c6.36-4,11.3-13,11-20.48L280.73,16.49c-.14-5.65-3.25-9.18-7.9-9.18Z" transform="translate(-26 -5.19)"/><path class="cls-5" d="M59.33,346.75c-3.67,0-6.07-3-6.21-7.62L48.18,168c-.14-6.49,4-14.26,9.6-17.79L258.28,26.94a10.08,10.08,0,0,1,4.94-1.56c3.68,0,6.08,3,6.22,7.63l4.94,170.85c.14,6.49-3.95,14.26-9.6,17.79L64.28,345.2A10.51,10.51,0,0,1,59.33,346.75Z" transform="translate(-26 -5.19)"/><path d="M263.08,26.23c3.11,0,5.23,2.4,5.37,6.78l4.94,170.85c.14,6.21-3.95,13.7-9.18,17.08L63.71,344.49a8.31,8.31,0,0,1-4.38,1.41c-3.1,0-5.22-2.4-5.36-6.77L49,168c-.14-6.21,3.95-13.69,9.17-17.08L258.71,27.64a8.39,8.39,0,0,1,4.37-1.41m0-1.69h0a10.32,10.32,0,0,0-5.36,1.69L57.22,149.5c-5.79,3.67-10.17,11.72-10,18.64l4.94,171.13c.14,5.08,3,8.47,7.06,8.47a10.45,10.45,0,0,0,5.37-1.69L265.06,222.5c5.79-3.67,10.17-11.72,10-18.64L270.14,33c-.14-5.08-2.82-8.47-7.06-8.47Z" transform="translate(-26 -5.19)"/><path class="cls-7" d="M281.44,279.82a14.06,14.06,0,0,1-4.94-1l-9.18-4.95a4.29,4.29,0,0,1-2.68-3.53,4.17,4.17,0,0,1,2.54-3.67L294.29,250a11.87,11.87,0,0,1,5.65-1.27,13.93,13.93,0,0,1,4.94,1l9.18,4.94a4.32,4.32,0,0,1,2.68,3.53,4.18,4.18,0,0,1-2.54,3.67l-27,16.66A16.32,16.32,0,0,1,281.44,279.82Z" transform="translate(-26 -5.19)"/><path d="M299.94,249.75a10.42,10.42,0,0,1,4.37.85l9,4.94c2.82,1.27,2.82,4.09.14,5.5l-27.11,16.67a10.07,10.07,0,0,1-5.08,1.13,10.59,10.59,0,0,1-4.38-.85l-9-4.94c-2.82-1.27-2.82-4.1-.14-5.51l27.11-16.66a11.21,11.21,0,0,1,5.09-1.13m0-2h0a12.2,12.2,0,0,0-6.08,1.41h-.14l-27,16.66a5.15,5.15,0,0,0-3,4.52c0,1.84,1.27,3.39,3.25,4.38l9,4.94h.14a13,13,0,0,0,5.37,1,12,12,0,0,0,6.07-1.41h.14l27-16.66a5.14,5.14,0,0,0,3-4.52c0-1.84-1.27-3.39-3.25-4.38l-9-4.94h-.14a16.57,16.57,0,0,0-5.36-1Z" transform="translate(-26 -5.19)"/><path class="cls-3" d="M281.44,278.41a13.85,13.85,0,0,1-4.94-1l-9.18-4.94a4.3,4.3,0,0,1-2.68-3.53,4.17,4.17,0,0,1,2.54-3.67l27.11-16.66a11.87,11.87,0,0,1,5.65-1.27,13.93,13.93,0,0,1,4.94,1l9.18,4.94a4.3,4.3,0,0,1,2.68,3.53,4.18,4.18,0,0,1-2.54,3.67l-27,16.66A13.78,13.78,0,0,1,281.44,278.41Z" transform="translate(-26 -5.19)"/><path d="M299.94,248.34a10.58,10.58,0,0,1,4.37.84l9,4.95c2.82,1.27,2.82,4.09.14,5.5l-27.11,16.66a10,10,0,0,1-5.08,1.13,10.6,10.6,0,0,1-4.38-.84l-9-4.95c-2.82-1.27-2.82-4.09-.14-5.5l27.11-16.66a11.21,11.21,0,0,1,5.09-1.13m0-1.84h0a12.09,12.09,0,0,0-6.08,1.41h-.14l-27,16.66a5.15,5.15,0,0,0-3,4.52c0,1.84,1.27,3.39,3.25,4.38l9,4.94h.14a13,13,0,0,0,5.37,1,12,12,0,0,0,6.07-1.41h.14l27-16.66a5.14,5.14,0,0,0,3-4.52c0-1.84-1.27-3.39-3.25-4.38l-9-4.94h-.14a13.82,13.82,0,0,0-5.36-1Z" transform="translate(-26 -5.19)"/><path class="cls-7" d="M144.76,363.84a14.07,14.07,0,0,1-4.94-1l-9.18-4.94a4.32,4.32,0,0,1-2.68-3.53,4.17,4.17,0,0,1,2.54-3.68l20.61-12.56a11.89,11.89,0,0,1,5.65-1.27,13.85,13.85,0,0,1,4.94,1l9.18,4.94a4.29,4.29,0,0,1,2.68,3.53A4.17,4.17,0,0,1,171,350l-20.47,12.57A13,13,0,0,1,144.76,363.84Z" transform="translate(-26 -5.19)"/><path d="M156.76,337.71a10.63,10.63,0,0,1,4.38.85l9,4.94c2.83,1.27,2.83,4.1.15,5.51L149.7,361.72a10,10,0,0,1-5.08,1.13,10.44,10.44,0,0,1-4.38-.85l-9-4.94c-2.82-1.27-2.82-4.1-.14-5.51l20.62-12.71a11.79,11.79,0,0,1,5.08-1.13m0-1.83h0a12,12,0,0,0-6.07,1.41h-.14l-20.48,12.57a5.14,5.14,0,0,0-3,4.52c0,1.83,1.27,3.38,3.25,4.37l9,4.95h.14a13.12,13.12,0,0,0,5.37,1,12,12,0,0,0,6.07-1.41h.14l20.62-12.57a5.13,5.13,0,0,0,3-4.51c0-1.84-1.27-3.39-3.24-4.38l-9-4.94h-.14a17.22,17.22,0,0,0-5.51-1Z" transform="translate(-26 -5.19)"/><path class="cls-3" d="M144.62,362.42a14.06,14.06,0,0,1-4.94-1l-9.18-4.95a4.27,4.27,0,0,1-2.68-3.53c-.15-1.55.84-2.82,2.54-3.67L151,336.73a11.87,11.87,0,0,1,5.65-1.27,14.06,14.06,0,0,1,4.94,1l9.18,4.95a4.29,4.29,0,0,1,2.68,3.53,4.18,4.18,0,0,1-2.54,3.67l-20.61,12.56A11.51,11.51,0,0,1,144.62,362.42Z" transform="translate(-26 -5.19)"/><path d="M156.76,336.44a10.63,10.63,0,0,1,4.38.85l9,4.94c2.83,1.27,2.83,4.1.15,5.51L149.7,360.45a10.07,10.07,0,0,1-5.08,1.13,10.59,10.59,0,0,1-4.38-.85l-9-4.94c-2.82-1.27-2.82-4.1-.14-5.51l20.62-12.71a10.07,10.07,0,0,1,5.08-1.13m0-2h0a12,12,0,0,0-6.07,1.41h-.14l-20.62,12.57a5.13,5.13,0,0,0-3,4.51c0,1.84,1.27,3.39,3.25,4.38l9,4.94h.14a13,13,0,0,0,5.37,1,12,12,0,0,0,6.07-1.41H151l20.62-12.57a5.14,5.14,0,0,0,3-4.52c0-1.83-1.27-3.38-3.25-4.37l-9-4.94h-.14a15.7,15.7,0,0,0-5.37-1Z" transform="translate(-26 -5.19)"/><path class="cls-7" d="M109.32,386.29a14.07,14.07,0,0,1-4.94-1l-9.18-4.94a4.32,4.32,0,0,1-2.68-3.53c-.15-1.56.84-2.83,2.54-3.67l20.61-12.57a11.89,11.89,0,0,1,5.65-1.27,13.85,13.85,0,0,1,4.94,1l9.18,4.94a4.3,4.3,0,0,1,2.68,3.53,4.17,4.17,0,0,1-2.54,3.67L115,385A15.15,15.15,0,0,1,109.32,386.29Z" transform="translate(-26 -5.19)"/><path d="M121.32,360.17a10.63,10.63,0,0,1,4.38.84l9,4.94c2.83,1.28,2.83,4.1.15,5.51l-20.62,12.71a10,10,0,0,1-5.08,1.13,10.44,10.44,0,0,1-4.38-.85l-9-4.94c-2.82-1.27-2.82-4.1-.14-5.51l20.62-12.71a10,10,0,0,1,5.08-1.12m0-2h0a12,12,0,0,0-6.07,1.41h-.14L94.49,372.17a5.14,5.14,0,0,0-3,4.52c0,1.83,1.27,3.38,3.24,4.37l9,4.94H104a13,13,0,0,0,5.37,1,12,12,0,0,0,6.07-1.41h.14L136.15,373a5.13,5.13,0,0,0,3-4.51c0-1.84-1.27-3.39-3.25-4.38l-9-4.94h-.14a13.4,13.4,0,0,0-5.37-1Z" transform="translate(-26 -5.19)"/><path class="cls-3" d="M109.18,384.45a13.85,13.85,0,0,1-4.94-1l-9-4.94A4.32,4.32,0,0,1,92.52,375a4.17,4.17,0,0,1,2.54-3.67l20.61-12.57a12,12,0,0,1,5.65-1.27,14.07,14.07,0,0,1,4.94,1l9.18,4.94a4.32,4.32,0,0,1,2.68,3.53,4.16,4.16,0,0,1-2.54,3.67L115,383.18A12.89,12.89,0,0,1,109.18,384.45Z" transform="translate(-26 -5.19)"/><path d="M121.18,358.33a10.47,10.47,0,0,1,4.38.85l9,4.94c2.83,1.27,2.83,4.09.14,5.51l-20.61,12.7a10,10,0,0,1-5.08,1.13,10.6,10.6,0,0,1-4.38-.84l-9-4.95c-2.82-1.27-2.82-4.09-.14-5.5l20.62-12.71a12.58,12.58,0,0,1,5.08-1.13m0-1.84h0a12,12,0,0,0-6.07,1.42H115L94.49,370.47a5.15,5.15,0,0,0-3,4.52c0,1.84,1.27,3.39,3.24,4.38l9,4.94H104a13,13,0,0,0,5.37,1,12.13,12.13,0,0,0,6.07-1.41h.14l20.62-12.57a5.14,5.14,0,0,0,3-4.52c0-1.83-1.27-3.39-3.25-4.38l-9-4.94h-.14a17.49,17.49,0,0,0-5.51-1Z" transform="translate(-26 -5.19)"/><path class="cls-7" d="M248,300.72a13.93,13.93,0,0,1-4.94-1l-9.18-4.94a4.32,4.32,0,0,1-2.68-3.53,4.18,4.18,0,0,1,2.54-3.67L254.33,275a12,12,0,0,1,5.65-1.27,14.11,14.11,0,0,1,4.94,1l9.18,4.94a4.32,4.32,0,0,1,2.68,3.53,4.17,4.17,0,0,1-2.54,3.67l-20.62,12.57A14.33,14.33,0,0,1,248,300.72Z" transform="translate(-26 -5.19)"/><path d="M260,274.6a10.42,10.42,0,0,1,4.37.85l9,4.94c2.82,1.27,2.82,4.09.14,5.5L252.92,298.6a10,10,0,0,1-5.09,1.13,10.58,10.58,0,0,1-4.37-.84l-9-4.95c-2.82-1.27-2.82-4.09-.14-5.5l20.61-12.71A11.69,11.69,0,0,1,260,274.6m0-2A12.2,12.2,0,0,0,253.9,274h-.14L233.15,286.6a5.13,5.13,0,0,0-3,4.52c0,1.83,1.27,3.39,3.25,4.38l9,4.94h.14a13.08,13.08,0,0,0,5.36,1,12.09,12.09,0,0,0,6.08-1.42h.14l20.61-12.56a5.14,5.14,0,0,0,3-4.52c0-1.84-1.27-3.39-3.25-4.38l-9-4.94h-.14a15.88,15.88,0,0,0-5.36-1Z" transform="translate(-26 -5.19)"/><path class="cls-3" d="M247.83,298.89a14.11,14.11,0,0,1-4.94-1L233.71,293a4.29,4.29,0,0,1-2.68-3.53,4.18,4.18,0,0,1,2.54-3.67l20.62-12.56a11.87,11.87,0,0,1,5.65-1.27,14.15,14.15,0,0,1,4.94,1l9.18,5a4.29,4.29,0,0,1,2.68,3.53,4.18,4.18,0,0,1-2.54,3.67l-20.62,12.56A11.87,11.87,0,0,1,247.83,298.89Z" transform="translate(-26 -5.19)"/><path d="M260,272.9a10.58,10.58,0,0,1,4.37.85l9,4.94c2.82,1.27,2.82,4.1.14,5.51l-20.61,12.71a10,10,0,0,1-5.09,1.13,10.42,10.42,0,0,1-4.37-.85l-9-4.94c-2.82-1.27-2.82-4.1-.14-5.51L254.89,274A10.92,10.92,0,0,1,260,272.9m0-2a12.09,12.09,0,0,0-6.08,1.41h-.14l-20.61,12.57a5.12,5.12,0,0,0-3,4.51c0,1.84,1.27,3.39,3.25,4.38l9,4.94h.14a12.91,12.91,0,0,0,5.36,1,12.09,12.09,0,0,0,6.08-1.41h.14l20.61-12.57a5.12,5.12,0,0,0,3-4.51c0-1.84-1.27-3.39-3.25-4.38l-9-4.94h-.14a15.64,15.64,0,0,0-5.36-1Z" transform="translate(-26 -5.19)"/><path class="cls-7" d="M213.8,321.62a14.16,14.16,0,0,1-4.94-1l-9.18-4.94a4.32,4.32,0,0,1-2.68-3.53,4.17,4.17,0,0,1,2.54-3.67l20.62-12.57a11.87,11.87,0,0,1,5.65-1.27,13.89,13.89,0,0,1,4.94,1l9.18,4.94a4.32,4.32,0,0,1,2.68,3.53,4.18,4.18,0,0,1-2.54,3.67l-20.62,12.57A12.39,12.39,0,0,1,213.8,321.62Z" transform="translate(-26 -5.19)"/><path d="M225.81,295.5a10.58,10.58,0,0,1,4.37.84l9,5c2.82,1.27,2.82,4.09.14,5.5L218.75,319.5a10,10,0,0,1-5.09,1.13,10.42,10.42,0,0,1-4.37-.85l-9-4.94c-2.82-1.27-2.82-4.09-.14-5.51l20.61-12.7a11.69,11.69,0,0,1,5.09-1.13m0-1.84a12.09,12.09,0,0,0-6.08,1.41h-.14L199,307.64a5.13,5.13,0,0,0-3,4.52c0,1.83,1.27,3.39,3.25,4.37l9,5h.14a13.08,13.08,0,0,0,5.36,1,12.09,12.09,0,0,0,6.08-1.42H220l20.61-12.56a5.14,5.14,0,0,0,3-4.52c0-1.84-1.27-3.39-3.25-4.38l-9-4.94h-.14a12.91,12.91,0,0,0-5.36-1Z" transform="translate(-26 -5.19)"/><path class="cls-3" d="M213.66,320.21a14.11,14.11,0,0,1-4.94-1l-9-4.94a4.32,4.32,0,0,1-2.68-3.53,4.19,4.19,0,0,1,2.54-3.68l20.62-12.56a11.87,11.87,0,0,1,5.65-1.27,13.89,13.89,0,0,1,4.94,1l9.18,4.94a4.29,4.29,0,0,1,2.68,3.53,4.18,4.18,0,0,1-2.54,3.67l-20.62,12.57A13,13,0,0,1,213.66,320.21Z" transform="translate(-26 -5.19)"/><path d="M225.81,294.23a10.58,10.58,0,0,1,4.37.84l9,4.94c2.82,1.28,2.82,4.1.14,5.51l-20.61,12.71a10,10,0,0,1-5.09,1.13,10.42,10.42,0,0,1-4.37-.85l-9-4.94c-2.82-1.27-2.82-4.09-.14-5.51l20.61-12.7a10,10,0,0,1,5.09-1.13m0-2h0a12.09,12.09,0,0,0-6.08,1.41h-.14L199,306.23a5.13,5.13,0,0,0-3,4.52c0,1.83,1.27,3.38,3.25,4.37l9,4.94h.14a12.91,12.91,0,0,0,5.36,1,12.09,12.09,0,0,0,6.08-1.41H220l20.61-12.57a5.12,5.12,0,0,0,3-4.51c0-1.84-1.27-3.39-3.25-4.38l-9-4.94h-.14a16.3,16.3,0,0,0-5.36-1Z" transform="translate(-26 -5.19)"/><path class="cls-7" d="M179.63,342.94a13.93,13.93,0,0,1-4.94-1L165.52,337a4.31,4.31,0,0,1-2.69-3.53,4.17,4.17,0,0,1,2.54-3.67L186,317.24a11.87,11.87,0,0,1,5.65-1.27,13.89,13.89,0,0,1,4.94,1l9.18,4.94a4.32,4.32,0,0,1,2.68,3.53c.14,1.55-.85,2.82-2.54,3.67l-20.48,12.57A12.86,12.86,0,0,1,179.63,342.94Z" transform="translate(-26 -5.19)"/><path d="M191.64,316.82a10.58,10.58,0,0,1,4.37.84l9,4.95c2.82,1.27,2.82,4.09.14,5.5l-20.61,12.71a10,10,0,0,1-5.09,1.13,10.42,10.42,0,0,1-4.37-.85l-9-4.94c-2.82-1.27-2.82-4.09-.14-5.51L186.55,318a11.69,11.69,0,0,1,5.09-1.13m0-2h0a12,12,0,0,0-6.07,1.41h-.15l-20.61,12.57a5.13,5.13,0,0,0-3,4.52c0,1.83,1.27,3.39,3.25,4.37l9,5h.14a13.08,13.08,0,0,0,5.36,1,12.09,12.09,0,0,0,6.08-1.41h.14l20.61-12.56a5.14,5.14,0,0,0,3-4.52c0-1.84-1.27-3.39-3.25-4.38l-9-4.94H197a15.64,15.64,0,0,0-5.36-1Z" transform="translate(-26 -5.19)"/><path class="cls-3" d="M179.63,341.24a14.15,14.15,0,0,1-4.94-1l-9.17-4.95a4.28,4.28,0,0,1-2.69-3.53,4.18,4.18,0,0,1,2.54-3.67L186,315.55a11.87,11.87,0,0,1,5.65-1.27,14.11,14.11,0,0,1,4.94,1l9.18,4.95a4.29,4.29,0,0,1,2.68,3.53,4.18,4.18,0,0,1-2.54,3.67L185.28,340A12.27,12.27,0,0,1,179.63,341.24Z" transform="translate(-26 -5.19)"/><path d="M191.64,315.12A10.58,10.58,0,0,1,196,316l9,4.94c2.82,1.27,2.82,4.1.14,5.51l-20.61,12.71a10.11,10.11,0,0,1-5.09,1.13,10.58,10.58,0,0,1-4.37-.85l-9-4.94c-2.82-1.27-2.82-4.1-.14-5.51l20.61-12.71a10.11,10.11,0,0,1,5.09-1.13m0-2h0a12,12,0,0,0-6.07,1.41h-.15l-20.61,12.56a5.14,5.14,0,0,0-3,4.52c0,1.84,1.27,3.39,3.25,4.38l9,4.94h.14a12.91,12.91,0,0,0,5.36,1,12.09,12.09,0,0,0,6.08-1.41h.14L206.46,328a5.13,5.13,0,0,0,3-4.52c0-1.83-1.27-3.39-3.25-4.37l-9-4.95H197a16.56,16.56,0,0,0-5.36-1Z" transform="translate(-26 -5.19)"/><path class="cls-7" d="M302.76,294.65a13.85,13.85,0,0,1-4.94-1l-9.18-4.94a4.32,4.32,0,0,1-2.68-3.53,4.17,4.17,0,0,1,2.54-3.67l27-16.66a11.87,11.87,0,0,1,5.65-1.27,14.15,14.15,0,0,1,4.94,1l9.18,4.95a4.29,4.29,0,0,1,2.68,3.53,4.18,4.18,0,0,1-2.54,3.67l-27,16.66A11.89,11.89,0,0,1,302.76,294.65Z" transform="translate(-26 -5.19)"/><path d="M321.26,264.57a10.58,10.58,0,0,1,4.37.85l9,4.94c2.82,1.27,2.82,4.1.14,5.51L307.7,292.53a10,10,0,0,1-5.08,1.13,10.47,10.47,0,0,1-4.38-.85l-9-4.94c-2.82-1.27-2.82-4.09-.14-5.5l27.11-16.67a11.83,11.83,0,0,1,5.09-1.13m0-2a12.09,12.09,0,0,0-6.08,1.41H315l-27,16.66a5.14,5.14,0,0,0-3,4.52c0,1.83,1.27,3.39,3.25,4.38l9,4.94h.15a13,13,0,0,0,5.36,1,12,12,0,0,0,6.07-1.42h.14l27-16.66a5.13,5.13,0,0,0,3-4.52c0-1.83-1.27-3.38-3.25-4.37l-9-4.94h-.14a15.64,15.64,0,0,0-5.36-1Z" transform="translate(-26 -5.19)"/><path class="cls-3" d="M302.76,293.24a14.07,14.07,0,0,1-4.94-1l-9.18-4.94a4.32,4.32,0,0,1-2.68-3.53,4.16,4.16,0,0,1,2.54-3.67l27-16.67a12,12,0,0,1,5.65-1.27,14.16,14.16,0,0,1,4.94,1l9.18,4.94a4.32,4.32,0,0,1,2.68,3.53,4.19,4.19,0,0,1-2.54,3.68l-27,16.66A12,12,0,0,1,302.76,293.24Z" transform="translate(-26 -5.19)"/><path d="M321.26,263.3a10.58,10.58,0,0,1,4.37.85l9,4.94c2.82,1.27,2.82,4.1.14,5.51L307.7,291.26a10,10,0,0,1-5.08,1.13,10.47,10.47,0,0,1-4.38-.85l-9-4.94c-2.82-1.27-2.82-4.09-.14-5.51l27.11-16.66a10.11,10.11,0,0,1,5.09-1.13m0-2a12.09,12.09,0,0,0-6.08,1.41H315l-27,16.66a5.14,5.14,0,0,0-3,4.52c0,1.83,1.27,3.39,3.25,4.38l9,4.94h.15a13,13,0,0,0,5.36,1,12,12,0,0,0,6.07-1.42h.14l27-16.66a5.13,5.13,0,0,0,3-4.52c0-1.83-1.27-3.38-3.25-4.37l-9-4.95h-.14a13.08,13.08,0,0,0-5.36-1Z" transform="translate(-26 -5.19)"/><path class="cls-7" d="M166.22,379.09a14.11,14.11,0,0,1-4.94-1l-9.18-4.94a4.32,4.32,0,0,1-2.68-3.53A4.19,4.19,0,0,1,152,366l20.47-12.7a11.89,11.89,0,0,1,5.65-1.27,14.06,14.06,0,0,1,4.94,1l9.18,5a4.29,4.29,0,0,1,2.68,3.53,4.17,4.17,0,0,1-2.54,3.67l-20.61,12.56A11.34,11.34,0,0,1,166.22,379.09Z" transform="translate(-26 -5.19)"/><path d="M178.22,353a10.59,10.59,0,0,1,4.38.85l9,4.94c2.82,1.27,2.82,4.1.14,5.51L171.16,377a10,10,0,0,1-5.08,1.13,10.63,10.63,0,0,1-4.38-.85l-9-4.94c-2.83-1.27-2.83-4.1-.15-5.51l20.62-12.71a11.79,11.79,0,0,1,5.08-1.13m0-1.83h0a12.05,12.05,0,0,0-6.07,1.41H172L151.4,365.11a5.13,5.13,0,0,0-3,4.52c0,1.83,1.27,3.38,3.25,4.37l9,4.94h.15a12.88,12.88,0,0,0,5.36,1,12,12,0,0,0,6.07-1.41h.14L193.05,366a5.11,5.11,0,0,0,3-4.51c0-1.84-1.27-3.39-3.24-4.38l-9-4.94h-.14a12.93,12.93,0,0,0-5.37-1Z" transform="translate(-26 -5.19)"/><path class="cls-3" d="M166.08,377.39a13.85,13.85,0,0,1-4.94-1L152,371.46a4.32,4.32,0,0,1-2.68-3.53c-.14-1.55.84-2.82,2.54-3.67l20.61-12.57a12,12,0,0,1,5.65-1.27,14.07,14.07,0,0,1,4.94,1l9.18,4.94a4.32,4.32,0,0,1,2.68,3.53,4.16,4.16,0,0,1-2.54,3.67l-20.61,12.57A11.89,11.89,0,0,1,166.08,377.39Z" transform="translate(-26 -5.19)"/><path d="M178.22,351.27a10.44,10.44,0,0,1,4.38.85l9,4.94c2.82,1.27,2.82,4.09.14,5.51l-20.62,12.7a9.94,9.94,0,0,1-5.08,1.13,10.63,10.63,0,0,1-4.38-.84l-9-4.95c-2.83-1.27-2.83-4.09-.15-5.5l20.62-12.71a11.64,11.64,0,0,1,5.08-1.13m0-1.84h0a12.06,12.06,0,0,0-6.07,1.42H172L151.4,363.41a5.14,5.14,0,0,0-3,4.52c0,1.84,1.27,3.39,3.25,4.38l9,4.94h.15a12.88,12.88,0,0,0,5.36,1,12.13,12.13,0,0,0,6.07-1.41h.14l20.62-12.57a5.12,5.12,0,0,0,3-4.52c0-1.83-1.27-3.39-3.24-4.38l-9-4.94h-.14a13.09,13.09,0,0,0-5.37-1Z" transform="translate(-26 -5.19)"/><path class="cls-7" d="M130.64,401.11a13.85,13.85,0,0,1-4.94-1l-9.18-4.94a4.29,4.29,0,0,1-2.68-3.53,4.17,4.17,0,0,1,2.54-3.67L137,375.41a12,12,0,0,1,5.65-1.27,14.07,14.07,0,0,1,4.94,1l9.18,4.94a4.32,4.32,0,0,1,2.68,3.53,4.17,4.17,0,0,1-2.54,3.68l-20.61,12.56A13.83,13.83,0,0,1,130.64,401.11Z" transform="translate(-26 -5.19)"/><path d="M142.78,375a10.44,10.44,0,0,1,4.38.85l9,4.94c2.82,1.27,2.82,4.09.14,5.51L135.72,399a10,10,0,0,1-5.08,1.13,10.63,10.63,0,0,1-4.38-.84l-9-4.94c-2.83-1.28-2.83-4.1-.15-5.51l20.62-12.71a11.64,11.64,0,0,1,5.08-1.13m0-2h0a12.06,12.06,0,0,0-6.07,1.42h-.14L116,387a5.15,5.15,0,0,0-3,4.52c0,1.84,1.27,3.39,3.25,4.38l9,4.94h.14a13,13,0,0,0,5.37,1,12.13,12.13,0,0,0,6.07-1.41H137l20.62-12.57a5.14,5.14,0,0,0,3-4.52c0-1.83-1.27-3.39-3.24-4.38l-9-4.94h-.14a16.63,16.63,0,0,0-5.37-1Z" transform="translate(-26 -5.19)"/><path class="cls-3" d="M130.64,399.42a14.07,14.07,0,0,1-4.94-1l-9.18-4.94a4.32,4.32,0,0,1-2.68-3.53,4.16,4.16,0,0,1,2.54-3.67L137,373.72a11.89,11.89,0,0,1,5.65-1.27,13.85,13.85,0,0,1,4.94,1l9.18,4.94a4.32,4.32,0,0,1,2.68,3.53c.14,1.55-.84,2.82-2.54,3.67l-20.61,12.57A12,12,0,0,1,130.64,399.42Z" transform="translate(-26 -5.19)"/><path d="M142.64,373.3a10.63,10.63,0,0,1,4.38.84l9,4.95c2.83,1.27,2.83,4.09.15,5.5L135.58,397.3a10,10,0,0,1-5.08,1.13,10.44,10.44,0,0,1-4.38-.85l-9-4.94c-2.82-1.27-2.82-4.09-.14-5.51l20.62-12.7a10,10,0,0,1,5.08-1.13m0-2h0a12,12,0,0,0-6.07,1.41h-.14L115.81,385.3a5.14,5.14,0,0,0-3,4.52c0,1.83,1.27,3.39,3.25,4.37l9,4.95h.14a13.12,13.12,0,0,0,5.37,1,12,12,0,0,0,6.07-1.41h.14l20.62-12.56a5.15,5.15,0,0,0,3-4.52c0-1.84-1.27-3.39-3.25-4.38l-9-4.94H148a15.7,15.7,0,0,0-5.37-1Z" transform="translate(-26 -5.19)"/><path class="cls-7" d="M269.3,315.55a14.17,14.17,0,0,1-4.95-1l-9-4.94a4.33,4.33,0,0,1-2.69-3.53,4.16,4.16,0,0,1,2.55-3.67l20.61-12.57a11.87,11.87,0,0,1,5.65-1.27,13.89,13.89,0,0,1,4.94,1l9.18,4.94a4.29,4.29,0,0,1,2.68,3.53,4.18,4.18,0,0,1-2.54,3.67l-20.47,12.57A14.13,14.13,0,0,1,269.3,315.55Z" transform="translate(-26 -5.19)"/><path d="M281.44,289.42a10.63,10.63,0,0,1,4.38.85l9,4.94c2.83,1.27,2.83,4.1.14,5.51l-20.61,12.71a10,10,0,0,1-5.08,1.13,10.44,10.44,0,0,1-4.38-.85l-9-4.94c-2.82-1.27-2.82-4.1-.14-5.51l20.62-12.71a11.3,11.3,0,0,1,5.08-1.13m0-1.83a12,12,0,0,0-6.07,1.41h-.14l-20.62,12.57a5.12,5.12,0,0,0-3,4.52c0,1.83,1.27,3.39,3.24,4.37l9,5h.14a13.09,13.09,0,0,0,5.37,1,12.05,12.05,0,0,0,6.07-1.41h.14l20.61-12.56a5.14,5.14,0,0,0,3-4.52c0-1.84-1.27-3.39-3.25-4.38l-9-4.94h-.15a16.26,16.26,0,0,0-5.36-1Z" transform="translate(-26 -5.19)"/><path class="cls-3" d="M269.3,314.28a14.17,14.17,0,0,1-4.95-1l-9.17-4.94a4.31,4.31,0,0,1-2.69-3.53,4.19,4.19,0,0,1,2.54-3.68l20.62-12.56a11.87,11.87,0,0,1,5.65-1.27,13.89,13.89,0,0,1,4.94,1l9.18,4.94a4.29,4.29,0,0,1,2.68,3.53,4.18,4.18,0,0,1-2.54,3.67L274.94,313A13.78,13.78,0,0,1,269.3,314.28Z" transform="translate(-26 -5.19)"/><path d="M281.44,288.15a10.63,10.63,0,0,1,4.38.85l9,4.94c2.83,1.27,2.83,4.1.14,5.51l-20.61,12.71a10,10,0,0,1-5.08,1.13,10.59,10.59,0,0,1-4.38-.85l-9-4.94c-2.82-1.27-2.82-4.1-.14-5.51l20.62-12.71a9.4,9.4,0,0,1,5.08-1.13m0-2a12,12,0,0,0-6.07,1.41h-.14l-20.62,12.57a5.11,5.11,0,0,0-3,4.51c0,1.84,1.27,3.39,3.24,4.38l9,4.94h.14a12.93,12.93,0,0,0,5.37,1,12.05,12.05,0,0,0,6.07-1.41h.14L296.26,301a5.13,5.13,0,0,0,3-4.52c0-1.83-1.27-3.38-3.25-4.37l-9-4.94h-.15a13.82,13.82,0,0,0-5.36-1Z" transform="translate(-26 -5.19)"/><path class="cls-7" d="M234.84,336.44a14.11,14.11,0,0,1-4.94-1l-9.18-4.95A4.29,4.29,0,0,1,218,327a4.18,4.18,0,0,1,2.54-3.67l20.62-12.56a11.87,11.87,0,0,1,5.65-1.27,14.15,14.15,0,0,1,4.94,1l9.17,5a4.28,4.28,0,0,1,2.69,3.53,4.18,4.18,0,0,1-2.54,3.67l-20.62,12.56A11.87,11.87,0,0,1,234.84,336.44Z" transform="translate(-26 -5.19)"/><path d="M246.85,310.46a10.58,10.58,0,0,1,4.37.85l9,4.94c2.82,1.27,2.82,4.1.14,5.51l-20.61,12.71a10.11,10.11,0,0,1-5.09,1.13,10.55,10.55,0,0,1-4.37-.85l-9-4.94c-2.83-1.27-2.83-4.1-.14-5.51l20.61-12.71a11.8,11.8,0,0,1,5.09-1.13m0-2h0a12.09,12.09,0,0,0-6.08,1.41h-.14l-20.47,12.71a5.12,5.12,0,0,0-3,4.51c0,1.84,1.27,3.39,3.25,4.38l9,4.94h.14a12.91,12.91,0,0,0,5.36,1,12.09,12.09,0,0,0,6.08-1.41h.14l20.61-12.57a5.12,5.12,0,0,0,3-4.51c0-1.84-1.27-3.39-3.25-4.38l-9-4.94h-.14a14.11,14.11,0,0,0-5.5-1.13Z" transform="translate(-26 -5.19)"/><path class="cls-3" d="M234.84,335.17a13.89,13.89,0,0,1-4.94-1l-9.18-4.94a4.29,4.29,0,0,1-2.68-3.53,4.18,4.18,0,0,1,2.54-3.67l20.62-12.56a11.87,11.87,0,0,1,5.65-1.28,14.16,14.16,0,0,1,4.94,1l9.17,4.94a4.31,4.31,0,0,1,2.69,3.53c.14,1.56-.85,2.83-2.54,3.68L240.49,333.9A14.33,14.33,0,0,1,234.84,335.17Z" transform="translate(-26 -5.19)"/><path d="M246.85,309.05a10.42,10.42,0,0,1,4.37.85l9,4.94c2.82,1.27,2.82,4.1.14,5.51l-20.61,12.71a10.1,10.1,0,0,1-5.09,1.12,10.55,10.55,0,0,1-4.37-.84l-9-4.94c-2.83-1.28-2.83-4.1-.14-5.51l20.61-12.71a11.8,11.8,0,0,1,5.09-1.13m0-2h0a12.09,12.09,0,0,0-6.08,1.42h-.14l-20.47,12.56a5.14,5.14,0,0,0-3,4.52c0,1.84,1.27,3.39,3.25,4.38l9,4.94h.14a12.91,12.91,0,0,0,5.36,1,12.09,12.09,0,0,0,6.08-1.41h.14l20.61-12.57a5.13,5.13,0,0,0,3-4.52c0-1.83-1.27-3.39-3.25-4.37l-9-4.95h-.14a17.43,17.43,0,0,0-5.5-1Z" transform="translate(-26 -5.19)"/><path class="cls-7" d="M200.67,357.76a14.11,14.11,0,0,1-4.94-1l-9-4.95A4.29,4.29,0,0,1,184,348.3a4.18,4.18,0,0,1,2.54-3.67l20.62-12.56a11.87,11.87,0,0,1,5.65-1.27,14.11,14.11,0,0,1,4.94,1l9.18,5a4.29,4.29,0,0,1,2.68,3.53c.14,1.55-.85,2.82-2.54,3.67l-20.62,12.56A12.86,12.86,0,0,1,200.67,357.76Z" transform="translate(-26 -5.19)"/><path d="M212.68,331.64a10.58,10.58,0,0,1,4.37.85l9,4.94c2.82,1.27,2.82,4.1.14,5.51l-20.61,12.71a10.11,10.11,0,0,1-5.09,1.13,10.63,10.63,0,0,1-4.38-.85l-9-4.94c-2.83-1.27-2.83-4.1-.14-5.51l20.61-12.71a12.28,12.28,0,0,1,5.09-1.13m0-1.83h0a12.09,12.09,0,0,0-6.08,1.41h-.14l-20.61,12.57a5.12,5.12,0,0,0-3,4.51c0,1.84,1.27,3.39,3.25,4.38l9,4.94h.14a12.91,12.91,0,0,0,5.36,1,12,12,0,0,0,6.07-1.41h.15l20.61-12.57a5.13,5.13,0,0,0,3-4.51c0-1.84-1.27-3.39-3.25-4.38l-9-4.94H218a12.91,12.91,0,0,0-5.36-1Z" transform="translate(-26 -5.19)"/><path class="cls-3" d="M200.67,356.07a13.89,13.89,0,0,1-4.94-1l-9.18-4.94a4.32,4.32,0,0,1-2.68-3.53,4.18,4.18,0,0,1,2.54-3.67L207,330.37a12,12,0,0,1,5.65-1.27,14.16,14.16,0,0,1,4.94,1l9.17,4.94a4.31,4.31,0,0,1,2.69,3.53,4.17,4.17,0,0,1-2.54,3.67L206.32,354.8A11.87,11.87,0,0,1,200.67,356.07Z" transform="translate(-26 -5.19)"/><path d="M212.68,330.09a10.42,10.42,0,0,1,4.37.85l9,4.94c2.82,1.27,2.82,4.09.14,5.51l-20.47,12.7a10,10,0,0,1-5.09,1.13,10.58,10.58,0,0,1-4.37-.84l-9-4.95c-2.82-1.27-2.82-4.09-.14-5.5l20.61-12.71a9.15,9.15,0,0,1,5-1.13m0-2h0a12.09,12.09,0,0,0-6.08,1.42h-.14l-20.61,12.56a5.14,5.14,0,0,0-3,4.52c0,1.84,1.27,3.39,3.25,4.38l9,4.94h.14a12.91,12.91,0,0,0,5.36,1,12.13,12.13,0,0,0,6.07-1.41h.15l20.61-12.57a5.13,5.13,0,0,0,3-4.52c0-1.83-1.27-3.39-3.25-4.38l-9-4.94H218a13.08,13.08,0,0,0-5.36-1Z" transform="translate(-26 -5.19)"/><path class="cls-7" d="M325.92,306.65a13.94,13.94,0,0,1-4.95-1l-9.17-4.94a4.31,4.31,0,0,1-2.69-3.53,4.18,4.18,0,0,1,2.55-3.67l27-16.52a11.89,11.89,0,0,1,5.65-1.27,13.85,13.85,0,0,1,4.94,1l9.18,4.94a4.32,4.32,0,0,1,2.68,3.53,4.17,4.17,0,0,1-2.54,3.67l-27,16.66A14.82,14.82,0,0,1,325.92,306.65Z" transform="translate(-26 -5.19)"/><path d="M344.41,276.72a10.6,10.6,0,0,1,4.38.84l9,4.95c2.82,1.27,2.82,4.09.14,5.5l-27,16.66a10,10,0,0,1-5.08,1.13,10.6,10.6,0,0,1-4.38-.84l-9-4.95c-2.82-1.27-2.82-4.09-.14-5.5l27.11-16.66a10.19,10.19,0,0,1,4.94-1.13m0-2a12.05,12.05,0,0,0-6.07,1.41h-.14l-27,16.66a5.13,5.13,0,0,0-3,4.52c0,1.84,1.27,3.39,3.24,4.38l9,4.94h.14a12.93,12.93,0,0,0,5.37,1,12.05,12.05,0,0,0,6.07-1.41h.14l27-16.66a5.13,5.13,0,0,0,3-4.52c0-1.84-1.27-3.39-3.24-4.38l-9-4.94h-.14a16.36,16.36,0,0,0-5.37-1Z" transform="translate(-26 -5.19)"/><path class="cls-3" d="M325.77,305a14.16,14.16,0,0,1-4.94-1L311.66,299A4.31,4.31,0,0,1,309,295.5a4.16,4.16,0,0,1,2.54-3.67l27-16.67a12,12,0,0,1,5.65-1.27,14.07,14.07,0,0,1,4.94,1l9.18,4.94a4.32,4.32,0,0,1,2.68,3.53,4.14,4.14,0,0,1-2.54,3.67l-27,16.67A12,12,0,0,1,325.77,305Z" transform="translate(-26 -5.19)"/><path d="M344.27,275a10.63,10.63,0,0,1,4.38.85l9,4.94c2.82,1.27,2.82,4.1.14,5.51L330.72,303a10,10,0,0,1-5.09,1.13,10.42,10.42,0,0,1-4.37-.85l-9-4.94c-2.82-1.27-2.82-4.09-.14-5.51l27.11-16.66a10.41,10.41,0,0,1,5.08-1.13m0-2a12,12,0,0,0-6.07,1.41h-.14l-27,16.66a5.12,5.12,0,0,0-3,4.52c0,1.83,1.27,3.39,3.24,4.37l9,4.95h.14a13.09,13.09,0,0,0,5.37,1,12.06,12.06,0,0,0,6.07-1.42h.14l27-16.66a5.14,5.14,0,0,0,3-4.52c0-1.83-1.27-3.39-3.24-4.37l-9-5h-.14a13.12,13.12,0,0,0-5.37-1Z" transform="translate(-26 -5.19)"/><path class="cls-7" d="M189.24,390.81a14.17,14.17,0,0,1-5-1l-9.17-4.95a4.28,4.28,0,0,1-2.69-3.53,4.18,4.18,0,0,1,2.55-3.67l20.61-12.56a11.87,11.87,0,0,1,5.65-1.27,14.11,14.11,0,0,1,4.94,1l9.18,4.95A4.29,4.29,0,0,1,218,373.3,4.18,4.18,0,0,1,215.5,377l-20.62,12.56A13.78,13.78,0,0,1,189.24,390.81Z" transform="translate(-26 -5.19)"/><path d="M201.24,364.68a10.63,10.63,0,0,1,4.38.85l9,4.94c2.83,1.27,2.83,4.1.14,5.51l-20.61,12.71a10.07,10.07,0,0,1-5.08,1.13,10.59,10.59,0,0,1-4.38-.85l-9-4.94c-2.82-1.27-2.82-4.1-.14-5.51l20.61-12.71a11.83,11.83,0,0,1,5.09-1.13m0-1.83a12,12,0,0,0-6.07,1.41H195l-20.62,12.57a5.11,5.11,0,0,0-3,4.51c0,1.84,1.27,3.39,3.24,4.38l9,4.94h.14a12.93,12.93,0,0,0,5.37,1,12.05,12.05,0,0,0,6.07-1.41h.14l20.61-12.57a5.12,5.12,0,0,0,3-4.51c0-1.84-1.27-3.39-3.25-4.38l-9-4.94h-.14a12.91,12.91,0,0,0-5.36-1Z" transform="translate(-26 -5.19)"/><path class="cls-3" d="M189.1,389.11a13.94,13.94,0,0,1-4.95-1L175,383.18a4.31,4.31,0,0,1-2.69-3.53c-.14-1.55.85-2.82,2.54-3.67l20.62-12.57a12,12,0,0,1,5.65-1.27,14.11,14.11,0,0,1,4.94,1l9.18,4.94a4.32,4.32,0,0,1,2.68,3.53,4.17,4.17,0,0,1-2.54,3.67l-20.48,12.57A12.85,12.85,0,0,1,189.1,389.11Z" transform="translate(-26 -5.19)"/><path d="M201.24,363a10.47,10.47,0,0,1,4.38.85l9,4.94c2.83,1.27,2.83,4.09.14,5.5L194.18,387a10,10,0,0,1-5.08,1.13,10.6,10.6,0,0,1-4.38-.84l-9-4.95c-2.82-1.27-2.82-4.09-.14-5.5l20.61-12.71a11.69,11.69,0,0,1,5.09-1.13m0-1.84a12,12,0,0,0-6.07,1.42H195l-20.48,12.56a5.13,5.13,0,0,0-3,4.52c0,1.84,1.27,3.39,3.24,4.38l9,4.94H184a13,13,0,0,0,5.37,1,12.16,12.16,0,0,0,6.07-1.41h.14L216.21,376a5.14,5.14,0,0,0,3-4.52c0-1.83-1.27-3.39-3.25-4.38l-9-4.94h-.15a14.23,14.23,0,0,0-5.5-1Z" transform="translate(-26 -5.19)"/><path class="cls-7" d="M154.08,412.83a13.85,13.85,0,0,1-4.94-1L140,406.9a4.3,4.3,0,0,1-2.68-3.53,4.17,4.17,0,0,1,2.54-3.67l20.61-12.57a12,12,0,0,1,5.65-1.27,14.07,14.07,0,0,1,4.94,1l9.18,4.94a4.32,4.32,0,0,1,2.68,3.53,4.14,4.14,0,0,1-2.54,3.67l-20.61,12.57A13.83,13.83,0,0,1,154.08,412.83Z" transform="translate(-26 -5.19)"/><path d="M166.08,386.71a10.47,10.47,0,0,1,4.38.85l9,4.94c2.83,1.27,2.83,4.09.14,5.51L159,410.71a10,10,0,0,1-5.08,1.13,10.6,10.6,0,0,1-4.38-.84l-9-4.95c-2.82-1.27-2.82-4.09-.14-5.5L161,387.84a11.61,11.61,0,0,1,5.08-1.13m0-2h0a12,12,0,0,0-6.07,1.42h-.14l-20.62,12.56a5.15,5.15,0,0,0-3,4.52c0,1.84,1.27,3.39,3.24,4.38l9,4.94h.14a13,13,0,0,0,5.37,1,12.13,12.13,0,0,0,6.07-1.41h.14l20.62-12.57a5.14,5.14,0,0,0,3-4.52c0-1.83-1.27-3.39-3.25-4.38l-9-4.94h-.14a15.94,15.94,0,0,0-5.37-1Z" transform="translate(-26 -5.19)"/><path class="cls-3" d="M153.94,411.42a13.94,13.94,0,0,1-4.95-1l-9.17-4.94a4.33,4.33,0,0,1-2.69-3.53,4.18,4.18,0,0,1,2.55-3.67l20.61-12.57a11.87,11.87,0,0,1,5.65-1.27,13.89,13.89,0,0,1,4.94,1l9.18,4.94a4.32,4.32,0,0,1,2.68,3.53,4.17,4.17,0,0,1-2.54,3.67l-20.47,12.57A12.92,12.92,0,0,1,153.94,411.42Z" transform="translate(-26 -5.19)"/><path d="M166.08,385.3a10.47,10.47,0,0,1,4.38.85l9,4.94c2.83,1.27,2.83,4.09.14,5.5L159,409.3a10,10,0,0,1-5.08,1.13,10.44,10.44,0,0,1-4.38-.85l-9-4.94c-2.82-1.27-2.82-4.09-.14-5.5L161,386.43a11.61,11.61,0,0,1,5.08-1.13m0-2h0a12.13,12.13,0,0,0-6.07,1.41h-.14l-20.48,12.71a5.15,5.15,0,0,0-3,4.52c0,1.84,1.27,3.39,3.25,4.38l9,4.94h.14a13.12,13.12,0,0,0,5.37,1,12.13,12.13,0,0,0,6.07-1.41h.14l20.62-12.57a5.15,5.15,0,0,0,3-4.52c0-1.84-1.27-3.39-3.25-4.38l-9-4.94h-.14a17.54,17.54,0,0,0-5.51-1.13Z" transform="translate(-26 -5.19)"/><path class="cls-7" d="M292.73,327.27a14.16,14.16,0,0,1-4.94-1l-9.18-4.94a4.32,4.32,0,0,1-2.68-3.53c-.14-1.56.85-2.83,2.54-3.68l20.62-12.56a11.87,11.87,0,0,1,5.65-1.27,13.89,13.89,0,0,1,4.94,1l9.18,4.94a4.29,4.29,0,0,1,2.68,3.53,4.18,4.18,0,0,1-2.54,3.67L298.38,326A12,12,0,0,1,292.73,327.27Z" transform="translate(-26 -5.19)"/><path d="M304.74,301.14a10.58,10.58,0,0,1,4.37.85l9,4.94c2.82,1.27,2.82,4.1.14,5.51l-20.61,12.71a10,10,0,0,1-5.09,1.13,10.42,10.42,0,0,1-4.37-.85l-9-4.94c-2.82-1.27-2.82-4.1-.14-5.51l20.61-12.71a12.31,12.31,0,0,1,5.09-1.13m0-1.83a12.09,12.09,0,0,0-6.08,1.41h-.14l-20.61,12.57a5.13,5.13,0,0,0-3,4.52c0,1.83,1.27,3.38,3.25,4.37l9,4.94h.14a12.91,12.91,0,0,0,5.36,1,12.09,12.09,0,0,0,6.08-1.41H299l20.61-12.57a5.12,5.12,0,0,0,3-4.51c0-1.84-1.27-3.39-3.25-4.38l-9-4.94h-.14a15.64,15.64,0,0,0-5.36-1Z" transform="translate(-26 -5.19)"/><path class="cls-3" d="M292.73,326a14.16,14.16,0,0,1-4.94-1l-9.18-4.95a4.29,4.29,0,0,1-2.68-3.53,4.18,4.18,0,0,1,2.54-3.67l20.62-12.56a11.87,11.87,0,0,1,5.65-1.27,14.11,14.11,0,0,1,4.94,1l9.18,4.95a4.29,4.29,0,0,1,2.68,3.53,4.18,4.18,0,0,1-2.54,3.67l-20.62,12.56A14.93,14.93,0,0,1,292.73,326Z" transform="translate(-26 -5.19)"/><path d="M304.74,299.87a10.58,10.58,0,0,1,4.37.85l9,4.94c2.82,1.27,2.82,4.1.14,5.51l-20.61,12.71a10.11,10.11,0,0,1-5.09,1.13,10.58,10.58,0,0,1-4.37-.85l-9-4.94c-2.82-1.27-2.82-4.1-.14-5.51L299.65,301a10.11,10.11,0,0,1,5.09-1.13m0-2a12.09,12.09,0,0,0-6.08,1.41h-.14l-20.61,12.57a5.12,5.12,0,0,0-3,4.51c0,1.84,1.27,3.39,3.25,4.38l9,4.94h.14a12.91,12.91,0,0,0,5.36,1,12.09,12.09,0,0,0,6.08-1.41H299l20.61-12.57a5.13,5.13,0,0,0,3-4.52c0-1.83-1.27-3.38-3.25-4.37l-9-4.94h-.14a15.64,15.64,0,0,0-5.36-1Z" transform="translate(-26 -5.19)"/><path class="cls-7" d="M258.28,348.16a13.89,13.89,0,0,1-4.94-1l-9.18-4.94a4.29,4.29,0,0,1-2.68-3.53c-.14-1.55.85-2.82,2.54-3.67l20.62-12.56a11.86,11.86,0,0,1,5.64-1.28,14.17,14.17,0,0,1,5,1l9.17,4.94a4.31,4.31,0,0,1,2.69,3.53,4.18,4.18,0,0,1-2.55,3.68l-20.61,12.56A12.27,12.27,0,0,1,258.28,348.16Z" transform="translate(-26 -5.19)"/><path d="M270.28,322.18a10.59,10.59,0,0,1,4.38.85l9,4.94c2.82,1.27,2.82,4.1.14,5.51l-20.62,12.71a10,10,0,0,1-5.08,1.13,10.63,10.63,0,0,1-4.38-.85l-9-4.94c-2.83-1.27-2.83-4.1-.14-5.51l20.61-12.71a11.79,11.79,0,0,1,5.08-1.13m0-2h0a12.05,12.05,0,0,0-6.07,1.41h-.14l-20.61,12.56a5.14,5.14,0,0,0-3,4.52c0,1.84,1.27,3.39,3.25,4.38l9,4.94h.14a12.91,12.91,0,0,0,5.36,1,12,12,0,0,0,6.07-1.41h.15L285.11,335a5.13,5.13,0,0,0,3-4.52c0-1.83-1.28-3.39-3.25-4.37l-9-4.95h-.14a16.58,16.58,0,0,0-5.37-1Z" transform="translate(-26 -5.19)"/><path class="cls-3" d="M258.14,346.89a13.89,13.89,0,0,1-4.94-1L244,341a4.29,4.29,0,0,1-2.68-3.53,4.18,4.18,0,0,1,2.54-3.67l20.61-12.57a12,12,0,0,1,5.65-1.27,14.07,14.07,0,0,1,4.94,1l9.18,4.94a4.33,4.33,0,0,1,2.69,3.53,4.18,4.18,0,0,1-2.55,3.68l-20.61,12.56A13.79,13.79,0,0,1,258.14,346.89Z" transform="translate(-26 -5.19)"/><path d="M270.28,320.77a10.44,10.44,0,0,1,4.38.85l9,4.94c2.82,1.27,2.82,4.09.14,5.51l-20.62,12.7a9.94,9.94,0,0,1-5.08,1.13,10.63,10.63,0,0,1-4.38-.84l-9-4.94c-2.83-1.28-2.83-4.1-.14-5.51L265.2,321.9a11.2,11.2,0,0,1,5.08-1.13m0-2h0a12.06,12.06,0,0,0-6.07,1.42h-.14L243.6,332.77a5.14,5.14,0,0,0-3,4.52c0,1.84,1.27,3.39,3.25,4.38l9,4.94h.14a12.91,12.91,0,0,0,5.36,1,12.2,12.2,0,0,0,6.08-1.41h.14l20.61-12.57a5.13,5.13,0,0,0,3-4.52c0-1.83-1.27-3.39-3.25-4.38l-9.18-4.94h-.14a16.58,16.58,0,0,0-5.37-1Z" transform="translate(-26 -5.19)"/><path class="cls-7" d="M224.11,369.48a14.11,14.11,0,0,1-4.94-1L210,363.55a4.29,4.29,0,0,1-2.68-3.53c-.14-1.55.85-2.82,2.54-3.67l20.62-12.56a11.85,11.85,0,0,1,5.64-1.27,14.16,14.16,0,0,1,4.95,1l9.17,4.95a4.28,4.28,0,0,1,2.69,3.53,4.18,4.18,0,0,1-2.54,3.67l-20.62,12.56A11.87,11.87,0,0,1,224.11,369.48Z" transform="translate(-26 -5.19)"/><path d="M236.11,343.36a10.44,10.44,0,0,1,4.38.85l9,4.94c2.82,1.27,2.82,4.1.14,5.51l-20.62,12.71A10,10,0,0,1,224,368.5a10.63,10.63,0,0,1-4.38-.85l-9-4.94c-2.83-1.27-2.83-4.1-.14-5.51L231,344.49a11.79,11.79,0,0,1,5.08-1.13m0-1.83a12.05,12.05,0,0,0-6.07,1.41h-.14l-20.61,12.57a5.12,5.12,0,0,0-3,4.51c0,1.84,1.27,3.39,3.25,4.38l9,4.94h.14a12.91,12.91,0,0,0,5.36,1,12,12,0,0,0,6.07-1.41h.15l20.61-12.57a5.13,5.13,0,0,0,3-4.52c0-1.83-1.28-3.38-3.25-4.37l-9-4.94h-.14a12.93,12.93,0,0,0-5.37-1Z" transform="translate(-26 -5.19)"/><path class="cls-3" d="M224.11,368.07a13.89,13.89,0,0,1-4.94-1L210,362.14a4.29,4.29,0,0,1-2.68-3.53c-.14-1.55.85-2.82,2.54-3.67l20.62-12.57a12,12,0,0,1,5.64-1.27,14.17,14.17,0,0,1,4.95,1l9.17,4.94a4.31,4.31,0,0,1,2.69,3.53,4.16,4.16,0,0,1-2.54,3.67L229.76,366.8A12.68,12.68,0,0,1,224.11,368.07Z" transform="translate(-26 -5.19)"/><path d="M236.11,342.09a10.44,10.44,0,0,1,4.38.85l9,4.94c2.82,1.27,2.82,4.1.14,5.51L229.05,366.1a10,10,0,0,1-5.08,1.13,10.63,10.63,0,0,1-4.38-.85l-9-4.94c-2.83-1.27-2.83-4.1-.14-5.51L231,343.22a11.79,11.79,0,0,1,5.08-1.13m0-2a12.05,12.05,0,0,0-6.07,1.41h-.14l-20.61,12.56a5.14,5.14,0,0,0-3,4.52c0,1.84,1.27,3.39,3.25,4.38l9,4.94h.14a12.91,12.91,0,0,0,5.36,1,12,12,0,0,0,6.07-1.41h.15l20.61-12.57a5.13,5.13,0,0,0,3-4.52c0-1.83-1.28-3.39-3.25-4.37l-9-4.95h-.14a16.58,16.58,0,0,0-5.37-1Z" transform="translate(-26 -5.19)"/><path class="cls-7" d="M351.05,319.08a14.07,14.07,0,0,1-4.94-1l-9.18-4.94a4.32,4.32,0,0,1-2.68-3.53,4.14,4.14,0,0,1,2.54-3.67l27-16.67A12,12,0,0,1,369.4,288a14.17,14.17,0,0,1,5,1l9.17,4.94a4.31,4.31,0,0,1,2.69,3.53,4.16,4.16,0,0,1-2.54,3.67l-27,16.67A12.85,12.85,0,0,1,351.05,319.08Z" transform="translate(-26 -5.19)"/><path d="M369.55,289a10.42,10.42,0,0,1,4.37.85l9,4.94c2.82,1.27,2.82,4.1.14,5.51L356,317a10,10,0,0,1-5.08,1.13,10.44,10.44,0,0,1-4.38-.85l-9-4.94c-2.82-1.27-2.82-4.1-.14-5.51l27.11-16.66a10.79,10.79,0,0,1,5.09-1.13m0-1.83a12.09,12.09,0,0,0-6.08,1.41h-.14l-27,16.52a5.14,5.14,0,0,0-3,4.52c0,1.83,1.27,3.39,3.25,4.37l9,4.95h.15a13,13,0,0,0,5.36,1,12,12,0,0,0,6.07-1.41h.14l27-16.66a5.13,5.13,0,0,0,3-4.52c0-1.83-1.27-3.39-3.25-4.38l-9-4.94h-.14a17.17,17.17,0,0,0-5.36-.84Z" transform="translate(-26 -5.19)"/><path class="cls-3" d="M350.91,317.81a14.07,14.07,0,0,1-4.94-1l-9.18-4.94a4.32,4.32,0,0,1-2.68-3.53,4.17,4.17,0,0,1,2.54-3.68l27-16.66a12,12,0,0,1,5.64-1.27,14.17,14.17,0,0,1,4.95,1l9.17,4.94a4.31,4.31,0,0,1,2.69,3.53c.14,1.56-.85,2.83-2.55,3.67l-27,16.66A13.83,13.83,0,0,1,350.91,317.81Z" transform="translate(-26 -5.19)"/><path d="M369.4,287.73a10.44,10.44,0,0,1,4.38.85l9,4.94c2.82,1.27,2.82,4.09.14,5.51l-27.11,16.66a10.07,10.07,0,0,1-5.08,1.13,10.59,10.59,0,0,1-4.38-.85l-9-4.94c-2.82-1.27-2.82-4.1-.14-5.51l27.11-16.66a10,10,0,0,1,5.08-1.13m0-2a12.08,12.08,0,0,0-6.07,1.42h-.14l-27,16.52a5.13,5.13,0,0,0-3,4.51c0,1.84,1.27,3.39,3.25,4.38l9,4.94h.14a13,13,0,0,0,5.37,1,12,12,0,0,0,6.07-1.41h.14l27-16.66a5.14,5.14,0,0,0,3-4.52c0-1.84-1.27-3.39-3.25-4.38l-9-4.94h-.14a16,16,0,0,0-5.37-.85Z" transform="translate(-26 -5.19)"/><path class="cls-7" d="M214.37,403.23a13.85,13.85,0,0,1-4.94-1l-9.18-4.94a4.32,4.32,0,0,1-2.68-3.53,4.17,4.17,0,0,1,2.54-3.67l20.61-12.57a12,12,0,0,1,5.65-1.27,14.07,14.07,0,0,1,4.94,1l9.18,4.94a4.32,4.32,0,0,1,2.68,3.53,4.16,4.16,0,0,1-2.54,3.67L220,402A13.83,13.83,0,0,1,214.37,403.23Z" transform="translate(-26 -5.19)"/><path d="M226.37,377.11a10.47,10.47,0,0,1,4.38.85l9,4.94c2.82,1.27,2.82,4.09.14,5.5l-20.62,12.71a10,10,0,0,1-5.08,1.13,10.47,10.47,0,0,1-4.38-.85l-9-4.94c-2.82-1.27-2.82-4.09-.14-5.5l20.62-12.71a11.64,11.64,0,0,1,5.08-1.13m0-2a12.13,12.13,0,0,0-6.07,1.41h-.14l-20.62,12.57a5.14,5.14,0,0,0-3,4.52c0,1.83,1.27,3.39,3.25,4.38l9,4.94H209a13.12,13.12,0,0,0,5.37,1,12,12,0,0,0,6.07-1.42h.14L241.2,390a5.15,5.15,0,0,0,3-4.52c0-1.84-1.27-3.39-3.25-4.38l-9-4.94h-.14a15.94,15.94,0,0,0-5.37-1Z" transform="translate(-26 -5.19)"/><path class="cls-3" d="M214.37,401.82a14.07,14.07,0,0,1-4.94-1l-9.18-4.94a4.32,4.32,0,0,1-2.68-3.53,4.16,4.16,0,0,1,2.54-3.67l20.61-12.57a11.89,11.89,0,0,1,5.65-1.27,13.85,13.85,0,0,1,4.94,1l9.18,4.94a4.32,4.32,0,0,1,2.68,3.53,4.17,4.17,0,0,1-2.54,3.67L220,400.55A12.42,12.42,0,0,1,214.37,401.82Z" transform="translate(-26 -5.19)"/><path d="M226.37,375.7a10.63,10.63,0,0,1,4.38.84l9,4.95c2.82,1.27,2.82,4.09.14,5.5L219.31,399.7a10,10,0,0,1-5.08,1.13,10.47,10.47,0,0,1-4.38-.85l-9-4.94c-2.82-1.27-2.82-4.09-.14-5.51l20.62-12.7a11.64,11.64,0,0,1,5.08-1.13m0-1.84a12,12,0,0,0-6.07,1.41h-.14l-20.62,12.57a5.14,5.14,0,0,0-3,4.52c0,1.83,1.27,3.39,3.25,4.38l9,4.94H209a13.12,13.12,0,0,0,5.37,1,12,12,0,0,0,6.07-1.42h.14l20.62-12.56a5.15,5.15,0,0,0,3-4.52c0-1.84-1.27-3.39-3.25-4.38l-9-4.94h-.14a13,13,0,0,0-5.37-1Z" transform="translate(-26 -5.19)"/><path class="cls-7" d="M178.79,425.12a14.07,14.07,0,0,1-4.94-1l-9.18-4.94a4.3,4.3,0,0,1-2.68-3.53c-.15-1.56.84-2.83,2.54-3.68l20.61-12.56a11.87,11.87,0,0,1,5.65-1.27,13.89,13.89,0,0,1,4.94,1l9.18,4.94a4.29,4.29,0,0,1,2.68,3.53,4.18,4.18,0,0,1-2.54,3.67l-20.61,12.57A12,12,0,0,1,178.79,425.12Z" transform="translate(-26 -5.19)"/><path d="M190.93,399.14a10.63,10.63,0,0,1,4.38.84l9,4.94c2.83,1.28,2.83,4.1.15,5.51l-20.62,12.71a10,10,0,0,1-5.08,1.13,10.44,10.44,0,0,1-4.38-.85l-9-4.94c-2.82-1.27-2.82-4.09-.14-5.51l20.62-12.7a10,10,0,0,1,5.08-1.13m0-2a12,12,0,0,0-6.07,1.41h-.14l-20.48,12.57a5.14,5.14,0,0,0-3,4.52c0,1.83,1.27,3.38,3.25,4.37l9,5h.14a13.12,13.12,0,0,0,5.37,1,12,12,0,0,0,6.07-1.41h.14L205.9,412a5.13,5.13,0,0,0,3-4.51c0-1.84-1.27-3.39-3.24-4.38l-9-4.94h-.14a14.09,14.09,0,0,0-5.51-1Z" transform="translate(-26 -5.19)"/><path class="cls-3" d="M178.79,423.85a14.07,14.07,0,0,1-4.94-1l-9.18-4.94a4.3,4.3,0,0,1-2.68-3.53c-.15-1.56.84-2.83,2.54-3.68l20.61-12.56a11.87,11.87,0,0,1,5.65-1.27,13.89,13.89,0,0,1,4.94,1l9.18,4.94a4.29,4.29,0,0,1,2.68,3.53,4.18,4.18,0,0,1-2.54,3.67l-20.61,12.56A11.9,11.9,0,0,1,178.79,423.85Z" transform="translate(-26 -5.19)"/><path d="M190.93,397.72a10.63,10.63,0,0,1,4.38.85l9,4.94c2.83,1.27,2.83,4.1.15,5.51l-20.62,12.71a10.07,10.07,0,0,1-5.08,1.13,10.59,10.59,0,0,1-4.38-.85l-9-4.94c-2.82-1.27-2.82-4.1-.14-5.51l20.62-12.71a11.33,11.33,0,0,1,5.08-1.13m0-2a12,12,0,0,0-6.07,1.41h-.14L164.1,409.73a5.13,5.13,0,0,0-3,4.51c0,1.84,1.27,3.39,3.25,4.38l9,4.94h.14a13,13,0,0,0,5.37,1,12,12,0,0,0,6.07-1.41h.14l20.62-12.57a5.14,5.14,0,0,0,3-4.52c0-1.83-1.27-3.38-3.25-4.37l-9-4.94h-.14a17.07,17.07,0,0,0-5.37-1Z" transform="translate(-26 -5.19)"/><path class="cls-7" d="M317.59,339.69a13.94,13.94,0,0,1-4.95-1l-9.17-4.94a4.3,4.3,0,0,1-2.69-3.53,4.18,4.18,0,0,1,2.54-3.67L323.94,314a12,12,0,0,1,5.65-1.27,14.11,14.11,0,0,1,4.94,1l9.18,4.94a4.32,4.32,0,0,1,2.68,3.53c.14,1.56-.85,2.83-2.54,3.67l-20.62,12.57A12.67,12.67,0,0,1,317.59,339.69Z" transform="translate(-26 -5.19)"/><path d="M329.59,313.57a10.42,10.42,0,0,1,4.37.85l9,4.94c2.82,1.27,2.82,4.09.14,5.51l-20.61,12.7a10,10,0,0,1-5.09,1.13,10.58,10.58,0,0,1-4.37-.84l-9-4.95c-2.82-1.27-2.82-4.09-.14-5.5L324.5,314.7a11.69,11.69,0,0,1,5.09-1.13m0-2a12,12,0,0,0-6.07,1.42h-.15l-20.61,12.56a5.14,5.14,0,0,0-3,4.52c0,1.84,1.28,3.39,3.25,4.38l9,4.94h.14a12.93,12.93,0,0,0,5.37,1,12.18,12.18,0,0,0,6.07-1.41h.14l20.61-12.57a5.14,5.14,0,0,0,3-4.52c0-1.84-1.27-3.39-3.25-4.38l-9-4.94H335a15.88,15.88,0,0,0-5.36-1Z" transform="translate(-26 -5.19)"/><path class="cls-3" d="M317.44,338.28a13.93,13.93,0,0,1-4.94-1l-9.18-4.94a4.32,4.32,0,0,1-2.68-3.53,4.18,4.18,0,0,1,2.54-3.67l20.62-12.57a11.87,11.87,0,0,1,5.65-1.27,13.93,13.93,0,0,1,4.94,1l9.18,4.94a4.32,4.32,0,0,1,2.68,3.53,4.18,4.18,0,0,1-2.54,3.67L323.23,337A12.86,12.86,0,0,1,317.44,338.28Z" transform="translate(-26 -5.19)"/><path d="M329.59,312.16A10.42,10.42,0,0,1,334,313l9,4.94c2.82,1.27,2.82,4.09.14,5.5l-20.61,12.71a10,10,0,0,1-5.09,1.13,10.42,10.42,0,0,1-4.37-.85l-9-4.94c-2.82-1.27-2.82-4.09-.14-5.5l20.61-12.71a11.69,11.69,0,0,1,5.09-1.13m0-1.84h0a12.13,12.13,0,0,0-6.07,1.41h-.15L302.9,324.3a5.12,5.12,0,0,0-3,4.52c0,1.83,1.27,3.39,3.24,4.38l9,4.94h.14a13.09,13.09,0,0,0,5.37,1,12.06,12.06,0,0,0,6.07-1.42h.14l20.61-12.56a5.14,5.14,0,0,0,3-4.52c0-1.84-1.27-3.39-3.25-4.38l-9-4.94h-.15a14.52,14.52,0,0,0-5.5-1Z" transform="translate(-26 -5.19)"/><path class="cls-7" d="M283.42,360.87a13.94,13.94,0,0,1-4.95-1l-9-4.94a4.33,4.33,0,0,1-2.69-3.53,4.18,4.18,0,0,1,2.55-3.67l20.61-12.57a12,12,0,0,1,5.65-1.27,14.11,14.11,0,0,1,4.94,1l9.18,4.94a4.32,4.32,0,0,1,2.68,3.53c.14,1.56-.85,2.83-2.54,3.67L289.2,359.6A13.73,13.73,0,0,1,283.42,360.87Z" transform="translate(-26 -5.19)"/><path d="M295.42,334.89a10.42,10.42,0,0,1,4.37.85l9,4.94c2.83,1.27,2.83,4.09.14,5.51l-20.61,12.7a10,10,0,0,1-5.09,1.13,10.58,10.58,0,0,1-4.37-.84l-9-4.95c-2.82-1.27-2.82-4.09-.14-5.5L290.33,336a11.69,11.69,0,0,1,5.09-1.13m0-2a12,12,0,0,0-6.07,1.42h-.15l-20.61,12.56a5.14,5.14,0,0,0-3,4.52c0,1.84,1.28,3.39,3.25,4.38l9,4.94h.14a12.93,12.93,0,0,0,5.37,1,12.18,12.18,0,0,0,6.07-1.41h.14l20.61-12.57a5.13,5.13,0,0,0,3-4.52c0-1.83-1.27-3.39-3.25-4.38l-9-4.94h-.14a15.88,15.88,0,0,0-5.36-1Z" transform="translate(-26 -5.19)"/><path class="cls-3" d="M283.27,359.18a14.16,14.16,0,0,1-4.94-1l-9.18-4.94a4.32,4.32,0,0,1-2.68-3.53,4.16,4.16,0,0,1,2.54-3.67l20.62-12.57a11.87,11.87,0,0,1,5.65-1.27,13.93,13.93,0,0,1,4.94,1l9.18,4.94a4.3,4.3,0,0,1,2.68,3.53,4.18,4.18,0,0,1-2.54,3.67l-20.62,12.57A12,12,0,0,1,283.27,359.18Z" transform="translate(-26 -5.19)"/><path d="M295.42,333.2a10.58,10.58,0,0,1,4.37.84l9,4.95c2.83,1.27,2.83,4.09.14,5.5L288.36,357.2a10,10,0,0,1-5.09,1.13,10.42,10.42,0,0,1-4.37-.85l-9-4.94c-2.82-1.27-2.82-4.09-.14-5.51l20.61-12.7a10,10,0,0,1,5.09-1.13m0-2a12,12,0,0,0-6.07,1.41h-.15L268.59,345.2a5.13,5.13,0,0,0-3,4.52c0,1.83,1.28,3.39,3.25,4.37l9,5h.14a13.09,13.09,0,0,0,5.37,1,12.08,12.08,0,0,0,6.07-1.41h.14l20.61-12.56a5.14,5.14,0,0,0,3-4.52c0-1.84-1.27-3.39-3.25-4.38l-9-4.94h-.14a13.82,13.82,0,0,0-5.36-1Z" transform="translate(-26 -5.19)"/><path class="cls-7" d="M248.82,381.91a13.89,13.89,0,0,1-4.94-1L234.7,376a4.32,4.32,0,0,1-2.68-3.53,4.18,4.18,0,0,1,2.54-3.67l20.62-12.57a11.85,11.85,0,0,1,5.64-1.27,13.94,13.94,0,0,1,4.95,1l9.17,4.94a4.31,4.31,0,0,1,2.69,3.53,4.17,4.17,0,0,1-2.55,3.67l-20.61,12.57A14,14,0,0,1,248.82,381.91Z" transform="translate(-26 -5.19)"/><path d="M261,355.79a10.44,10.44,0,0,1,4.38.85l9,4.94c2.82,1.27,2.82,4.09.14,5.5l-20.61,12.71a10,10,0,0,1-5.09,1.13,10.47,10.47,0,0,1-4.38-.85l-9-4.94c-2.83-1.27-2.83-4.09-.14-5.5l20.61-12.71a10.78,10.78,0,0,1,5.08-1.13m0-1.84a12.18,12.18,0,0,0-6.07,1.41h-.14l-20.61,12.57a5.13,5.13,0,0,0-3,4.52c0,1.83,1.27,3.39,3.25,4.38l9,4.94h.14a13.08,13.08,0,0,0,5.36,1,12,12,0,0,0,6.07-1.42h.15l20.61-12.56a5.14,5.14,0,0,0,3-4.52c0-1.84-1.27-3.39-3.25-4.38l-9-4.94h-.14a12.93,12.93,0,0,0-5.37-1Z" transform="translate(-26 -5.19)"/><path class="cls-3" d="M248.82,380.5a14.11,14.11,0,0,1-4.94-1l-9.18-4.94A4.32,4.32,0,0,1,232,371a4.17,4.17,0,0,1,2.54-3.67l20.62-12.57a11.85,11.85,0,0,1,5.64-1.27,13.94,13.94,0,0,1,4.95,1l9.17,4.94a4.31,4.31,0,0,1,2.69,3.53c.14,1.55-.85,2.82-2.55,3.67l-20.47,12.57A13,13,0,0,1,248.82,380.5Z" transform="translate(-26 -5.19)"/><path d="M261,354.52a10.6,10.6,0,0,1,4.38.84l9,4.95c2.82,1.27,2.82,4.09.14,5.5l-20.61,12.71a10,10,0,0,1-5.09,1.13,10.47,10.47,0,0,1-4.38-.85l-9-4.94c-2.83-1.27-2.83-4.09-.14-5.51l20.61-12.7a9.33,9.33,0,0,1,5.08-1.13m0-2a12.08,12.08,0,0,0-6.07,1.41h-.14l-20.61,12.57a5.13,5.13,0,0,0-3,4.52c0,1.83,1.27,3.39,3.25,4.37l9,4.95h.14a13.08,13.08,0,0,0,5.36,1,12,12,0,0,0,6.07-1.41h.15l20.61-12.56a5.14,5.14,0,0,0,3-4.52c0-1.84-1.27-3.39-3.25-4.38l-9-4.94h-.14a13.37,13.37,0,0,0-5.37-1Z" transform="translate(-26 -5.19)"/><path class="cls-7" d="M373.78,332.49a13.89,13.89,0,0,1-4.94-1l-9.18-4.94A4.32,4.32,0,0,1,357,323c-.14-1.55.85-2.82,2.54-3.67l27-16.66a11.87,11.87,0,0,1,5.65-1.27,13.89,13.89,0,0,1,4.94,1l9.18,4.94a4.29,4.29,0,0,1,2.68,3.53,4.18,4.18,0,0,1-2.54,3.67l-27,16.66A12.68,12.68,0,0,1,373.78,332.49Z" transform="translate(-26 -5.19)"/><path d="M392.28,302.56a10.63,10.63,0,0,1,4.38.84l9,5c2.83,1.27,2.83,4.09.14,5.5l-27.11,16.66a9.94,9.94,0,0,1-5.08,1.13,10.63,10.63,0,0,1-4.38-.84l-9-4.95c-2.83-1.27-2.83-4.09-.14-5.5l27.11-16.66a11.17,11.17,0,0,1,5.08-1.13m0-2a12,12,0,0,0-6.07,1.41h-.14l-27,16.66a5.14,5.14,0,0,0-3,4.52c0,1.84,1.27,3.39,3.25,4.38l9,4.94h.14a12.91,12.91,0,0,0,5.36,1,12.09,12.09,0,0,0,6.08-1.41h.14l27-16.66a5.14,5.14,0,0,0,3-4.52c0-1.84-1.27-3.39-3.25-4.38l-9-4.94h-.15a16.26,16.26,0,0,0-5.36-1Z" transform="translate(-26 -5.19)"/><path class="cls-3" d="M373.64,330.8a14.11,14.11,0,0,1-4.94-1l-9.18-4.94a4.32,4.32,0,0,1-2.68-3.53c-.14-1.56.85-2.83,2.54-3.68l27-16.66a12,12,0,0,1,5.65-1.27,14.11,14.11,0,0,1,4.94,1l9.18,4.94a4.32,4.32,0,0,1,2.68,3.53,4.17,4.17,0,0,1-2.54,3.67l-27,16.67A12,12,0,0,1,373.64,330.8Z" transform="translate(-26 -5.19)"/><path d="M392.14,300.72a10.39,10.39,0,0,1,4.37.85l9,4.94c2.83,1.27,2.83,4.09.14,5.51l-27.11,16.66a9.94,9.94,0,0,1-5.08,1.13,10.47,10.47,0,0,1-4.38-.85l-9-4.94c-2.83-1.27-2.83-4.1-.15-5.51l27.11-16.66a12.16,12.16,0,0,1,5.09-1.13m0-1.83a12,12,0,0,0-6.07,1.41h-.14L359,317a5.13,5.13,0,0,0-3,4.52c0,1.83,1.27,3.39,3.25,4.37l9,4.95h.14a13.08,13.08,0,0,0,5.36,1,12,12,0,0,0,6.07-1.41H380l27-16.66a5.13,5.13,0,0,0,3-4.52c0-1.83-1.27-3.39-3.25-4.37l-9-4.95h-.14a15.89,15.89,0,0,0-5.36-1Z" transform="translate(-26 -5.19)"/><path class="cls-7" d="M237.1,416.64a14.11,14.11,0,0,1-4.94-1l-9.18-5a4.29,4.29,0,0,1-2.68-3.53c-.14-1.55.85-2.82,2.54-3.67L243.46,391a11.85,11.85,0,0,1,5.64-1.27,14.16,14.16,0,0,1,5,1l9.17,4.95a4.28,4.28,0,0,1,2.69,3.53,4.18,4.18,0,0,1-2.54,3.67l-20.62,12.56A13.79,13.79,0,0,1,237.1,416.64Z" transform="translate(-26 -5.19)"/><path d="M249.25,390.52a10.58,10.58,0,0,1,4.37.85l9,4.94c2.82,1.27,2.82,4.1.14,5.51l-20.61,12.71a10.11,10.11,0,0,1-5.09,1.13,10.55,10.55,0,0,1-4.37-.85l-9-4.94c-2.83-1.27-2.83-4.1-.14-5.51l20.61-12.71a10.92,10.92,0,0,1,5.09-1.13m0-1.83a12.09,12.09,0,0,0-6.08,1.41H243l-20.61,12.57a5.12,5.12,0,0,0-3,4.51c0,1.84,1.27,3.39,3.25,4.38l9,4.94h.14a12.91,12.91,0,0,0,5.36,1,12.09,12.09,0,0,0,6.08-1.41h.14l20.61-12.57a5.13,5.13,0,0,0,3-4.52c0-1.83-1.27-3.38-3.25-4.37l-9-4.94h-.14a13.82,13.82,0,0,0-5.36-1Z" transform="translate(-26 -5.19)"/><path class="cls-3" d="M237.1,415.23a13.89,13.89,0,0,1-4.94-1L223,409.3a4.29,4.29,0,0,1-2.68-3.53c-.14-1.55.85-2.82,2.54-3.67l20.62-12.57a12,12,0,0,1,5.64-1.27,14.17,14.17,0,0,1,5,1l9.17,4.94a4.31,4.31,0,0,1,2.69,3.53,4.16,4.16,0,0,1-2.54,3.67L242.75,414A12.27,12.27,0,0,1,237.1,415.23Z" transform="translate(-26 -5.19)"/><path d="M249.25,389.25a10.42,10.42,0,0,1,4.37.85l9,4.94c2.82,1.27,2.82,4.1.14,5.51l-20.61,12.71a10.11,10.11,0,0,1-5.09,1.13,10.55,10.55,0,0,1-4.37-.85l-9-4.94c-2.83-1.27-2.83-4.1-.14-5.51l20.61-12.71a10.92,10.92,0,0,1,5.09-1.13m0-2a12.09,12.09,0,0,0-6.08,1.41H243l-20.61,12.56a5.14,5.14,0,0,0-3,4.52c0,1.84,1.27,3.39,3.25,4.38l9,4.94h.14a12.91,12.91,0,0,0,5.36,1,12.09,12.09,0,0,0,6.08-1.41h.14l20.61-12.57a5.13,5.13,0,0,0,3-4.52c0-1.83-1.27-3.39-3.25-4.37l-9-4.95h-.14a17.29,17.29,0,0,0-5.36-1Z" transform="translate(-26 -5.19)"/><path class="cls-7" d="M201.66,438.67a13.89,13.89,0,0,1-4.94-1l-9.18-4.94a4.32,4.32,0,0,1-2.68-3.53,4.18,4.18,0,0,1,2.54-3.67L208,413a12,12,0,0,1,5.64-1.27,14.17,14.17,0,0,1,5,1l9.17,4.94a4.31,4.31,0,0,1,2.69,3.53,4.17,4.17,0,0,1-2.55,3.67L207.31,437.4A14.92,14.92,0,0,1,201.66,438.67Z" transform="translate(-26 -5.19)"/><path d="M213.66,412.55a10.44,10.44,0,0,1,4.38.85l9,4.94c2.82,1.27,2.82,4.09.14,5.51l-20.62,12.7a9.94,9.94,0,0,1-5.08,1.13,10.63,10.63,0,0,1-4.38-.84l-9-4.95c-2.83-1.27-2.83-4.09-.14-5.5l20.61-12.71a11.64,11.64,0,0,1,5.08-1.13m0-1.84a12.06,12.06,0,0,0-6.07,1.42h-.14l-20.61,12.56a5.14,5.14,0,0,0-3,4.52c0,1.84,1.27,3.39,3.25,4.38l9,4.94h.14a12.91,12.91,0,0,0,5.36,1,12.13,12.13,0,0,0,6.07-1.41h.14l20.62-12.57a5.12,5.12,0,0,0,3-4.52c0-1.83-1.27-3.39-3.24-4.38l-9-4.94H219a13.09,13.09,0,0,0-5.37-1Z" transform="translate(-26 -5.19)"/><path class="cls-3" d="M201.66,437.26a13.89,13.89,0,0,1-4.94-1l-9.18-4.94a4.32,4.32,0,0,1-2.68-3.53,4.17,4.17,0,0,1,2.54-3.67L208,411.56a11.85,11.85,0,0,1,5.64-1.27,13.94,13.94,0,0,1,5,1l9.17,4.94a4.31,4.31,0,0,1,2.69,3.53,4.18,4.18,0,0,1-2.55,3.67L207.31,436A12.68,12.68,0,0,1,201.66,437.26Z" transform="translate(-26 -5.19)"/><path d="M213.66,411.14A10.6,10.6,0,0,1,218,412l9,4.95c2.82,1.27,2.82,4.09.14,5.5L206.6,435.14a9.94,9.94,0,0,1-5.08,1.13,10.47,10.47,0,0,1-4.38-.85l-9-4.94c-2.83-1.27-2.83-4.09-.14-5.51l20.61-12.7a11.64,11.64,0,0,1,5.08-1.13m0-1.84a12.16,12.16,0,0,0-6.07,1.41h-.14l-20.61,12.57a5.13,5.13,0,0,0-3,4.52c0,1.83,1.27,3.39,3.25,4.38l9,4.94h.14a13.08,13.08,0,0,0,5.36,1,12,12,0,0,0,6.07-1.42h.14l20.62-12.56a5.13,5.13,0,0,0,3-4.52c0-1.84-1.27-3.39-3.24-4.38l-9-4.94H219a16.58,16.58,0,0,0-5.37-1Z" transform="translate(-26 -5.19)"/><path class="cls-7" d="M340.32,353.11a14.07,14.07,0,0,1-4.94-1l-9.18-4.95a4.29,4.29,0,0,1-2.68-3.53,4.17,4.17,0,0,1,2.54-3.67l20.61-12.56a11.89,11.89,0,0,1,5.65-1.27,14.06,14.06,0,0,1,4.94,1l9.18,4.95a4.29,4.29,0,0,1,2.68,3.53,4.17,4.17,0,0,1-2.54,3.67L346,351.83A12.75,12.75,0,0,1,340.32,353.11Z" transform="translate(-26 -5.19)"/><path d="M352.32,327.12a10.63,10.63,0,0,1,4.38.85l9,4.94c2.83,1.27,2.83,4.1.14,5.51l-20.61,12.71a10,10,0,0,1-5.08,1.13,10.44,10.44,0,0,1-4.38-.85l-9-4.94c-2.82-1.27-2.82-4.1-.14-5.51l20.62-12.71a10,10,0,0,1,5.08-1.13m0-2h0a12,12,0,0,0-6.07,1.41h-.14l-20.62,12.57a5.14,5.14,0,0,0-3,4.51c0,1.84,1.27,3.39,3.24,4.38l9,4.94H335a13,13,0,0,0,5.37,1,12,12,0,0,0,6.07-1.41h.14L367.15,340a5.13,5.13,0,0,0,3-4.51c0-1.84-1.27-3.39-3.25-4.38l-9-4.94h-.14a15.7,15.7,0,0,0-5.37-1Z" transform="translate(-26 -5.19)"/><path class="cls-3" d="M340.18,351.69a13.85,13.85,0,0,1-4.94-1l-9.18-4.94a4.3,4.3,0,0,1-2.69-3.53,4.18,4.18,0,0,1,2.55-3.67L346.53,326a11.87,11.87,0,0,1,5.65-1.28,14.11,14.11,0,0,1,4.94,1l9.18,4.94a4.32,4.32,0,0,1,2.68,3.53,4.19,4.19,0,0,1-2.54,3.68l-20.62,12.56A11.85,11.85,0,0,1,340.18,351.69Z" transform="translate(-26 -5.19)"/><path d="M352.32,325.71a10.63,10.63,0,0,1,4.38.85l9,4.94c2.83,1.27,2.83,4.1.14,5.51l-20.61,12.71a10.07,10.07,0,0,1-5.08,1.13,10.59,10.59,0,0,1-4.38-.85l-9-4.94c-2.82-1.27-2.82-4.1-.14-5.51l20.62-12.71a10.87,10.87,0,0,1,5.08-1.13m0-2h0a12,12,0,0,0-6.07,1.41h-.14l-20.48,12.56a5.15,5.15,0,0,0-3,4.52c0,1.84,1.27,3.39,3.25,4.38l9,4.94h.14a13,13,0,0,0,5.37,1,12,12,0,0,0,6.07-1.41h.14l20.62-12.57a5.14,5.14,0,0,0,3-4.52c0-1.83-1.27-3.39-3.25-4.37l-9.17-4.95h-.14a16,16,0,0,0-5.37-1Z" transform="translate(-26 -5.19)"/><path class="cls-3" d="M271.7,395.32a14.16,14.16,0,0,1-4.95-1l-9.17-4.95c-2-.84-3-2.54-2.55-4.23-.42-1.7.43-3.39,2.4-4.38l16.24-9.88,38.83-24a12,12,0,0,1,5.65-1.27,14.07,14.07,0,0,1,4.94,1l9.18,4.94c2,.85,3,2.54,2.54,4.24.43,1.69-.42,3.39-2.4,4.38l-16.8,10.3c-1,.57-2.83,1.7-4.94,3.11-4.8,3-10.73,6.78-12.71,7.76l-20.62,12.57a11.15,11.15,0,0,1-5.64,1.41Z" transform="translate(-26 -5.19)"/><path d="M318.15,346.61a10.47,10.47,0,0,1,4.38.85l9,4.94c1.7.85,2.4,2.12,2,3.39.42,1.27-.14,2.54-1.83,3.39l-16.95,10.3c-2.82,1.7-14.82,9.46-17.65,10.88l-20.61,12.7a10,10,0,0,1-5.09,1.13,10.58,10.58,0,0,1-4.37-.84l-9-5c-1.69-.84-2.4-2.11-2-3.38-.42-1.27.14-2.55,1.84-3.39l16.24-10,38.83-24a15.43,15.43,0,0,1,5.22-1m0-2a12,12,0,0,0-6.07,1.42h-.14l-38.83,24-16.24,9.88a4.75,4.75,0,0,0-2.82,5.23c-.29,2,.84,3.95,3.1,5.08l9,4.94h.14a12.93,12.93,0,0,0,5.37,1,12.05,12.05,0,0,0,6.07-1.41h.14l20.61-12.57c2-1,7.91-4.8,12.71-7.76,2.12-1.42,3.95-2.55,4.94-3.11L333,361a4.76,4.76,0,0,0,2.82-5.22c.28-2-.85-4-3.11-5.09l-9-4.94h-.14a13.14,13.14,0,0,0-5.37-1.13Z" transform="translate(-26 -5.19)"/><path d="M466.27,323.17c-.14-3-2-5.79-5.51-7.76L294.29,225.6a23.82,23.82,0,0,0-10.87-2.54h0c-4.66,0-9.18,1.13-12.29,3.25L49.17,363c-3.39,2.12-5.23,4.94-5.09,8.05a7.49,7.49,0,0,0,1.84,4.66c0-.57-.14-1.27-.14-2,0-1.13.14-2.26.14-3.11a5.84,5.84,0,0,1,.57-2.26c0-.14.14-.28.28-.42a10.62,10.62,0,0,1,3.39-3.25L272.12,228a21.11,21.11,0,0,1,11.3-3,20.88,20.88,0,0,1,10,2.26l166.33,89.94c3,1.55,4.52,3.81,4.52,6.07a19.46,19.46,0,0,1,.28,3v2A7.62,7.62,0,0,0,466.27,323.17Z" transform="translate(-26 -5.19)"/><path d="M52.7,378.52h-.28c-7.63-4.09-6.92-7.77-6.92-8s.28-.42.56-.42.43.28.43.56c0,0-.43,3.25,6.35,6.92.28.14.42.43.14.57C53.12,378.52,52.84,378.52,52.7,378.52Z" transform="translate(-26 -5.19)"/><path d="M82.91,394.9h-.28l-27.53-15c-.28-.14-.43-.42-.14-.56s.42-.43.56-.14l27.39,14.82c.29.14.43.43.15.57C83.2,394.76,82.91,394.9,82.91,394.9Z" transform="translate(-26 -5.19)"/><path d="M89.41,398.43h-.28l-3.67-2c-.29-.14-.43-.42-.15-.56s.43-.43.57-.14l3.67,2c.28.15.42.43.14.57A.49.49,0,0,1,89.41,398.43Z" transform="translate(-26 -5.19)"/><path d="M103.11,405.77h-.29l-11.58-6.21c-.28-.14-.42-.42-.14-.57s.43-.42.57-.14l11.58,6.36c.28.14.42.42.14.56Z" transform="translate(-26 -5.19)"/><path d="M170.46,442.2h-.29L113.7,411.7c-.29-.14-.43-.42-.15-.56s.43-.43.57-.14l56.48,30.5c.28.14.42.42.14.56A.49.49,0,0,1,170.46,442.2Z" transform="translate(-26 -5.19)"/><path d="M175.82,445.17h-.28l-3.39-1.84c-.28-.14-.42-.42-.14-.56s.42-.43.56-.15l3.39,1.84c.29.14.43.42.14.57C176.25,445,176,445.17,175.82,445.17Z" transform="translate(-26 -5.19)"/><path d="M227.5,469.31a29.62,29.62,0,0,1-17.08-5.65l-28.81-15.53c-.28-.14-.42-.42-.14-.56.14-.29.42-.43.57-.14L210.84,463c.28.14,17.08,12.85,33.75-1.27a.49.49,0,1,1,.7.7C239.08,467.62,232.87,469.31,227.5,469.31Z" transform="translate(-26 -5.19)"/><path d="M251.79,458.3c-.14,0-.29-.14-.43-.28a.63.63,0,0,1,.14-.71l42.08-26a.51.51,0,0,1,.57.85l-42.08,26C251.93,458.3,251.93,458.3,251.79,458.3Z" transform="translate(-26 -5.19)"/><path d="M297.11,430.48c-.14,0-.28-.14-.42-.28a.63.63,0,0,1,.14-.71l11.58-7.06a.62.62,0,0,1,.7.14.63.63,0,0,1-.14.71l-11.58,7.06A.49.49,0,0,0,297.11,430.48Z" transform="translate(-26 -5.19)"/><path d="M311.23,421.73c-.14,0-.28-.14-.42-.28a.63.63,0,0,1,.14-.71l4.38-2.82a.6.6,0,0,1,.7.14.62.62,0,0,1-.14.7l-4.38,2.83Z" transform="translate(-26 -5.19)"/><path d="M332,408.88c-.14,0-.28-.14-.43-.28a.63.63,0,0,1,.14-.71l93.48-57.75a.51.51,0,0,1,.56.85l-93.47,57.75C332.27,408.88,332.13,408.88,332,408.88Z" transform="translate(-26 -5.19)"/><path d="M428.57,349.43c-.14,0-.29-.14-.43-.28a.62.62,0,0,1,.14-.7L459.91,329h.14c.15,0,4.66-1.84,4.38-8.33a.43.43,0,0,1,.85,0c.42,6.92-4.38,9-4.94,9.32l-31.49,19.48Z" transform="translate(-26 -5.19)"/><path d="M80.51,357.34c-.14,0-.42-.14-.42-.28s0-.57.14-.57l43.49-26.82a.63.63,0,0,1,.71.14c.14.28,0,.56-.14.56L80.8,357.2A.45.45,0,0,1,80.51,357.34Z" transform="translate(-26 -5.19)"/><path d="M69.08,372.73a.53.53,0,0,1-.43-.14c-1.55-1.84-2.26-3.53-2-5.36.56-3.25,3.95-5.09,4.09-5.09L75,359.6a.62.62,0,0,1,.7.14c.14.28,0,.57-.14.57l-4.23,2.54s-3.25,1.83-3.68,4.38c-.28,1.41.43,3,1.7,4.51a.64.64,0,0,1,0,.71C69.36,372.73,69.22,372.73,69.08,372.73Z" transform="translate(-26 -5.19)"/><path d="M86,382.33h-.28l-14.55-8.05c-.28-.14-.42-.42-.14-.56s.43-.42.57-.14l14.68,7.91c.29.14.43.42.14.56C86.44,382.19,86.3,382.33,86,382.33Z" transform="translate(-26 -5.19)"/><path d="M148.71,416.08h-.28L89,384c-.29-.14-.43-.43-.15-.57s.43-.42.57-.14l59.44,32.05c.29.14.43.43.14.57C149,416.08,149,416.08,148.71,416.08Z" transform="translate(-26 -5.19)"/><path d="M154.08,419h-.28l-3.25-1.83c-.28-.14-.43-.42-.14-.57s.42-.42.56-.14l3.25,1.84c.28.14.42.42.14.56C154.36,419,154.22,419,154.08,419Z" transform="translate(-26 -5.19)"/><path d="M172.15,428.79h-.28l-15.39-8.33c-.28-.14-.43-.43-.14-.57.14-.28.42-.42.56-.14l15.39,8.33c.29.14.43.42.14.57C172.43,428.79,172.43,428.79,172.15,428.79Z" transform="translate(-26 -5.19)"/><path d="M231.6,458.16A20,20,0,0,1,220,454.77l-45-24.43c-.29-.14-.43-.42-.15-.56s.43-.43.57-.15l45.18,24.43c.14.14,10.45,7.63,24-.85.28-.14.56,0,.56.15s0,.56-.14.56A25,25,0,0,1,231.6,458.16Z" transform="translate(-26 -5.19)"/><path d="M250.8,450.39c-.14,0-.28-.14-.43-.28s0-.57.15-.57L279,431.89c.28-.14.56,0,.56.14.14.29,0,.57-.14.57l-28.52,17.65C251.08,450.39,250.94,450.39,250.8,450.39Z" transform="translate(-26 -5.19)"/><path d="M282,431.19c-.14,0-.28-.14-.42-.28-.14-.29,0-.57.14-.57l41.09-25.42c.28-.14.56,0,.56.15s0,.56-.14.56l-41.09,25.42A.14.14,0,0,1,282,431.19Z" transform="translate(-26 -5.19)"/><path d="M324.5,404.92c-.14,0-.28-.14-.42-.28s0-.56.14-.56l4.38-2.83c.28-.14.56,0,.56.14.14.29,0,.57-.14.57l-4.37,2.82C324.79,404.92,324.65,404.92,324.5,404.92Z" transform="translate(-26 -5.19)"/><path d="M338.62,396.31c-.14,0-.28-.14-.42-.28s0-.57.14-.57l86.56-53.23c.28-.14.56,0,.56.14.14.29,0,.57-.14.57l-86.56,53.23C338.91,396.31,338.76,396.31,338.62,396.31Z" transform="translate(-26 -5.19)"/><path d="M428.57,340.68c-.14,0-.43-.14-.43-.28s0-.57.14-.57l14.27-8.47c.28-.14.56,0,.56.14s0,.57-.14.57l-14.26,8.47Z" transform="translate(-26 -5.19)"/><path d="M445.37,330.51a.51.51,0,0,1-.42-.14.59.59,0,0,1,0-.7s2.68-2.26,2.4-4.95c-.15-1.69-1.56-3.24-4-4.66-.28-.14-.42-.42-.14-.56s.42-.42.57-.14c2.82,1.55,4.37,3.25,4.51,5.36.43,3.25-2.54,5.65-2.68,5.79Z" transform="translate(-26 -5.19)"/><path d="M438.87,317.52h-.28l-18.07-9.74c-.28-.14-.43-.42-.14-.56a.34.34,0,0,1,.56-.15L439,316.82c.28.14.42.42.14.56A.49.49,0,0,1,438.87,317.52Z" transform="translate(-26 -5.19)"/><path d="M417.27,305.8H417l-65.94-35.72c-.28-.14-.42-.42-.14-.56s.42-.43.56-.15l65.94,35.73c.28.14.43.42.14.56A.49.49,0,0,1,417.27,305.8Z" transform="translate(-26 -5.19)"/><path d="M348.08,268.53h-.28l-47.86-26c-.29-.14-.43-.43-.15-.57s.43-.42.57-.14l47.87,26c.28.14.42.43.14.57C348.51,268.39,348.23,268.53,348.08,268.53Z" transform="translate(-26 -5.19)"/><path d="M297.11,241h-.28l-4.8-2.54c-.14,0-10.31-4.94-20.33,1.27-.29.14-.57,0-.57-.14s0-.56.14-.56a23.31,23.31,0,0,1,21.18-1.27l4.8,2.54c.29.14.43.42.14.56A.49.49,0,0,1,297.11,241Z" transform="translate(-26 -5.19)"/><path d="M246.56,255.11c-.14,0-.28-.14-.42-.28s0-.56.14-.56l19.06-11.72c.28-.14.57,0,.57.14s0,.56-.14.56L246.7,255A.14.14,0,0,1,246.56,255.11Z" transform="translate(-26 -5.19)"/><path d="M240.91,258.5c-.14,0-.28-.14-.42-.28s0-.56.14-.56l2.83-1.7c.28-.14.56,0,.56.14s0,.57-.14.57l-2.82,1.69C241.06,258.5,240.91,258.5,240.91,258.5Z" transform="translate(-26 -5.19)"/><path d="M178.08,297.19c-.14,0-.42-.14-.42-.28s0-.57.14-.57l60.15-37c.28-.14.56,0,.56.14.15.28,0,.57-.14.57l-60.15,37.13Z" transform="translate(-26 -5.19)"/><path d="M157,310.18c-.14,0-.42-.14-.42-.28s0-.57.14-.57l19.06-11.72a.62.62,0,0,1,.71.15c.14.28,0,.56-.14.56L157.33,310C157.18,310.18,157.18,310.18,157,310.18Z" transform="translate(-26 -5.19)"/><path d="M127.82,328.11c-.15,0-.43-.14-.43-.28s0-.56.14-.56l26-16a.63.63,0,0,1,.71.14c.14.28,0,.57-.14.57l-26,16C128,328.11,128,328.11,127.82,328.11Z" transform="translate(-26 -5.19)"/><polygon points="106.17 195.71 106.57 210.84 113.49 206.62 113.61 210.82 102.66 217.5 102.14 198.16 106.17 195.71"/><path d="M155.71,191.1a7.75,7.75,0,0,1,1.23,4.44,15.9,15.9,0,0,1-1,5.78,19.7,19.7,0,0,1-2.93,5.39,15,15,0,0,1-4.19,3.85,7.46,7.46,0,0,1-4.26,1.31,4,4,0,0,1-3.12-1.71,7.68,7.68,0,0,1-1.26-4.42,15.88,15.88,0,0,1,1-5.78,19.08,19.08,0,0,1,2.92-5.36,15.47,15.47,0,0,1,4.2-3.85,7.38,7.38,0,0,1,4.29-1.32A4,4,0,0,1,155.71,191.1Zm-3.89,11.66a9.83,9.83,0,0,0,1.07-4.75q-.06-2.53-1.26-3.33c-.79-.53-1.84-.42-3.17.39a8.42,8.42,0,0,0-3.13,3.42,9.85,9.85,0,0,0-1.05,4.77c.05,1.68.47,2.79,1.27,3.32s1.84.42,3.17-.39a8.49,8.49,0,0,0,3.1-3.43" transform="translate(-26 -5.19)"/><polygon points="147.49 170.52 141.03 184.05 147.97 189.84 143.12 192.79 137.27 187.53 137.5 196.22 133.48 198.67 132.97 179.37 136.99 176.92 137.22 185.43 142.67 173.46 147.49 170.52"/><polygon points="153.67 166.75 154.19 186.08 150.16 188.54 149.65 169.2 153.67 166.75"/><polygon points="184.81 147.76 184.91 151.48 177.55 155.97 177.66 160 184.31 155.95 184.41 159.46 177.75 163.52 177.87 167.83 185.23 163.34 185.33 167.09 173.95 174.04 173.43 154.7 184.81 147.76"/><polygon points="201.12 137.82 201.22 141.55 196.19 144.61 196.6 160.22 192.58 162.68 192.16 147.06 187.16 150.11 187.06 146.39 201.12 137.82"/><polygon points="85.98 224.51 88.85 226.02 83.49 235.84 77.79 232.77 80.45 227.88 83.32 229.39 85.98 224.51"/><g class="cls-8"><polygon points="85.82 218.05 88.67 219.58 85.99 224.48 83.14 222.95 85.82 218.05"/><polygon points="80.29 221.42 83.13 222.96 80.46 227.86 77.61 226.32 80.29 221.42"/><polygon points="85.64 211.62 88.49 213.14 85.82 218.04 82.97 216.51 85.64 211.62"/><polygon points="80.1 214.99 82.96 216.51 80.28 221.41 77.44 219.88 80.1 214.99"/><polygon points="82.63 203.62 88.33 206.69 85.65 211.61 82.8 210.06 80.12 214.98 77.27 213.43 82.63 203.62"/></g><polygon points="91.17 208.25 96.88 211.32 91.52 221.14 88.68 219.58 91.34 214.69 88.51 213.13 91.17 208.25"/><polygon points="74.58 218.37 77.44 219.88 74.75 224.81 77.61 226.32 74.92 231.26 69.22 228.18 74.58 218.37"/><polygon points="170.68 156.38 171.19 175.71 168.24 177.52 160.7 171.01 160.99 181.94 156.97 184.39 156.45 165.06 159.41 163.25 166.95 169.9 166.66 158.83 170.68 156.38"/></svg>