<svg viewBox="0 0 173 195" fill="none" xmlns="http://www.w3.org/2000/svg">
  <path
    d="M120.709 162.857C121.573 163.051 122.154 163.825 122.102 164.706L121.767 170.691C121.379 177.803 115.49 183.366 108.386 183.366C107.187 183.366 105.988 183.208 104.789 182.873C101.387 181.958 98.4425 179.704 96.6796 176.659C94.6698 173.173 94.2995 169.159 95.6394 165.375L97.7726 159.372C98.0723 158.527 98.9714 158.034 99.8529 158.227L120.709 162.857ZM93.8764 146.098C92.325 146.098 90.8794 147.084 90.3152 148.562L85.6081 161.819C80.7952 175.339 88.7814 189.985 102.691 193.33C104.595 193.788 106.499 194.017 108.368 194.017C120.815 194.017 131.675 184.317 132.397 171.29L133.155 157.981C133.279 156.132 132.045 154.495 130.247 154.09L94.6698 146.186C94.4053 146.133 94.1409 146.098 93.8764 146.098Z"
    fill="#1F1C47" />
  <path
    d="M149.022 81.4375C149.075 92.7746 140.348 114.692 131.393 133.141C130.934 134.092 129.876 134.602 128.836 134.391L107.645 129.92C106.535 129.691 105.759 128.687 105.812 127.561C105.988 123.142 106.112 118.952 106.182 115.026C106.2 114.164 106.552 113.336 107.169 112.72L147.33 72.6705C147.876 72.1248 148.828 72.4945 148.846 73.2691C148.916 75.5048 149.022 79.0961 149.022 81.4375ZM155.616 50.0667C155.193 50.0667 154.77 50.2251 154.435 50.5596L97.2614 107.545C96.186 108.618 95.5866 110.044 95.5689 111.558C95.4808 120.061 95.1282 128.406 94.8814 133.388C94.7404 136.064 96.5738 138.458 99.2183 139.003L132.309 145.992C132.697 146.08 133.085 146.116 133.473 146.116C135.5 146.116 137.404 144.971 138.339 143.088C143.927 132.032 159.759 99.2002 159.688 81.3846C159.635 72.6705 159.195 61.6151 157.273 51.4222C157.097 50.5772 156.374 50.0667 155.616 50.0667Z"
    fill="#1F1C47" />
  <path
    d="M133.42 21.9524C114.398 21.9524 104.913 43.8169 103.573 47.1617C103.467 47.461 103.344 47.7426 103.238 48.0419C102.674 49.4151 100.893 53.9394 99.1655 60.7698C98.9892 61.4564 99.5357 62.0021 100.117 62.0021C100.347 62.0021 100.593 61.9141 100.805 61.7028L138.392 24.0473C138.938 23.5016 138.656 22.5685 137.916 22.4101C137.052 22.2165 136.153 22.0932 135.218 22.0228C134.584 21.97 133.984 21.9524 133.42 21.9524Z"
    fill="#1F1C47" />
  <path
    d="M69.8295 149.918C70.1997 149.566 70.8167 149.777 70.852 150.288C71.0459 153.228 70.2526 156.167 68.5778 158.667C66.3564 161.995 62.7952 164.125 58.8285 164.547C58.3525 164.6 57.8589 164.618 57.3829 164.618C57.0832 164.618 56.8011 164.6 56.5014 164.582C55.9901 164.547 55.761 163.913 56.1312 163.561L69.8295 149.918ZM75.1184 130.36C74.6776 130.36 74.2193 130.518 73.8667 130.87L40.0352 164.6C39.1361 165.498 39.1009 166.959 40 167.892C44.425 172.469 50.6131 175.286 57.3829 175.286C58.2291 175.286 59.0753 175.251 59.9392 175.145C74.9068 173.561 84.7618 158.826 80.5483 144.408L76.7756 131.574V131.557C76.5288 130.782 75.8412 130.36 75.1184 130.36Z"
    fill="#1F1C47" />
  <path
    d="M41.9039 10.633C43.755 10.633 49.4142 10.633 55.4259 18.6781C59.1105 23.6073 61.0322 29.0118 61.4905 30.385C61.5434 30.5786 61.6139 30.7723 61.6668 30.9659L61.7374 31.2124C61.7726 31.3356 61.8079 31.4588 61.8608 31.5997C62.1781 32.5151 69.3181 54.1155 65.3691 81.2437C65.2633 81.9303 64.946 82.564 64.4523 83.057L41.0048 106.559C39.3476 108.213 36.5269 107.633 35.6806 105.432C28.9285 87.7749 23.1812 68.4982 23.9216 58.3054C25.0147 43.729 27.0244 32.5855 30.0215 24.2411C31.7668 19.3999 33.8648 15.615 36.0861 13.3264C38.3956 10.9499 40.3172 10.633 41.9039 10.633ZM41.9039 0C20.0254 0 14.9481 35.8951 13.3085 57.5132C11.9863 75.2759 25.473 109.146 30.2859 120.554C31.1322 122.614 33.142 123.916 35.3104 123.916C35.5749 123.916 35.8393 123.899 36.1037 123.864C38.1135 123.582 39.9823 122.649 41.4103 121.223L73.3201 89.2361C74.7128 87.8453 75.559 86.0145 75.7177 84.0604V84.0252C80.2486 54.9253 73.1261 31.6701 71.945 28.1844C71.8568 27.8676 71.7687 27.5859 71.6805 27.269C70.5522 23.7482 62.1605 0 41.9039 0Z"
    fill="#1F1C47" />
  <path
    d="M4.07034 182.046C3.13596 181.095 2.20159 180.145 1.28484 179.194C-0.442871 177.433 -0.425241 174.599 1.3201 172.856L161.909 11.9181C163.654 10.1576 166.493 10.14 168.273 11.8829C169.367 12.9391 170.46 14.013 171.553 15.0868C173.351 16.8473 173.368 19.7344 171.588 21.5124L10.5052 182.081C8.72458 183.859 5.83331 183.841 4.07034 182.046Z"
    fill="#FF7A87" />
</svg>
