<svg viewBox="0 0 23 40" fill="none" xmlns="http://www.w3.org/2000/svg">
  <g clip-path="url(#clip0_330:7647)">
    <path
      d="M11.5001 30.8481C6.95024 30.8481 3.24902 26.9839 3.24902 22.2341V8.61367C3.24902 3.86427 6.95024 0 11.5001 0C16.05 0 19.7512 3.86427 19.7512 8.61367V22.2341C19.7512 26.9839 16.05 30.8481 11.5001 30.8481ZM11.5001 2.15362C8.08867 2.15362 5.3116 5.05152 5.3116 8.61367V22.2341C5.3116 25.7954 8.0879 28.6945 11.5001 28.6945C14.9123 28.6945 17.6886 25.7966 17.6886 22.2341V8.61367C17.6886 5.05152 14.9115 2.15362 11.5001 2.15362Z"
      fill="#1E1D48" />
    <path
      d="M20.9374 18.5735V22.3989C20.9374 28.0274 16.5259 32.5628 11.1385 32.3483C6.10146 32.1482 2.06255 27.8094 2.06255 22.5045V18.5735C2.0626 18.4321 2.03596 18.292 1.98417 18.1614C1.93237 18.0308 1.85643 17.9121 1.76068 17.8121C1.66493 17.7121 1.55124 17.6327 1.42612 17.5786C1.301 17.5245 1.16688 17.4966 1.03145 17.4966C0.758014 17.4969 0.49585 17.6104 0.302575 17.8123C0.109301 18.0142 0.000732429 18.288 0.000732504 18.5735V22.5033C0.000460053 24.8778 0.674731 27.1991 1.93826 29.1735C3.2018 31.1479 4.99783 32.6868 7.09921 33.5955C9.20059 34.5042 11.5129 34.7419 13.7437 34.2786C15.9745 33.8153 18.0236 32.6717 19.6318 30.9926C20.7029 29.8802 21.5519 28.5572 22.1299 27.1C22.7079 25.6429 23.0034 24.0805 22.9992 22.5033V18.5735C22.9992 18.2879 22.8905 18.014 22.6971 17.812C22.5036 17.6101 22.2413 17.4966 21.9677 17.4966C21.6943 17.4969 21.4322 17.6104 21.239 17.8123C21.0458 18.0143 20.9373 18.288 20.9374 18.5735Z"
      fill="#1E1D48" />
    <path d="M12.5828 32.6244H10.4685V39.946H12.5828V32.6244Z" fill="#1E1D48" />
    <path
      d="M17.843 39.1797V38.6131C17.843 38.1601 17.4912 37.7928 17.0572 37.7928H5.94284C5.50887 37.7928 5.15706 38.1601 5.15706 38.6131V39.1797C5.15706 39.6328 5.50887 40 5.94284 40H17.0572C17.4912 40 17.843 39.6328 17.843 39.1797Z"
      fill="#1E1D48" />
  </g>
  <defs>
    <clipPath id="clip0_330:7647">
      <rect width="23" height="40" fill="white" />
    </clipPath>
  </defs>
</svg>
