<svg viewBox="0 0 227 172" fill="none" xmlns="http://www.w3.org/2000/svg">
  <g clip-path="url(#clip0_393:266)">
    <path
      d="M71.3686 41.8368C53.7534 46.7413 29.8276 63.2797 15.9579 80.1376C13.1431 83.5593 13.0977 88.4866 15.8898 91.9084C25.787 104.113 37.818 113.922 51.9601 121.541C53.0724 122.134 53.2767 123.662 52.3914 124.552L47.0342 129.867C46.444 130.46 45.5133 130.597 44.7869 130.186C27.5122 120.491 13.1204 107.671 1.65691 91.3837C-0.590389 88.1901 -0.590389 83.9015 1.65691 80.7078C16.9113 59.0824 37.1143 43.4336 62.107 33.8299C88.9157 23.519 116.292 21.7853 144.871 27.9444C146.369 28.2638 146.892 30.1572 145.779 31.2065C142.624 34.1948 139.673 36.8866 137.085 39.9206C136.79 40.2171 135.383 41.9052 134.475 42.9773C133.998 43.5248 133.272 43.7757 132.568 43.5933C131.251 43.2511 129.072 42.6808 127.597 42.2017C109.482 36.4304 93.1379 40.2399 79.9719 54.041C66.647 68.0017 63.7641 84.6771 70.2109 102.881C70.8011 104.569 70.6876 104.158 70.9146 105.116C71.0735 105.755 70.8692 106.439 70.4152 106.896C68.9851 108.333 67.0329 110.363 65.3531 112.211C64.4678 113.192 62.8788 112.964 62.2886 111.8C56.0234 99.4818 54.616 87.1635 57.2492 74.275C59.5873 62.8007 65.0353 53.1742 73.23 45.0304C74.5693 43.6617 73.23 41.3121 71.3686 41.8368Z"
      fill="#1F1C47" />
    <path
      d="M150.932 129.502C150.319 130.049 150.887 131.053 151.659 130.825C161.692 127.882 171.203 123.662 180.17 118.165C193.063 110.295 204.096 100.371 213.221 88.2813C214.447 86.6616 214.56 85.6123 213.289 83.9014C202.87 70.1004 190.022 59.1736 174.926 50.9158C174.132 50.4823 173.36 50.0717 172.588 49.6155C172.565 49.6155 172.543 49.5927 172.543 49.5927C172.157 49.3189 172.111 48.7486 172.452 48.4293C174.608 46.2622 177.196 43.3195 179.421 41.3577C179.693 41.1067 180.102 41.0839 180.397 41.312C180.737 41.563 181.282 41.9051 182.054 42.2929C194.63 49.3417 205.866 58.1471 215.309 69.0967C219.577 74.024 220.916 75.7349 224.934 80.8903C225.842 82.0537 226.251 89.1937 225.524 90.2887C206.774 118.096 182.962 133.836 150.773 142.687C127.347 149.143 103.716 149.417 80.0629 143.873C79.904 143.828 79.7678 143.805 79.6089 143.759C79.0868 143.6 78.8825 142.961 79.223 142.527C79.5181 142.162 79.7905 141.82 80.1083 141.524C83.763 137.828 88.8024 132.194 92.4571 128.293C92.6614 128.065 92.9792 127.996 93.2743 128.088C94.4547 128.475 94.1823 128.361 95.9529 129.091C121.967 139.63 151.137 124.62 157.924 97.2691C160.375 87.3688 159.649 77.6967 155.722 68.2982C155.154 66.9295 155.336 67.3173 154.95 66.1083C154.859 65.8346 154.927 65.5152 155.154 65.3099C157.107 63.4165 159.967 60.8845 162.01 58.8086C162.35 58.4436 162.941 58.512 163.213 58.9226C172.792 74.4574 175.675 106.85 150.932 129.502Z"
      fill="#1F1C47" />
    <path
      d="M31.7346 170.631C30.8266 169.696 29.8959 168.738 28.9879 167.803C27.2854 166.046 27.2854 163.24 29.0106 161.484L187.729 1.41444C189.454 -0.342057 192.269 -0.342057 194.017 1.36882C195.084 2.41816 196.173 3.4903 197.263 4.56245C199.034 6.31895 199.056 9.19322 197.286 10.9497L38.0906 170.677C36.3427 172.434 33.4825 172.411 31.7346 170.631Z"
      fill="#FF7A87" />
    <path
      d="M86.8729 88.806C83.6949 74.5031 98.1548 56.7556 115.952 59.607C106.304 69.2792 96.4296 79.1795 86.8729 88.806Z"
      fill="#1F1C47" />
    <path
      d="M109.323 112.553C119.47 102.379 129.299 92.5014 139.378 82.373C140.422 90.1062 138.629 96.9041 133.794 102.835C127.551 110.477 119.379 113.534 109.323 112.553Z"
      fill="#1F1C47" />
    <path
      d="M224.934 80.8904C227.272 83.8331 227.863 87.3461 225.525 90.2888C204.641 116.499 182.962 133.836 150.773 142.687"
      fill="#1F1C47" />
  </g>
  <defs>
    <clipPath id="clip0_393:266">
      <rect width="227" height="172" fill="white" />
    </clipPath>
  </defs>
</svg>
