<svg id="Layer_1" data-name="Layer 1" xmlns="http://www.w3.org/2000/svg" viewBox="0 0 354 485.42"><defs><style>.cls-1{isolation:isolate;opacity:0.32;}.cls-2{fill:#141414;}.cls-3{fill:#595959;}.cls-4{fill:#2d2d2d;}.cls-5{fill:#12c7ba;}.cls-6{fill:#1f1c47;}.cls-7{fill:#3342d1;}.cls-8{fill:#00f782;}.cls-9{fill:#fff;}</style></defs><path class="cls-1" d="M181.66,447.5c-4.58,2.58-4.58,6.93,0,9.51l5.76,3.17c4.69,2.59,12.21,2.47,16.79-.11l145.72-84.9c4.58-2.7,4.58-7.05.12-9.86l-3.53-2.12c-4.46-2.7-12.09-2.93-16.67-.23Z" transform="translate(-73 -7.29)"/><path class="cls-2" d="M185.77,92.07l140.09-80.9c5.75-3.41,19.37,5.28,19.37,5.28l-6.1,300.6a8.6,8.6,0,0,1-4.47,7.63L197.52,411.34s-16.09-6.7-16.09-13.51V99.7A8.49,8.49,0,0,1,185.77,92.07Z" transform="translate(-73 -7.29)"/><path class="cls-3" d="M184.72,92.77l141-81.49c5.75-3.4,19.37,5.29,19.37,5.29L339,317.16a8.63,8.63,0,0,1-4.46,7.64L197.4,411.45s6-8.8,6-15.61l-9.16-294.61C182.37,94.65,184.72,92.77,184.72,92.77Z" transform="translate(-73 -7.29)"/><path class="cls-4" d="M196.34,97.47l140-80.9a8.86,8.86,0,0,1,12.09,3.28,8.11,8.11,0,0,1,1.18,4.35V322.45a8.6,8.6,0,0,1-4.47,7.63L205,410.87a8.86,8.86,0,0,1-12.09-3.29,8,8,0,0,1-1.18-4.35V105A9.46,9.46,0,0,1,196.34,97.47Z" transform="translate(-73 -7.29)"/><path d="M329.26,10.58c6.58,0,16,6.1,16,6.1h0a8.55,8.55,0,0,1,4.46,7.75V322.68a8.74,8.74,0,0,1-4.34,7.64l-140.08,80.9a8.1,8.1,0,0,1-4.35,1.17,10.93,10.93,0,0,1-3.4-.58h0c-1.06-.47-16-6.93-16-13.39V99.82a9.32,9.32,0,0,1,3.28-6.93h0c.36-.23.71-.47.94-.59l140-80.9a7.68,7.68,0,0,1,3.52-.82m0-3.29a10.58,10.58,0,0,0-5.05,1.18L184.13,89.37c-.47.23-.82.59-1.29.82-.12,0-.12.12-.24.12h-.11A12,12,0,0,0,178,99.58V397.83c0,8.22,13.86,14.68,18,16.44h.12a12.1,12.1,0,0,0,4.58.82,11.71,11.71,0,0,0,6-1.64l140-80.9a12.26,12.26,0,0,0,6.11-10.45V24.32a11.76,11.76,0,0,0-6.11-10.45c-.82-.71-10.1-6.58-17.38-6.58Z" transform="translate(-73 -7.29)"/><path class="cls-5" d="M187.3,187.65a1.63,1.63,0,0,1-.7-.24l-1.77-1a1.26,1.26,0,0,1-.7-1.29V167.8a1.35,1.35,0,0,1,1.41-1.4h0a2.11,2.11,0,0,1,.82.23l1.76,1.29a1.47,1.47,0,0,1,.59,1.18V186a1.27,1.27,0,0,1-.47,1.05.94.94,0,0,1-.94.59Z" transform="translate(-73 -7.29)"/><path d="M185.54,166.87c.23,0,.35.11.59.11l1.76,1.29a1.22,1.22,0,0,1,.47.83v17a.93.93,0,0,1-.94.94c-.24,0-.35,0-.47-.12l-1.76-1.05a.78.78,0,0,1-.47-.82V167.8c-.12-.46.23-.82.82-.93-.12.11,0,.11,0,0m0-1.06a2,2,0,0,0-2,2h0v17.27a1.94,1.94,0,0,0,1.06,1.76l1.76,1a3.59,3.59,0,0,0,.94.24,2.06,2.06,0,0,0,2-2h0v-17a2.27,2.27,0,0,0-.83-1.65l-1.76-1.29a2,2,0,0,0-1.17-.35Z" transform="translate(-73 -7.29)"/><path d="M189.06,98.64c-.12,0-.23,0-.23-.11-4.23-2.7-4.47-5.52-4.47-5.64s.24-.59.47-.59.59.24.59.47c0,0,.35,2.47,4,4.82a.55.55,0,0,1,.24.7h0A.64.64,0,0,1,189.06,98.64Z" transform="translate(-73 -7.29)"/><path d="M193.17,101.23h-.23l-2.23-1.29a.52.52,0,1,1,.46-.94l1.77,1a33,33,0,0,1,6-4.69.57.57,0,0,1,.71.23c.12.24,0,.47-.12.71a31.84,31.84,0,0,0-6.1,4.81C193.52,101.11,193.29,101.23,193.17,101.23Z" transform="translate(-73 -7.29)"/><path d="M202.68,94.3a.62.62,0,0,1-.47-.24.56.56,0,0,1,.24-.7h0l51.31-29.71a.47.47,0,0,1,.7.24h0a.56.56,0,0,1-.23.7h0L202.68,94.3Z" transform="translate(-73 -7.29)"/><path d="M256,63.54a.62.62,0,0,1-.47-.24.55.55,0,0,1,.24-.7h0l6.69-3.88a.55.55,0,0,1,.7.24.56.56,0,0,1-.23.7l-6.69,4C256.23,63.54,256.11,63.54,256,63.54Z" transform="translate(-73 -7.29)"/><path d="M266.32,57.55a.62.62,0,0,1-.47-.24.56.56,0,0,1,.24-.7h0l2.7-1.53c.23-.12.59-.12.7.12s.12.59-.11.7h-.12l-2.7,1.53C266.56,57.55,266.44,57.55,266.32,57.55Z" transform="translate(-73 -7.29)"/><path d="M272.31,54.14a.64.64,0,0,1-.47-.23.58.58,0,0,1,.24-.71h0L324.8,22.67c.23-.11.59-.11.7.12s.12.59-.11.7h-.12L272.55,54A.37.37,0,0,1,272.31,54.14Z" transform="translate(-73 -7.29)"/><path d="M192,107.45a.55.55,0,0,1-.59-.59c-.35-5.4,1.17-6.57,1.41-6.81s.59-.11.7.12.12.59-.11.71h0s-1.3,1.17-.94,5.75c.11.47-.12.82-.47.82Z" transform="translate(-73 -7.29)"/><path d="M192,129.64h0c-.24,0-.59-.23-.59-.47h0V109.8a.54.54,0,0,1,.47-.59h0a.55.55,0,0,1,.59.47h0v19.38c.11.23-.12.58-.47.58Z" transform="translate(-73 -7.29)"/><path d="M192,137.39c-.24,0-.59-.23-.59-.47h0v-4.69c0-.24.23-.59.47-.59H192a.62.62,0,0,1,.58.59v4.69A.53.53,0,0,1,192,137.39Z" transform="translate(-73 -7.29)"/><path d="M192,143.38c-.24,0-.59-.23-.59-.47h0v-2.82c0-.35.35-.47.59-.47a.51.51,0,0,1,.47.47v2.82C192.58,143.15,192.35,143.38,192,143.38Z" transform="translate(-73 -7.29)"/><path d="M192,194.58a.54.54,0,0,1-.59-.47h0V150.9c0-.36.35-.47.59-.47a.51.51,0,0,1,.47.47v43.32C192.58,194.34,192.35,194.58,192,194.58Z" transform="translate(-73 -7.29)"/><path d="M192,277.12h0a.53.53,0,0,1-.59-.47h0V198.92a.54.54,0,0,1,.47-.59h0a.55.55,0,0,1,.59.47h0v77.74c.11.35-.12.58-.47.58Z" transform="translate(-73 -7.29)"/><path d="M192,284.05a.53.53,0,0,1-.59-.47h0v-3.52c0-.24.23-.59.47-.59H192a.55.55,0,0,1,.58.59v3.52A.53.53,0,0,1,192,284.05Z" transform="translate(-73 -7.29)"/><path d="M192,394.66c-.24,0-.59-.23-.59-.47h0V288.87a.53.53,0,0,1,.47-.59h0a.56.56,0,0,1,.59.59V394.19c.11.24-.12.47-.47.47Z" transform="translate(-73 -7.29)"/><path d="M196.11,413.45a.44.44,0,0,1-.36-.12c-5.16-3.4-4.46-12.8-4.34-13.15s.23-.59.59-.47.58.35.47.59-.71,9.16,3.87,12.09a.58.58,0,0,1,.24.71h0C196.46,413.33,196.34,413.45,196.11,413.45Z" transform="translate(-73 -7.29)"/><path class="cls-6" d="M329.73,33c-7.75,4.46-14.09,15.38-14.09,24.3s6.34,12.57,14.09,8.1S343.82,50,343.82,41.11,337.6,28.54,329.73,33Z" transform="translate(-73 -7.29)"/><path d="M323.51,68.58a8.1,8.1,0,0,1-4.35-1.17c-3.05-1.76-4.69-5.4-4.69-10.1C314.47,48,321,36.65,329.14,32c4.23-2.35,8.11-2.7,11.16-.94s4.81,5.4,4.81,10.22c0,9.39-6.57,20.78-14.79,25.36A14.85,14.85,0,0,1,323.51,68.58ZM336.07,32.3a11.88,11.88,0,0,0-5.63,1.76c-7.52,4.35-13.51,14.68-13.51,23.25,0,3.88,1.29,6.7,3.52,8s5.41.94,8.81-.83c7.52-4.22,13.5-14.67,13.5-23.24,0-3.88-1.29-6.82-3.52-8.11a6.44,6.44,0,0,0-3.17-.82Z" transform="translate(-73 -7.29)"/><path class="cls-6" d="M301.43,59.31c-3.87,2.23-7,7.75-7,12.09s3.17,6.23,7,4.11a15.43,15.43,0,0,0,7.05-12.09C308.48,59,305.31,57,301.43,59.31Z" transform="translate(-73 -7.29)"/><path d="M298.38,77a4.87,4.87,0,0,1-2.23-.59c-1.53-.82-2.35-2.7-2.35-5a16.25,16.25,0,0,1,7.4-12.68c2.11-1.17,4-1.41,5.63-.47s2.35,2.7,2.35,5A16.08,16.08,0,0,1,301.79,76,6.11,6.11,0,0,1,298.38,77Zm6.22-18.2a5.63,5.63,0,0,0-2.81.82A14.85,14.85,0,0,0,295,71.29c0,1.87.59,3.28,1.77,4s2.7.47,4.34-.47a14.85,14.85,0,0,0,6.81-11.63c0-1.88-.59-3.4-1.76-4-.47-.12-1.06-.23-1.53-.35Z" transform="translate(-73 -7.29)"/><path class="cls-2" d="M251.41,384l11.86,62.93,132-76.2a8.84,8.84,0,0,0,4.46-7.63V105h-50V63.3L234.27,130a13.9,13.9,0,0,1-1.29.82c-.12,0-.12.11-.24.11h-.12a12.25,12.25,0,0,0-4.46,9.4V397.6Z" transform="translate(-73 -7.29)"/><path class="cls-7" d="M399.83,105V363.19a8.61,8.61,0,0,1-4.46,7.64l-132,76.2.59,3.29,133-76.79a11.89,11.89,0,0,0,6-10.45V105Z" transform="translate(-73 -7.29)"/><path class="cls-2" d="M251.18,139.51,391.26,58.6c5.75-3.4,19.37,5.29,19.37,5.29l-6.1,300.59a8.62,8.62,0,0,1-4.46,7.64L262.92,458.89s-16.09-6.69-16.09-13.5V147.14A8.72,8.72,0,0,1,251.18,139.51Z" transform="translate(-73 -7.29)"/><path class="cls-3" d="M250.12,140.21l141-81.49c5.76-3.4,19.38,5.28,19.38,5.28l-6.11,300.6a8.58,8.58,0,0,1-4.46,7.63l-137,86.66s6-8.81,6-15.62l-9.16-294.6C247.89,142.09,250.12,140.21,250.12,140.21Z" transform="translate(-73 -7.29)"/><path class="cls-4" d="M261.86,144.79,402,63.89A8.86,8.86,0,0,1,414,67.18a8,8,0,0,1,1.17,4.34V369.77a8.59,8.59,0,0,1-4.46,7.63L270.67,458.3a8.87,8.87,0,0,1-12.1-3.28,8.1,8.1,0,0,1-1.17-4.35V152.42A9,9,0,0,1,261.86,144.79Z" transform="translate(-73 -7.29)"/><path class="cls-2" d="M269.85,163.46l125-71.16c4.7-2.7,12.68,1.88,12.68,7.4V338.42a7.15,7.15,0,0,1-3.52,6.1L278.65,417.44c-4.69,2.7-12.8-.7-12.8-6.1l.47-241.77A7.3,7.3,0,0,1,269.85,163.46Z" transform="translate(-73 -7.29)"/><path d="M394.66,58c6.58,0,16,6.1,16,6.1h0a8.58,8.58,0,0,1,4.47,7.75V370.12a8.59,8.59,0,0,1-4.47,7.63L270.79,458.42a8.11,8.11,0,0,1-4.35,1.18A10.93,10.93,0,0,1,263,459h0c-1.06-.47-16-6.93-16-13.39V147.37a9.29,9.29,0,0,1,3.28-6.92h0a4.27,4.27,0,0,1,.94-.59l140-80.9a5.94,5.94,0,0,1,3.4-.94m0-3.29a10.62,10.62,0,0,0-5,1.17l-140,80.91a8.09,8.09,0,0,0-1.29.94c-.12,0-.12.11-.24.11H248a12,12,0,0,0-4.47,9.4V445.51c0,8.1,13.86,14.67,18,16.43h.12a12.11,12.11,0,0,0,4.58.83,11.78,11.78,0,0,0,6-1.65l140-80.9a12.24,12.24,0,0,0,6.11-10.45v-298a11.77,11.77,0,0,0-6.11-10.45c-.82-.7-10.21-6.57-17.5-6.57Z" transform="translate(-73 -7.29)"/><path d="M274.66,419.09a9.42,9.42,0,0,1-9.39-9.4h0V170.86a9.51,9.51,0,0,1,4.69-8.22L394.08,92.07a9.26,9.26,0,0,1,12.68,3.52,8.24,8.24,0,0,1,1.17,4.7v238a9.17,9.17,0,0,1-4.69,8.1L279.36,417.79A9.36,9.36,0,0,1,274.66,419.09ZM398.77,92a7.54,7.54,0,0,0-4.11,1.18L270.55,163.7a8.38,8.38,0,0,0-4.23,7.16V409.69a8,8,0,0,0,4.23,7.16,8.52,8.52,0,0,0,8.22,0l124.11-71.39a8.23,8.23,0,0,0,4.23-7.16v-238A8.37,8.37,0,0,0,398.77,92Z" transform="translate(-73 -7.29)"/><path class="cls-5" d="M252.7,208.2a1.63,1.63,0,0,1-.7-.24l-1.76-1.05a1.3,1.3,0,0,1-.71-1.3V188.35a1.43,1.43,0,0,1,1.41-1.41h0a2.08,2.08,0,0,1,.82.24l1.77,1.29a1.46,1.46,0,0,1,.58,1.18v17a1.3,1.3,0,0,1-.47,1.06,1.05,1.05,0,0,1-.94.47Z" transform="translate(-73 -7.29)"/><path d="M250.94,187.41c.24,0,.35.12.59.12l1.76,1.29a1.18,1.18,0,0,1,.47.83v16.9a1,1,0,0,1-.94.94.74.74,0,0,1-.47-.11l-1.76-1.06a.79.79,0,0,1-.47-.82V188.24c-.12-.36.35-.71.82-.83m0-1a2.06,2.06,0,0,0-2,2h0v17.26a2,2,0,0,0,1.05,1.77l1.76,1.05a2.78,2.78,0,0,0,.94.24,2,2,0,0,0,2-2h0v-17a2.24,2.24,0,0,0-.82-1.65l-1.76-1.29a2,2,0,0,0-1.18-.35Z" transform="translate(-73 -7.29)"/><path class="cls-5" d="M252.7,235.09a1.63,1.63,0,0,1-.7-.24l-1.76-1a1.3,1.3,0,0,1-.71-1.3V215.24a1.43,1.43,0,0,1,1.41-1.41h0a2.08,2.08,0,0,1,.82.24l1.77,1.29a1.44,1.44,0,0,1,.58,1.17v16.91a1.27,1.27,0,0,1-.47,1.06.93.93,0,0,1-.94.59Z" transform="translate(-73 -7.29)"/><path d="M250.94,214.3c.24,0,.35.12.59.12l1.76,1.29a1.18,1.18,0,0,1,.47.82v17a1,1,0,0,1-.94.94.7.7,0,0,1-.47-.12l-1.76-1a.8.8,0,0,1-.47-.83V215.24a.77.77,0,0,1,.82-.94m0-1.05a2.06,2.06,0,0,0-2,2h0V232.5a2,2,0,0,0,1.05,1.77l1.76,1a2.78,2.78,0,0,0,.94.24,2.06,2.06,0,0,0,2-2h0v-17a2.24,2.24,0,0,0-.82-1.64l-1.76-1.29a1.41,1.41,0,0,0-1.18-.35Z" transform="translate(-73 -7.29)"/><path d="M254.46,146.08c-.11,0-.23,0-.23-.12-4.23-2.58-4.46-5.51-4.46-5.63s.23-.59.47-.59.58.24.58.47c0,0,.36,2.47,4,4.82a.56.56,0,0,1,.23.7h0A.65.65,0,0,1,254.46,146.08Z" transform="translate(-73 -7.29)"/><path d="M258.69,148.55h-.23l-2.12-1.29a.57.57,0,0,1-.23-.71.56.56,0,0,1,.7-.23h.12l1.76,1.05a33,33,0,0,1,6-4.69c.23-.12.59-.12.7.11v.12a.56.56,0,0,1-.11.71s-.12,0-.12.11a32.91,32.91,0,0,0-6.11,4.82C258.93,148.43,258.81,148.55,258.69,148.55Z" transform="translate(-73 -7.29)"/><path d="M268.09,141.74a.59.59,0,0,1-.47-.24.47.47,0,0,1,.23-.7h0l51.31-29.71a.56.56,0,0,1,.71.24.56.56,0,0,1-.24.7l-51.31,29.71Z" transform="translate(-73 -7.29)"/><path d="M321.39,111a.61.61,0,0,1-.47-.23.48.48,0,0,1,.24-.71h0l6.69-3.87a.47.47,0,0,1,.71.23h0a.58.58,0,0,1-.24.71h0L321.63,111Z" transform="translate(-73 -7.29)"/><path d="M331.84,105a.57.57,0,0,1-.46-.23c-.12-.23-.12-.59.11-.7h0l2.7-1.53c.24-.12.59-.12.71.12s.12.58-.12.7h-.12l-2.7,1.53C332,105,331.84,105,331.84,105Z" transform="translate(-73 -7.29)"/><path d="M337.72,101.58a.59.59,0,0,1-.47-.24.56.56,0,0,1,.23-.7h0L390.2,70.23a.53.53,0,1,1,.47.94L338,101.7C338,101.58,337.83,101.58,337.72,101.58Z" transform="translate(-73 -7.29)"/><path d="M257.52,154.89a.56.56,0,0,1-.59-.59c-.35-5.4,1.17-6.57,1.41-6.81a.54.54,0,0,1,.7.12v.12c.12.35.12.58-.11.7,0,0-1.3,1.17-.94,5.75,0,.36-.24.71-.47.71Z" transform="translate(-73 -7.29)"/><path d="M257.4,177h0c-.23,0-.59-.23-.59-.47h0V157.12a.56.56,0,0,1,.59-.59h0a.55.55,0,0,1,.59.47h0v19.38A.55.55,0,0,1,257.4,177Z" transform="translate(-73 -7.29)"/><path d="M257.52,184.83a.54.54,0,0,1-.59-.47h0v-4.7c0-.23.24-.58.47-.58h.12a.62.62,0,0,1,.58.58v4.7A.76.76,0,0,1,257.52,184.83Z" transform="translate(-73 -7.29)"/><path d="M257.52,190.82a.55.55,0,0,1-.59-.47h0v-2.82a.53.53,0,0,1,1.06-.12v2.94A.51.51,0,0,1,257.52,190.82Z" transform="translate(-73 -7.29)"/><path d="M257.52,242a.55.55,0,0,1-.59-.58h0V198.22c0-.36.35-.47.59-.47a.51.51,0,0,1,.47.47v43.33A.5.5,0,0,1,257.52,242Z" transform="translate(-73 -7.29)"/><path d="M257.4,324.56h0a.54.54,0,0,1-.59-.47h0V246.36a.55.55,0,0,1,.47-.59h0c.24,0,.59.24.59.47h0V324C258,324.21,257.75,324.44,257.4,324.56Z" transform="translate(-73 -7.29)"/><path d="M257.52,331.49a.56.56,0,0,1-.59-.59h0v-3.52c0-.24.24-.59.47-.59h.12a.55.55,0,0,1,.58.59v3.52C258,331.25,257.75,331.49,257.52,331.49Z" transform="translate(-73 -7.29)"/><path d="M257.4,442.1c-.23,0-.59-.24-.59-.47h0V336.3c0-.23.24-.58.47-.58h0a.55.55,0,0,1,.59.58V441.63C258,441.86,257.75,442.1,257.4,442.1Z" transform="translate(-73 -7.29)"/><path d="M261.63,460.89a.44.44,0,0,1-.36-.12c-5.16-3.41-4.46-12.8-4.34-13.15s.24-.59.59-.47.58.35.47.59-.71,9.15,3.87,12.09a.57.57,0,0,1,.24.7h0A.65.65,0,0,1,261.63,460.89Z" transform="translate(-73 -7.29)"/><path class="cls-1" d="M255.29,478.15c-4.58,2.58-4.58,6.93,0,9.51l5.75,3.17c4.7,2.58,12.21,2.47,16.79-.12l145.72-84.89c4.58-2.7,4.58-7.05.12-9.87l-3.52-2.23c-4.47-2.7-12.1-2.93-16.68-.23Z" transform="translate(-73 -7.29)"/><path class="cls-2" d="M184.44,170.82,81.23,230.49a8,8,0,0,0-4,6.88v87.68a2,2,0,0,0,2,2,2,2,0,0,0,1.48-.67l23.76-28.76a9.87,9.87,0,0,1,2.23-1.89l81.41-48.06a4,4,0,0,0,1.82-3.17V174a3.63,3.63,0,0,0-3.65-3.64A3.49,3.49,0,0,0,184.44,170.82Z" transform="translate(-73 -7.29)"/><path class="cls-8" d="M191.19,175.07,88,234.67a8,8,0,0,0-4,6.89v87.68a2,2,0,0,0,2,2,2.13,2.13,0,0,0,1.48-.68l23.83-28.69a10.14,10.14,0,0,1,2.23-1.89l81.4-48.05a4,4,0,0,0,1.83-3.18V178.18a3.69,3.69,0,0,0-3.72-3.65A4.12,4.12,0,0,0,191.19,175.07Z" transform="translate(-73 -7.29)"/><path d="M186.26,170.35a3.74,3.74,0,0,1,3.72,3.71v1.82l1.14-.74a3.39,3.39,0,0,1,1.83-.54,3.75,3.75,0,0,1,3.71,3.71v70.47a3.69,3.69,0,0,1-1.82,3.17L113.43,300a12.12,12.12,0,0,0-2.29,1.89L87.38,330.59a1.77,1.77,0,0,1-1.42.74,2,2,0,0,1-2-1.89h0v-7l-3.37,4a1.76,1.76,0,0,1-1.42.75,2,2,0,0,1-2-1.89h0V237.58a8,8,0,0,1,4-6.89l103.21-59.6a2.63,2.63,0,0,1,1.95-.74m0-4.26h0a8.27,8.27,0,0,0-4,1.08L79.07,226.78A12.19,12.19,0,0,0,73,237.31V325a6.17,6.17,0,0,0,6.14,6.14,3.17,3.17,0,0,0,.81-.07,6.3,6.3,0,0,0,5.87,4.39,5.94,5.94,0,0,0,4.73-2.3l23.76-28.68c.34-.34.67-.68,1.08-1l81.4-48a8,8,0,0,0,3.92-6.82v-70.4a7.9,7.9,0,0,0-7.63-7.9,7.94,7.94,0,0,0-6.82-4.19Z" transform="translate(-73 -7.29)"/><path class="cls-9" d="M312.32,294c3-1.71,5-1.45,5,.74L315,296.09c0-.72-.67-1.06-2.49,0l-.26.15c-1.43.83-2.45,1.71-2.44,2.54,0,2,7.86-4.74,7.87-.38,0,2.14-2.06,4.64-5.11,6.4s-5.24,1.58-5.2-.64l2.36-1.36c0,.71.77,1,2.63-.06l.09-.05c1.7-1,3-2,3-2.9,0-2-7.86,4.89-7.88.41C307.53,298.05,309.46,295.64,312.32,294Z" transform="translate(-73 -7.29)"/><polygon class="cls-9" points="254.86 277.96 254.87 280.14 248.25 283.96 248.26 285.89 254.75 282.14 254.76 284.18 248.26 287.94 248.27 290.04 254.88 286.22 254.89 288.39 246.05 293.5 246.02 283.06 254.86 277.96"/><path class="cls-9" d="M334.1,281.41c3-1.72,5-1.45,5,.74l-2.37,1.36c0-.71-.67-1.05-2.49,0l-.27.15c-1.43.82-2.44,1.71-2.43,2.54,0,1.95,7.85-4.75,7.87-.38,0,2.14-2.06,4.63-5.11,6.4s-5.24,1.58-5.21-.64l2.37-1.36c0,.7.77,1,2.63-.06l.09,0c1.7-1,3-2,3-2.9,0-2-7.87,4.88-7.88.4C329.31,285.48,331.23,283.06,334.1,281.41Z" transform="translate(-73 -7.29)"/><path class="cls-9" d="M345.24,275c3-1.72,5-1.45,5,.73l-2.37,1.37c0-.72-.67-1.06-2.48,0l-.27.15c-1.43.83-2.44,1.71-2.44,2.54,0,2,7.86-4.74,7.87-.38,0,2.15-2.05,4.64-5.11,6.41s-5.23,1.57-5.2-.64l2.36-1.37c0,.71.77,1,2.64-.06l.09,0c1.69-1,3-2,3-2.9,0-2-7.88,4.89-7.89.41C340.44,279.05,342.37,276.63,345.24,275Z" transform="translate(-73 -7.29)"/><polygon class="cls-9" points="281.17 262.77 281.2 273.2 278.96 274.5 278.93 264.06 281.17 262.77"/><path class="cls-9" d="M361.1,265.82c3.56-2.06,5.76-1.14,5.77,2.14s-2.18,6.71-5.74,8.77-5.73,1.13-5.74-2.15S357.56,267.86,361.1,265.82Zm0,8.74a6.33,6.33,0,0,0,3.51-5.32c0-2.11-1.35-2.5-3.53-1.24a6.27,6.27,0,0,0-3.49,5.29c0,2.11,1.35,2.51,3.51,1.27" transform="translate(-73 -7.29)"/><polygon class="cls-9" points="305.52 248.71 305.55 259.14 303.67 260.23 297.3 257.26 297.32 263.89 295.09 265.19 295.06 254.75 296.93 253.67 303.31 256.63 303.3 250 305.52 248.71"/><path class="cls-8" d="M357,232.27c4,.23,6.42,3.59,6.44,8.78,0,7.27-5.11,16.16-11.43,19.81l-20.29,11.71c-5,2.91-9.17.56-9.18-5.24s4.08-12.9,9.12-15.81l5.82-3.36-8.59-.5c-3.95-.24-6.42-3.6-6.43-8.78,0-7.28,5.11-16.16,11.44-19.82l20.27-11.7c5.05-2.92,9.17-.56,9.19,5.23s-4.08,12.89-9.13,15.81l-5.81,3.35Zm-5.22,25.45c4.87-2.81,8.95-9.75,8.82-15.28-.09-3.86-2-6.35-5-6.53l-11.28-.67,0,10.74a2.77,2.77,0,0,1-1.27,2.19l-11.45,6.61c-3.59,2.08-6.48,7.2-6.28,11.27.17,3.81,3.11,5.11,6.51,3.15l19.88-11.48M330.27,244l11.28.67,0-10.73a2.8,2.8,0,0,1,1.26-2.19l11.45-6.61c3.59-2.08,6.48-7.21,6.3-11.28-.19-3.81-3.13-5.1-6.52-3.14L334.13,222.2c-4.87,2.82-8.95,9.76-8.82,15.29.09,3.85,2,6.34,5,6.52" transform="translate(-73 -7.29)"/><path class="cls-2" d="M150.52,301.91l83.79-48.36a4.68,4.68,0,0,1,6.38,1.74,4.93,4.93,0,0,1,.61,2.35V302.3a1.16,1.16,0,0,1-1.17,1.12H240l-20-2.91a5.65,5.65,0,0,0-3.81.73l-63.91,37.55a2.93,2.93,0,0,1-4.42-2.57V306.5A5.3,5.3,0,0,1,150.52,301.91Z" transform="translate(-73 -7.29)"/><path class="cls-8" d="M155,305.05l83.78-48.36a4.71,4.71,0,0,1,6.38,1.68,4.94,4.94,0,0,1,.62,2.35v44.66a1.17,1.17,0,0,1-1.18,1.12h-.11l-20-2.91a5.62,5.62,0,0,0-3.8.73L156.68,342a3,3,0,0,1-4-1.07,2.91,2.91,0,0,1-.39-1.51V309.69A5.33,5.33,0,0,1,155,305.05Z" transform="translate(-73 -7.29)"/><path d="M236.55,252.94a4.72,4.72,0,0,1,4.42,3.13H241a4.63,4.63,0,0,1,4.65,4.65v44.66a1.12,1.12,0,0,1-1.12,1.12h-.11l-20-2.91a4,4,0,0,0-.84-.06,5.86,5.86,0,0,0-3,.84L156.62,342a2.75,2.75,0,0,1-1.51.39,2.89,2.89,0,0,1-2.91-2.91v-.67h0a2.77,2.77,0,0,1-1.51.39,2.88,2.88,0,0,1-2.91-2.91V306.67a5.48,5.48,0,0,1,2.68-4.65l83.79-48.41a3.77,3.77,0,0,1,2.35-.67m0-3.53a7.66,7.66,0,0,0-4,1.12l-83.84,48.36a8.78,8.78,0,0,0-4.42,7.72v29.72a6.5,6.5,0,0,0,5.26,6.38,4.53,4.53,0,0,0,1.12,1.4,6.53,6.53,0,0,0,4.42,1.79,6.25,6.25,0,0,0,3.25-.89l63.92-37.67a2.29,2.29,0,0,1,1.17-.28h.39l20,2.91c.22,0,.45.06.67.06a4.62,4.62,0,0,0,4.59-4.65h0V260.72a8.26,8.26,0,0,0-5.93-7.89,8,8,0,0,0-6.61-3.42Z" transform="translate(-73 -7.29)"/></svg>