<svg viewBox="0 0 33 45" fill="none" xmlns="http://www.w3.org/2000/svg">
  <g clip-path="url(#clip0_330:7652)">
    <path
      d="M18.936 14.533L8.26164 25.0849C7.2098 26.1487 6.62474 27.5796 6.6334 29.067C6.64205 30.5545 7.24372 31.9786 8.30787 33.0304C9.37202 34.0822 10.8128 34.6768 12.3177 34.6853C13.8226 34.6938 15.2701 34.1154 16.3463 33.0757L24.8512 24.6691C24.9294 24.5918 24.9914 24.5 25.0337 24.3991C25.076 24.2981 25.0978 24.1899 25.0978 24.0806C25.0978 23.9713 25.076 23.8631 25.0337 23.7621C24.9914 23.6612 24.9294 23.5694 24.8512 23.4921C24.773 23.4149 24.6802 23.3536 24.5781 23.3117C24.4759 23.2699 24.3664 23.2484 24.2559 23.2484C24.1453 23.2484 24.0358 23.2699 23.9337 23.3117C23.8315 23.3536 23.7387 23.4149 23.6605 23.4921L15.1556 31.8987C14.3976 32.6386 13.3743 33.0521 12.309 33.0488C11.2437 33.0455 10.223 32.6257 9.46967 31.8811C8.71639 31.1366 8.29172 30.1276 8.28838 29.0747C8.28505 28.0217 8.70332 27.0101 9.45187 26.2609L20.1267 15.7095C20.3762 15.4582 20.6737 15.2583 21.0018 15.1212C21.33 14.9842 21.6824 14.9128 22.0387 14.9111C22.3949 14.9095 22.748 14.9777 23.0774 15.1117C23.4068 15.2457 23.7062 15.4429 23.9581 15.6919C24.21 15.9409 24.4094 16.2368 24.545 16.5625C24.6805 16.8881 24.7494 17.2371 24.7477 17.5892C24.746 17.9414 24.6737 18.2897 24.5351 18.614C24.3964 18.9384 24.1941 19.2324 23.9398 19.479L13.6961 29.6042C13.4515 29.8419 13.1218 29.9745 12.7788 29.9731C12.4357 29.9717 12.1072 29.8364 11.8646 29.5966C11.622 29.3569 11.485 29.0322 11.4835 28.6931C11.482 28.354 11.616 28.0281 11.8564 27.7862L19.8488 19.8863C20.0067 19.7302 20.0954 19.5185 20.0954 19.2978C20.0954 19.0771 20.0067 18.8654 19.8488 18.7094C19.6909 18.5533 19.4767 18.4656 19.2534 18.4656C19.0301 18.4656 18.816 18.5533 18.6581 18.7094L10.6662 26.6093C10.3873 26.8829 10.1658 27.2081 10.0144 27.5665C9.863 27.9249 9.78467 28.3092 9.78391 28.6976C9.78315 29.0859 9.85998 29.4706 10.01 29.8296C10.16 30.1885 10.3802 30.5146 10.658 30.7892C10.9358 31.0638 11.2658 31.2815 11.6289 31.4298C11.9921 31.5781 12.3812 31.654 12.7741 31.6532C13.167 31.6525 13.5559 31.5751 13.9184 31.4254C14.281 31.2758 14.6101 31.0568 14.8868 30.7811L25.1305 20.6555C25.5372 20.2534 25.8598 19.7762 26.0799 19.2509C26.3 18.7256 26.4133 18.1626 26.4132 17.5941C26.4132 17.0256 26.2999 16.4626 26.0798 15.9373C25.8596 15.4121 25.537 14.9348 25.1302 14.5328C24.7235 14.1308 24.2407 13.8119 23.7092 13.5944C23.1778 13.3768 22.6083 13.2649 22.0331 13.2649C20.8714 13.2649 19.7574 13.7211 18.936 14.533Z"
      fill="#1E1D48" />
    <path
      d="M31.6897 5.88888L28.516 2.07399C27.9772 1.42429 27.2989 0.901146 26.5303 0.542408C25.7617 0.183671 24.9221 -0.00168235 24.0721 -0.000235738H5.75469C4.22905 0.00142991 2.76637 0.60119 1.68753 1.66747C0.608696 2.73375 0.00180571 4.17947 0 5.68748V39.3139C0.002287 40.8215 0.60939 42.2668 1.68817 43.3327C2.76696 44.3986 4.22936 44.9981 5.75469 44.9998H27.2453C28.7711 44.9981 30.2339 44.3983 31.3128 43.3319C32.3917 42.2656 32.9987 40.8197 33.0005 39.3116V9.50011C32.9987 8.18284 32.5356 6.9068 31.6897 5.88888ZM27.2162 3.13133L30.3894 6.94397C30.6095 7.20882 30.7944 7.50039 30.9397 7.8116H26.5581C26.2539 7.81137 25.9623 7.69185 25.7471 7.47929C25.532 7.26674 25.411 6.9785 25.4106 6.67784V1.88788C26.1168 2.13016 26.7416 2.56045 27.2162 3.13133ZM31.3168 39.3116C31.3158 40.3787 30.8865 41.4018 30.1232 42.1564C29.3599 42.911 28.3249 43.3354 27.2453 43.3364H5.75469C4.67537 43.3352 3.64059 42.9109 2.8774 42.1565C2.1142 41.4022 1.68491 40.3793 1.6837 39.3125V5.68748C1.6849 4.62059 2.11418 3.59773 2.87737 2.84329C3.64055 2.08884 4.67533 1.66441 5.75469 1.6631H23.726V6.67784C23.7268 7.41989 24.0255 8.13129 24.5565 8.65588C25.0875 9.18046 25.8074 9.47536 26.5581 9.47584H31.3154C31.3154 9.48438 31.3154 9.49202 31.3154 9.50011L31.3168 39.3116Z"
      fill="#1E1D48" />
  </g>
  <defs>
    <clipPath id="clip0_330:7652">
      <rect width="33" height="45" fill="white" />
    </clipPath>
  </defs>
</svg>
