<svg viewBox="0 0 53 32" fill="none" xmlns="http://www.w3.org/2000/svg">
  <g clip-path="url(#clip0_330:7640)">
    <path
      d="M26.5 17.7445C31.2217 17.7445 35.0622 13.7645 35.0622 8.87255C35.0622 3.98055 31.2212 0 26.5 0C21.7788 0 17.9377 3.98055 17.9377 8.87255C17.9377 13.7645 21.7788 17.7445 26.5 17.7445ZM26.5 1.80255C27.849 1.80255 29.1676 2.21701 30.2893 2.99353C31.411 3.77006 32.2853 4.87377 32.8016 6.16511C33.3179 7.45645 33.4531 8.87744 33.1901 10.2484C32.9271 11.6194 32.2776 12.8787 31.3239 13.8673C30.3702 14.8558 29.155 15.5291 27.832 15.8021C26.509 16.075 25.1376 15.9354 23.8912 15.4008C22.6447 14.8662 21.5793 13.9606 20.8295 12.7986C20.0798 11.6366 19.6794 10.2703 19.6789 8.87255C19.6811 6.99872 20.4004 5.20227 21.6791 3.87727C22.9578 2.55227 24.6916 1.80693 26.5 1.80474V1.80255Z"
      fill="#1E1D48" />
    <path
      d="M35.5323 20.7224C33.1051 19.6169 29.8975 19.0078 26.5 19.0078C23.1025 19.0078 19.8949 19.6169 17.4677 20.7224C14.8151 21.9318 13.3513 23.6299 13.3513 25.505C13.3513 27.3801 14.8135 29.0782 17.4677 30.2876C19.8949 31.3926 23.1025 32.0005 26.5 32.0005C29.8975 32.0005 33.1051 31.3925 35.5323 30.2854C38.1849 29.076 39.6487 27.3779 39.6487 25.5028C39.6487 23.6277 38.1865 21.9318 35.5323 20.7224ZM26.5 30.1958C19.7776 30.1958 15.0936 27.722 15.0936 25.5039C15.0936 23.2858 19.7782 20.8126 26.5 20.8126C33.2218 20.8126 37.9064 23.2863 37.9064 25.5039C37.9064 27.7215 33.2224 30.1958 26.5 30.1958Z"
      fill="#1E1D48" />
    <path
      d="M42.6669 17.435C43.5619 17.4432 44.4495 17.2677 45.2787 16.9185C46.1078 16.5692 46.862 16.0533 47.4977 15.4005C48.1333 14.7476 48.6379 13.9707 48.9822 13.1147C49.3266 12.2587 49.5038 11.3405 49.5038 10.4131C49.5038 9.48572 49.3266 8.56751 48.9822 7.7115C48.6379 6.85548 48.1333 6.07862 47.4977 5.42576C46.862 4.7729 46.1078 4.25698 45.2787 3.90777C44.4495 3.55857 43.5619 3.383 42.6669 3.39121C38.9304 3.39121 35.8899 6.54113 35.8899 10.4128C35.892 12.2746 36.6067 14.0594 37.8772 15.3759C39.1476 16.6923 40.8702 17.4328 42.6669 17.435ZM42.6669 5.07501C43.6859 5.0749 44.6821 5.38791 45.5294 5.97446C46.3767 6.56101 47.0371 7.39474 47.4271 8.37023C47.8171 9.34571 47.9192 10.4191 47.7204 11.4547C47.5217 12.4903 47.031 13.4416 46.3104 14.1882C45.5899 14.9348 44.6718 15.4432 43.6724 15.6492C42.673 15.8552 41.637 15.7494 40.6956 15.3453C39.7542 14.9412 38.9495 14.2569 38.3835 13.3789C37.8174 12.5009 37.5153 11.4687 37.5154 10.4128C37.5168 8.9976 38.06 7.64075 39.0258 6.64003C39.9916 5.63931 41.3011 5.07647 42.6669 5.07501Z"
      fill="#1E1D48" />
    <path
      d="M49.7261 19.4712C47.8268 18.6065 45.3227 18.1299 42.6669 18.1299C40.1968 18.1299 37.8534 18.5433 36.0093 19.2986L36.1154 19.3459C36.7706 19.6408 37.4004 19.9928 37.9982 20.398C39.3877 20.0187 40.9899 19.8159 42.6669 19.8159C45.0999 19.8159 47.3743 20.2419 49.072 21.0154C50.514 21.6723 51.3745 22.531 51.3745 23.3116C51.3745 24.0922 50.514 24.9509 49.072 25.6078C47.3743 26.3812 45.0999 26.8073 42.6669 26.8073C42.0833 26.8073 41.5104 26.7825 40.9517 26.7347C40.8085 27.3116 40.5738 27.8598 40.2572 28.357C41.0575 28.4471 41.8619 28.4921 42.6669 28.4916C45.3196 28.4916 47.8268 28.015 49.7261 27.1498C51.8371 26.1855 53.0001 24.8228 53.0001 23.3116C53.0001 21.8004 51.8371 20.4332 49.7261 19.4712Z"
      fill="#1E1D48" />
    <path
      d="M10.3331 17.435C12.1298 17.4328 13.8523 16.6923 15.1228 15.3759C16.3933 14.0594 17.1079 12.2746 17.1101 10.4128C17.1101 6.54113 14.0696 3.39121 10.3331 3.39121C9.43807 3.383 8.55039 3.55857 7.72125 3.90777C6.89211 4.25698 6.13794 4.7729 5.50228 5.42576C4.86661 6.07862 4.36205 6.85548 4.01771 7.7115C3.67338 8.56751 3.49609 9.48572 3.49609 10.4131C3.49609 11.3405 3.67338 12.2587 4.01771 13.1147C4.36205 13.9707 4.86661 14.7476 5.50228 15.4005C6.13794 16.0533 6.89211 16.5692 7.72125 16.9185C8.55039 17.2677 9.43807 17.4432 10.3331 17.435ZM10.3331 5.07501C11.3521 5.0749 12.3482 5.38791 13.1955 5.97446C14.0429 6.56101 14.7033 7.39474 15.0933 8.37023C15.4833 9.34571 15.5854 10.4191 15.3866 11.4547C15.1878 12.4903 14.6971 13.4416 13.9766 14.1882C13.256 14.9348 12.338 15.4432 11.3386 15.6492C10.3391 15.8552 9.30318 15.7494 8.36176 15.3453C7.42034 14.9412 6.61571 14.2569 6.04965 13.3789C5.48358 12.5009 5.1815 11.4687 5.1816 10.4128C5.18315 8.99765 5.72638 7.64088 6.69213 6.64019C7.65788 5.6395 8.96728 5.07661 10.3331 5.07501Z"
      fill="#1E1D48" />
    <path
      d="M10.3331 26.8051C7.90013 26.8051 5.62575 26.379 3.92805 25.6056C2.48607 24.9459 1.62555 24.0905 1.62555 23.3094C1.62555 22.5282 2.48607 21.6701 3.92593 21.0132C5.62362 20.2397 7.89801 19.8137 10.331 19.8137C12.008 19.8137 13.6102 20.0165 14.9997 20.3958C15.5972 19.9914 16.2267 19.6402 16.8815 19.3459L16.9876 19.2986C15.1435 18.5433 12.8001 18.1299 10.33 18.1299C7.67731 18.1299 5.17002 18.6065 3.27072 19.4712C1.16292 20.4332 0 21.7965 0 23.3116C0 24.8266 1.16292 26.1877 3.2739 27.1498C5.1732 28.015 7.67731 28.4916 10.3331 28.4916C11.1381 28.4921 11.9425 28.4471 12.7428 28.357C12.4262 27.8598 12.1915 27.3116 12.0483 26.7347C11.4897 26.7803 10.9157 26.8051 10.3331 26.8051Z"
      fill="#1E1D48" />
  </g>
  <defs>
    <clipPath id="clip0_330:7640">
      <rect width="53" height="32" fill="white" />
    </clipPath>
  </defs>
</svg>
