<svg viewBox="0 0 172 172" fill="none" xmlns="http://www.w3.org/2000/svg">
  <g clip-path="url(#clip0_393:403)">
    <path
      d="M165.632 30.1394C164.134 28.7347 161.808 28.7659 160.356 30.2174L157.266 33.3078C156.533 34.0414 156.158 34.9935 156.174 36.0236C156.189 37.0537 156.657 38.0683 157.422 38.7706C158.983 40.2066 159.888 42.2356 159.888 44.3583V102.576C159.888 104.418 159.217 106.213 157.984 107.602L135.852 132.668C134.416 134.307 132.34 135.244 130.155 135.244H56.735C55.7205 135.244 54.7684 135.634 54.0505 136.352L49.7114 140.675C48.6189 141.768 48.2911 143.391 48.8842 144.811C49.4773 146.232 50.8508 147.152 52.3804 147.152H130.124C135.727 147.152 141.049 144.749 144.764 140.55L166.896 115.468C170.049 111.91 171.782 107.321 171.782 102.56V44.3427C171.797 38.9891 169.55 33.8073 165.632 30.1394Z"
      fill="#1F1C47" />
    <path
      d="M19.7129 36.757H115.109C116.03 36.757 116.904 36.3981 117.559 35.7425L122.538 30.748C123.522 29.7491 123.818 28.2819 123.287 26.9864C122.757 25.691 121.493 24.8481 120.103 24.8481H21.3985C9.70814 24.8481 0.202881 34.3534 0.202881 46.0438V127.642C0.202881 133.246 2.62212 138.599 6.85188 142.298C7.49181 142.86 8.28782 143.141 9.09943 143.141C9.98909 143.141 10.8787 142.798 11.5655 142.127L15.1085 138.584C15.7953 137.897 16.1542 136.945 16.1074 135.977C16.0606 135.009 15.608 134.104 14.8744 133.495C13.1263 132.044 12.1274 129.921 12.1274 127.658V44.3581C12.1118 40.1596 15.5299 36.757 19.7129 36.757Z"
      fill="#1F1C47" />
    <path
      d="M94.2722 97.2068C93.5699 96.9103 92.7583 97.0664 92.212 97.6126L89.5898 100.235C89.2309 100.594 89.0436 101.062 89.0436 101.561V105.463C89.0436 105.932 88.669 106.306 88.2007 106.306H84.2831C83.7837 106.306 83.2998 106.509 82.9564 106.853L80.3187 109.49C79.7724 110.037 79.6163 110.833 79.9129 111.551C80.2094 112.253 80.8962 112.721 81.661 112.721H88.2163C92.212 112.721 95.4584 109.475 95.4584 105.479V98.9549C95.4272 98.1745 94.9746 97.4878 94.2722 97.2068Z"
      fill="#1F1C47" />
    <path
      d="M49.7583 104.34C50.445 103.653 50.804 102.748 50.804 101.796V50.8355H64.4766V86.0939C64.4766 86.6714 64.82 87.1865 65.3662 87.4206C65.8969 87.6391 66.5212 87.5142 66.927 87.1084L70.314 83.7215C70.5793 83.4562 70.7354 83.0972 70.7354 82.707V81.7549H71.6875C72.0777 81.7549 72.4367 81.5988 72.702 81.3335L76.0733 77.9465C76.4791 77.5407 76.604 76.9164 76.3855 76.3857C76.167 75.8551 75.6519 75.4961 75.0588 75.4961H70.7354V65.6943H86.7648C87.7169 65.6943 88.6534 65.3041 89.3245 64.6329L94.3191 59.6228C95.0058 58.936 95.3648 58.0308 95.3648 57.0787V51.7563C95.3648 47.8075 92.1495 44.5923 88.2007 44.5923H27.0955C23.1466 44.5923 19.9314 47.8075 19.9314 51.7563V105.463C19.9314 109.412 23.1466 112.627 27.0955 112.627H39.9721C40.9241 112.627 41.8606 112.237 42.5318 111.566L44.5608 109.537L49.7583 104.34ZM26.1746 59.4511V51.7563C26.1746 51.2413 26.596 50.8355 27.0955 50.8355H44.5608V59.4511H26.1746ZM26.1746 75.4961V65.6943H44.5608V75.4961H26.1746ZM26.1746 92.0562V81.7393H44.5608V92.0562H26.1746ZM44.5608 106.4H27.0955C26.5804 106.4 26.1746 105.978 26.1746 105.479V98.2994H44.5608V106.4ZM89.106 51.7563V59.4511H70.7198V50.8355H88.1851C88.7002 50.8355 89.106 51.2569 89.106 51.7563Z"
      fill="#1F1C47" />
    <path
      d="M4.13616 170.642C3.21529 169.706 2.27881 168.754 1.37354 167.817C-0.343334 166.053 -0.327726 163.244 1.40476 161.496L160.981 1.32679C162.729 -0.421306 165.538 -0.436914 167.302 1.27996C168.379 2.34131 169.472 3.40265 170.564 4.46399C172.359 6.21209 172.375 9.08396 170.595 10.8633L10.5198 170.689C8.74051 172.453 5.88425 172.437 4.13616 170.642Z"
      fill="#FF7A87" />
  </g>
  <defs>
    <clipPath id="clip0_393:403">
      <rect width="172" height="172" fill="white" />
    </clipPath>
  </defs>
</svg>
