<svg viewBox="0 0 1502 322" fill="none" xmlns="http://www.w3.org/2000/svg">
  <g clip-path="url(#clip0)">
    <path
      d="M886.1 75.7L821.1 131.7L756.1 75.7C750.875 71.1882 744.203 68.704 737.3 68.7H680.8L787.5 160.6L680.8 252.5H737.3C744.203 252.496 750.875 250.012 756.1 245.5L821.1 189.5L886.1 245.5C891.325 250.012 897.997 252.496 904.9 252.5H961.4L854.7 160.6L961.4 68.7H904.9C897.997 68.704 891.325 71.1882 886.1 75.7Z"
      fill="white" />
    <path
      d="M1501.3 68.7H1458.3V197.1L1299.2 74.7C1294.17 70.7948 1287.97 68.683 1281.6 68.7H1250.7V252.6H1293.7V124.2L1452.8 246.6C1457.83 250.505 1464.03 252.617 1470.4 252.6H1501.3V68.7Z"
      fill="white" />
    <path
      d="M1212 107.9V68.7H1006.3C984.058 94.149 971.8 126.801 971.8 160.6C971.8 194.399 984.058 227.051 1006.3 252.5H1212V213.4H1027.6C1022.13 203.042 1018.5 191.806 1016.9 180.2H1197.2V139.1H1017.2C1018.95 128.172 1022.46 117.6 1027.6 107.8H1212V107.9Z"
      fill="white" />
    <path
      d="M674.4 160.7C674.4 105.3 640.4 68.8 640.4 68.8H447.3C447.3 68.8 413.3 105.4 413.3 160.7C413.3 216 447.3 252.6 447.3 252.6H640.4C640.4 252.6 674.4 216 674.4 160.7ZM469.6 213.2C460.871 197.078 456.3 179.033 456.3 160.7C456.3 142.366 460.871 124.322 469.6 108.2H618.2C626.929 124.322 631.5 142.366 631.5 160.7C631.5 179.033 626.929 197.078 618.2 213.2H469.6Z"
      fill="white" />
    <path
      d="M160.6 321.2C249.297 321.2 321.2 249.297 321.2 160.6C321.2 71.9031 249.297 0 160.6 0C71.9031 0 0 71.9031 0 160.6C0 249.297 71.9031 321.2 160.6 321.2Z"
      fill="white" />
    <path d="M67.6001 80.5L160.6 160.6L253.7 80.5H67.6001Z" fill="#12C7BA" />
    <path d="M253.7 240.8L160.6 160.6L67.6001 240.8H253.7Z" fill="#12C7BA" />
  </g>
  <defs>
    <clipPath id="clip0">
      <rect width="1501.3" height="321.2" fill="white" />
    </clipPath>
  </defs>
</svg>
