<svg version="1.0" xmlns="http://www.w3.org/2000/svg" width="500" height="500" viewBox="0 0 375 375"
  fill="currentColor">
  <path
    d="M122.2 53.1C104.9 56 86.9 68 77 83.2c-19.4 29.7-12.3 71.1 16 94.3 3 2.5 18.3 11.6 34 20.3l28.4 15.7-22.9.6c-24.9.7-27.1 1.1-37.9 6.7-13.2 6.9-23.4 20.1-27.2 35.2-2.1 8.4-1.4 22.1 1.5 30.5 6.3 17.8 23.5 32.4 41.8 35.4 4.8.9 26.5 1.1 74.8.8 61.7-.3 68.6-.5 74-2.1 18.1-5.4 34.6-18.9 42.3-34.6 5.8-11.8 7.6-19.4 7.6-32-.1-18.2-6.7-35.5-18.7-48.6-8.1-8.9-11.9-11.4-41.7-27.9-14.6-8.1-26.9-15.1-27.4-15.5-.4-.4 9.5-1 22-1.2 24.9-.5 28.6-1.2 39.3-7.5 31.3-18.3 35.8-62.3 9-86.8C284.8 60 278 56.4 268.4 54c-7.3-1.9-11-2-74.3-1.9-36.6.1-69 .5-71.9 1zm145.1 17.7c8 2.9 14.9 8.3 19.6 15.3 9.4 14.1 7.9 33.5-3.8 46.2-4.5 4.8-13.6 10.2-19.1 11.2-1.9.3-4.4.8-5.5 1-1.1.2-18.3.4-38.1.4-33.5.1-36.3.2-38.4 1.9-2.3 1.8-2.3 2-2.3 31.5 0 16.3-.2 29.7-.3 29.7-.8 0-71.5-39.6-73.9-41.4-16.7-12.7-25.7-33.8-22.7-53.1 3.6-22.9 22.3-41.4 45.2-44.3 3-.4 34.3-.7 69.5-.7 62.4.2 64.1.2 69.8 2.3zm-33.4 116.9c17.2 9.5 33.2 18.6 35.5 20.2 14.3 9.8 23.7 28 23.7 45.7 0 4.5-.5 10.3-1.2 13-4.1 16.6-18.6 31.8-35.8 37.6-6.5 2.2-7.7 2.3-70 2.6-38.8.2-65.9-.1-69.8-.7-13.6-2.1-24.7-10.1-30.6-22-2.9-5.9-3.2-7.4-3.2-15.6 0-8 .4-9.7 3.1-15.5 5.5-11.7 15.7-19.6 28.3-22 3-.6 21.3-1 41.7-1h36.3l2-2.6c2-2.6 2.1-3.8 2.1-31.6v-28.9l3.3 1.7c1.7.9 17.3 9.5 34.6 19.1z" />
</svg>
