<svg viewBox="0 0 62 74" fill="none" xmlns="http://www.w3.org/2000/svg">
  <g clip-path="url(#clip0)">
    <path
      d="M38.792 1.10971C41.3375 1.10971 43.6538 1.71384 45.6429 2.87465L53.2793 7.33539L53.2338 7.30984C57.9393 10.0294 60.8593 15.8444 60.8829 24.1234C60.9211 37.4034 53.4848 52.9904 43.172 62.9668C43.0221 63.089 42.8635 63.2 42.6975 63.299C42.4992 63.4293 42.2704 63.5054 42.0338 63.5198C41.9197 63.5219 41.8076 63.4895 41.712 63.4267L41.7375 63.445L34.092 58.9861C33.8375 58.8364 33.7284 58.486 33.7284 58.1027C33.7284 57.1171 33.7466 53.85 33.7284 49.831C33.7284 47.4583 33.1138 46.1149 32.3538 45.5327L31.9393 45.2918C37.7538 41.1851 43.8466 35.1 43.8175 23.5594C43.8175 21.6265 43.4538 20.1098 42.8229 18.9526C42.3538 19.5422 41.8538 20.1938 41.3229 20.9202C39.0345 21.5569 36.8385 22.4902 34.7902 23.6963C32.4603 25.0701 30.2736 26.6752 28.2629 28.4874C27.4092 28.3102 26.5401 28.2185 25.6684 28.2136C23.6684 28.2136 22.3557 28.7611 21.6684 29.1554C21.4607 29.2691 21.2661 29.4056 21.0884 29.5624C19.6811 34.5324 20.5757 37.0748 20.8502 37.6753C19.1902 40.7398 18.1811 44.0014 18.1957 47.2867C18.1957 49.2579 18.3775 50.8622 18.712 52.1581C20.0017 51.8224 21.2588 51.3716 22.4684 50.8111L30.1048 55.27C29.3557 56.4527 28.6938 58.1611 28.4575 60.2491C27.8011 60.9701 26.7011 62.056 25.4757 62.766C25.332 62.85 25.1847 62.9266 25.0357 62.9978L28.3884 64.9544C28.4066 67.4476 28.432 69.3348 28.4338 70.0467C28.4255 70.5098 28.2985 70.963 28.0651 71.3626C27.8317 71.7622 27.4997 72.0947 27.1011 72.3281C26.9585 72.4094 26.8095 72.479 26.6557 72.5362C25.5178 72.7622 24.361 72.8783 23.2011 72.883C20.6102 72.883 18.2666 72.2588 16.2557 71.0578L16.3429 71.1107L8.70657 66.6518C4.02657 63.9141 1.12839 58.1191 1.10475 49.873C1.05748 33.2639 12.6993 13.0318 27.0884 4.69071C31.2957 2.26505 35.272 1.10971 38.792 1.10971ZM46.9084 5.58139H46.6447H46.9084ZM45.4993 5.60512L45.7702 5.59417L45.4993 5.60512ZM47.4648 5.60512C47.3775 5.60512 47.2829 5.59234 47.2048 5.58869C47.292 5.58869 47.3775 5.59964 47.4648 5.60512ZM44.9193 5.63797L45.192 5.6179L44.9193 5.63797ZM48.0102 5.65257C47.9248 5.65257 47.8393 5.6325 47.7538 5.6252C47.8393 5.6252 47.9248 5.64345 48.0102 5.65257ZM44.3211 5.70185L44.5975 5.67083L44.3211 5.70185ZM48.552 5.71828C48.4666 5.70733 48.3829 5.69273 48.2975 5.6836C48.3829 5.6836 48.4666 5.70733 48.552 5.71828ZM44.0066 5.74566L43.7338 5.78399L44.0066 5.74566ZM49.0884 5.80406C49.0047 5.78946 48.9229 5.77304 48.8375 5.76026C48.9229 5.77304 49.0047 5.78946 49.0884 5.80406ZM43.1248 5.88802L43.4048 5.84057L43.1248 5.88802ZM49.6102 5.90992L49.3648 5.85517L49.6102 5.90992ZM42.5193 6.01396C42.612 5.99206 42.7011 5.97563 42.7993 5.95555C42.7066 5.97563 42.6175 5.99206 42.5193 6.01396ZM50.1302 6.03404L49.8884 5.97016L50.1302 6.03404ZM41.9011 6.15815C41.9938 6.13442 42.0829 6.11434 42.1811 6.09244C42.0866 6.11434 41.9993 6.13442 41.9011 6.15815ZM50.6284 6.17823L50.3902 6.10522L50.6284 6.17823ZM41.272 6.32424L41.552 6.24941L41.272 6.32424ZM51.1229 6.34067L50.8902 6.25853L51.1229 6.34067ZM40.6411 6.51223L40.9229 6.42828L40.6411 6.51223ZM51.6084 6.52318C51.532 6.49216 51.4575 6.46113 51.3793 6.43193C51.4575 6.46113 51.532 6.49216 51.6084 6.52318ZM52.0848 6.72213C52.0084 6.68928 51.9357 6.6546 51.8593 6.62357C51.9357 6.6546 52.0084 6.68928 52.0848 6.72213ZM40.0047 6.72213L40.2902 6.62722L40.0047 6.72213ZM52.5502 6.9448L52.3302 6.83529L52.5502 6.9448ZM39.3629 6.9448L39.6447 6.84442L39.3629 6.9448ZM52.9484 7.14557L53.0048 7.1766L52.9484 7.14557L52.7884 7.05796L52.9484 7.14557ZM38.7266 7.20215C38.8193 7.16382 38.9084 7.13097 39.0029 7.09447C38.9102 7.13097 38.8211 7.16382 38.7266 7.20215ZM38.0738 7.4741L38.3538 7.35729L38.0738 7.4741ZM37.4175 7.76796L37.6829 7.64932L37.4175 7.76796ZM36.9938 7.96873L36.7557 8.08371L36.9938 7.96873ZM36.0848 8.42137L36.3029 8.31003L36.0848 8.42137ZM35.4138 8.7864L35.5738 8.70062L35.4138 8.7864ZM30.6029 11.9367C29.9132 12.4623 29.2332 13.0141 28.5629 13.5921C29.2332 13.0153 29.9132 12.4635 30.6029 11.9367L30.6193 11.9239L30.6029 11.9367ZM48.9084 14.9336C48.7941 14.507 48.6495 14.0892 48.4757 13.6834C48.6495 14.0892 48.7941 14.507 48.9084 14.9336ZM39.9648 49.9533L39.8975 49.9095L39.9648 49.9533ZM40.1248 50.081C40.1062 50.0648 40.0867 50.0496 40.0666 50.0354C40.0867 50.0496 40.1062 50.0648 40.1248 50.081ZM40.2811 50.2307C40.2718 50.2238 40.2632 50.2158 40.2557 50.207C40.2632 50.2158 40.2718 50.2238 40.2811 50.2307ZM40.472 50.4662C40.4585 50.4454 40.4439 50.4252 40.4284 50.4059C40.4439 50.4252 40.4585 50.4454 40.472 50.4662ZM40.6229 50.6907C40.6048 50.6614 40.5884 50.6322 40.5702 50.6049C40.5884 50.6322 40.6048 50.6614 40.6229 50.6907ZM40.7575 50.9316C40.7393 50.8969 40.7229 50.8622 40.7048 50.8294C40.7229 50.8622 40.7393 50.8969 40.7575 50.9316ZM40.8793 51.1944L40.8302 51.0776L40.8793 51.1944ZM40.9902 51.4846C40.9757 51.4408 40.9611 51.397 40.9448 51.355C40.9611 51.397 40.9757 51.4408 40.9902 51.4846ZM41.0902 51.8004C41.0775 51.7529 41.0629 51.7055 41.0484 51.658C41.0629 51.7055 41.0775 51.7529 41.0902 51.8004ZM41.1775 52.1435C41.1648 52.0906 41.1538 52.0413 41.1411 51.9902C41.1538 52.0413 41.1648 52.0924 41.1775 52.1435ZM41.2502 52.5085C41.2411 52.4538 41.2302 52.4008 41.2193 52.3461C41.2302 52.4008 41.2411 52.4538 41.2502 52.5085ZM41.3102 52.9101C41.3102 52.8517 41.2938 52.7951 41.2866 52.7385C41.2866 52.7951 41.3029 52.8517 41.3102 52.9101ZM41.3538 53.339L41.3375 53.1656L41.3538 53.339ZM41.3811 53.7989C41.3811 53.746 41.3811 53.6949 41.372 53.6438C41.372 53.6949 41.372 53.746 41.3811 53.7989ZM8.76839 55.2591C8.76839 55.1861 8.76839 55.1149 8.76839 55.0419C8.76839 55.1149 8.76839 55.1861 8.76839 55.2591ZM29.8302 55.3978L30.0866 55.2846L29.8302 55.3978ZM29.5448 55.5219L29.7266 55.4434L29.5448 55.5219ZM29.2593 55.6405L29.4266 55.5712L29.2593 55.6405ZM28.972 55.7592L29.1357 55.6916L28.972 55.7592ZM8.79021 55.98C8.79021 55.9015 8.79021 55.8212 8.77748 55.7409C8.77748 55.8212 8.77748 55.9015 8.79021 55.98ZM28.6793 55.8723L28.8411 55.8085L28.6793 55.8723ZM28.392 55.98C28.4466 55.9618 28.4993 55.9399 28.552 55.9198C28.4993 55.9399 28.4466 55.9618 28.392 55.98ZM28.1048 56.0859L28.2666 56.0275L28.1048 56.0859ZM27.8175 56.1863L27.9811 56.1297L27.8175 56.1863ZM27.5229 56.2848L27.7048 56.2282L27.5229 56.2848ZM21.5793 56.3907C21.5084 56.3542 21.4375 56.3177 21.3684 56.2757C21.4375 56.3177 21.5084 56.3542 21.5793 56.3907ZM27.2029 56.3907L27.4157 56.325L27.2029 56.3907ZM26.8538 56.4929L27.1338 56.4108L26.8538 56.4929ZM21.7938 56.4929C21.7375 56.4692 21.6829 56.4418 21.6266 56.4144C21.6829 56.4418 21.7375 56.4692 21.7938 56.4929ZM8.83202 56.6645C8.83202 56.5915 8.82112 56.5184 8.81748 56.4454C8.81748 56.5184 8.81748 56.5915 8.83202 56.6645ZM26.5738 56.5641L26.7775 56.5093L26.5738 56.5641ZM22.0138 56.5842L21.8757 56.5276L22.0138 56.5842ZM26.2957 56.6334L26.4775 56.5896L26.2957 56.6334ZM22.2393 56.6645L22.1066 56.6188L22.2393 56.6645ZM26.0211 56.6955L26.1848 56.659L26.0211 56.6955ZM22.4702 56.7338L22.3375 56.6937L22.4702 56.7338ZM25.7429 56.7521L25.8993 56.721L25.7429 56.7521ZM22.7011 56.7904L22.5666 56.7594L22.7011 56.7904ZM25.472 56.7995L25.6357 56.7776L25.4829 56.8032L25.472 56.7995ZM22.9502 56.8415L22.8138 56.8159L22.9502 56.8415ZM25.2102 56.8415L25.3629 56.8196L25.2102 56.8415ZM23.1957 56.8762L23.0538 56.8561L23.1957 56.8762ZM24.9393 56.8762L25.0957 56.8579L24.9393 56.8762ZM24.8284 56.8871L24.6684 56.9017L24.8284 56.8871ZM23.4466 56.9036L23.2975 56.889L23.4466 56.9036ZM24.3902 56.92L24.572 56.9109L24.3902 56.92ZM23.712 56.92L23.5448 56.9109L23.712 56.92ZM24.0484 56.9291H24.3047H24.0484ZM24.0375 56.9291H23.7938H24.0375ZM8.89384 57.3252V57.2558V57.3252ZM8.97566 58.0698C8.97566 58.1009 8.97566 58.1337 8.98839 58.1648C8.98839 58.1337 8.98839 58.1009 8.97566 58.0698C8.96293 58.0388 8.96657 58.0041 8.96293 57.9731C8.96293 58.0041 8.96293 58.037 8.97566 58.0698ZM9.0793 58.8309L9.04657 58.6137L9.0793 58.8309ZM9.18112 59.4643C9.17021 59.3968 9.1593 59.3274 9.14657 59.258C9.15748 59.3274 9.17021 59.3968 9.18112 59.4643ZM9.29384 60.0721C9.29384 60.0374 9.28111 60.0027 9.27566 59.968C9.27566 60.0027 9.28839 60.0374 9.29384 60.0721ZM9.4593 60.8295L9.42111 60.6634L9.4593 60.8295ZM16.7648 63.0416C17.235 62.8487 17.6913 62.6231 18.1302 62.3663C18.4938 62.1509 18.8848 61.8985 19.3029 61.6089L18.1648 60.9463C17.7116 61.0114 17.2723 61.1514 16.8647 61.3606C16.7575 61.4227 15.9011 61.9319 15.7175 62.432L16.7648 63.0416ZM9.61384 61.4482L9.56111 61.2475L9.61384 61.4482ZM9.77202 62.0214L9.71748 61.8388L9.77202 62.0214ZM9.94112 62.5689L9.90293 62.4484L9.94112 62.5689ZM41.3957 62.735C41.3948 62.7204 41.3948 62.7058 41.3957 62.6912C41.3948 62.7058 41.3948 62.7204 41.3957 62.735ZM41.4157 62.8719C41.4148 62.8555 41.4148 62.839 41.4157 62.8226C41.4148 62.839 41.4148 62.8555 41.4157 62.8719ZM41.4448 62.9978C41.4448 62.9814 41.4357 62.965 41.4302 62.9485C41.4302 62.965 41.4393 62.9814 41.4448 62.9978ZM16.0902 63.0946C16.0653 63.0839 16.041 63.0717 16.0175 63.0581C16.041 63.0717 16.0653 63.0839 16.0902 63.0946ZM41.4848 63.1128C41.4779 63.0973 41.4718 63.0815 41.4666 63.0654C41.4718 63.0815 41.4779 63.0973 41.4848 63.1128ZM10.172 63.2406L10.1229 63.1019L10.172 63.2406ZM16.2393 63.1584L16.1466 63.1219L16.2393 63.1584ZM41.5357 63.215L41.512 63.173L41.5357 63.215ZM16.3429 63.1949L16.3029 63.1822L16.3429 63.1949ZM41.5993 63.3063C41.5882 63.2947 41.5784 63.2818 41.5702 63.268C41.5784 63.2818 41.5882 63.2947 41.5993 63.3063ZM41.672 63.3829L41.6393 63.3519L41.672 63.3829ZM10.3848 63.8155L10.3138 63.633L10.3848 63.8155ZM10.5975 64.332C10.572 64.2755 10.5484 64.217 10.5248 64.1586C10.5484 64.217 10.572 64.2755 10.5975 64.332ZM10.8193 64.8248C10.7993 64.7865 10.7811 64.7445 10.7629 64.7044C10.7811 64.7445 10.7993 64.7865 10.8193 64.8248ZM11.1048 65.4089L11.0502 65.303L11.1048 65.4089ZM11.3793 65.9218L11.2938 65.7666L11.3793 65.9218ZM11.6448 66.3799L11.5538 66.2266L11.6448 66.3799ZM11.9157 66.8143C11.8902 66.7759 11.8666 66.7358 11.8429 66.6975C11.8666 66.7358 11.8902 66.7759 11.9157 66.8143ZM25.1666 67.1574L25.3193 67.0826L25.1666 67.1574ZM12.2575 67.3071L12.2029 67.2304L12.2575 67.3071ZM24.7193 67.3764C24.7775 67.3491 24.832 67.3271 24.9011 67.2979C24.8411 67.3271 24.7866 67.3491 24.7193 67.3764ZM24.4793 67.4823L24.3084 67.548L24.4793 67.4823ZM23.9211 67.6867L24.0884 67.6338L23.9211 67.6867ZM12.5938 67.7652L12.4938 67.6338L12.5938 67.7652ZM21.0302 67.6831L20.9429 67.6374L21.0302 67.6831ZM21.2229 67.7688L21.1284 67.7269L21.2229 67.7688ZM23.7175 67.7542L23.5557 67.7962L23.7175 67.7542ZM21.432 67.8418C21.3957 67.8309 21.3629 67.8181 21.3284 67.8053C21.3629 67.8181 21.3957 67.8309 21.432 67.8418ZM23.212 67.8765C23.2629 67.8674 23.3138 67.8583 23.3666 67.8455C23.3138 67.8583 23.2629 67.8674 23.212 67.8765ZM21.6557 67.8984C21.6175 67.8984 21.5829 67.8802 21.5448 67.871C21.5829 67.8802 21.6175 67.8911 21.6557 67.8984ZM23.0357 67.9112L22.952 67.9221L22.8866 67.9313L22.952 67.9221L23.0357 67.9112ZM21.8957 67.9404L21.7793 67.9203L21.8957 67.9404ZM22.5811 67.9605C22.6284 67.9605 22.6738 67.9605 22.7229 67.9605C22.6738 67.9605 22.6284 67.9605 22.5811 67.9605ZM22.1538 67.9605C22.1102 67.9605 22.0702 67.9605 22.0284 67.9495C22.0702 67.9495 22.1102 67.9495 22.1538 67.9605ZM12.9084 68.1613L12.8011 68.0298L12.9084 68.1613ZM13.2266 68.5354L13.1338 68.4277L13.2266 68.5354ZM13.5902 68.9333L13.5484 68.8895L13.5902 68.9333ZM13.9957 69.3367L13.8848 69.2308L13.9957 69.3367ZM14.3593 69.6707L14.2357 69.5612L14.3593 69.6707ZM14.7229 69.981L14.6138 69.8879L14.7229 69.981ZM15.0902 70.2839L15.0775 70.2748C15.0824 70.2768 15.0868 70.2799 15.0902 70.2839ZM15.5775 70.6325L15.4557 70.5504L15.5775 70.6325ZM15.9848 70.9027L15.8466 70.8132L15.9848 70.9027ZM38.792 0C34.9429 0 30.8193 1.25755 26.5375 3.73979C19.4102 7.86286 12.7266 14.9354 7.72657 23.636C2.72657 32.3367 -0.0243398 41.6615 -0.000703433 49.8876C0.0229329 58.2706 2.90839 64.5693 8.15202 67.6228L15.7975 72.0836L15.8538 72.1146C18.0229 73.3648 20.4957 74 23.212 74C24.4421 73.9963 25.6689 73.8741 26.8757 73.635C26.9325 73.6242 26.9885 73.609 27.0429 73.5893C27.258 73.5105 27.466 73.4134 27.6648 73.2991C28.2313 72.9671 28.7026 72.4936 29.033 71.9246C29.3634 71.3557 29.5415 70.7106 29.5502 70.0521C29.5502 69.7218 29.5502 69.1395 29.5338 68.3492C29.5248 67.4494 29.5138 66.2886 29.5048 64.9544C29.5037 64.7618 29.4529 64.5728 29.3573 64.4058C29.2617 64.2388 29.1245 64.0995 28.9593 64.0017L27.1848 62.9668C27.9422 62.3763 28.6467 61.7204 29.2902 61.0066C29.4477 60.8338 29.5464 60.6152 29.572 60.3823C29.8302 58.0881 30.612 56.575 31.0538 55.876C31.134 55.7497 31.1879 55.6085 31.2123 55.4608C31.2367 55.3131 31.231 55.162 31.1957 55.0165C31.1604 54.8711 31.0961 54.7343 31.0067 54.6144C30.9173 54.4946 30.8047 54.3941 30.6757 54.3191L23.0302 49.8584C22.8609 49.7606 22.6691 49.709 22.4738 49.7087C22.3184 49.7083 22.1647 49.7413 22.0229 49.8054C21.2196 50.1706 20.3979 50.4935 19.5611 50.7728C19.3853 49.6211 19.3001 48.4573 19.3066 47.2922C19.3066 44.3719 20.1484 41.3111 21.8302 38.2028C21.9118 38.0511 21.9573 37.8826 21.9633 37.7104C21.9693 37.5382 21.9356 37.3669 21.8648 37.2099C21.6829 36.8175 20.8738 34.6711 22.0629 30.2176L22.2284 30.1136C22.7393 29.8179 23.8647 29.3215 25.6829 29.3215C26.4813 29.3275 27.2772 29.4119 28.0593 29.5734C28.2279 29.6074 28.4022 29.6016 28.5682 29.5563C28.7342 29.511 28.8874 29.4274 29.0157 29.3124C30.9659 27.5524 33.0861 25.9921 35.3447 24.6545C37.3067 23.5008 39.409 22.6063 41.5993 21.9934C41.8446 21.9295 42.0604 21.7825 42.2102 21.5772L42.4738 21.2122C42.6343 21.9841 42.7129 22.7709 42.7084 23.5594C42.7393 34.8463 36.6393 40.6193 31.3193 44.3883C31.1678 44.4959 31.0457 44.6399 30.9641 44.8072C30.8825 44.9745 30.8441 45.1597 30.8524 45.3457C30.8608 45.5318 30.9155 45.7128 31.0117 45.8721C31.1079 46.0314 31.2424 46.1638 31.4029 46.2573L31.7429 46.4562C31.9993 46.6807 32.632 47.4747 32.6393 49.8401C32.6393 52.5213 32.6393 54.8703 32.6393 56.4254C32.6393 57.2029 32.6393 57.7833 32.6393 58.1118C32.6393 58.9441 32.9738 59.6139 33.5484 59.9516L41.1938 64.4123C41.2338 64.4342 41.272 64.4543 41.312 64.4726C41.5396 64.5798 41.7879 64.6353 42.0393 64.635C42.4697 64.6229 42.8893 64.497 43.2557 64.27C43.4714 64.1418 43.6774 63.9978 43.872 63.8392C43.8981 63.8188 43.923 63.7969 43.9466 63.7735C54.7829 53.2879 62.0357 37.3559 61.9993 24.1215C61.9757 15.7513 59.0902 9.46355 53.8866 6.4009L53.8447 6.37535L46.2084 1.91644C44.0266 0.638812 41.5375 0 38.8011 0H38.792Z"
      fill="black" />
    <path
      d="M41.7472 63.4469L34.1018 58.988C33.8472 58.8383 33.7382 58.4879 33.7382 58.1046C33.7382 57.119 33.7563 53.8519 33.7382 49.8329C33.7382 47.2503 33.0109 45.896 32.1691 45.4014L39.8054 49.8603C40.6527 50.3567 41.3672 51.711 41.3745 54.2936C41.3854 58.309 41.3636 61.5779 41.3745 62.5653C41.3854 62.9486 41.4927 63.2991 41.7472 63.4469Z"
      fill="#1E1E1E" />
    <path
      d="M39.6036 49.7526L31.9673 45.2937C37.7546 41.1852 43.8473 35.1001 43.8182 23.5595C43.8091 20.2741 42.7909 18.1807 41.1164 17.0417L48.7618 21.5025C50.4364 22.6414 51.4546 24.7367 51.4636 28.0202C51.4927 39.5608 45.4 45.6441 39.6036 49.7526Z"
      fill="#1E1E1E" />
    <path
      d="M20.8563 67.5953L13.2109 63.1346C14.12 63.6657 15.6454 63.8081 18.1309 62.3698C19.0546 61.8197 19.9315 61.194 20.7527 60.499L28.3981 64.9598C27.577 65.6542 26.7001 66.2793 25.7763 66.8287C23.2909 68.2761 21.7691 68.1264 20.8563 67.5953Z"
      fill="#424242" />
    <path
      d="M21.9036 63.1311L14.2673 58.6703C13.8571 58.4218 13.5039 58.089 13.2309 57.6938L20.8764 62.1528C21.1466 62.5476 21.4966 62.8809 21.9036 63.1311Z"
      fill="#1E1E1E" />
    <path
      d="M48.7582 21.4949L41.1127 17.0342C41.3818 16.1088 42.26 12.5388 40.8309 9.22241L48.4764 13.6831C49.9055 16.9995 49.0273 20.5677 48.7582 21.4949Z"
      fill="#1E1E1E" />
    <path
      d="M12.2946 56.8359L19.9309 61.2967C20.2992 61.5104 20.6164 61.8026 20.86 62.1527L13.2236 57.6938C12.9802 57.343 12.6631 57.0502 12.2946 56.8359Z"
      fill="#1E1E1E" />
    <path
      d="M21.3709 56.2776L13.7346 51.8168C16.0436 53.1638 19.3073 52.2385 22.4782 50.8167L30.1146 55.2756C26.9437 56.6974 23.68 57.6246 21.3709 56.2776Z"
      fill="#424242" />
    <path
      d="M10.0818 59.1502L17.7273 63.611C17.4186 63.4126 17.061 63.3045 16.6945 63.2989L9.05817 58.8381C9.42118 58.8476 9.77488 58.9554 10.0818 59.1502Z"
      fill="#1E1E1E" />
    <path
      d="M16 63.0562L8.34906 58.6028C8.56821 58.7194 8.80452 58.8001 9.04906 58.8419L16.6945 63.3026C16.4516 63.2574 16.2172 63.1743 16 63.0562Z"
      fill="#1E1E1E" />
    <path
      d="M45.6364 2.87643C40.8964 0.111282 34.3309 0.503695 27.0909 4.7016C12.7018 13.0427 1.05999 33.2711 1.10726 49.8839C1.1309 58.13 4.02908 63.9378 8.70908 66.6627L16.3454 71.1217C11.6654 68.393 8.76726 62.5889 8.74362 54.3446C8.69635 37.7355 20.3382 17.5016 34.7273 9.16234C41.9745 4.96443 48.5455 4.57202 53.2727 7.33716L45.6364 2.87643Z"
      fill="#1E1E1E" />
    <path
      d="M23.2091 73.3337C18.8073 73.3337 15.0836 71.5943 12.4436 68.3035C9.75456 64.9543 8.32547 60.1267 8.3091 54.3446C8.26183 37.6132 20.0182 17.1712 34.5164 8.77535C38.6982 6.35334 42.6982 5.125 46.4382 5.125C50.8382 5.125 54.56 6.86439 57.2018 10.157C59.8891 13.508 61.32 18.3375 61.3364 24.1214C61.3727 37.1861 54.2018 52.9246 43.4891 63.2861L43.46 63.3135C43.2916 63.4482 43.1136 63.5702 42.9273 63.6785C42.6611 63.8485 42.3552 63.9454 42.04 63.9596C41.3764 63.9596 40.9491 63.412 40.9491 62.5579C40.9491 62.2312 40.9491 61.6544 40.9491 60.8805C40.9491 59.3255 40.9618 56.9746 40.9491 54.288C40.9491 52.0832 40.3782 50.5391 39.4382 50.1576C39.3646 50.1275 39.3004 50.078 39.2523 50.0145C39.2042 49.9509 39.1741 49.8755 39.165 49.7962C39.1558 49.7169 39.1681 49.6366 39.2005 49.5638C39.2329 49.4909 39.2842 49.4281 39.3491 49.3819C44.8036 45.5198 51.0509 39.6008 51.0182 28.0054C51.0091 25.0505 50.1655 22.9825 48.5109 21.8564C48.4327 21.804 48.3729 21.7282 48.3403 21.6396C48.3076 21.5511 48.3037 21.4545 48.3291 21.3636C48.5982 20.4382 49.3527 17.2862 48.2291 14.26L48.1018 14.3312C47.1782 14.866 45.1146 16.4667 41.6727 21.1701C41.6124 21.2522 41.5257 21.3108 41.4273 21.3362C39.1774 21.967 37.0183 22.8872 35.0036 24.074C32.702 25.4365 30.5416 27.0262 28.5546 28.8195C28.4734 28.892 28.3687 28.9322 28.26 28.9326C28.2307 28.9323 28.2015 28.9292 28.1727 28.9235C27.3476 28.7531 26.5078 28.6645 25.6655 28.6588C23.8018 28.6588 22.5746 29.1389 21.8891 29.5404C21.7453 29.6219 21.6074 29.7134 21.4764 29.8142C20.1382 34.6454 21.0527 37.0547 21.2509 37.4909C21.2794 37.5537 21.2931 37.6223 21.2909 37.6913C21.2887 37.7603 21.2706 37.8279 21.2382 37.8888C19.5055 41.081 18.6291 44.255 18.6382 47.2866C18.6564 53.4758 20.42 56.4837 24.0327 56.4837C25.5764 56.4837 27.5055 55.9544 29.9346 54.8666C29.9919 54.8413 30.0538 54.8282 30.1164 54.8282C30.1956 54.8284 30.2734 54.8498 30.3416 54.8904C30.4097 54.9309 30.4659 54.989 30.5041 55.0587C30.5423 55.1284 30.5613 55.2071 30.5589 55.2866C30.5566 55.3661 30.5331 55.4435 30.4909 55.5108C29.6727 56.8012 29.1127 58.5023 28.9091 60.3001C28.8996 60.3935 28.86 60.4813 28.7964 60.5502C28.0836 61.335 26.9673 62.4228 25.7055 63.1529C24.8218 63.6639 23.9873 63.9249 23.2273 63.9249C22.1473 63.9249 21.2273 63.4157 20.5091 62.41C20.2898 62.0925 19.9983 61.832 19.6587 61.6501C19.3191 61.4682 18.9412 61.3702 18.5564 61.3642C18.0388 61.3786 17.5313 61.5115 17.0727 61.753C16.54 62.0632 16.1346 62.4593 16.1236 62.6108C16.3061 62.7376 16.5162 62.8183 16.7364 62.8462C17.1 62.8462 18.8018 63.0288 20.0091 65.8377L20.0255 65.8815C20.1787 66.3713 20.4877 66.7972 20.905 67.0939C21.3224 67.3906 21.8252 67.5418 22.3364 67.5242C23.2309 67.5242 24.3127 67.1591 25.5509 66.4418C26.4527 65.905 27.3089 65.2945 28.1109 64.6167C28.1908 64.5505 28.2911 64.5144 28.3946 64.5145C28.4574 64.5156 28.5193 64.5299 28.5764 64.5564C28.6524 64.5917 28.7168 64.648 28.7619 64.7189C28.807 64.7897 28.831 64.8721 28.8309 64.9561C28.8418 66.2903 28.8527 67.453 28.8618 68.3528C28.8709 69.1358 28.8764 69.7217 28.8764 70.0502C28.8691 70.5917 28.7223 71.1221 28.4502 71.5898C28.1781 72.0574 27.79 72.4463 27.3236 72.7186C27.1585 72.8131 26.9858 72.8937 26.8073 72.9595L26.74 72.9778C25.577 73.2089 24.3947 73.3281 23.2091 73.3337Z"
      fill="#353535" />
    <path
      d="M46.4382 5.57026C54.9836 5.57026 60.86 12.3617 60.8927 24.125C60.9309 37.405 53.4946 52.992 43.1818 62.9684C43.0319 63.0907 42.8733 63.2017 42.7073 63.3006C42.5077 63.431 42.2777 63.5071 42.04 63.5215C41.5727 63.5215 41.3855 63.0707 41.3855 62.5651C41.3855 61.5777 41.4036 58.3124 41.3855 54.2934C41.3855 51.4917 40.5382 50.1356 39.5964 49.7523C45.4 45.6439 51.4927 39.5605 51.4546 28.0126C51.4546 24.7273 50.4273 22.6338 48.7527 21.4949C49.0218 20.5677 49.9 16.9995 48.4709 13.6832C48.2615 13.7428 48.0623 13.8339 47.88 13.9533C46.9309 14.5009 44.8091 16.1435 41.3146 20.9127C39.0262 21.5495 36.8301 22.4827 34.7818 23.6888C32.4547 25.0654 30.2711 26.6729 28.2636 28.4872C27.4099 28.31 26.5408 28.2183 25.6691 28.2134C23.66 28.2134 22.3564 28.761 21.6691 29.1552C21.4614 29.2689 21.2669 29.4055 21.0891 29.5622C19.6818 34.5322 20.5764 37.0746 20.8509 37.6751C19.1909 40.7396 18.1818 44.0012 18.1964 47.2865C18.2164 54.6566 20.7182 56.9271 24.0327 56.9271C25.9018 56.9271 28.0327 56.197 30.1146 55.2698C29.3655 56.4526 28.7036 58.1609 28.4673 60.2489C27.8109 60.9699 26.7109 62.0559 25.4855 62.7659C24.7582 63.1893 23.9818 63.4777 23.2291 63.4777C22.3818 63.4777 21.5618 63.1126 20.8655 62.1471C20.6057 61.7723 20.2605 61.4652 19.8585 61.2515C19.4565 61.0378 19.0094 60.9237 18.5546 60.9188C17.9639 60.9313 17.3843 61.0819 16.8618 61.3586C16.68 61.4627 14.4055 62.8188 16.6909 63.2897H16.7273C16.9727 63.2897 18.48 63.3901 19.6073 66.011C19.7906 66.5887 20.1554 67.0911 20.6471 67.4432C21.1387 67.7953 21.7308 67.978 22.3346 67.964C23.2 67.964 24.3218 67.6628 25.7709 66.8232C26.6946 66.2738 27.5716 65.6486 28.3927 64.9542C28.4109 67.4474 28.4364 69.3347 28.4382 70.0465C28.4299 70.5096 28.3029 70.9628 28.0695 71.3624C27.836 71.762 27.504 72.0945 27.1055 72.328C26.9628 72.4092 26.8138 72.4788 26.66 72.536C25.5221 72.7619 24.3654 72.878 23.2055 72.8828C14.66 72.8828 8.78182 66.0932 8.7491 54.339C8.70182 37.7299 20.3436 17.496 34.7327 9.15673C38.9382 6.72012 42.9146 5.56478 46.4346 5.56478L46.4382 5.57026ZM46.4364 4.6814C42.6182 4.6814 38.54 5.92982 34.2927 8.39198C27.2018 12.5041 20.5473 19.5402 15.5655 28.2061C10.5836 36.8721 7.84364 46.1586 7.86728 54.3463C7.88364 60.2307 9.34728 65.1532 12.0982 68.5827C14.8255 71.983 18.6691 73.779 23.2091 73.779C24.4264 73.7736 25.6404 73.6514 26.8346 73.4139C26.8804 73.4048 26.9253 73.392 26.9691 73.3756C27.1719 73.3019 27.3678 73.2103 27.5546 73.1018C28.0875 72.7901 28.531 72.3452 28.842 71.8105C29.1529 71.2757 29.3207 70.6693 29.3291 70.0501C29.3291 69.7198 29.3291 69.1375 29.3146 68.3491C29.3146 67.4493 29.2927 66.2866 29.2836 64.9524C29.2821 64.7841 29.2332 64.6198 29.1424 64.4783C29.0517 64.3368 28.9229 64.224 28.7709 64.153C28.6544 64.098 28.527 64.0699 28.3982 64.0709C28.192 64.0707 27.9922 64.1423 27.8327 64.2734C27.0501 64.9369 26.2139 65.534 25.3327 66.0585C24.1618 66.7374 23.1509 67.0806 22.34 67.0806C21.9237 67.0972 21.5134 66.9762 21.1722 66.7361C20.8309 66.4961 20.5775 66.1503 20.4509 65.7518C20.4416 65.7221 20.4307 65.6928 20.4182 65.6642C19.2309 62.9027 17.58 62.4683 16.8946 62.4136C17.0191 62.3166 17.1497 62.2276 17.2855 62.1471C17.679 61.9404 18.1142 61.8262 18.5582 61.8131C18.8676 61.8167 19.1716 61.894 19.4454 62.0387C19.7191 62.1834 19.9547 62.3914 20.1327 62.6454C20.1327 62.6545 20.1455 62.6636 20.1509 62.6746C20.9527 63.7861 22.0164 64.372 23.2291 64.372C24.0673 64.372 24.9764 64.0928 25.9291 63.5397C27.2364 62.7841 28.3855 61.6616 29.1218 60.8531C29.2481 60.7147 29.3271 60.5395 29.3473 60.353C29.6091 58.0386 30.3946 56.4982 30.8491 55.7736C30.9376 55.6415 30.9891 55.488 30.9985 55.3291C31.0078 55.1702 30.9745 55.0117 30.9021 54.8701C30.8297 54.7285 30.7208 54.6089 30.5868 54.5239C30.4528 54.4388 30.2985 54.3914 30.14 54.3865H30.1146H30.0218C29.9229 54.3974 29.8265 54.4245 29.7364 54.4668C27.3727 55.5235 25.5091 56.0382 24.0327 56.0382C22.5164 56.0382 21.3946 55.4907 20.6036 54.3591C19.6018 52.9446 19.0909 50.5536 19.0909 47.2865C19.0909 44.3261 19.94 41.2306 21.6364 38.0895C21.7021 37.9683 21.7388 37.8335 21.7435 37.6957C21.7482 37.5579 21.7209 37.4209 21.6636 37.2955C21.4818 36.8867 20.6327 34.6545 21.8709 30.0714C21.9346 30.0276 22.0164 29.9729 22.12 29.9145C22.6491 29.6078 23.8164 29.0913 25.6746 29.0913C26.4877 29.0974 27.2982 29.1836 28.0946 29.3487C28.1545 29.36 28.2154 29.3655 28.2764 29.3651C28.4944 29.3656 28.705 29.285 28.8673 29.1388C30.8335 27.3674 32.9707 25.7973 35.2473 24.4517C37.2261 23.2882 39.3468 22.3869 41.5564 21.7705C41.7525 21.7184 41.9251 21.6005 42.0455 21.4365C45.1218 17.2386 47.0782 15.5668 48.0036 14.9334C48.8218 17.6712 48.1636 20.409 47.92 21.2431C47.8679 21.4236 47.8741 21.6161 47.9378 21.7929C48.0015 21.9696 48.1194 22.1215 48.2746 22.2268C49.8018 23.2654 50.58 25.211 50.5873 28.0108C50.62 39.4018 44.4691 45.2241 39.1073 49.0223C38.9777 49.1149 38.8752 49.2407 38.8107 49.3867C38.7462 49.5327 38.722 49.6934 38.7405 49.852C38.7591 50.0106 38.8199 50.1613 38.9164 50.2882C39.0129 50.4152 39.1416 50.5138 39.2891 50.5737C39.8818 50.8146 40.5164 51.917 40.5236 54.2915C40.5236 56.9746 40.5236 59.3254 40.5236 60.8786C40.5236 61.6561 40.5236 62.2347 40.5236 62.5633C40.5236 63.8409 41.3 64.4067 42.0636 64.4067C42.4568 64.3945 42.8397 64.2773 43.1727 64.0672C43.3791 63.9462 43.5754 63.8089 43.76 63.6565C43.7817 63.6409 43.8018 63.6231 43.82 63.6036C54.6127 53.1636 61.84 37.2955 61.8018 24.1195C61.7855 18.2315 60.3218 13.3072 57.5691 9.88315C54.8418 6.48285 51 4.68505 46.4618 4.68505L46.4364 4.6814Z"
      fill="black" />
    <path
      d="M48.4745 22.0992C48.4282 22.0991 48.3822 22.0917 48.3382 22.0773L42.5927 20.1882C42.534 20.1731 42.479 20.146 42.4311 20.1087C42.3831 20.0714 42.3434 20.0246 42.3142 19.9712C42.285 19.9178 42.267 19.859 42.2613 19.7984C42.2557 19.7378 42.2625 19.6767 42.2813 19.6188C42.3001 19.5609 42.3305 19.5075 42.3707 19.4619C42.4108 19.4163 42.4599 19.3794 42.5148 19.3536C42.5697 19.3278 42.6294 19.3135 42.69 19.3117C42.7506 19.3099 42.8109 19.3206 42.8673 19.3432L48.6127 21.2322C48.7142 21.2639 48.8009 21.3313 48.8569 21.4219C48.9129 21.5126 48.9345 21.6205 48.9177 21.7258C48.901 21.8311 48.8469 21.9269 48.7655 21.9955C48.6841 22.064 48.5808 22.1009 48.4745 22.0992Z"
      fill="black" />
    <path
      d="M36.8018 48.5641C36.7269 48.5637 36.6533 48.5449 36.5873 48.5093L31.3364 45.6036C31.2395 45.5436 31.1693 45.4485 31.1403 45.338C31.1114 45.2275 31.1258 45.11 31.1807 45.0099C31.2356 44.9098 31.3267 44.8347 31.4352 44.8001C31.5437 44.7656 31.6613 44.7742 31.7637 44.8243L37.0146 47.73C37.1 47.7779 37.1673 47.8528 37.2059 47.9431C37.2445 48.0334 37.2522 48.134 37.2279 48.2292C37.2037 48.3244 37.1487 48.4088 37.0716 48.4694C36.9946 48.53 36.8997 48.5633 36.8018 48.5641Z"
      fill="black" />
    <path
      d="M39.2255 50.0646C39.1395 50.0646 39.0554 50.0393 38.9837 49.9916L37.7637 49.1922C37.7109 49.1622 37.6649 49.1217 37.6284 49.0732C37.5919 49.0247 37.5656 48.9692 37.5513 48.9101C37.537 48.851 37.5348 48.7896 37.5451 48.7296C37.5553 48.6697 37.5776 48.6124 37.6107 48.5615C37.6438 48.5105 37.6869 48.4669 37.7374 48.4334C37.788 48.3998 37.8448 48.377 37.9044 48.3663C37.9641 48.3556 38.0253 48.3573 38.0842 48.3713C38.1432 48.3853 38.1987 48.4112 38.2473 48.4475L39.4673 49.247C39.547 49.2995 39.6078 49.3764 39.6405 49.4663C39.6733 49.5562 39.6763 49.6543 39.6492 49.746C39.6221 49.8378 39.5662 49.9183 39.4899 49.9757C39.4135 50.0331 39.3208 50.0643 39.2255 50.0646Z"
      fill="black" />
  </g>
  <defs>
    <clipPath id="clip0">
      <rect width="62" height="74" fill="white" />
    </clipPath>
  </defs>
</svg>
