<svg viewBox="0 0 64 80" fill="none" xmlns="http://www.w3.org/2000/svg">
  <g clip-path="url(#clip0)">
    <path
      d="M48.0302 1.26826C47.7298 1.17129 47.4154 1.12268 47.0993 1.12431H47.1014C46.3388 1.14644 45.5956 1.36549 44.9465 1.75941C43.8001 2.39452 42.6667 3.53559 41.7616 5.07043C41.1927 6.02097 40.6325 6.59892 39.986 6.96516C39.7097 7.11948 39.4161 7.24168 39.1111 7.32929C36.3981 8.12952 33.6679 8.97633 30.9226 9.89511C30.7085 9.96527 30.5021 10.056 30.3063 10.1661C29.5262 10.6149 29.0564 11.341 28.7828 12.5202C28.6168 13.2273 28.4832 13.9365 28.3669 14.6372C27.6191 19.1295 26.8326 23.6303 26.0504 28.1311C25.5526 30.9933 25.5375 30.9489 23.1671 32.6086C19.1831 35.4211 15.6221 38.7706 12.5888 42.5586C12.2172 43.0605 11.7548 43.4911 11.2248 43.8288C10.932 44.0018 10.5968 44.0933 10.2551 44.0934C10.1417 44.0935 10.0286 44.0843 9.91676 44.0659C9.76491 44.0427 9.61143 44.0314 9.45777 44.032C8.56631 44.0718 7.70058 44.338 6.94518 44.8047C4.96699 45.9268 2.9608 48.1539 1.84026 50.6773C1.32309 51.8396 1.44807 52.8028 1.1507 53.8889V56.6304C1.33817 57.7884 1.48039 59.0353 2.29063 59.4968L3.43056 60.1489C3.69992 60.5363 3.77534 61.1143 3.73225 61.8658C3.51676 65.4922 4.30544 68.2698 6.10262 70.137C6.76112 70.8278 7.51819 71.4211 8.35016 71.8983L18.2131 77.5296L18.0967 77.4576C19.7452 78.4293 21.6479 78.8908 23.7705 78.8908C24.3732 78.8901 24.9754 78.8555 25.5741 78.7871C29.2101 78.3806 32.9675 77.0787 36.8463 74.8812C37.7083 74.3971 38.5702 73.8679 39.4322 73.2934C45.4436 69.3846 50.577 64.3082 54.5164 58.3769C58.6279 52.2037 61.0392 46.0157 60.4401 40.0626C60.3508 39.4643 60.5057 38.8556 60.8711 38.369C62.2869 36.5251 62.6532 34.696 62.8558 32.8499V30.3349C62.5756 29.4585 62.7028 28.2412 62.0951 27.6251C61.8951 27.424 61.6656 27.2535 61.4141 27.1192L61.4809 27.153L51.6159 21.5218C51.1349 21.2535 50.5894 21.1168 50.0364 21.1259C49.0497 21.1621 48.0896 21.4495 47.2501 21.96C46.0354 22.6813 44.9696 23.6207 44.1083 24.7291C43.7871 25.1682 43.3851 25.5445 42.9231 25.8384C42.6635 25.994 42.3652 26.0761 42.0611 26.0755C41.965 26.0753 41.8691 26.0668 41.7745 26.0501C41.2855 25.9753 40.7912 25.9392 40.2963 25.9421H40.0743C40.3861 24.1497 40.6964 22.358 41.0052 20.567C41.1841 19.5318 41.4125 19.047 41.9943 18.7167C42.2005 18.6058 42.417 18.5143 42.6408 18.4436C44.4337 17.8572 46.2114 17.3513 48.0021 16.7712L51.5211 18.7802L51.4672 18.7464C51.844 18.9715 52.2782 19.0867 52.7192 19.0787C52.9151 19.0781 53.1105 19.0604 53.3032 19.0258C53.8415 18.9245 54.3578 18.7318 54.8288 18.4563C56.5484 17.4804 58.1818 15.4586 59.0438 13.1151C60.0609 10.3736 59.6924 7.8289 58.2292 7.04349L58.2766 7.06678L48.4116 1.43551C48.2911 1.36618 48.1632 1.31009 48.0302 1.26826Z"
      fill="black" />
    <path
      d="M49.489 42.1562L39.6239 36.5249C40.4234 36.9801 40.9169 37.9708 40.9169 39.3786C40.9061 42.0863 39.0012 45.3296 36.6071 46.6908C35.4262 47.3619 34.3639 47.4254 33.5903 46.9851L43.4553 52.6164C44.2268 53.0567 45.2891 52.9932 46.4722 52.3242C48.8619 50.963 50.7668 47.7197 50.7819 45.012C50.7798 43.6021 50.2885 42.6177 49.489 42.1562Z"
      fill="#D83F16" />
    <path
      d="M46.582 57.4072L46.5476 57.3861L36.6825 51.7527L36.717 51.7739C37.2277 52.1083 37.1049 52.807 36.5769 53.6538C34.8164 56.4821 32.6335 58.4446 30.3515 60.1784C29.5427 60.8046 28.6957 61.3815 27.8152 61.9059L27.5889 62.0308C24.6798 63.6609 22.2944 64.6157 20.0317 64.7702C19.1288 64.8316 18.3078 64.7258 17.5924 64.3362H17.5773L27.4424 69.9675H27.4575C28.1643 70.3571 28.9939 70.4629 29.8968 70.4015C32.1594 70.2491 34.5449 69.2943 37.454 67.6621L37.6802 67.5393C38.5602 67.0133 39.4072 66.4357 40.2165 65.8097C42.4985 64.0759 44.6814 62.1134 46.442 59.2872C46.9764 58.4382 47.0928 57.7396 46.582 57.4072Z"
      fill="#D83F16" />
    <path
      d="M24.4062 63.3941L14.5411 57.7629C15.3191 58.2053 16.3943 58.1397 17.5946 57.4601C19.965 56.1137 21.8634 52.8874 21.8677 50.1585C21.8677 48.7443 21.3743 47.7515 20.5748 47.2942L30.4377 52.9276C31.2372 53.3827 31.7306 54.3756 31.7306 55.7919C31.7306 58.5186 29.8386 61.745 27.4553 63.0914C26.2572 63.7709 25.1841 63.8387 24.4062 63.3941Z"
      fill="#D83F16" />
    <path
      d="M51.5211 18.7781L41.656 13.1468C41.0936 12.825 40.682 12.2598 40.404 11.504C40.3317 11.2448 40.1674 11.0195 39.9407 10.8689L49.8058 16.5002C50.0324 16.6508 50.1967 16.876 50.2691 17.1353C50.5471 17.891 50.9586 18.4584 51.5211 18.7781Z"
      fill="#FE5722" />
    <path
      d="M38.9021 34.3614L29.037 28.728C29.1857 28.8127 29.4573 28.747 29.899 28.5713C32.1379 27.6737 34.3747 26.7443 36.5296 26.3506C38.3569 26.0182 40.1541 25.779 41.7832 26.0394C42.176 26.1077 42.5807 26.0324 42.921 25.8277C43.383 25.5337 43.785 25.1575 44.1061 24.7183C44.9674 23.61 46.0332 22.6706 47.248 21.9493C48.8663 21.0326 50.4566 20.8506 51.6137 21.5111L61.4788 27.1423C60.3216 26.4818 58.7313 26.6639 57.113 27.5827C55.8979 28.3026 54.832 29.2413 53.9712 30.3496C53.6493 30.7888 53.2475 31.1656 52.786 31.461C52.445 31.6637 52.0411 31.7389 51.6482 31.6727C50.0191 31.4102 48.222 31.6495 46.3946 31.984C44.2397 32.3777 42.0008 33.305 39.7641 34.2047C39.3223 34.3846 39.0508 34.4524 38.9021 34.3614Z"
      fill="#FF704A" />
    <path
      d="M15.9698 75.7556C14.1727 73.8884 13.384 71.1109 13.5995 67.4865C13.6576 66.4555 13.5003 65.7485 12.9121 65.4119L11.742 64.7429C11.2894 64.1501 11.1666 63.172 11.0179 62.2511C11.0179 61.3366 11.0179 60.4192 11.0179 59.499L1.14209 53.8762C1.14209 54.7908 1.14209 55.7046 1.14209 56.6178C1.32956 57.7758 1.47179 59.0227 2.28202 59.4842L3.42195 60.1362C3.69131 60.5237 3.76673 61.1016 3.72364 61.8531C3.50815 65.4796 4.29899 68.2571 6.09401 70.1243C6.75251 70.8152 7.50958 71.4085 8.34155 71.8857L18.2044 77.517C17.3773 77.0383 16.6248 76.4451 15.9698 75.7556Z"
      fill="#D83F16" />
    <path
      d="M48.4116 1.43326L58.2766 7.06453C58.1557 6.99607 58.0279 6.94003 57.8952 6.89728C56.9557 6.59455 55.8761 6.78085 54.8116 7.3842C53.6566 8.03412 52.5382 9.16885 51.6288 10.6867C51.0599 11.6352 50.4997 12.2131 49.8532 12.5794C49.5765 12.7348 49.2821 12.8577 48.9762 12.9456C46.2545 13.7458 43.5243 14.5926 40.7876 15.5093C40.574 15.5804 40.3676 15.6711 40.1713 15.7803C39.3912 16.2227 38.9215 16.9552 38.6457 18.1344C38.4797 18.8479 38.3483 19.5549 38.2319 20.2514C37.4842 24.7416 36.6976 29.2445 35.9154 33.7432C35.4176 36.6054 35.3961 36.5631 33.0322 38.2228C29.049 41.0312 25.4879 44.3765 22.4539 48.1601C22.0817 48.6616 21.6195 49.092 21.0898 49.4303C20.6975 49.6626 20.2329 49.7476 19.7818 49.6695C18.8875 49.5319 17.8424 49.8156 16.8102 50.4062C14.8321 51.5304 12.8259 53.7575 11.7053 56.2789C11.1881 57.4411 11.3131 58.3959 11.0158 59.4904L1.14209 53.876C1.43946 52.79 1.31448 51.8268 1.83165 50.6645C2.95219 48.141 4.95839 45.9139 6.93657 44.7919C7.97953 44.2013 9.01387 43.9155 9.90815 44.0531C10.359 44.132 10.8237 44.0477 11.2162 43.816C11.7462 43.4783 12.2086 43.0477 12.5802 42.5458C15.6135 38.7578 19.1745 35.4082 23.1585 32.5958C25.5289 30.936 25.544 30.9805 26.0418 28.1183C26.824 23.6175 27.6105 19.1167 28.3583 14.6244C28.4746 13.9237 28.6082 13.2145 28.7741 12.5074C29.0478 11.3282 29.5176 10.6021 30.2976 10.1533C30.4935 10.0432 30.6999 9.95244 30.9139 9.88228C33.6593 8.9635 36.3895 8.11669 39.1025 7.31645C39.4075 7.22885 39.7011 7.10665 39.9774 6.95233C40.6238 6.58608 41.1841 6.00814 41.753 5.0576C42.6667 3.53546 43.8001 2.39439 44.9465 1.75928C46.011 1.15593 47.0906 0.967516 48.0302 1.27237C48.1629 1.31217 48.2908 1.36612 48.4116 1.43326Z"
      fill="#FF8164" />
    <path
      d="M62.0886 27.6208C62.6963 28.2369 62.5692 29.4541 62.8493 30.3306V32.8456C62.6468 34.6916 62.2804 36.5208 60.8647 38.3647C60.4993 38.8513 60.3444 39.46 60.4337 40.0583C61.0327 46.0113 58.6214 52.1994 54.5121 58.3726C50.572 64.3033 45.4388 69.3796 39.4279 73.2891C38.5659 73.8635 37.704 74.3928 36.842 74.8769C32.9633 77.0744 29.2059 78.3763 25.5699 78.7828C21.6674 79.2189 18.4049 78.3043 15.9634 75.7639C14.1662 73.8967 13.3775 71.1192 13.593 67.4949C13.662 66.2585 13.4249 65.4879 12.5005 65.2635C11.3778 64.9883 11.2227 63.5699 11.0115 62.2595V59.5073C11.3088 58.4213 11.1839 57.4581 11.701 56.2958C12.8216 53.7744 14.8278 51.5473 16.806 50.4232C17.8468 49.8326 18.8833 49.5489 19.7775 49.6865C20.2286 49.7646 20.6933 49.6796 21.0855 49.4473C21.6152 49.109 22.0774 48.6785 22.4496 48.1771C25.4836 44.3934 29.0447 41.0482 33.0279 38.2398C35.3983 36.58 35.4134 36.6224 35.9111 33.7602C36.6934 29.2615 37.4799 24.7586 38.2276 20.2684C38.344 19.5656 38.4754 18.8585 38.6414 18.1514C38.9172 16.9722 39.387 16.2461 40.167 15.7973C40.3617 15.6861 40.5666 15.5933 40.779 15.5199C43.5243 14.6033 46.2546 13.7565 48.9676 12.9562C49.2735 12.8683 49.5679 12.7454 49.8446 12.59C50.4911 12.2237 51.0513 11.6458 51.6202 10.6974C52.5296 9.17735 53.6566 8.04474 54.803 7.39482C55.8675 6.79147 56.9471 6.60517 57.8866 6.9079C59.6235 7.46891 60.1255 10.185 59.0352 13.1235C58.1732 15.467 56.5398 17.4888 54.8202 18.4647C54.3492 18.7401 53.8329 18.9328 53.2946 19.0342C51.756 19.3009 50.7777 18.5494 50.2605 17.1458C49.9911 16.4133 49.5106 16.2736 48.7521 16.5319C46.7028 17.2241 44.675 17.783 42.6279 18.452C42.4041 18.5227 42.1876 18.6141 41.9814 18.7251C41.3996 19.0554 41.1712 19.5401 40.9923 20.5754C40.2683 24.7861 39.5163 29.0053 38.8267 33.2034C38.622 34.4524 38.747 34.6218 39.749 34.2217C41.9858 33.3219 44.2225 32.3947 46.3796 32.0009C48.2069 31.6664 50.0041 31.4272 51.6331 31.6897C52.026 31.7559 52.4299 31.6807 52.7709 31.478C53.2324 31.1826 53.6343 30.8057 53.9561 30.3666C54.8176 29.2531 55.8858 28.31 57.1044 27.5869C59.0438 26.4946 60.925 26.4459 62.0886 27.6208ZM46.442 59.2872C46.97 58.4404 47.0885 57.7396 46.5821 57.4073C46.4772 57.3374 46.3533 57.3 46.2266 57.3C46.0998 57.3 45.9759 57.3374 45.871 57.4073C45.5405 57.6285 45.2626 57.9174 45.0565 58.2541C44.6125 58.9082 44.173 59.6344 43.6558 60.1467C41.2854 62.4966 38.928 64.4506 36.6072 65.7674C33.9567 67.2704 31.3536 67.9373 28.8237 67.3932C28.5683 67.3324 28.2987 67.3711 28.0717 67.5012C27.7715 67.6953 27.5308 67.9661 27.3756 68.2845C26.9123 69.1165 26.9705 69.6881 27.4575 69.9548C28.1643 70.3444 28.994 70.4502 29.8969 70.3888C32.1595 70.2364 34.5449 69.2816 37.454 67.6494L37.6803 67.5266C38.5603 67.0006 39.4072 66.423 40.2166 65.797C42.4986 64.0632 44.6815 62.1007 46.442 59.2745V59.2872ZM46.4679 52.3116C48.8577 50.9504 50.7626 47.7071 50.7777 44.9994C50.7906 42.224 48.8749 41.0766 46.4679 42.4209L46.4399 42.4378C44.1169 43.7546 42.2099 47.0254 42.1861 49.7436C42.1603 52.5296 44.0695 53.6728 46.4679 52.3116ZM23.1435 60.5531C23.1219 63.3391 25.0354 64.4633 27.4532 63.0936C29.8365 61.7471 31.7242 58.5208 31.7285 55.7941C31.7285 53.0144 29.8193 51.8628 27.4446 53.2092C25.0699 54.5556 23.1585 57.8328 23.1348 60.5553"
      fill="#FE5722" />
    <path
      d="M23.7748 79.2993C20.4606 79.2993 17.7412 78.209 15.6596 76.0454C13.7934 74.1062 12.9552 71.2186 13.1685 67.463C13.2439 66.1378 12.9315 65.7927 12.4014 65.6636C11.0718 65.3375 10.8369 63.862 10.6322 62.56L10.5913 62.3165C10.5913 62.2954 10.5913 62.2721 10.5913 62.2509V59.5094C10.5908 59.4722 10.5959 59.4351 10.6064 59.3993C10.7069 59.0054 10.7789 58.605 10.8218 58.2011C10.8778 57.4887 11.0472 56.7893 11.3239 56.1285C12.4488 53.5881 14.4744 51.27 16.6077 50.059C17.7778 49.3943 18.9027 49.1233 19.8594 49.2694C20.2137 49.3333 20.5796 49.267 20.8873 49.0831C21.3625 48.7668 21.7762 48.3696 22.1091 47.9102C25.1711 44.0981 28.7616 40.7261 32.7758 37.8925L32.9331 37.7824C35.0276 36.3111 35.0276 36.3111 35.4845 33.686L35.7452 32.1808C36.4283 28.2495 37.1351 24.1848 37.7988 20.1964C37.9346 19.3792 38.0703 18.6954 38.2298 18.0476C38.5315 16.7541 39.081 15.9306 39.9537 15.4225C40.1735 15.2987 40.4052 15.1966 40.6454 15.1176C43.2485 14.2497 45.9357 13.4028 48.8555 12.5412C49.1282 12.4626 49.3907 12.3532 49.6377 12.2152C50.2411 11.8722 50.741 11.3366 51.2582 10.4729C52.1848 8.92747 53.3398 7.73347 54.5961 7.02003C55.7964 6.34047 56.9837 6.16053 58.031 6.49713C58.3748 6.61598 58.6903 6.80251 58.9582 7.04531C59.2261 7.2881 59.4408 7.58206 59.589 7.90918C60.2462 9.2429 60.1945 11.2414 59.4468 13.2568C58.5611 15.649 56.8738 17.7787 55.0443 18.8182C54.53 19.1185 53.9663 19.3284 53.3786 19.4385C51.7301 19.7221 50.4825 18.9558 49.8662 17.2791C49.7067 16.8557 49.5386 16.7033 48.9051 16.9192C47.7781 17.3003 46.6446 17.6432 45.5478 17.9777C44.6406 18.2529 43.701 18.5387 42.7766 18.8415C42.5794 18.9017 42.3888 18.9811 42.2077 19.0786C41.822 19.2903 41.6065 19.5867 41.4255 20.6346C41.1971 21.9683 40.9665 23.302 40.7338 24.6357C40.2403 27.4662 39.7318 30.3919 39.2598 33.2605C39.215 33.4924 39.1891 33.7274 39.1823 33.9633C39.324 33.9246 39.463 33.8765 39.5981 33.8194L39.986 33.6648C42.0763 32.818 44.2376 31.9543 46.3128 31.5753C48.0992 31.2493 49.9933 30.9868 51.7129 31.2641C52.0106 31.318 52.318 31.2606 52.5749 31.1032C52.9895 30.8342 53.3504 30.4927 53.6394 30.0955C54.5292 28.9465 55.6317 27.9726 56.8889 27.2249C59.0438 25.997 61.1103 26.0351 62.3882 27.3265C62.8773 27.8219 62.9765 28.5438 63.0713 29.2445C63.1042 29.5686 63.1648 29.8894 63.2523 30.2035C63.2651 30.2439 63.2716 30.2861 63.2717 30.3284V32.835C63.2717 32.8498 63.2717 32.8731 63.2717 32.8879C63.039 35.0049 62.5994 36.7959 61.203 38.6165C61.0541 38.8138 60.9463 39.0381 60.8861 39.2764C60.8258 39.5148 60.8141 39.7625 60.8518 40.0053C61.4163 45.6112 59.4575 51.6891 54.8612 58.5927C50.8884 64.5679 45.7151 69.6827 39.6585 73.6235C38.7965 74.1994 37.9087 74.7392 37.0489 75.2261C33.14 77.4426 29.2913 78.7764 25.6108 79.1871C25.0014 79.2578 24.3885 79.2952 23.7748 79.2993ZM11.4446 62.217L11.4769 62.4287C11.6924 63.7731 11.8842 64.6664 12.6104 64.8443C13.9787 65.1788 14.0843 66.4426 14.024 67.5075C13.8236 71.0238 14.5843 73.6998 16.2823 75.4654C18.5406 77.8152 21.6523 78.7891 25.5289 78.353C29.0888 77.9571 32.8253 76.6594 36.633 74.5C37.4756 74.0237 38.3375 73.4944 39.193 72.9292C45.328 68.8793 50.2217 64.0377 54.1565 58.1312C58.6408 51.397 60.5565 45.4947 60.0113 40.0879C59.9147 39.3874 60.1011 38.6776 60.5307 38.1106C61.8042 36.4508 62.2115 34.7953 62.4291 32.818V30.3898C62.337 30.0495 62.2721 29.7027 62.2352 29.3525C62.1555 28.7639 62.08 28.205 61.787 27.9108C60.8 26.9115 59.1322 26.9264 57.3307 27.9489C56.1645 28.6436 55.1412 29.547 54.3138 30.6121C53.9606 31.0953 53.5166 31.5077 53.0058 31.8273C52.5801 32.08 52.0759 32.1732 51.5858 32.0898C49.9933 31.8336 48.1897 32.0898 46.4787 32.3988C44.4919 32.763 42.3715 33.614 40.3222 34.4397L39.9322 34.5963C39.4408 34.7932 38.9689 34.9477 38.6198 34.6746C38.2707 34.4015 38.3052 33.849 38.4237 33.1229C38.8978 30.2501 39.4064 27.3201 39.8998 24.4876C40.1297 23.1567 40.3603 21.8243 40.5915 20.4906C40.7682 19.4618 41.0225 18.7822 41.7897 18.3461C42.0202 18.2192 42.2636 18.1163 42.5159 18.0391C43.4511 17.7321 44.3949 17.4463 45.3064 17.169C46.3968 16.8366 47.5238 16.4958 48.6357 16.1105C49.6528 15.7654 50.3424 16.0555 50.6829 16.9806C51.1612 18.2826 51.9995 18.8118 53.2407 18.5959C53.73 18.5032 54.199 18.327 54.6263 18.0751C56.2899 17.133 57.8328 15.1706 58.6538 12.9562C59.3132 11.1779 59.38 9.38051 58.8283 8.26484C58.7308 8.03902 58.5869 7.83541 58.4055 7.66675C58.2242 7.49809 58.0094 7.36802 57.7746 7.28466C56.9665 7.02427 56.0183 7.17881 55.0357 7.7377C53.9216 8.37281 52.8464 9.48636 52.0081 10.8878C51.4198 11.868 50.8057 12.5179 50.0687 12.9329C49.763 13.1031 49.4384 13.238 49.1012 13.3351C46.1942 14.1819 43.5179 15.0287 40.9126 15.8967C40.7254 15.9648 40.5456 16.0514 40.3761 16.155C39.7124 16.5339 39.2986 17.1754 39.0551 18.2381C38.9086 18.8732 38.7771 19.538 38.6457 20.3361C37.9798 24.3267 37.273 28.3935 36.5899 32.3269L36.3292 33.8321C35.8271 36.7155 35.7452 36.8467 33.4309 38.4705L33.2736 38.5827C29.3246 41.3697 25.7929 44.6869 22.7814 48.4374C22.219 49.1318 21.7622 49.5594 21.2967 49.824C20.8181 50.1021 20.2545 50.2041 19.7064 50.1119C18.9458 49.9955 18.0148 50.2326 17.0171 50.8C15.0325 51.9241 13.1383 54.0983 12.0889 56.4757C11.849 57.0633 11.7036 57.6839 11.6579 58.3154C11.6134 58.7386 11.5414 59.1586 11.4425 59.5729L11.4446 62.217ZM29.4314 70.8397C28.6713 70.8613 27.9186 70.6869 27.2485 70.3337C26.9037 70.1474 26.1883 69.5504 26.9985 68.096C27.1911 67.7082 27.4895 67.3806 27.8605 67.1497C28.1788 66.9659 28.5573 66.9105 28.9164 66.9952C31.207 67.4863 33.6571 66.9698 36.396 65.4159C38.5185 64.2113 40.7941 62.3949 43.3541 59.8629C43.7626 59.4182 44.127 58.9361 44.4423 58.4234L44.7009 58.0317C44.9412 57.6369 45.2689 57.3004 45.6598 57.0473C45.8324 56.9363 46.0343 56.8771 46.2406 56.8771C46.4469 56.8771 46.6487 56.9363 46.8213 57.0473C47.2243 57.3098 47.7565 57.9767 46.8213 59.4967C44.9164 62.5558 42.5525 64.5775 40.4924 66.1335C39.6681 66.7722 38.8045 67.3605 37.9066 67.8949C37.8225 67.9436 37.7406 67.9859 37.6674 68.0261C34.4954 69.8044 32.1078 70.6661 29.9378 70.8121C29.7568 70.8333 29.5909 70.8397 29.4314 70.8397ZM28.5695 67.7996C28.4671 67.7993 28.3665 67.8264 28.2785 67.878C28.0465 68.0349 27.8613 68.2497 27.742 68.5004C27.5265 68.9005 27.3239 69.417 27.6579 69.5991C28.2376 69.9188 28.9509 70.0437 29.8581 69.9823C31.8923 69.8426 34.1678 69.0148 37.2321 67.2958L37.4476 67.1751C38.3104 66.6592 39.1415 66.0937 39.9365 65.4815C41.9362 63.9615 44.229 62.0117 46.0585 59.0712C46.2136 58.8235 46.6877 57.9957 46.3278 57.7607C46.2826 57.7311 46.2223 57.693 46.0671 57.7798C45.7924 57.9705 45.563 58.2176 45.3948 58.5038C45.3107 58.6287 45.2245 58.7578 45.1405 58.887C44.7951 59.4489 44.3937 59.9758 43.9424 60.4599C41.3285 63.0469 38.9862 64.9057 36.8054 66.1484C33.8877 67.8102 31.2458 68.3543 28.7311 67.8102C28.6802 67.8054 28.629 67.8054 28.5781 67.8102L28.5695 67.7996ZM25.5117 64.0991C25.0445 64.1042 24.5845 63.9858 24.18 63.7561C23.2189 63.2057 22.6952 62.0625 22.706 60.551C22.7276 57.6676 24.7122 54.2825 27.2313 52.8429C28.4962 52.1252 29.7094 52.0257 30.6489 52.5592C31.6251 53.1139 32.1573 54.2634 32.1573 55.7919C32.1573 58.6689 30.1835 62.035 27.6709 63.4576C27.0228 63.8512 26.2817 64.0722 25.5203 64.0991H25.5117ZM29.315 53.0652C28.7266 53.0895 28.1548 53.2638 27.6558 53.5711C25.419 54.8519 23.5809 57.9851 23.5615 60.5573C23.5615 61.7619 23.9235 62.6383 24.6088 63.0321C25.294 63.4259 26.212 63.3073 27.2334 62.7294C29.468 61.4592 31.2911 58.3535 31.2932 55.7919C31.2932 54.5767 30.9118 53.6876 30.2158 53.2917C29.9441 53.1399 29.6362 53.0617 29.3237 53.0652H29.315ZM44.5652 53.3192C44.0989 53.3248 43.6397 53.207 43.2356 52.9784C42.268 52.4237 41.7444 51.2848 41.7573 49.7542C41.7832 46.9089 43.7872 43.4687 46.2244 42.0863L46.2567 42.0694C47.5389 41.3496 48.765 41.2522 49.7045 41.7963C50.6441 42.3404 51.213 43.4899 51.1979 45.012C51.1849 47.8806 49.2003 51.2509 46.6726 52.6884C46.0376 53.0745 45.3114 53.2919 44.5652 53.3192ZM48.3621 42.2917C47.7667 42.3167 47.1879 42.4917 46.6812 42.7998L46.6511 42.8167C44.4488 44.0657 42.6365 47.1799 42.615 49.7605C42.6021 50.9714 42.977 51.8564 43.6687 52.2523C44.3604 52.6481 45.2526 52.5275 46.2546 51.9601C48.4978 50.6793 50.3338 47.5631 50.3489 45.0099C50.3489 43.8032 49.9761 42.9204 49.2822 42.5224C49.0022 42.3655 48.6843 42.2857 48.3621 42.2917Z"
      fill="black" />
    <path
      d="M7.14348 57.7227C7.06778 57.7226 6.99346 57.7028 6.92799 57.6655L0.926639 54.2402C0.840352 54.1785 0.780409 54.0876 0.758408 53.9851C0.736408 53.8825 0.753915 53.7756 0.807541 53.685C0.861167 53.5943 0.947099 53.5265 1.04871 53.4945C1.15032 53.4626 1.26039 53.4688 1.35762 53.5119L7.35896 56.9373C7.43884 56.9848 7.50083 57.0566 7.53559 57.1418C7.57035 57.227 7.576 57.3209 7.55169 57.4095C7.52738 57.4982 7.47443 57.5766 7.4008 57.6331C7.32718 57.6896 7.23687 57.721 7.14348 57.7227Z"
      fill="black" />
    <path
      d="M11.0071 59.9285C10.9314 59.9283 10.8571 59.9086 10.7916 59.8713L8.42126 58.5228C8.36522 58.4991 8.31494 58.464 8.27375 58.4198C8.23255 58.3756 8.20138 58.3233 8.18229 58.2663C8.1632 58.2094 8.15663 58.1492 8.16301 58.0896C8.16939 58.03 8.18858 57.9724 8.21931 57.9206C8.25004 57.8688 8.29161 57.824 8.34127 57.7892C8.39093 57.7544 8.44754 57.7303 8.50737 57.7186C8.5672 57.7069 8.62888 57.7078 8.68833 57.7213C8.74778 57.7347 8.80365 57.7604 8.85224 57.7966L11.2226 59.1431C11.3025 59.1906 11.3645 59.2624 11.3992 59.3476C11.434 59.4328 11.4396 59.5267 11.4153 59.6153C11.391 59.7039 11.3381 59.7824 11.2645 59.8389C11.1908 59.8953 11.1005 59.9268 11.0071 59.9285Z"
      fill="black" />
    <path
      d="M12.1815 65.5491C12.1116 65.5496 12.0427 65.5329 11.9811 65.5005L2.19365 60.4196C2.13278 60.4017 2.07669 60.3708 2.0294 60.3291C1.98211 60.2875 1.94478 60.236 1.9201 60.1785C1.89541 60.121 1.88397 60.0588 1.8866 59.9965C1.88923 59.9341 1.90586 59.8731 1.9353 59.8178C1.96475 59.7624 2.00628 59.7142 2.05692 59.6765C2.10755 59.6388 2.16605 59.6126 2.22822 59.5997C2.29038 59.5868 2.35468 59.5876 2.4165 59.602C2.47833 59.6163 2.53615 59.644 2.58584 59.6829L12.3733 64.7637C12.4553 64.8093 12.5198 64.88 12.557 64.965C12.5942 65.05 12.6021 65.1446 12.5793 65.2344C12.5566 65.3242 12.5046 65.4042 12.4312 65.4622C12.3578 65.5202 12.2671 65.553 12.1729 65.5555L12.1815 65.5491Z"
      fill="black" />
    <g clip-path="url(#clip1)">
      <path
        d="M47.0962 1.12414C47.4124 1.12195 47.7268 1.17057 48.0271 1.26809C48.1601 1.30983 48.288 1.36592 48.4085 1.43534L58.2735 7.0666L58.2261 7.04332C59.6871 7.83296 60.0578 10.3734 59.0407 13.1255C58.1787 15.4542 56.5453 17.4802 54.8257 18.4562C54.3545 18.7312 53.8383 18.9239 53.3001 19.0256C53.1074 19.0602 52.912 19.0779 52.7161 19.0786C52.2751 19.0866 51.8409 18.9713 51.4641 18.7462L51.518 18.7801L47.9991 16.771C46.2083 17.3511 44.4306 17.857 42.6377 18.4435C42.4139 18.5142 42.1975 18.6057 41.9912 18.7166C41.4094 19.0468 41.181 19.5316 41.0021 20.5668C40.6947 22.3578 40.3844 24.1495 40.0712 25.9419H40.2867C40.7816 25.9397 41.2759 25.9758 41.765 26.0499C41.8595 26.0668 41.9555 26.0754 42.0516 26.0753C42.3557 26.0762 42.6541 25.9941 42.9135 25.8382C43.3751 25.5437 43.777 25.1675 44.0987 24.7289C44.9599 23.6204 46.0257 22.681 47.2405 21.9598C48.0801 21.4495 49.0402 21.1621 50.0268 21.1257C50.5799 21.1165 51.1253 21.2532 51.6063 21.5216L61.4714 27.1529L61.4046 27.119C61.6562 27.2529 61.8858 27.4235 62.0855 27.625C62.6932 28.241 62.5661 29.4583 62.8462 30.3347V32.8498C62.6436 34.6958 62.2773 36.5249 60.8615 38.3688C60.4962 38.8554 60.3413 39.4642 60.4306 40.0624C61.0296 46.0155 58.6183 52.2035 54.5068 58.3768C50.5681 64.3085 45.4346 69.385 39.4226 73.2933C38.5607 73.8677 37.6987 74.3969 36.8368 74.881C32.958 77.0785 29.2006 78.3805 25.5646 78.7869C24.9659 78.8554 24.3637 78.89 23.7609 78.8907C21.6384 78.8907 19.7356 78.4291 18.0871 77.4574L18.2035 77.5294L8.34059 71.8981C7.50877 71.4207 6.75172 70.8275 6.09305 70.1368C4.29588 68.2696 3.50719 65.4921 3.72268 61.8656C3.76578 61.1141 3.69036 60.5361 3.421 60.1487L2.28753 59.4882C1.47729 59.0351 1.33507 57.7946 1.14759 56.6302V53.8887C1.44497 52.8027 1.31999 51.8394 1.83716 50.6772C2.9577 48.1537 4.96389 45.9266 6.94207 44.8046C7.69794 44.3391 8.5635 44.0736 9.45467 44.034C9.60833 44.0336 9.76178 44.0449 9.91366 44.0678C10.0254 44.0865 10.1386 44.0957 10.252 44.0954C10.5937 44.0956 10.929 44.0041 11.2217 43.8307C11.7517 43.493 12.214 43.0624 12.5857 42.5605C15.619 38.7725 19.18 35.423 23.164 32.6105C25.5344 30.9508 25.5495 30.9953 26.0473 28.133C26.8295 23.6323 27.616 19.1315 28.3638 14.6392C28.4801 13.9384 28.6137 13.2292 28.7797 12.5222C29.0533 11.343 29.5231 10.6168 30.3032 10.168C30.499 10.058 30.7055 9.96725 30.9195 9.89706C33.6648 8.97827 36.395 8.13146 39.108 7.33123C39.4133 7.24433 39.707 7.12209 39.9829 6.9671C40.6294 6.60086 41.1896 6.02291 41.7585 5.07237C42.6636 3.53754 43.797 2.39646 44.9434 1.76136C45.5923 1.36698 46.3356 1.14789 47.0983 1.12625L47.0962 1.12414ZM58.1787 7.01368C58.0887 6.96751 57.995 6.92857 57.8986 6.89724C57.995 6.92857 58.0887 6.96751 58.1787 7.01368ZM49.8997 16.5784L49.8393 16.5339L49.8997 16.5784ZM50.0397 16.7202C50.025 16.6997 50.0084 16.6806 49.9902 16.663C50.0084 16.6806 50.025 16.6997 50.0397 16.7202ZM50.1626 16.9044L50.1238 16.843L50.1626 16.9044ZM50.4211 17.4823C50.4082 17.4548 50.3931 17.4294 50.3824 17.3998C50.3931 17.4294 50.4082 17.4548 50.4211 17.4823ZM50.5526 17.7406C50.5353 17.7089 50.516 17.6792 50.5009 17.6475C50.516 17.6792 50.5353 17.7089 50.5526 17.7406ZM50.6905 17.9692C50.6711 17.9396 50.6496 17.91 50.6302 17.8782C50.6496 17.91 50.6711 17.9396 50.6905 17.9692ZM50.8413 18.1809L50.7745 18.0941L50.8413 18.1809ZM51.003 18.3672L50.9297 18.2868L51.003 18.3672ZM51.1775 18.5324L51.0978 18.4604L51.1775 18.5324ZM51.3628 18.6763L51.2788 18.6149L51.3628 18.6763ZM60.4586 26.7972C60.3853 26.7845 60.3142 26.776 60.2431 26.7676C60.3157 26.7708 60.3879 26.7807 60.4586 26.7972ZM59.5234 26.7718C59.4508 26.7718 59.3784 26.7803 59.3079 26.7972L59.5234 26.7718ZM60.7991 26.8671C60.7107 26.8438 60.618 26.8226 60.5254 26.8057C60.618 26.8226 60.7107 26.8438 60.7991 26.8671ZM58.8941 26.8671C59.0019 26.8438 59.1096 26.8226 59.2109 26.8057C59.1075 26.8226 58.9954 26.8438 58.8941 26.8671ZM58.5731 26.9517C58.6636 26.9263 58.7541 26.9009 58.8446 26.8798C58.7541 26.9009 58.6636 26.9263 58.5731 26.9517ZM61.0641 26.9517C60.9995 26.9263 60.9348 26.9052 60.868 26.8861C60.9348 26.9052 60.9995 26.9263 61.0641 26.9517ZM61.3205 27.0618C61.2667 27.0364 61.2106 27.011 61.1568 26.9899C61.2106 27.011 61.2667 27.0364 61.3205 27.0618ZM58.2434 27.0618L58.4588 26.9899L58.2434 27.0618ZM57.9072 27.1931L58.1227 27.1084L57.9072 27.1931ZM57.7822 27.2481L57.556 27.354L57.7822 27.2481ZM57.1099 27.5869C57.222 27.5233 57.3254 27.4641 57.4461 27.4069C57.334 27.4641 57.2306 27.5233 57.1099 27.5869ZM39.5799 34.2766L39.4916 34.3084L39.5799 34.2766L39.7609 34.2089L39.5799 34.2766ZM39.4528 34.3211C39.3822 34.3443 39.3102 34.3634 39.2373 34.3782C39.3102 34.3634 39.3822 34.3443 39.4528 34.3211ZM39.0283 34.3973C38.9855 34.3953 38.9437 34.3845 38.9054 34.3655C38.9437 34.3845 38.9855 34.3953 39.0283 34.3973ZM39.1274 34.3973L39.2093 34.3846L39.1274 34.3973ZM49.6583 42.2705C49.6103 42.2328 49.5599 42.1982 49.5075 42.1668C49.5599 42.1982 49.6103 42.2328 49.6583 42.2705ZM49.9255 42.4949C49.8803 42.4504 49.8372 42.4039 49.7898 42.3636C49.8372 42.4039 49.8803 42.4504 49.9255 42.4949ZM50.1582 42.7659C50.1195 42.7129 50.0828 42.6579 50.0397 42.6092C50.0828 42.6579 50.1195 42.7129 50.1582 42.7659ZM50.3091 42.9903L50.3587 43.0855L50.3091 42.9903L50.2574 42.8992L50.3091 42.9903ZM50.5246 43.4518C50.4987 43.3798 50.4729 43.3036 50.4427 43.2401C50.4729 43.3078 50.4987 43.384 50.5246 43.4518ZM50.6496 43.8752C50.6302 43.7905 50.6108 43.7037 50.5871 43.6233C50.6108 43.7037 50.6302 43.7905 50.6496 43.8752ZM50.7358 44.3558C50.7228 44.2499 50.712 44.144 50.6927 44.0467C50.712 44.144 50.7228 44.2584 50.7358 44.3558ZM50.7767 44.9909C50.7801 44.8304 50.7737 44.6699 50.7573 44.5103C50.7702 44.6648 50.7767 44.8257 50.7767 44.9909ZM45.8894 52.6121C45.9368 52.591 45.9842 52.5761 46.0316 52.555C45.9842 52.5761 45.9368 52.591 45.8894 52.6121ZM43.7345 52.7561C43.685 52.737 43.6397 52.7116 43.5923 52.6904C43.6397 52.7116 43.685 52.737 43.7345 52.7561ZM45.4304 52.7688C45.4865 52.7518 45.5403 52.7413 45.5964 52.7222C45.5403 52.7413 45.4865 52.7518 45.4304 52.7688ZM44.0642 52.8535C44.0104 52.8408 43.963 52.8238 43.9112 52.809C43.963 52.8238 44.0104 52.8408 44.0642 52.8535ZM45.0145 52.8535C45.0721 52.8512 45.1292 52.8427 45.1848 52.8281C45.1266 52.8408 45.0727 52.845 45.0145 52.8535ZM44.4155 52.8916C44.362 52.8883 44.3087 52.882 44.256 52.8725C44.3099 52.8725 44.3616 52.8894 44.4155 52.8916ZM30.607 53.0482C30.5574 53.0122 30.5079 52.9762 30.4562 52.9445C30.5079 52.9762 30.5574 53.0122 30.607 53.0482ZM30.872 53.2726C30.8268 53.2282 30.7837 53.1816 30.7363 53.1414C30.7837 53.1816 30.8268 53.2282 30.872 53.2726ZM31.1048 53.5457C31.0684 53.4906 31.0289 53.4376 30.9863 53.3869C31.0289 53.4376 31.0684 53.4906 31.1048 53.5457ZM31.3052 53.8654C31.2729 53.8019 31.2405 53.7384 31.2039 53.6791C31.2405 53.7384 31.2729 53.8019 31.3052 53.8654ZM31.4711 54.2338C31.4431 54.1597 31.4172 54.0856 31.3871 54.0221C31.4172 54.0898 31.4431 54.1639 31.4711 54.2338ZM31.5961 54.6572C31.5767 54.5704 31.5573 54.4836 31.5336 54.4031C31.5573 54.4836 31.5767 54.5704 31.5961 54.6572ZM31.6823 55.1335C31.6693 55.0298 31.6586 54.9218 31.6392 54.8265C31.6586 54.926 31.6693 55.0382 31.6823 55.1335ZM31.7275 55.7919C31.7318 55.6257 31.7239 55.4594 31.7038 55.2944C31.7189 55.4532 31.7275 55.6183 31.7275 55.7919ZM11.0838 62.7166C11.0786 62.6603 11.0693 62.6044 11.0557 62.5494C11.0609 62.6057 11.0702 62.6617 11.0838 62.7166ZM11.1225 62.9537L11.0967 62.8034L11.1225 62.9537ZM11.1635 63.1845C11.1586 63.1389 11.1507 63.0936 11.1398 63.049C11.1433 63.0948 11.1512 63.1402 11.1635 63.1845ZM11.2109 63.4153C11.2055 63.3708 11.1961 63.3269 11.1829 63.284C11.1868 63.3287 11.1962 63.3728 11.2109 63.4153ZM24.6487 63.519L24.5496 63.4724C24.5841 63.4894 24.6143 63.5063 24.6466 63.519H24.6487ZM11.2605 63.6439L11.2281 63.5105L11.2605 63.6439ZM11.323 63.8789C11.3079 63.8302 11.2949 63.7815 11.282 63.7307C11.2949 63.7815 11.3079 63.8302 11.323 63.8789ZM11.4091 64.1435C11.3854 64.0779 11.3617 64.0101 11.3423 63.9424C11.3617 64.0101 11.3854 64.0779 11.4091 64.1435ZM11.4867 64.334C11.4652 64.2832 11.4436 64.2303 11.4242 64.1774C11.4436 64.2303 11.4652 64.2832 11.4867 64.334ZM11.5772 64.5119C11.5557 64.4749 11.5363 64.4367 11.519 64.3976C11.5363 64.4367 11.5557 64.4749 11.5772 64.5119ZM11.6785 64.677C11.657 64.6452 11.6354 64.6135 11.616 64.5796C11.6354 64.6135 11.657 64.6452 11.6785 64.677ZM13.0813 65.5492C13.0598 65.5304 13.0367 65.5135 13.0124 65.4984C13.0339 65.5153 13.0598 65.5302 13.0813 65.5492ZM13.439 66.0806C13.4283 66.0509 13.4175 66.0192 13.4046 65.9917C13.4175 66.0192 13.4283 66.0509 13.439 66.0806ZM13.5295 66.3876C13.523 66.349 13.5144 66.3109 13.5037 66.2732C13.5144 66.3109 13.523 66.349 13.5295 66.3876ZM13.5813 66.7242C13.5837 66.6813 13.5786 66.6383 13.5662 66.5971C13.5662 66.6395 13.5662 66.6818 13.5813 66.7242ZM16.6326 76.4116L16.4623 76.2634L16.6326 76.4116ZM17.1929 76.8668L16.9774 76.7059L17.1929 76.8668ZM17.7553 77.2606C17.6799 77.2097 17.6023 77.1611 17.5269 77.1081C17.6023 77.1611 17.6799 77.2097 17.7553 77.2606ZM47.0962 0C46.1338 0.0185337 45.1937 0.288138 44.3724 0.781179C43.0083 1.55389 41.765 2.83469 40.7759 4.48384C40.3255 5.2375 39.9139 5.69689 39.414 5.97634C39.215 6.08642 39.0039 6.17378 38.7848 6.23673C35.8541 7.09836 33.1584 7.93035 30.5445 8.81526C30.264 8.9086 29.9928 9.02694 29.7343 9.1688C28.6741 9.77215 28.0104 10.7481 27.6677 12.2448C27.5126 12.9117 27.3747 13.6082 27.2368 14.4381C26.5752 18.4138 25.8706 22.47 25.1896 26.3907L24.9224 27.9235C24.7069 29.1937 24.5863 29.8118 24.36 30.1739C24.1337 30.5359 23.6424 30.8767 22.6598 31.5668L22.5025 31.6769C18.4346 34.5521 14.7963 37.9725 11.6936 41.8386C11.4076 42.2303 11.0556 42.5711 10.6528 42.8463C10.5337 42.921 10.3954 42.9606 10.2541 42.9606C10.2007 42.9607 10.1474 42.9565 10.0947 42.9479C9.88072 42.9159 9.66463 42.8996 9.4482 42.8992C8.48281 42.8992 7.44416 43.2104 6.36456 43.8223C4.10625 45.0925 1.96645 47.5524 0.783419 50.2178C0.479789 50.9415 0.29224 51.707 0.22746 52.4872C0.191226 52.8582 0.127852 53.2261 0.03783 53.5881C0.0112321 53.6833 -0.00253307 53.7815 -0.00311279 53.8802L-0.00311279 56.6323C-0.00309241 56.6904 0.00122876 56.7484 0.0098165 56.8059L0.0486044 57.0473C0.251163 58.3175 0.479581 59.7676 1.70355 60.4663L2.53749 60.9426C2.59168 61.2258 2.60618 61.515 2.58059 61.8021C2.3651 65.7567 3.25722 68.82 5.26342 70.9053C5.99643 71.6742 6.83915 72.3345 7.76524 72.8656L17.6324 78.499L17.7251 78.5456C19.4684 79.5173 21.4983 80.0106 23.7588 80.0106C24.4068 80.0099 25.0543 79.9731 25.6982 79.9005C29.4757 79.4771 33.417 78.1158 37.4121 75.8506C38.2741 75.3552 39.177 74.8069 40.0626 74.2226C46.3743 70.0542 51.4124 65.0729 55.4636 58.9801C60.1526 51.9389 62.1437 45.7106 61.5683 39.9418C61.5396 39.7853 61.5439 39.6247 61.5809 39.4699C61.618 39.3151 61.6871 39.1695 61.7838 39.042C63.3655 36.9801 63.7793 34.9033 63.9904 32.9662C63.9926 32.9253 63.9926 32.8843 63.9904 32.8434V30.339C63.9888 30.2255 63.9707 30.1129 63.9366 30.0045C63.8633 29.7264 63.8114 29.4434 63.7814 29.1577C63.6823 28.421 63.5659 27.5043 62.9044 26.8438C62.6495 26.5861 62.3594 26.3645 62.0424 26.1854L52.186 20.552C51.53 20.1847 50.7861 19.9962 50.0311 20.0058C48.8439 20.0414 47.6867 20.3807 46.6738 20.9902C45.3338 21.7838 44.157 22.8171 43.2044 24.0366C42.9684 24.361 42.6768 24.6425 42.3425 24.8686C42.2597 24.9235 42.1622 24.9529 42.0624 24.9533H41.9589C41.7822 24.9258 41.6012 24.9025 41.4137 24.8834L41.431 24.786C41.6637 23.4467 41.8957 22.1059 42.127 20.7637C42.2821 19.8576 42.4244 19.7772 42.558 19.7052C42.6992 19.6317 42.8471 19.5715 42.9997 19.5253C43.9177 19.2246 44.8551 18.9388 45.7623 18.6615C46.4497 18.4498 47.1565 18.2381 47.8654 18.0116L50.9405 19.7687L51.0245 19.8111C51.5439 20.0841 52.1249 20.2239 52.7139 20.2175C52.9763 20.2176 53.2381 20.1942 53.4962 20.1477C54.1657 20.0233 54.8081 19.7855 55.3946 19.4448C57.3642 18.327 59.1721 16.0576 60.1138 13.5172C61.3055 10.2972 60.812 7.30583 58.9178 6.1584L58.8446 6.11395L48.9817 0.48268C48.7918 0.37135 48.5902 0.280497 48.3805 0.211702C47.9631 0.0780479 47.5266 0.0108656 47.0875 0.0127021L47.0962 0Z"
        fill="black" />
    </g>
  </g>
  <defs>
    <clipPath id="clip0">
      <rect width="64" height="80" fill="white" />
    </clipPath>
    <clipPath id="clip1">
      <rect width="63.9978" height="80.0106" fill="white" />
    </clipPath>
  </defs>
</svg>
