<svg viewBox="0 0 64 73" fill="none" xmlns="http://www.w3.org/2000/svg">
  <g clip-path="url(#clip0)">
    <path
      d="M53.114 0.955948L61.434 5.31839C61.2071 6.17548 60.9214 7.01602 60.5788 7.83406L62.9401 9.07372C61.4448 12.1922 59.6105 15.1376 57.47 17.8568C58.1994 33.5761 46.7231 57.5095 26.2759 68.1739C21.2362 70.8023 16.4754 72.0383 12.2525 72.0383C11.2928 72.0393 10.3343 71.9719 9.38432 71.8365L1.06614 67.4741C1.96066 67.1135 2.83638 66.7083 3.68996 66.2599C7.56825 64.2368 11.359 61.2103 14.7085 57.4586L9.70341 54.8375C8.49452 54.2032 7.56825 53.1307 7.03036 51.673C7.74982 51.4402 8.44774 51.1459 9.11629 50.7932C9.32597 50.6841 9.53566 50.5678 9.74352 50.4478L6.36119 48.672C4.29532 47.5813 3.07913 45.2529 3.13931 42.141C3.27059 42.141 3.40187 42.1519 3.53498 42.1519C4.82227 42.1519 6.27002 41.8247 7.79252 41.1268L6.39765 40.3997C2.91685 38.582 2.17475 33.278 4.67458 27.4941L8.98683 29.7426C10.9095 30.3806 12.9247 30.6976 14.951 30.6805C18.7327 30.6805 22.952 29.6826 27.4137 27.5905C25.7928 21.2831 30.9985 11.6712 38.1041 7.95948C39.8782 7.03428 41.5685 6.59622 43.06 6.59622C44.0621 6.58014 45.053 6.80852 45.9464 7.26149L46.1488 7.36874C48.7024 5.49113 51.0412 3.3394 53.1231 0.952313L53.114 0.955948ZM50.4118 11.0241L50.5467 11.0096L50.4118 11.0241ZM50.2896 11.0386L50.1529 11.0586L50.2896 11.0386ZM49.8903 11.1004L50.0289 11.0768L49.8903 11.1004ZM49.6241 11.1513L49.7645 11.1241L49.6241 11.1513ZM49.3561 11.2113L49.4983 11.1786L49.3561 11.2113ZM49.0862 11.2786L49.2302 11.2404L49.0862 11.2786ZM48.8109 11.3549L48.9586 11.3113L48.8109 11.3549ZM48.5355 11.4385L48.6832 11.3913L48.5355 11.4385ZM48.2566 11.5312L48.4079 11.4785L48.2566 11.5312ZM47.9758 11.6312L48.1289 11.5749L47.9758 11.6312ZM47.8481 11.6803L47.6895 11.7421L47.8481 11.6803ZM47.4014 11.8621L47.5637 11.793L47.4014 11.8621ZM47.1097 11.9911L47.2792 11.9148L47.1097 11.9911ZM46.8015 12.1365L46.993 12.0438L46.8015 12.1365ZM46.4132 12.331L46.7049 12.182L46.4132 12.331ZM12.7521 32.431C12.8049 32.2964 12.8615 32.1619 12.918 32.0274C12.8615 32.1619 12.8049 32.2964 12.7521 32.431ZM34.6506 32.431L34.915 32.3164L34.6506 32.431ZM12.5314 33.0053C12.5789 32.8763 12.6281 32.7454 12.6791 32.6145C12.6281 32.7454 12.5789 32.8763 12.5314 33.0053ZM33.801 32.7872L34.1109 32.66L33.801 32.7872ZM32.9877 33.1053L33.3105 32.9817L32.9877 33.1053ZM15.3011 33.2689L15.1006 33.1689L15.3011 33.2689ZM12.3254 33.5852L12.4457 33.2216L12.3254 33.5852ZM32.5064 33.2816L32.1836 33.3961L32.5064 33.2816ZM15.8773 33.5416L15.6549 33.4398L15.8773 33.5416ZM31.4051 33.6633L31.715 33.5597L31.4051 33.6633ZM16.4535 33.7851L16.2219 33.6888L16.4535 33.7851ZM12.2598 33.8179C12.2233 33.9324 12.1887 34.0487 12.1558 34.1632C12.1887 34.0487 12.2233 33.9324 12.2598 33.8179ZM30.632 33.9051L30.9109 33.8197L30.632 33.9051ZM17.0297 34.0087C16.9513 33.9814 16.8747 33.9505 16.7963 33.9215C16.8747 33.9505 16.9513 33.9814 17.0297 34.0087ZM29.8643 34.1232L30.0321 34.076L29.8643 34.1232ZM17.6186 34.2087L17.3962 34.1341L17.6186 34.2087ZM28.9016 34.3613L29.104 34.3159L28.9016 34.3613ZM18.2185 34.3868L18.0362 34.3341L18.2185 34.3868ZM12.0008 34.7503C12.03 34.6291 12.061 34.508 12.0938 34.3868C12.061 34.508 12.03 34.6291 12.0008 34.7503ZM28.3509 34.4886L28.0774 34.5449L28.3509 34.4886ZM18.915 34.5667L18.8293 34.5486L18.915 34.5667ZM27.3025 34.6885L27.5997 34.6358L27.3025 34.6885ZM19.6626 34.7231L19.4475 34.6831L19.6626 34.7231ZM26.5586 34.8067L26.8576 34.7612L26.5586 34.8067ZM20.3336 34.8358L20.082 34.7976L20.3336 34.8358ZM25.8274 34.8994L26.121 34.8648L25.8274 34.8994ZM20.9955 34.9212L20.7293 34.8903L20.9955 34.9212ZM25.109 34.9703L25.3807 34.9448L25.109 34.9703ZM11.8513 35.3592C11.8805 35.2302 11.9079 35.0993 11.9407 34.9666C11.9079 35.0993 11.8805 35.2302 11.8513 35.3592ZM21.6574 34.9957C21.5662 34.9957 21.475 34.9812 21.3875 34.9739C21.4769 34.9739 21.5698 34.9903 21.6574 34.9957ZM24.3924 35.0284L24.6057 35.0157L24.3924 35.0284ZM22.3247 35.0284L22.0622 35.0139L22.3247 35.0284ZM23.0067 35.0484H22.7714H23.0067ZM11.7091 36.0645C11.7407 35.884 11.7754 35.7022 11.813 35.5192C11.7754 35.7022 11.7407 35.884 11.7091 36.0645ZM11.6289 36.6098C11.6489 36.4644 11.6708 36.3153 11.6945 36.1663C11.6708 36.3153 11.6489 36.4644 11.6289 36.6098ZM11.5687 37.1406C11.5796 37.0267 11.5924 36.9122 11.607 36.797C11.5924 36.9109 11.5796 37.0255 11.5687 37.1406ZM11.5523 37.346C11.5432 37.4514 11.5359 37.5586 11.5304 37.6641C11.5304 37.5586 11.5432 37.4514 11.5523 37.346ZM11.5213 37.8695C11.5213 37.9731 11.5213 38.0767 11.5213 38.1785C11.5213 38.0767 11.5213 37.9731 11.5213 37.8695ZM11.5213 38.6947C11.5213 38.5893 11.5213 38.4838 11.5213 38.3784C11.5213 38.4838 11.5213 38.5893 11.5213 38.6947ZM11.5505 39.24C11.5395 39.1182 11.5322 38.9964 11.5268 38.8765C11.5268 38.9982 11.5395 39.12 11.5505 39.24ZM11.6106 39.8217C11.5906 39.669 11.5724 39.5127 11.5578 39.3545C11.5724 39.5127 11.5906 39.669 11.6106 39.8217ZM11.6854 40.2761C11.6635 40.1634 11.6453 40.0507 11.6289 39.9362C11.6453 40.0507 11.6635 40.1634 11.6854 40.2761ZM11.7802 40.716C11.7583 40.6233 11.7383 40.5342 11.7182 40.436C11.7383 40.5306 11.7583 40.6178 11.7802 40.716ZM11.8951 41.1431C11.8696 41.0577 11.8459 40.9723 11.8222 40.885C11.8459 40.9723 11.8696 41.0577 11.8951 41.1431ZM12.0337 41.5394C12.0045 41.4576 11.9753 41.374 11.948 41.2903C11.9753 41.374 12.0045 41.4576 12.0337 41.5394ZM12.1959 41.9483C12.1613 41.8647 12.1248 41.7811 12.092 41.6939C12.1248 41.7811 12.1613 41.8647 12.1959 41.9483ZM12.4093 42.3973C12.3546 42.2937 12.3035 42.1883 12.2543 42.081C12.3035 42.1883 12.3546 42.2937 12.4093 42.3973ZM12.6372 42.799C12.5679 42.6863 12.4986 42.57 12.4348 42.45C12.4986 42.57 12.5679 42.6863 12.6372 42.799ZM12.7065 42.9026C12.7557 42.9808 12.8068 43.0571 12.8596 43.1298C12.8068 43.0571 12.7557 42.9808 12.7065 42.9026ZM13.1022 43.4479C13.0493 43.3861 13 43.3207 12.949 43.2553C13 43.3207 13.0493 43.3861 13.1022 43.4479ZM13.3228 43.697C13.2827 43.6533 13.2426 43.6115 13.2043 43.5679L13.3173 43.6933L13.3228 43.697ZM11.463 47.2105C11.463 47.1542 11.463 47.0978 11.463 47.0397C11.463 47.0978 11.463 47.1542 11.463 47.2105ZM11.5031 47.7558C11.5031 47.6922 11.4885 47.6286 11.483 47.5632C11.483 47.6286 11.4958 47.6922 11.5031 47.7558ZM11.5669 48.2648C11.5559 48.2012 11.5468 48.1357 11.5377 48.0703C11.5468 48.1357 11.5559 48.2012 11.5669 48.2648ZM11.6544 48.7483C11.6416 48.6883 11.6307 48.6265 11.6179 48.5665C11.6307 48.6265 11.6416 48.6883 11.6544 48.7483ZM11.7346 49.0882C11.7346 49.0773 11.7346 49.0664 11.7346 49.0573C11.7346 49.0482 11.7346 49.0773 11.7346 49.0882ZM15.4671 56.3589C15.4233 56.2547 15.3814 56.1493 15.3412 56.0427L11.1822 53.8614L15.3412 56.0427C15.3814 56.1505 15.4233 56.2559 15.4671 56.3589ZM15.5327 56.508C15.5327 56.4898 15.5145 56.4716 15.5072 56.4535C15.5072 56.4716 15.5236 56.4898 15.5309 56.5098L15.5327 56.508ZM53.1158 -0.000153342C52.9595 -0.0021641 52.8046 0.029243 52.6615 0.0919524C52.5184 0.154662 52.3904 0.247217 52.2862 0.363383C50.4006 2.52284 48.301 4.48683 46.0193 6.22541C45.0803 5.83055 44.0699 5.63255 43.0509 5.64375C41.3096 5.64375 39.4643 6.14725 37.5662 7.13607C30.3548 10.8969 25.0415 20.3634 26.214 27.0633C22.2445 28.8283 18.4592 29.7244 14.951 29.7244C13.0833 29.7384 11.2257 29.4511 9.44996 28.8738L5.207 26.6525C4.93489 26.5128 4.61854 26.4853 4.32631 26.5762C4.18624 26.618 4.0568 26.6894 3.94671 26.7853C3.83662 26.8813 3.74845 26.9996 3.68814 27.1324C2.40084 30.1134 1.90124 33.0217 2.24221 35.541C2.56859 37.9531 3.68267 39.8526 5.40027 40.9523C4.79057 41.1076 4.16425 41.1887 3.53498 41.194C3.42375 41.194 3.31253 41.194 3.20312 41.194H3.13931C2.87719 41.1915 2.62266 41.2817 2.4209 41.4485C2.31786 41.5313 2.23414 41.6355 2.17558 41.7539C2.11701 41.8722 2.08499 42.0018 2.08176 42.1338C2.01611 45.5365 3.38181 48.2248 5.82876 49.5081L7.60107 50.4387C7.28989 50.5696 6.98174 50.6835 6.67663 50.7805C6.55209 50.8131 6.43561 50.8709 6.33443 50.9503C6.23325 51.0297 6.14954 51.129 6.08849 51.242C6.02744 51.3551 5.99036 51.4794 5.97955 51.6073C5.96875 51.7352 5.98445 51.864 6.02569 51.9856C6.63651 53.6379 7.72324 54.9139 9.17099 55.6737L13.0949 57.7168C10.028 60.9777 6.61828 63.6333 3.15936 65.4365C2.33653 65.8669 1.49246 66.2558 0.63036 66.6016C0.4577 66.6645 0.306632 66.7753 0.194885 66.9208C0.0831386 67.0663 0.0153507 67.2406 -0.000523355 67.4232C-0.00813901 67.6048 0.0374633 67.7847 0.130716 67.941C0.223968 68.0972 0.360836 68.223 0.524605 68.3029L8.84278 72.6654C8.95695 72.7242 9.08022 72.7635 9.20745 72.7817C10.2124 72.925 11.2264 72.996 12.2415 72.9944C16.8182 72.9944 21.723 71.6511 26.7938 68.9955C31.9242 66.287 36.5995 62.7975 40.6513 58.6529C44.5768 54.672 47.9707 50.203 50.7491 45.3565C56.004 36.2154 58.8321 26.3235 58.5349 18.1494C60.6335 15.4525 62.4362 12.539 63.912 9.45907C64.014 9.24089 64.025 8.99128 63.9426 8.76501C63.8602 8.53873 63.6912 8.35428 63.4725 8.25213L61.8716 7.41236C62.1007 6.80174 62.2985 6.1799 62.4642 5.54923C62.5131 5.34409 62.4902 5.12846 62.3993 4.93805C62.3085 4.74765 62.1551 4.59389 61.9646 4.50225L53.6464 0.139808C53.4827 0.0545508 53.3006 0.0102604 53.1158 0.0107527V-0.000153342Z"
      fill="black" />
    <path
      d="M56.6118 14.178L48.2936 9.81559C50.5715 8.33828 52.6921 6.63293 54.6225 4.72607L62.9407 9.08852C61.0102 10.9953 58.8896 12.7006 56.6118 14.178Z"
      fill="#2183A5" />
    <path
      d="M54.4547 11.7424L46.131 7.37636C48.6878 5.49784 51.0297 3.3449 53.1145 0.956299L61.4345 5.31874C59.3501 7.70752 57.0095 9.86159 54.4547 11.7424Z"
      fill="#5CD6F7" />
    <path
      d="M9.37756 71.8423L1.05939 67.4799C1.95649 67.1178 2.83465 66.7107 3.6905 66.2602C8.62452 63.6864 13.4181 59.4875 17.3402 54.238L25.6584 58.6005C21.7363 63.8499 16.9427 68.0524 12.0087 70.6226C11.153 71.0735 10.2748 71.4806 9.37756 71.8423Z"
      fill="#44BFEA" />
    <path
      d="M15.3491 56.041L7.03088 51.6786C7.75053 51.4441 8.44845 51.1479 9.11681 50.7934C10.1376 50.2548 11.1031 49.618 11.9995 48.8921L20.3195 53.2545C19.422 53.9804 18.456 54.6178 17.435 55.1577C16.7662 55.5108 16.0684 55.8064 15.3491 56.041Z"
      fill="#44BFEA" />
    <path
      d="M18.0221 59.204L9.70393 54.8416C8.49504 54.2072 7.56878 53.1348 7.03088 51.677L15.3491 56.0395C15.887 57.4972 16.8132 58.5697 18.0221 59.204Z"
      fill="#2183A5" />
    <path
      d="M45.9378 7.26569L54.256 11.6281C52.2631 10.583 49.466 10.7356 46.4155 12.3279C39.3044 16.0324 34.1042 25.6461 35.7252 31.9589L27.407 27.5965C25.786 21.2891 30.9917 11.6772 38.0974 7.9655C41.1479 6.37321 43.9431 6.22052 45.9378 7.26569Z"
      fill="#5CD6F7" />
    <path
      d="M11.458 46.5075L3.13983 42.1451C4.61493 42.2232 6.3216 41.8579 8.12673 40.9727L16.4449 45.3351C14.6398 46.2221 12.9331 46.5875 11.458 46.5075Z"
      fill="#44BFEA" />
    <path
      d="M14.6799 53.0384L6.36171 48.676C4.29584 47.5853 3.07966 45.2569 3.13983 42.145L11.458 46.5075C11.3997 49.6193 12.614 51.9532 14.6799 53.0384Z"
      fill="#2183A5" />
    <path
      d="M15.05 33.1456L6.73187 28.7831C12.0689 31.5842 19.3386 31.3769 27.4051 27.5925L35.7233 31.955C27.6568 35.7394 20.387 35.9484 15.05 33.1456Z"
      fill="#44BFEA" />
    <path
      d="M14.7163 44.7604L6.39815 40.398C2.91735 38.5803 2.17524 33.2763 4.67507 27.4924L12.9932 31.8549C10.4934 37.6387 11.2355 42.9355 14.7163 44.7604Z"
      fill="#2183A5" />
    <path
      d="M12.2457 72.3859C11.266 72.3872 10.2874 72.3185 9.31742 72.1805C9.24148 72.1719 9.17016 72.1397 9.11356 72.0885C9.05696 72.0373 9.01793 71.9697 9.00198 71.8951C8.99128 71.8183 9.00758 71.7401 9.04813 71.6738C9.08867 71.6075 9.15096 71.5573 9.22443 71.5316C10.0851 71.1881 10.9566 70.7845 11.8191 70.3356C16.3592 67.9726 20.8265 64.1554 24.5151 59.4967C23.3685 59.9542 22.1472 60.1976 20.9122 60.2147C18.1024 60.2147 15.9453 58.7333 14.9899 56.1485C14.9754 56.105 14.97 56.059 14.974 56.0133C14.9781 55.9676 14.9914 55.9233 15.0133 55.8829C15.0351 55.8426 15.065 55.8071 15.1012 55.7787C15.1373 55.7503 15.1788 55.7296 15.2233 55.7178C15.9208 55.4909 16.5979 55.2057 17.2472 54.8653C17.766 54.5927 18.27 54.293 18.757 53.9673C18.3625 54.0225 17.9647 54.0504 17.5663 54.0509C15.8779 54.0509 14.3918 53.5056 13.2705 52.4768C11.8118 51.1354 11.0332 49.0141 11.0824 46.5021C11.0839 46.455 11.0954 46.4088 11.1162 46.3665C11.1369 46.3242 11.1664 46.2868 11.2028 46.2567C11.2754 46.1978 11.3662 46.1657 11.4599 46.1658H11.4872C11.6094 46.1658 11.7352 46.1749 11.8519 46.1749C13.0681 46.1506 14.2685 45.8958 15.3892 45.4242C14.0917 44.992 12.9922 44.1113 12.2895 42.9413C10.6394 40.2511 10.7706 36.0559 12.6414 31.7207C12.665 31.6682 12.7008 31.622 12.7458 31.586C12.7909 31.55 12.8438 31.5251 12.9003 31.5135C12.9308 31.5063 12.962 31.5026 12.9933 31.5026C13.0808 31.5018 13.1661 31.5299 13.2358 31.5825C15.9927 33.6547 19.3641 34.7053 23.2643 34.7053C27.0241 34.7053 31.0719 33.7183 35.2985 31.7698C33.8307 25.2788 39.0692 15.7742 46.2387 12.0334C48.0073 11.11 49.7851 10.6228 51.3824 10.6228C52.4422 10.6061 53.4903 10.8462 54.4365 11.3226C56.8857 9.49622 59.1321 7.41405 61.1374 5.11162C61.1746 5.0698 61.2204 5.03646 61.2716 5.01388C61.3229 4.9913 61.3785 4.98 61.4346 4.98075C61.491 4.98151 61.5467 4.99324 61.5987 5.01528C61.6751 5.04327 61.7388 5.09789 61.778 5.16905C61.8173 5.24021 61.8293 5.32312 61.812 5.40245C61.115 7.95475 59.9624 10.361 58.4096 12.506C59.9139 11.3876 61.3378 10.1655 62.6708 8.84878C62.7347 8.78832 62.8166 8.75028 62.9041 8.74044C62.9917 8.7306 63.08 8.74949 63.1558 8.79425C63.2291 8.83305 63.2846 8.89853 63.3108 8.97706C63.3369 9.05559 63.3317 9.14115 63.2962 9.21595C61.8087 12.3221 59.9842 15.2564 57.8553 17.9663C58.5299 34.0473 46.762 57.8862 26.457 68.4761C21.4829 71.0699 16.702 72.3859 12.2457 72.3859Z"
      fill="#2DAAE1" />
    <path
      d="M61.4345 5.32407C60.6268 8.42322 58.8818 11.586 56.6117 14.178C58.8896 12.7006 61.0102 10.9953 62.9406 9.0885C61.4454 12.207 59.611 15.1524 57.4705 17.8715C58.1999 33.5909 46.7236 57.5243 26.2765 68.1887C21.2367 70.817 16.4759 72.0531 12.253 72.0531C11.2933 72.055 10.3347 71.9876 9.38484 71.8513C10.2819 71.4925 11.1601 71.0885 12.016 70.6407C16.95 68.0669 21.7454 63.868 25.6656 58.6186C23.9626 59.4747 22.3526 59.8819 20.9249 59.8819C18.3011 59.8819 16.2735 58.5186 15.3618 56.0502C16.081 55.8167 16.7788 55.5224 17.4478 55.1704C18.4687 54.6305 19.4348 53.9932 20.3323 53.2673C19.443 53.5567 18.5145 53.7087 17.579 53.7181C13.8101 53.7181 11.3887 50.8825 11.4708 46.5164C11.6021 46.5164 11.7333 46.5273 11.8664 46.5273C13.2485 46.5273 14.813 46.1529 16.4577 45.3458C11.5346 44.5042 10.1361 38.5077 13.006 31.855C15.7958 33.9526 19.293 35.0577 23.2697 35.0577C27.0532 35.0577 31.2725 34.058 35.7361 31.9677C34.1151 25.6621 39.3208 16.0484 46.4264 12.3367C48.2006 11.4115 49.8908 10.9716 51.3823 10.9716C52.4617 10.9514 53.5269 11.2194 54.4675 11.7478C57.022 9.86863 59.3625 7.7164 61.4473 5.32953L61.4345 5.32407ZM61.4473 4.64608H61.3944C61.2659 4.65431 61.141 4.69228 61.0297 4.75696C60.9731 4.79082 60.921 4.83174 60.8747 4.87874L60.8492 4.90601C58.9108 7.12693 56.7472 9.14196 54.3927 10.9189C53.4456 10.4827 52.4128 10.2629 51.3696 10.2754C49.683 10.2754 47.8888 10.7644 46.0362 11.7296C38.8467 15.4795 33.5663 24.9641 34.8681 31.5751C30.7856 33.42 26.8818 34.3561 23.257 34.3561C19.4553 34.3561 16.1641 33.3328 13.4783 31.3115C13.3381 31.2077 13.1679 31.1522 12.9933 31.1534C12.9319 31.1539 12.8707 31.1612 12.8109 31.1752C12.6982 31.1987 12.5927 31.2486 12.503 31.3206C12.4133 31.3926 12.342 31.4848 12.2949 31.5896C10.3822 36.0175 10.2601 40.3145 11.9649 43.101C12.5565 44.0822 13.4142 44.8768 14.4392 45.3931C13.6047 45.6722 12.732 45.8212 11.8519 45.8348C11.7352 45.8348 11.6166 45.8348 11.5018 45.8257H11.4562C11.2688 45.825 11.0871 45.8893 10.942 46.0075C10.8692 46.0676 10.8101 46.1424 10.7686 46.227C10.7271 46.3116 10.7042 46.4041 10.7013 46.4982C10.6521 49.1012 11.4671 51.3115 12.9987 52.7184C14.1529 53.7781 15.6663 54.3543 17.3858 54.3924C17.2764 54.4542 17.1651 54.5142 17.0557 54.5742C16.4267 54.9054 15.7703 55.1821 15.0938 55.4013C15.005 55.4251 14.9221 55.4667 14.8501 55.5236C14.7781 55.5805 14.7185 55.6514 14.6749 55.7321C14.6314 55.8128 14.6048 55.9015 14.5969 55.9927C14.589 56.084 14.5998 56.1759 14.6288 56.2628C15.639 58.9894 17.9273 60.5617 20.9103 60.5617C21.7767 60.5544 22.6382 60.4322 23.4721 60.1981C19.964 64.4006 15.825 67.8488 11.6203 70.0372C10.7706 70.4808 9.90997 70.877 9.06758 71.2169C8.92371 71.2681 8.80154 71.3665 8.72105 71.4959C8.64056 71.6254 8.60652 71.7782 8.6245 71.9295C8.6533 72.0815 8.73002 72.2204 8.84348 72.326C8.95694 72.4316 9.10124 72.4984 9.25539 72.5166C10.2447 72.6567 11.2428 72.7266 12.2421 72.7256C16.7658 72.7256 21.6105 71.3932 26.6466 68.7703C31.7521 66.0769 36.4048 62.6057 40.4367 58.4822C44.3422 54.5132 47.7183 50.0589 50.4816 45.2295C55.7329 36.0938 58.55 26.2111 58.2291 18.066C60.3421 15.361 62.1548 12.4356 63.6353 9.34116C63.7048 9.19113 63.7142 9.02033 63.6617 8.86361C63.6092 8.70688 63.4987 8.57604 63.3527 8.49775C63.2277 8.42487 63.0854 8.3866 62.9406 8.38687C62.7327 8.38521 62.5324 8.46482 62.3827 8.60863C61.5792 9.40114 60.7502 10.1537 59.8956 10.8662C60.8922 9.18645 61.6553 7.3795 62.1639 5.49494C62.1824 5.43614 62.1917 5.37481 62.1912 5.31317C62.1802 5.13245 62.1009 4.96261 61.9693 4.83783C61.8377 4.71305 61.6635 4.64259 61.4819 4.64062L61.4473 4.64608Z"
      fill="black" />
    <path
      d="M54.3927 11.6205C54.3292 11.62 54.2667 11.6044 54.2104 11.5751L45.2339 6.95997C45.192 6.94058 45.1546 6.91258 45.1243 6.8778C45.094 6.84302 45.0713 6.80224 45.0579 6.75814C45.0445 6.71404 45.0406 6.6676 45.0464 6.62188C45.0522 6.57616 45.0677 6.53218 45.0917 6.49282C45.1473 6.41249 45.2305 6.3552 45.3256 6.33177C45.4206 6.30833 45.521 6.32036 45.6077 6.36558L54.5805 10.9807C54.6227 10.9998 54.6603 11.0277 54.6908 11.0625C54.7213 11.0972 54.744 11.1381 54.7575 11.1822C54.7709 11.2264 54.7748 11.273 54.7688 11.3188C54.7628 11.3646 54.7471 11.4085 54.7228 11.4478C54.6869 11.5021 54.6378 11.5465 54.5801 11.5767C54.5224 11.6069 54.4579 11.622 54.3927 11.6205Z"
      fill="black" />
    <path
      d="M30.5304 29.5717C30.4629 29.5716 30.3964 29.5548 30.3371 29.5227L26.6648 27.5432C26.6233 27.5231 26.5866 27.4944 26.5571 27.459C26.5275 27.4237 26.5058 27.3825 26.4934 27.3382C26.481 27.2938 26.4782 27.2474 26.4851 27.2019C26.492 27.1564 26.5085 27.1129 26.5336 27.0742C26.5909 26.9948 26.6753 26.939 26.771 26.9173C26.8667 26.8955 26.967 26.9093 27.0532 26.9561L30.7236 28.9301C30.7653 28.9501 30.8022 28.9787 30.8319 29.0139C30.8617 29.0492 30.8836 29.0904 30.8962 29.1347C30.9087 29.179 30.9117 29.2255 30.9049 29.2711C30.8981 29.3167 30.8817 29.3603 30.8568 29.3991C30.8209 29.4525 30.7723 29.4962 30.7154 29.5264C30.6584 29.5565 30.5948 29.5721 30.5304 29.5717Z"
      fill="black" />
    <path
      d="M35.2784 32.0877C35.2147 32.0867 35.1522 32.0705 35.0961 32.0404L31.7064 30.2409C31.6646 30.2211 31.6275 30.1926 31.5976 30.1574C31.5677 30.1222 31.5456 30.0811 31.5329 30.0367C31.5201 29.9924 31.5169 29.9458 31.5236 29.9002C31.5303 29.8545 31.5466 29.8108 31.5715 29.7719C31.6283 29.6924 31.7122 29.6362 31.8076 29.6141C31.903 29.592 32.0032 29.6055 32.0893 29.652L35.479 31.4515C35.5208 31.4713 35.5579 31.4997 35.5878 31.5349C35.6177 31.5701 35.6398 31.6113 35.6525 31.6556C35.6653 31.7 35.6685 31.7465 35.6618 31.7922C35.6551 31.8378 35.6388 31.8815 35.6139 31.9204C35.5766 31.9742 35.5263 32.0176 35.4676 32.0469C35.409 32.0761 35.3439 32.0901 35.2784 32.0877Z"
      fill="black" />
    <path
      d="M16.2152 58.7221C16.1592 58.7222 16.1039 58.7105 16.0529 58.6876L9.62737 55.8993C9.58347 55.8836 9.54341 55.8589 9.50986 55.8266C9.47632 55.7944 9.45004 55.7554 9.43279 55.7122C9.41554 55.669 9.40771 55.6227 9.40982 55.5763C9.41193 55.5299 9.42393 55.4844 9.44503 55.443C9.49475 55.3591 9.57375 55.2964 9.66692 55.2669C9.7601 55.2374 9.86092 55.2431 9.9501 55.2831L16.3811 58.0805C16.4248 58.0963 16.4647 58.1212 16.498 58.1535C16.5314 58.1858 16.5576 58.2248 16.5748 58.2679C16.592 58.3109 16.5999 58.3572 16.598 58.4035C16.596 58.4498 16.5842 58.4952 16.5634 58.5367C16.5276 58.5961 16.4763 58.6447 16.415 58.6773C16.3537 58.71 16.2846 58.7255 16.2152 58.7221Z"
      fill="black" />
    <path
      d="M14.7163 56.05C14.6526 56.049 14.5901 56.0328 14.534 56.0027L6.84123 51.9693C6.79939 51.9498 6.76218 51.9217 6.73205 51.8868C6.70192 51.8519 6.67957 51.811 6.66647 51.7668C6.65338 51.7227 6.64983 51.6762 6.65607 51.6306C6.6623 51.585 6.67818 51.5412 6.70266 51.5022C6.75861 51.4217 6.84236 51.3646 6.93789 51.3418C7.03343 51.319 7.13404 51.3321 7.22049 51.3786L14.906 55.412C14.9479 55.4314 14.9851 55.4596 15.0152 55.4945C15.0453 55.5295 15.0676 55.5704 15.0805 55.6147C15.0935 55.6589 15.0968 55.7054 15.0903 55.751C15.0838 55.7966 15.0675 55.8403 15.0427 55.8791C15.0069 55.9325 14.9583 55.976 14.9013 56.0059C14.8443 56.0357 14.7807 56.0509 14.7163 56.05Z"
      fill="black" />
    <path
      d="M11.0496 46.7252C10.9858 46.7236 10.9232 46.7068 10.8673 46.6761L2.94657 42.4355C2.90508 42.4153 2.86834 42.3866 2.83879 42.3513C2.80924 42.3159 2.78754 42.2747 2.77513 42.2304C2.76273 42.1861 2.75989 42.1397 2.76681 42.0942C2.77374 42.0487 2.79026 42.0052 2.81529 41.9665C2.87204 41.8869 2.95602 41.8308 3.05141 41.8087C3.1468 41.7866 3.247 41.8001 3.33312 41.8465L11.2447 46.0835C11.2862 46.1037 11.3229 46.1324 11.3525 46.1677C11.382 46.2031 11.4037 46.2443 11.4161 46.2886C11.4285 46.3329 11.4314 46.3794 11.4244 46.4248C11.4175 46.4703 11.401 46.5139 11.376 46.5525C11.3401 46.6059 11.2915 46.6497 11.2346 46.6798C11.1776 46.7099 11.1141 46.7255 11.0496 46.7252Z"
      fill="black" />
    <path
      d="M12.9185 31.8422C12.851 31.8421 12.7846 31.8253 12.7252 31.7932L4.46722 27.3289C4.42588 27.3086 4.38932 27.2798 4.35996 27.2444C4.33059 27.209 4.30908 27.1677 4.29685 27.1234C4.28462 27.0791 4.28195 27.0327 4.289 26.9873C4.29605 26.9419 4.31267 26.8985 4.33776 26.86C4.39478 26.7807 4.47888 26.725 4.57425 26.7032C4.66962 26.6814 4.76968 26.6952 4.8556 26.7418L13.1136 31.206C13.1549 31.2264 13.1915 31.2552 13.2209 31.2906C13.2502 31.326 13.2717 31.3672 13.284 31.4115C13.2962 31.4559 13.2989 31.5022 13.2918 31.5476C13.2848 31.5931 13.2682 31.6365 13.2431 31.675C13.2071 31.7275 13.1586 31.7703 13.102 31.7995C13.0453 31.8287 12.9823 31.8434 12.9185 31.8422Z"
      fill="black" />
    <path d="M5.80427 40.0752L5.44684 40.7688L15.2121 45.7697L15.5696 45.0761L5.80427 40.0752Z" fill="black" />
    <path d="M8.12268 49.6902L7.7804 50.3914L13.5023 53.1673L13.8446 52.4661L8.12268 49.6902Z" fill="black" />
  </g>
  <defs>
    <clipPath id="clip0">
      <rect width="64" height="73" fill="white" />
    </clipPath>
  </defs>
</svg>
